  0
SECTION
  2
HEADER
  9
$ACADVER
  1
AC1003
  9
$INSBASE
 10
0.0
 20
0.0
  9
$EXTMIN
 10
166.7723800140584
 20
99.17160596386566
  9
$EXTMAX
 10
1934.598379630741
 20
2275.359627748003
  9
$LIMMIN
 10
0.0
 20
0.0
  9
$LIMMAX
 10
420.0
 20
297.0
  9
$ORTHOMODE
 70
     0
  9
$REGENMODE
 70
     1
  9
$FILLMODE
 70
     1
  9
$QTEXTMODE
 70
     0
  9
$DRAGMODE
 70
     2
  9
$LTSCALE
 40
1.0
  9
$OSMODE
 70
    37
  9
$ATTMODE
 70
     1
  9
$TEXTSIZE
 40
2.5
  9
$TRACEWID
 40
1.0
  9
$TEXTSTYLE
  7
STANDARD
  9
$CLAYER
  8
0
  9
$CELTYPE
  6
BYLAYER
  9
$CECOLOR
 62
   256
  9
$DIMSCALE
 40
1.0
  9
$DIMASZ
 40
0.18
  9
$DIMEXO
 40
0.0625
  9
$DIMDLI
 40
0.38
  9
$DIMRND
 40
0.0
  9
$DIMDLE
 40
0.0
  9
$DIMEXE
 40
0.18
  9
$DIMTP
 40
0.0
  9
$DIMTM
 40
0.0
  9
$DIMTXT
 40
0.18
  9
$DIMCEN
 40
0.09
  9
$DIMTSZ
 40
0.0
  9
$DIMTOL
 70
     0
  9
$DIMLIM
 70
     0
  9
$DIMTIH
 70
     1
  9
$DIMTOH
 70
     1
  9
$DIMSE1
 70
     0
  9
$DIMSE2
 70
     0
  9
$DIMTAD
 70
     0
  9
$DIMZIN
 70
     0
  9
$DIMBLK
  1

  9
$DIMASO
 70
     1
  9
$DIMSHO
 70
     1
  9
$DIMPOST
  1

  9
$DIMAPOST
  1

  9
$DIMALT
 70
     0
  9
$DIMALTD
 70
     2
  9
$DIMALTF
 40
25.4
  9
$DIMLFAC
 40
1.0
  9
$DIMTOFL
 70
     0
  9
$DIMTVP
 40
0.0
  9
$DIMTIX
 70
     0
  9
$DIMSOXD
 70
     0
  9
$DIMSAH
 70
     0
  9
$DIMBLK1
  1

  9
$DIMBLK2
  1

  9
$LUNITS
 70
     2
  9
$LUPREC
 70
     4
  9
$SKETCHINC
 40
1.0
  9
$FILLETRAD
 40
0.0
  9
$AUNITS
 70
     0
  9
$AUPREC
 70
     0
  9
$MENU
  1
.
  9
$ELEVATION
 40
0.0
  9
$THICKNESS
 40
0.0
  9
$LIMCHECK
 70
     0
  9
$CHAMFERA
 40
0.0
  9
$CHAMFERB
 40
0.0
  9
$SKPOLY
 70
     0
  9
$TDCREATE
 40
2457619.479474294
  9
$TDUPDATE
 40
2461129.415028495
  9
$TDINDWG
 40
0.0679616204
  9
$TDUSRTIMER
 40
0.0679615972
  9
$USRTIMER
 70
     1
  9
$ANGBASE
 50
0.0
  9
$ANGDIR
 70
     0
  9
$PDMODE
 70
     0
  9
$PDSIZE
 40
0.0
  9
$PLINEWID
 40
0.0
  9
$COORDS
 70
     1
  9
$SURFTAB1
 70
     6
  9
$SURFTAB2
 70
     6
  9
$SURFTYPE
 70
     6
  9
$SURFU
 70
     6
  9
$SURFV
 70
     6
  9
$UCSNAME
  2

  9
$UCSORG
 10
0.0
 20
0.0
 30
0.0
  9
$UCSXDIR
 10
1.0
 20
0.0
 30
0.0
  9
$UCSYDIR
 10
0.0
 20
1.0
 30
0.0
  9
$USERI1
 70
     0
  9
$USERI2
 70
     0
  9
$USERI3
 70
     0
  9
$USERI4
 70
     0
  9
$USERI5
 70
     0
  9
$USERR1
 40
0.0
  9
$USERR2
 40
0.0
  9
$USERR3
 40
0.0
  9
$USERR4
 40
0.0
  9
$USERR5
 40
0.0
  9
$WORLDVIEW
 70
     1
  0
ENDSEC
  0
SECTION
  2
TABLES
  0
TABLE
  2
LTYPE
 70
     1
  0
LTYPE
  2
CONTINUOUS
 70
     0
  3
Solid line
 72
    65
 73
     0
 40
0.0
  0
ENDTAB
  0
TABLE
  2
LAYER
 70
     3
  0
LAYER
  2
0
 70
     0
 62
     2
  6
CONTINUOUS
  0
LAYER
  2
KADRBM
 70
     0
 62
     7
  6
CONTINUOUS
  0
LAYER
  2
1
 70
     0
 62
     5
  6
CONTINUOUS
  0
ENDTAB
  0
TABLE
  2
STYLE
 70
     3
  0
STYLE
  2
STANDARD
 70
     0
 40
0.0
 41
1.0
 50
0.0
 71
     0
 42
2.5
  3

  4

  0
STYLE
  2
ANNOTATIVE
 70
     0
 40
0.0
 41
1.0
 50
0.0
 71
     0
 42
2.5
  3

  4

  0
STYLE
  2
BMMM
 70
     0
 40
0.0
 41
1.0
 50
0.0
 71
     0
 42
0.2
  3

  4

  0
ENDTAB
  0
TABLE
  2
VIEW
 70
     0
  0
ENDTAB
  0
ENDSEC
  0
SECTION
  2
BLOCKS
  0
BLOCK
  8
0
  2
KADRBM
 70
     0
 10
0.0
 20
0.0
  0
POLYLINE
  8
KADRBM
 62
     4
 66
     1
 70
     1
  0
VERTEX
  8
KADRBM
 62
     4
 10
0.0
 20
0.0
  0
VERTEX
  8
KADRBM
 62
     4
 10
0.0
 20
24.79716181331605
  0
VERTEX
  8
KADRBM
 62
     4
 10
21.0
 20
24.79716181331605
  0
VERTEX
  8
KADRBM
 62
     4
 10
21.0
 20
0.0
  0
VERTEX
  8
KADRBM
 62
     4
 10
0.0
 20
0.0
  0
SEQEND
  8
KADRBM
 62
     4
  0
POLYLINE
  8
KADRBM
 62
     4
 66
     1
  0
VERTEX
  8
KADRBM
 62
     4
 10
20.66310160432477
 20
0.325668449208024
  0
VERTEX
  8
KADRBM
 62
     4
 10
20.66310160432477
 20
24.46026341759716
  0
VERTEX
  8
KADRBM
 62
     4
 10
0.3368983956752345
 20
24.46026341759716
  0
VERTEX
  8
KADRBM
 62
     4
 10
0.3368983956752345
 20
0.325668449208024
  0
VERTEX
  8
KADRBM
 62
     4
 10
20.66310160432477
 20
0.325668449208024
  0
SEQEND
  8
KADRBM
 62
     4
  0
INSERT
  8
1
  2
ARCHLOGO
 10
-2087.449484841637
 20
-1398.615876029424
 30
0.0
 41
0.025
 42
0.025
 43
0.025
  0
TEXT
  8
KADRBM
 62
   211
 10
0.572640834153276
 20
23.67718368589863
 40
0.4851336898393175
  1
WWW.Architecture4Design.com
  7
BMMM
  0
ENDBLK
  8
0
  0
BLOCK
  8
0
  2
ARCHLOGO
 70
     0
 10
0.0
 20
0.0
  0
LINE
  8
KADRBM
 62
   211
 10
84073.13752740924
 20
56889.51916389067
 11
84070.78304185567
 21
56889.51916389067
  0
LINE
  8
KADRBM
 62
   211
 10
84070.78304185567
 20
56889.51916389067
 11
84064.44034607592
 21
56872.98971428494
  0
LINE
  8
KADRBM
 62
   211
 10
84064.44034607592
 20
56872.98971428494
 11
84066.7708062682
 21
56872.98971428494
  0
LINE
  8
KADRBM
 62
   211
 10
84066.7708062682
 20
56872.98971428494
 11
84068.57270847796
 21
56877.98698974708
  0
LINE
  8
KADRBM
 62
   211
 10
84068.57270847796
 20
56877.98698974708
 11
84075.46798760071
 21
56877.98698974708
  0
LINE
  8
KADRBM
 62
   211
 10
84074.79527744232
 20
56879.76486659392
 11
84069.19736791053
 21
56879.76486659392
  0
LINE
  8
KADRBM
 62
   211
 10
84075.46798760071
 20
56877.98698974708
 11
84077.41404198797
 21
56872.98971428494
  0
LINE
  8
KADRBM
 62
   211
 10
84077.41404198797
 20
56872.98971428494
 11
84079.88865435612
 21
56872.98971428494
  0
LINE
  8
KADRBM
 62
   211
 10
84079.88865435612
 20
56872.98971428494
 11
84073.13752740924
 21
56889.51916389067
  0
LINE
  8
KADRBM
 62
   211
 10
84086.39952767547
 20
56880.31744993855
 11
84087.62482117768
 21
56880.24537385062
  0
LINE
  8
KADRBM
 62
   211
 10
84087.62482117768
 20
56880.24537385062
 11
84088.60986105236
 21
56879.81291731975
  0
LINE
  8
KADRBM
 62
   211
 10
84088.60986105236
 20
56879.81291731975
 11
84088.70596250321
 21
56879.74084123182
  0
LINE
  8
KADRBM
 62
   211
 10
84088.70596250321
 20
56879.74084123182
 11
84089.7150277408
 21
56878.70775063131
  0
LINE
  8
KADRBM
 62
   211
 10
84089.7150277408
 20
56878.70775063131
 11
84090.41176326212
 21
56877.77076148165
  0
LINE
  8
KADRBM
 62
   211
 10
84090.41176326212
 20
56877.77076148165
 11
84091.30070168595
 21
56876.42534116485
  0
LINE
  8
KADRBM
 62
   211
 10
84091.30070168595
 20
56876.42534116485
 11
84093.48700970074
 21
56872.98971428494
  0
LINE
  8
KADRBM
 62
   211
 10
84093.48700970074
 20
56872.98971428494
 11
84096.22590105934
 21
56872.98971428494
  0
LINE
  8
KADRBM
 62
   211
 10
84096.22590105934
 20
56872.98971428494
 11
84093.36688288616
 21
56877.48245712828
  0
LINE
  8
KADRBM
 62
   211
 10
84093.36688288616
 20
56877.48245712828
 11
84093.34285752405
 21
56877.5064824912
  0
LINE
  8
KADRBM
 62
   211
 10
84093.34285752405
 20
56877.5064824912
 11
84092.47794446314
 21
56878.68372526839
  0
LINE
  8
KADRBM
 62
   211
 10
84092.47794446314
 20
56878.68372526839
 11
84091.54095531348
 21
56879.66876514307
  0
LINE
  8
KADRBM
 62
   211
 10
84091.54095531348
 20
56879.66876514307
 11
84091.46887922555
 21
56879.74084123182
  0
LINE
  8
KADRBM
 62
   211
 10
84091.46887922555
 20
56879.74084123182
 11
84090.2195603596
 21
56880.50965284106
  0
LINE
  8
KADRBM
 62
   211
 10
84089.09036830743
 20
56887.69323631799
 11
84089.18646975991
 21
56887.69323631799
  0
LINE
  8
KADRBM
 62
   211
 10
84089.18646975991
 20
56887.69323631799
 11
84090.7240929784
 21
56887.47700805256
  0
LINE
  8
KADRBM
 62
   211
 10
84090.7240929784
 20
56887.47700805256
 11
84091.78120894101
 21
56886.92442470875
  0
LINE
  8
KADRBM
 62
   211
 10
84091.78120894101
 20
56886.92442470875
 11
84092.28574155981
 21
56886.32379063829
  0
LINE
  8
KADRBM
 62
   211
 10
84092.28574155981
 20
56886.32379063829
 11
84092.62209663901
 21
56885.00239568441
  0
LINE
  8
KADRBM
 62
   211
 10
84092.62209663901
 20
56885.00239568441
 11
84092.62209663901
 21
56884.83421814481
  0
LINE
  8
KADRBM
 62
   211
 10
84092.62209663901
 20
56884.83421814481
 11
84092.18964010896
 21
56883.51282319093
  0
LINE
  8
KADRBM
 62
   211
 10
84092.18964010896
 20
56883.51282319093
 11
84092.04548793146
 21
56883.32062028842
  0
LINE
  8
KADRBM
 62
   211
 10
84092.04548793146
 20
56883.32062028842
 11
84090.892270518
 21
56882.52778331625
  0
LINE
  8
KADRBM
 62
   211
 10
84090.892270518
 20
56882.52778331625
 11
84090.12345890875
 21
56882.33558041374
  0
LINE
  8
KADRBM
 62
   211
 10
84090.12345890875
 20
56882.33558041374
 11
84088.56181032653
 21
56882.21545359997
  0
LINE
  8
KADRBM
 62
   211
 10
84088.56181032653
 20
56882.21545359997
 11
84083.85283921775
 21
56882.21545359997
  0
LINE
  8
KADRBM
 62
   211
 10
84093.75128869119
 20
56882.04727606037
 11
84094.06361840665
 21
56882.40765650249
  0
LINE
  8
KADRBM
 62
   211
 10
84094.06361840665
 20
56882.40765650249
 11
84094.66425247712
 21
56883.60892464178
  0
LINE
  8
KADRBM
 62
   211
 10
84094.66425247712
 20
56883.60892464178
 11
84094.88048074255
 21
56885.00239568441
  0
LINE
  8
KADRBM
 62
   211
 10
84094.88048074255
 20
56885.00239568441
 11
84094.73632856505
 21
56886.20366382452
  0
LINE
  8
KADRBM
 62
   211
 10
84094.73632856505
 20
56886.20366382452
 11
84094.18374522123
 21
56887.50103341548
  0
LINE
  8
KADRBM
 62
   211
 10
84094.18374522123
 20
56887.50103341548
 11
84093.51103506284
 21
56888.34192111348
  0
LINE
  8
KADRBM
 62
   211
 10
84088.99426685658
 20
56889.51916389067
 11
84081.66653120297
 21
56889.51916389067
  0
LINE
  8
KADRBM
 62
   211
 10
84081.66653120297
 20
56889.51916389067
 11
84081.66653120297
 21
56872.98971428494
  0
LINE
  8
KADRBM
 62
   211
 10
84081.66653120297
 20
56872.98971428494
 11
84083.85283921775
 21
56872.98971428494
  0
LINE
  8
KADRBM
 62
   211
 10
84083.85283921775
 20
56872.98971428494
 11
84083.85283921775
 21
56880.31744993855
  0
LINE
  8
KADRBM
 62
   211
 10
84083.85283921775
 20
56880.31744993855
 11
84086.39952767547
 21
56880.31744993855
  0
LINE
  8
KADRBM
 62
   211
 10
84090.2195603596
 20
56880.50965284106
 11
84091.49290458765
 21
56880.74990646941
  0
LINE
  8
KADRBM
 62
   211
 10
84091.49290458765
 20
56880.74990646941
 11
84092.76624881651
 21
56881.27846445031
  0
LINE
  8
KADRBM
 62
   211
 10
84092.76624881651
 20
56881.27846445031
 11
84093.75128869119
 21
56882.04727606037
  0
LINE
  8
KADRBM
 62
   211
 10
84083.85283921775
 20
56882.21545359997
 11
84083.85283921775
 21
56887.69323631799
  0
LINE
  8
KADRBM
 62
   211
 10
84083.85283921775
 20
56887.69323631799
 11
84089.09036830743
 21
56887.69323631799
  0
LINE
  8
KADRBM
 62
   211
 10
84093.51103506284
 20
56888.34192111348
 11
84092.35781764856
 21
56889.06268199689
  0
LINE
  8
KADRBM
 62
   211
 10
84092.35781764856
 20
56889.06268199689
 11
84091.94938648061
 21
56889.20683417439
  0
LINE
  8
KADRBM
 62
   211
 10
84091.94938648061
 20
56889.20683417439
 11
84090.65201689047
 21
56889.44708780274
  0
LINE
  8
KADRBM
 62
   211
 10
84090.65201689047
 20
56889.44708780274
 11
84088.99426685658
 21
56889.51916389067
  0
LINE
  8
KADRBM
 62
   211
 10
84110.08853539359
 20
56878.77982671924
 11
84109.82425640314
 21
56877.8428375704
  0
LINE
  8
KADRBM
 62
   211
 10
84109.82425640314
 20
56877.8428375704
 11
84109.22362233349
 21
56876.59351870527
  0
LINE
  8
KADRBM
 62
   211
 10
84109.22362233349
 20
56876.59351870527
 11
84108.3587092734
 21
56875.63250419269
  0
LINE
  8
KADRBM
 62
   211
 10
84108.3587092734
 20
56875.63250419269
 11
84107.92625274253
 21
56875.29614911349
  0
LINE
  8
KADRBM
 62
   211
 10
84107.92625274253
 20
56875.29614911349
 11
84106.6769338774
 21
56874.74356576886
  0
LINE
  8
KADRBM
 62
   211
 10
84106.6769338774
 20
56874.74356576886
 11
84105.25943747186
 21
56874.57538823008
  0
LINE
  8
KADRBM
 62
   211
 10
84110.2807382961
 20
56874.52733750425
 11
84111.1216259941
 21
56875.56042810476
  0
LINE
  8
KADRBM
 62
   211
 10
84111.1216259941
 20
56875.56042810476
 11
84111.7943361525
 21
56876.78572160778
  0
LINE
  8
KADRBM
 62
   211
 10
84111.7943361525
 20
56876.78572160778
 11
84112.27484340919
 21
56878.22724337543
  0
LINE
  8
KADRBM
 62
   211
 10
84112.27484340919
 20
56878.22724337543
 11
84110.08853539359
 21
56878.77982671924
  0
LINE
  8
KADRBM
 62
   211
 10
84100.40631418722
 20
56888.07764212221
 11
84099.44529967383
 21
56887.09260224835
  0
LINE
  8
KADRBM
 62
   211
 10
84099.44529967383
 20
56887.09260224835
 11
84098.67648806458
 21
56885.89133410824
  0
LINE
  8
KADRBM
 62
   211
 10
84098.67648806458
 20
56885.89133410824
 11
84098.48428516288
 21
56885.53095366612
  0
LINE
  8
KADRBM
 62
   211
 10
84098.48428516288
 20
56885.53095366612
 11
84098.0278032691
 21
56884.25760943808
  0
LINE
  8
KADRBM
 62
   211
 10
84098.0278032691
 20
56884.25760943808
 11
84097.76352427783
 21
56882.86413839545
  0
LINE
  8
KADRBM
 62
   211
 10
84097.76352427783
 20
56882.86413839545
 11
84097.66742282698
 21
56881.37456590198
  0
LINE
  8
KADRBM
 62
   211
 10
84097.66742282698
 20
56881.37456590198
 11
84097.66742282698
 21
56881.06223618569
  0
LINE
  8
KADRBM
 62
   211
 10
84097.66742282698
 20
56881.06223618569
 11
84097.81157500448
 21
56879.62071441805
  0
LINE
  8
KADRBM
 62
   211
 10
84097.81157500448
 20
56879.62071441805
 11
84098.09987935703
 21
56878.25126873753
  0
LINE
  8
KADRBM
 62
   211
 10
84098.09987935703
 20
56878.25126873753
 11
84098.55636125081
 21
56876.92987378447
  0
LINE
  8
KADRBM
 62
   211
 10
84098.55636125081
 20
56876.92987378447
 11
84099.18102068338
 21
56875.72860564436
  0
LINE
  8
KADRBM
 62
   211
 10
84099.18102068338
 20
56875.72860564436
 11
84100.04593374429
 21
56874.64746431801
  0
LINE
  8
KADRBM
 62
   211
 10
84100.04593374429
 20
56874.64746431801
 11
84101.10304970772
 21
56873.7825512571
  0
LINE
  8
KADRBM
 62
   211
 10
84101.10304970772
 20
56873.7825512571
 11
84101.34330333606
 21
56873.63839908042
  0
LINE
  8
KADRBM
 62
   211
 10
84101.34330333606
 20
56873.63839908042
 11
84102.52054611326
 21
56873.1098410987
  0
LINE
  8
KADRBM
 62
   211
 10
84102.52054611326
 20
56873.1098410987
 11
84103.88999179215
 21
56872.79751138242
  0
LINE
  8
KADRBM
 62
   211
 10
84103.88999179215
 20
56872.79751138242
 11
84105.42761501146
 21
56872.70140993157
  0
LINE
  8
KADRBM
 62
   211
 10
84105.42761501146
 20
56872.70140993157
 11
84105.98019835609
 21
56872.70140993157
  0
LINE
  8
KADRBM
 62
   211
 10
84105.98019835609
 20
56872.70140993157
 11
84107.39769476
 21
56872.917638197
  0
LINE
  8
KADRBM
 62
   211
 10
84107.39769476
 20
56872.917638197
 11
84108.67103898886
 21
56873.39814545207
  0
LINE
  8
KADRBM
 62
   211
 10
84108.67103898886
 20
56873.39814545207
 11
84109.80023104104
 21
56874.1189063363
  0
LINE
  8
KADRBM
 62
   211
 10
84109.80023104104
 20
56874.1189063363
 11
84110.2807382961
 21
56874.52733750425
  0
LINE
  8
KADRBM
 62
   211
 10
84105.25943747186
 20
56874.57538823008
 11
84105.11528529436
 21
56874.57538823008
  0
LINE
  8
KADRBM
 62
   211
 10
84105.11528529436
 20
56874.57538823008
 11
84103.74583961547
 21
56874.79161649469
  0
LINE
  8
KADRBM
 62
   211
 10
84103.74583961547
 20
56874.79161649469
 11
84102.44847002451
 21
56875.34419983932
  0
LINE
  8
KADRBM
 62
   211
 10
84102.44847002451
 20
56875.34419983932
 11
84102.20821639616
 21
56875.51237737892
  0
LINE
  8
KADRBM
 62
   211
 10
84102.20821639616
 20
56875.51237737892
 11
84101.24720188358
 21
56876.44936652858
  0
LINE
  8
KADRBM
 62
   211
 10
84101.24720188358
 20
56876.44936652858
 11
84100.55046636309
 21
56877.69868539371
  0
LINE
  8
KADRBM
 62
   211
 10
84100.55046636309
 20
56877.69868539371
 11
84100.28618737264
 21
56878.51554772879
  0
LINE
  8
KADRBM
 62
   211
 10
84100.28618737264
 20
56878.51554772879
 11
84100.02190838137
 21
56879.86096804558
  0
LINE
  8
KADRBM
 62
   211
 10
84100.02190838137
 20
56879.86096804558
 11
84099.92580693052
 21
56881.37456590198
  0
LINE
  8
KADRBM
 62
   211
 10
84099.92580693052
 20
56881.37456590198
 11
84099.92580693052
 21
56881.78299706911
  0
LINE
  8
KADRBM
 62
   211
 10
84099.92580693052
 20
56881.78299706911
 11
84100.09398447012
 21
56883.20049347465
  0
LINE
  8
KADRBM
 62
   211
 10
84100.09398447012
 20
56883.20049347465
 11
84100.45436491142
 21
56884.56993915436
  0
LINE
  8
KADRBM
 62
   211
 10
84100.45436491142
 20
56884.56993915436
 11
84100.55046636309
 21
56884.83421814481
  0
LINE
  8
KADRBM
 62
   211
 10
84100.55046636309
 20
56884.83421814481
 11
84101.24720188358
 21
56886.05951164702
  0
LINE
  8
KADRBM
 62
   211
 10
84101.24720188358
 20
56886.05951164702
 11
84102.25626712118
 21
56887.0205261596
  0
LINE
  8
KADRBM
 62
   211
 10
84102.25626712118
 20
56887.0205261596
 11
84102.68872365286
 21
56887.28480515005
  0
LINE
  8
KADRBM
 62
   211
 10
84102.68872365286
 20
56887.28480515005
 11
84103.93804251717
 21
56887.76531240674
  0
LINE
  8
KADRBM
 62
   211
 10
84103.93804251717
 20
56887.76531240674
 11
84105.42761501146
 21
56887.93348994634
  0
LINE
  8
KADRBM
 62
   211
 10
84105.4756657373
 20
56889.78344288193
 11
84104.10622005677
 21
56889.68734143027
  0
LINE
  8
KADRBM
 62
   211
 10
84104.10622005677
 20
56889.68734143027
 11
84102.73677437787
 21
56889.35098635107
  0
LINE
  8
KADRBM
 62
   211
 10
84102.73677437787
 20
56889.35098635107
 11
84101.46343014902
 21
56888.79840300644
  0
LINE
  8
KADRBM
 62
   211
 10
84101.46343014902
 20
56888.79840300644
 11
84100.40631418722
 21
56888.07764212221
  0
LINE
  8
KADRBM
 62
   211
 10
84105.42761501146
 20
56887.93348994634
 11
84105.57176718814
 21
56887.93348994634
  0
LINE
  8
KADRBM
 62
   211
 10
84105.57176718814
 20
56887.93348994634
 11
84106.98926359368
 21
56887.69323631799
  0
LINE
  8
KADRBM
 62
   211
 10
84106.98926359368
 20
56887.69323631799
 11
84108.16650637006
 21
56887.09260224835
  0
LINE
  8
KADRBM
 62
   211
 10
84108.16650637006
 20
56887.09260224835
 11
84108.4067599976
 21
56886.90039934583
  0
LINE
  8
KADRBM
 62
   211
 10
84108.4067599976
 20
56886.90039934583
 11
84109.22362233349
 21
56885.89133410824
  0
LINE
  8
KADRBM
 62
   211
 10
84109.22362233349
 20
56885.89133410824
 11
84109.84828176606
 21
56884.4738377027
  0
LINE
  8
KADRBM
 62
   211
 10
84109.84828176606
 20
56884.4738377027
 11
84111.98653905583
 21
56884.97837032149
  0
LINE
  8
KADRBM
 62
   211
 10
84111.98653905583
 20
56884.97837032149
 11
84111.9625136921
 21
56885.12252249818
  0
LINE
  8
KADRBM
 62
   211
 10
84111.9625136921
 20
56885.12252249818
 11
84111.38590498618
 21
56886.46794281497
  0
LINE
  8
KADRBM
 62
   211
 10
84111.38590498618
 20
56886.46794281497
 11
84110.6170933753
 21
56887.62116022925
  0
LINE
  8
KADRBM
 62
   211
 10
84110.6170933753
 20
56887.62116022925
 11
84109.63205350144
 21
56888.53412401599
  0
LINE
  8
KADRBM
 62
   211
 10
84109.63205350144
 20
56888.53412401599
 11
84109.46387596184
 21
56888.65425082976
  0
LINE
  8
KADRBM
 62
   211
 10
84109.46387596184
 20
56888.65425082976
 11
84108.28663318465
 21
56889.30293562524
  0
LINE
  8
KADRBM
 62
   211
 10
84108.28663318465
 20
56889.30293562524
 11
84106.96523822995
 21
56889.66331606735
  0
LINE
  8
KADRBM
 62
   211
 10
84106.96523822995
 20
56889.66331606735
 11
84105.4756657373
 21
56889.78344288193
  0
LINE
  8
KADRBM
 62
   211
 10
84127.98743067903
 20
56889.51916389067
 11
84125.80112266424
 21
56889.51916389067
  0
LINE
  8
KADRBM
 62
   211
 10
84125.80112266424
 20
56889.51916389067
 11
84125.80112266424
 21
56882.71998621877
  0
LINE
  8
KADRBM
 62
   211
 10
84125.80112266424
 20
56882.71998621877
 11
84117.2240681455
 21
56882.71998621877
  0
LINE
  8
KADRBM
 62
   211
 10
84125.80112266424
 20
56880.77393183151
 11
84125.80112266424
 21
56872.98971428494
  0
LINE
  8
KADRBM
 62
   211
 10
84125.80112266424
 20
56872.98971428494
 11
84127.98743067903
 21
56872.98971428494
  0
LINE
  8
KADRBM
 62
   211
 10
84127.98743067903
 20
56872.98971428494
 11
84127.98743067903
 21
56889.51916389067
  0
LINE
  8
KADRBM
 62
   211
 10
84117.2240681455
 20
56889.51916389067
 11
84115.03776013071
 21
56889.51916389067
  0
LINE
  8
KADRBM
 62
   211
 10
84115.03776013071
 20
56889.51916389067
 11
84115.03776013071
 21
56872.98971428494
  0
LINE
  8
KADRBM
 62
   211
 10
84115.03776013071
 20
56872.98971428494
 11
84117.2240681455
 21
56872.98971428494
  0
LINE
  8
KADRBM
 62
   211
 10
84117.2240681455
 20
56872.98971428494
 11
84117.2240681455
 21
56880.77393183151
  0
LINE
  8
KADRBM
 62
   211
 10
84117.2240681455
 20
56880.77393183151
 11
84125.80112266424
 21
56880.77393183151
  0
LINE
  8
KADRBM
 62
   211
 10
84117.2240681455
 20
56882.71998621877
 11
84117.2240681455
 21
56889.51916389067
  0
LINE
  8
KADRBM
 62
   211
 10
84131.99966626731
 20
56872.98971428494
 11
84131.99966626731
 21
56889.51916389067
  0
LINE
  8
KADRBM
 62
   211
 10
84131.99966626731
 20
56889.51916389067
 11
84134.18597428128
 21
56889.51916389067
  0
LINE
  8
KADRBM
 62
   211
 10
84134.18597428128
 20
56889.51916389067
 11
84134.18597428128
 21
56872.98971428494
  0
LINE
  8
KADRBM
 62
   211
 10
84134.18597428128
 20
56872.98971428494
 11
84131.99966626731
 21
56872.98971428494
  0
LINE
  8
KADRBM
 62
   211
 10
84131.99966626731
 20
56872.98971428494
 11
84131.99966626731
 21
56872.98971428494
  0
LINE
  8
KADRBM
 62
   211
 10
84149.89856155193
 20
56889.51916389067
 11
84136.80473882693
 21
56889.51916389067
  0
LINE
  8
KADRBM
 62
   211
 10
84136.80473882693
 20
56889.51916389067
 11
84136.80473882693
 21
56887.57310950423
  0
LINE
  8
KADRBM
 62
   211
 10
84136.80473882693
 20
56887.57310950423
 11
84142.25849618122
 21
56887.57310950423
  0
LINE
  8
KADRBM
 62
   211
 10
84142.25849618122
 20
56887.57310950423
 11
84142.25849618122
 21
56872.98971428494
  0
LINE
  8
KADRBM
 62
   211
 10
84142.25849618122
 20
56872.98971428494
 11
84144.44480419601
 21
56872.98971428494
  0
LINE
  8
KADRBM
 62
   211
 10
84144.44480419601
 20
56872.98971428494
 11
84144.44480419601
 21
56887.57310950423
  0
LINE
  8
KADRBM
 62
   211
 10
84144.44480419601
 20
56887.57310950423
 11
84149.89856155193
 21
56887.57310950423
  0
LINE
  8
KADRBM
 62
   211
 10
84149.89856155193
 20
56887.57310950423
 11
84149.89856155193
 21
56889.51916389067
  0
LINE
  8
KADRBM
 62
   211
 10
84164.1215763283
 20
56889.51916389067
 11
84152.18097101757
 21
56889.51916389067
  0
LINE
  8
KADRBM
 62
   211
 10
84152.18097101757
 20
56889.51916389067
 11
84152.18097101757
 21
56872.98971428494
  0
LINE
  8
KADRBM
 62
   211
 10
84152.18097101757
 20
56872.98971428494
 11
84164.50598213333
 21
56872.98971428494
  0
LINE
  8
KADRBM
 62
   211
 10
84164.50598213333
 20
56872.98971428494
 11
84164.50598213333
 21
56874.93576867219
  0
LINE
  8
KADRBM
 62
   211
 10
84164.50598213333
 20
56874.93576867219
 11
84154.36727903236
 21
56874.93576867219
  0
LINE
  8
KADRBM
 62
   211
 10
84154.36727903236
 20
56874.93576867219
 11
84154.36727903236
 21
56880.5577035669
  0
LINE
  8
KADRBM
 62
   211
 10
84154.36727903236
 20
56880.5577035669
 11
84163.49691689573
 21
56880.5577035669
  0
LINE
  8
KADRBM
 62
   211
 10
84163.49691689573
 20
56880.5577035669
 11
84163.49691689573
 21
56882.50375795334
  0
LINE
  8
KADRBM
 62
   211
 10
84163.49691689573
 20
56882.50375795334
 11
84154.36727903236
 21
56882.50375795334
  0
LINE
  8
KADRBM
 62
   211
 10
84154.36727903236
 20
56882.50375795334
 11
84154.36727903236
 21
56887.57310950423
  0
LINE
  8
KADRBM
 62
   211
 10
84154.36727903236
 20
56887.57310950423
 11
84164.1215763283
 21
56887.57310950423
  0
LINE
  8
KADRBM
 62
   211
 10
84164.1215763283
 20
56887.57310950423
 11
84164.1215763283
 21
56889.51916389067
  0
LINE
  8
KADRBM
 62
   211
 10
84179.30560561724
 20
56878.77982671924
 11
84179.06535198889
 21
56877.8428375704
  0
LINE
  8
KADRBM
 62
   211
 10
84179.06535198889
 20
56877.8428375704
 11
84178.44069255632
 21
56876.59351870527
  0
LINE
  8
KADRBM
 62
   211
 10
84178.44069255632
 20
56876.59351870527
 11
84177.59980485914
 21
56875.63250419269
  0
LINE
  8
KADRBM
 62
   211
 10
84177.59980485914
 20
56875.63250419269
 11
84177.14332296618
 21
56875.29614911349
  0
LINE
  8
KADRBM
 62
   211
 10
84177.14332296618
 20
56875.29614911349
 11
84175.91802946315
 21
56874.74356576886
  0
LINE
  8
KADRBM
 62
   211
 10
84175.91802946315
 20
56874.74356576886
 11
84174.4765076947
 21
56874.57538823008
  0
LINE
  8
KADRBM
 62
   211
 10
84179.49780852057
 20
56874.52733750425
 11
84180.36272158066
 21
56875.56042810476
  0
LINE
  8
KADRBM
 62
   211
 10
84180.36272158066
 20
56875.56042810476
 11
84181.01140637533
 21
56876.78572160778
  0
LINE
  8
KADRBM
 62
   211
 10
84181.01140637533
 20
56876.78572160778
 11
84181.49191363202
 21
56878.22724337543
  0
LINE
  8
KADRBM
 62
   211
 10
84181.49191363202
 20
56878.22724337543
 11
84179.30560561724
 21
56878.77982671924
  0
LINE
  8
KADRBM
 62
   211
 10
84169.62338441005
 20
56888.07764212221
 11
84168.66236989747
 21
56887.09260224835
  0
LINE
  8
KADRBM
 62
   211
 10
84168.66236989747
 20
56887.09260224835
 11
84167.89355828823
 21
56885.89133410824
  0
LINE
  8
KADRBM
 62
   211
 10
84167.89355828823
 20
56885.89133410824
 11
84167.72538074863
 21
56885.53095366612
  0
LINE
  8
KADRBM
 62
   211
 10
84167.72538074863
 20
56885.53095366612
 11
84167.26889885566
 21
56884.25760943808
  0
LINE
  8
KADRBM
 62
   211
 10
84167.26889885566
 20
56884.25760943808
 11
84166.98059450148
 21
56882.86413839545
  0
LINE
  8
KADRBM
 62
   211
 10
84166.98059450148
 20
56882.86413839545
 11
84166.90851841273
 21
56881.37456590198
  0
LINE
  8
KADRBM
 62
   211
 10
84166.90851841273
 20
56881.37456590198
 11
84166.90851841273
 21
56881.06223618569
  0
LINE
  8
KADRBM
 62
   211
 10
84166.90851841273
 20
56881.06223618569
 11
84167.02864522731
 21
56879.62071441805
  0
LINE
  8
KADRBM
 62
   211
 10
84167.02864522731
 20
56879.62071441805
 11
84167.31694958068
 21
56878.25126873753
  0
LINE
  8
KADRBM
 62
   211
 10
84167.31694958068
 20
56878.25126873753
 11
84167.77343147446
 21
56876.92987378447
  0
LINE
  8
KADRBM
 62
   211
 10
84167.77343147446
 20
56876.92987378447
 11
84168.42211626912
 21
56875.72860564436
  0
LINE
  8
KADRBM
 62
   211
 10
84168.42211626912
 20
56875.72860564436
 11
84169.26300396712
 21
56874.64746431801
  0
LINE
  8
KADRBM
 62
   211
 10
84169.26300396712
 20
56874.64746431801
 11
84170.32011993136
 21
56873.7825512571
  0
LINE
  8
KADRBM
 62
   211
 10
84170.32011993136
 20
56873.7825512571
 11
84170.5603735589
 21
56873.63839908042
  0
LINE
  8
KADRBM
 62
   211
 10
84170.5603735589
 20
56873.63839908042
 11
84171.73761633609
 21
56873.1098410987
  0
LINE
  8
KADRBM
 62
   211
 10
84171.73761633609
 20
56873.1098410987
 11
84173.1070620158
 21
56872.79751138242
  0
LINE
  8
KADRBM
 62
   211
 10
84173.1070620158
 20
56872.79751138242
 11
84174.66871059721
 21
56872.70140993157
  0
LINE
  8
KADRBM
 62
   211
 10
84174.66871059721
 20
56872.70140993157
 11
84175.19726857892
 21
56872.70140993157
  0
LINE
  8
KADRBM
 62
   211
 10
84175.19726857892
 20
56872.70140993157
 11
84176.61476498365
 21
56872.917638197
  0
LINE
  8
KADRBM
 62
   211
 10
84176.61476498365
 20
56872.917638197
 11
84177.8881092117
 21
56873.39814545207
  0
LINE
  8
KADRBM
 62
   211
 10
84177.8881092117
 20
56873.39814545207
 11
84179.04132662679
 21
56874.1189063363
  0
LINE
  8
KADRBM
 62
   211
 10
84179.04132662679
 20
56874.1189063363
 11
84179.49780852057
 21
56874.52733750425
  0
LINE
  8
KADRBM
 62
   211
 10
84174.4765076947
 20
56874.57538823008
 11
84174.33235551801
 21
56874.57538823008
  0
LINE
  8
KADRBM
 62
   211
 10
84174.33235551801
 20
56874.57538823008
 11
84172.9629098383
 21
56874.79161649469
  0
LINE
  8
KADRBM
 62
   211
 10
84172.9629098383
 20
56874.79161649469
 11
84171.66554024816
 21
56875.34419983932
  0
LINE
  8
KADRBM
 62
   211
 10
84171.66554024816
 20
56875.34419983932
 11
84171.44931198191
 21
56875.51237737892
  0
LINE
  8
KADRBM
 62
   211
 10
84171.44931198191
 20
56875.51237737892
 11
84170.46427210805
 21
56876.44936652858
  0
LINE
  8
KADRBM
 62
   211
 10
84170.46427210805
 20
56876.44936652858
 11
84169.76753658592
 21
56877.69868539371
  0
LINE
  8
KADRBM
 62
   211
 10
84169.76753658592
 20
56877.69868539371
 11
84169.50325759547
 21
56878.51554772879
  0
LINE
  8
KADRBM
 62
   211
 10
84169.50325759547
 20
56878.51554772879
 11
84169.23897860502
 21
56879.86096804558
  0
LINE
  8
KADRBM
 62
   211
 10
84169.23897860502
 20
56879.86096804558
 11
84169.14287715335
 21
56881.37456590198
  0
LINE
  8
KADRBM
 62
   211
 10
84169.14287715335
 20
56881.37456590198
 11
84169.16690251627
 21
56881.78299706911
  0
LINE
  8
KADRBM
 62
   211
 10
84169.16690251627
 20
56881.78299706911
 11
84169.31105469377
 21
56883.20049347465
  0
LINE
  8
KADRBM
 62
   211
 10
84169.31105469377
 20
56883.20049347465
 11
84169.67143513507
 21
56884.56993915436
  0
LINE
  8
KADRBM
 62
   211
 10
84169.67143513507
 20
56884.56993915436
 11
84169.76753658592
 21
56884.83421814481
  0
LINE
  8
KADRBM
 62
   211
 10
84169.76753658592
 20
56884.83421814481
 11
84170.46427210805
 21
56886.05951164702
  0
LINE
  8
KADRBM
 62
   211
 10
84170.46427210805
 20
56886.05951164702
 11
84171.47333734483
 21
56887.0205261596
  0
LINE
  8
KADRBM
 62
   211
 10
84171.47333734483
 20
56887.0205261596
 11
84171.90579387569
 21
56887.28480515005
  0
LINE
  8
KADRBM
 62
   211
 10
84171.90579387569
 20
56887.28480515005
 11
84173.17913810373
 21
56887.76531240674
  0
LINE
  8
KADRBM
 62
   211
 10
84173.17913810373
 20
56887.76531240674
 11
84174.64468523429
 21
56887.93348994634
  0
LINE
  8
KADRBM
 62
   211
 10
84174.69273596094
 20
56889.78344288193
 11
84173.32329028042
 21
56889.68734143027
  0
LINE
  8
KADRBM
 62
   211
 10
84173.32329028042
 20
56889.68734143027
 11
84171.9538446007
 21
56889.35098635107
  0
LINE
  8
KADRBM
 62
   211
 10
84171.9538446007
 20
56889.35098635107
 11
84170.70452573476
 21
56888.79840300644
  0
LINE
  8
KADRBM
 62
   211
 10
84170.70452573476
 20
56888.79840300644
 11
84169.62338441005
 21
56888.07764212221
  0
LINE
  8
KADRBM
 62
   211
 10
84174.64468523429
 20
56887.93348994634
 11
84174.78883741179
 21
56887.93348994634
  0
LINE
  8
KADRBM
 62
   211
 10
84174.78883741179
 20
56887.93348994634
 11
84176.23035917943
 21
56887.69323631799
  0
LINE
  8
KADRBM
 62
   211
 10
84176.23035917943
 20
56887.69323631799
 11
84177.40760195663
 21
56887.09260224835
  0
LINE
  8
KADRBM
 62
   211
 10
84177.40760195663
 20
56887.09260224835
 11
84177.64785558498
 21
56886.90039934583
  0
LINE
  8
KADRBM
 62
   211
 10
84177.64785558498
 20
56886.90039934583
 11
84178.46471791924
 21
56885.89133410824
  0
LINE
  8
KADRBM
 62
   211
 10
84178.46471791924
 20
56885.89133410824
 11
84179.06535198889
 21
56884.4738377027
  0
LINE
  8
KADRBM
 62
   211
 10
84179.06535198889
 20
56884.4738377027
 11
84181.22763464157
 21
56884.97837032149
  0
LINE
  8
KADRBM
 62
   211
 10
84181.22763464157
 20
56884.97837032149
 11
84181.17958391574
 21
56885.12252249818
  0
LINE
  8
KADRBM
 62
   211
 10
84181.17958391574
 20
56885.12252249818
 11
84180.62700057193
 21
56886.46794281497
  0
LINE
  8
KADRBM
 62
   211
 10
84180.62700057193
 20
56886.46794281497
 11
84179.85818896187
 21
56887.62116022925
  0
LINE
  8
KADRBM
 62
   211
 10
84179.85818896187
 20
56887.62116022925
 11
84178.87314908719
 21
56888.53412401599
  0
LINE
  8
KADRBM
 62
   211
 10
84178.87314908719
 20
56888.53412401599
 11
84178.68094618467
 21
56888.65425082976
  0
LINE
  8
KADRBM
 62
   211
 10
84178.68094618467
 20
56888.65425082976
 11
84177.50370340748
 21
56889.30293562524
  0
LINE
  8
KADRBM
 62
   211
 10
84177.50370340748
 20
56889.30293562524
 11
84176.1823084536
 21
56889.66331606735
  0
LINE
  8
KADRBM
 62
   211
 10
84176.1823084536
 20
56889.66331606735
 11
84174.69273596094
 21
56889.78344288193
  0
LINE
  8
KADRBM
 62
   211
 10
84196.0512834884
 20
56889.51916389067
 11
84182.9574607634
 21
56889.51916389067
  0
LINE
  8
KADRBM
 62
   211
 10
84182.9574607634
 20
56889.51916389067
 11
84182.9574607634
 21
56887.57310950423
  0
LINE
  8
KADRBM
 62
   211
 10
84182.9574607634
 20
56887.57310950423
 11
84188.38719275559
 21
56887.57310950423
  0
LINE
  8
KADRBM
 62
   211
 10
84188.38719275559
 20
56887.57310950423
 11
84188.38719275559
 21
56872.98971428494
  0
LINE
  8
KADRBM
 62
   211
 10
84188.38719275559
 20
56872.98971428494
 11
84190.57350077038
 21
56872.98971428494
  0
LINE
  8
KADRBM
 62
   211
 10
84190.57350077038
 20
56872.98971428494
 11
84190.57350077038
 21
56887.57310950423
  0
LINE
  8
KADRBM
 62
   211
 10
84190.57350077038
 20
56887.57310950423
 11
84196.0512834884
 21
56887.57310950423
  0
LINE
  8
KADRBM
 62
   211
 10
84196.0512834884
 20
56887.57310950423
 11
84196.0512834884
 21
56889.51916389067
  0
LINE
  8
KADRBM
 62
   211
 10
84211.30738886527
 20
56889.51916389067
 11
84209.1210808513
 21
56889.51916389067
  0
LINE
  8
KADRBM
 62
   211
 10
84209.1210808513
 20
56889.51916389067
 11
84209.1210808513
 21
56879.98109485935
  0
LINE
  8
KADRBM
 62
   211
 10
84209.1210808513
 20
56879.98109485935
 11
84209.1210808513
 21
56879.64473978015
  0
LINE
  8
KADRBM
 62
   211
 10
84209.1210808513
 20
56879.64473978015
 11
84208.97692867462
 21
56877.93893902206
  0
LINE
  8
KADRBM
 62
   211
 10
84208.97692867462
 20
56877.93893902206
 11
84208.64057359542
 21
56876.6655947932
  0
LINE
  8
KADRBM
 62
   211
 10
84208.64057359542
 20
56876.6655947932
 11
84208.1120156137
 21
56875.77665637019
  0
LINE
  8
KADRBM
 62
   211
 10
84208.1120156137
 20
56875.77665637019
 11
84207.48735618033
 21
56875.27212375139
  0
LINE
  8
KADRBM
 62
   211
 10
84207.48735618033
 20
56875.27212375139
 11
84206.28608804103
 21
56874.81564185761
  0
LINE
  8
KADRBM
 62
   211
 10
84206.28608804103
 20
56874.81564185761
 11
84204.67638873297
 21
56874.67148968093
  0
LINE
  8
KADRBM
 62
   211
 10
84199.9433922621
 20
56874.33513460173
 11
84201.04855895054
 21
56873.49424690373
  0
LINE
  8
KADRBM
 62
   211
 10
84201.04855895054
 20
56873.49424690373
 11
84201.96152273729
 21
56873.1098410987
  0
LINE
  8
KADRBM
 62
   211
 10
84201.96152273729
 20
56873.1098410987
 11
84203.30694305408
 21
56872.79751138242
  0
LINE
  8
KADRBM
 62
   211
 10
84203.30694305408
 20
56872.79751138242
 11
84204.86859163549
 21
56872.70140993157
  0
LINE
  8
KADRBM
 62
   211
 10
84204.86859163549
 20
56872.70140993157
 11
84206.21401195228
 21
56872.77348602032
  0
LINE
  8
KADRBM
 62
   211
 10
84206.21401195228
 20
56872.77348602032
 11
84207.58345763118
 21
56873.0858157366
  0
LINE
  8
KADRBM
 62
   211
 10
84207.58345763118
 20
56873.0858157366
 11
84208.71264968335
 21
56873.6143737175
  0
LINE
  8
KADRBM
 62
   211
 10
84208.71264968335
 20
56873.6143737175
 11
84209.07303012547
 21
56873.85462734585
  0
LINE
  8
KADRBM
 62
   211
 10
84209.07303012547
 20
56873.85462734585
 11
84210.08209536306
 21
56874.81564185761
  0
LINE
  8
KADRBM
 62
   211
 10
84210.08209536306
 20
56874.81564185761
 11
84210.75480552146
 21
56875.9928846348
  0
LINE
  8
KADRBM
 62
   211
 10
84210.75480552146
 20
56875.9928846348
 11
84211.04310987401
 21
56876.95389914738
  0
LINE
  8
KADRBM
 62
   211
 10
84211.04310987401
 20
56876.95389914738
 11
84211.23531277734
 21
56878.32334482628
  0
LINE
  8
KADRBM
 62
   211
 10
84211.23531277734
 20
56878.32334482628
 11
84211.30738886527
 21
56879.95706949725
  0
LINE
  8
KADRBM
 62
   211
 10
84211.30738886527
 20
56879.95706949725
 11
84211.30738886527
 21
56889.51916389067
  0
LINE
  8
KADRBM
 62
   211
 10
84200.52000096883
 20
56889.51916389067
 11
84198.33369295485
 21
56889.51916389067
  0
LINE
  8
KADRBM
 62
   211
 10
84198.33369295485
 20
56889.51916389067
 11
84198.33369295485
 21
56879.95706949725
  0
LINE
  8
KADRBM
 62
   211
 10
84198.33369295485
 20
56879.95706949725
 11
84198.38174367906
 21
56878.34737018919
  0
LINE
  8
KADRBM
 62
   211
 10
84198.38174367906
 20
56878.34737018919
 11
84198.5979719453
 21
56876.95389914738
  0
LINE
  8
KADRBM
 62
   211
 10
84198.5979719453
 20
56876.95389914738
 11
84198.9583523866
 21
56875.82470709521
  0
LINE
  8
KADRBM
 62
   211
 10
84198.9583523866
 20
56875.82470709521
 11
84199.1265299262
 21
56875.44030129099
  0
LINE
  8
KADRBM
 62
   211
 10
84199.1265299262
 20
56875.44030129099
 11
84199.9433922621
 21
56874.33513460173
  0
LINE
  8
KADRBM
 62
   211
 10
84204.67638873297
 20
56874.67148968093
 11
84203.5471966808
 21
56874.76759113259
  0
LINE
  8
KADRBM
 62
   211
 10
84203.5471966808
 20
56874.76759113259
 11
84202.29787781648
 21
56875.22407302556
  0
LINE
  8
KADRBM
 62
   211
 10
84202.29787781648
 20
56875.22407302556
 11
84201.6732183831
 21
56875.65652955561
  0
LINE
  8
KADRBM
 62
   211
 10
84201.6732183831
 20
56875.65652955561
 11
84200.90440677386
 21
56876.80974696988
  0
LINE
  8
KADRBM
 62
   211
 10
84200.90440677386
 20
56876.80974696988
 11
84200.83233068511
 21
56877.05000059823
  0
LINE
  8
KADRBM
 62
   211
 10
84200.83233068511
 20
56877.05000059823
 11
84200.59207705676
 21
56878.29931946336
  0
LINE
  8
KADRBM
 62
   211
 10
84200.59207705676
 20
56878.29931946336
 11
84200.52000096883
 21
56879.98109485935
  0
LINE
  8
KADRBM
 62
   211
 10
84200.52000096883
 20
56879.98109485935
 11
84200.52000096883
 21
56889.51916389067
  0
LINE
  8
KADRBM
 62
   211
 10
84219.71626584523
 20
56880.31744993855
 11
84220.91753398452
 21
56880.24537385062
  0
LINE
  8
KADRBM
 62
   211
 10
84220.91753398452
 20
56880.24537385062
 11
84221.92659922212
 21
56879.81291731975
  0
LINE
  8
KADRBM
 62
   211
 10
84221.92659922212
 20
56879.81291731975
 11
84222.02270067297
 21
56879.74084123182
  0
LINE
  8
KADRBM
 62
   211
 10
84222.02270067297
 20
56879.74084123182
 11
84223.03176591056
 21
56878.70775063131
  0
LINE
  8
KADRBM
 62
   211
 10
84223.03176591056
 20
56878.70775063131
 11
84223.70447606896
 21
56877.77076148165
  0
LINE
  8
KADRBM
 62
   211
 10
84223.70447606896
 20
56877.77076148165
 11
84224.6174398557
 21
56876.42534116485
  0
LINE
  8
KADRBM
 62
   211
 10
84224.6174398557
 20
56876.42534116485
 11
84226.8037478705
 21
56872.98971428494
  0
LINE
  8
KADRBM
 62
   211
 10
84226.8037478705
 20
56872.98971428494
 11
84229.5426392291
 21
56872.98971428494
  0
LINE
  8
KADRBM
 62
   211
 10
84229.5426392291
 20
56872.98971428494
 11
84226.65959569381
 21
56877.48245712828
  0
LINE
  8
KADRBM
 62
   211
 10
84226.65959569381
 20
56877.48245712828
 11
84226.65959569381
 21
56877.5064824912
  0
LINE
  8
KADRBM
 62
   211
 10
84226.65959569381
 20
56877.5064824912
 11
84225.7946826329
 21
56878.68372526839
  0
LINE
  8
KADRBM
 62
   211
 10
84225.7946826329
 20
56878.68372526839
 11
84224.85769348405
 21
56879.66876514307
  0
LINE
  8
KADRBM
 62
   211
 10
84224.85769348405
 20
56879.66876514307
 11
84224.7615920332
 21
56879.74084123182
  0
LINE
  8
KADRBM
 62
   211
 10
84224.7615920332
 20
56879.74084123182
 11
84223.53629853018
 21
56880.50965284106
  0
LINE
  8
KADRBM
 62
   211
 10
84222.40710647881
 20
56887.69323631799
 11
84222.47918256675
 21
56887.69323631799
  0
LINE
  8
KADRBM
 62
   211
 10
84222.47918256675
 20
56887.69323631799
 11
84224.01680578606
 21
56887.47700805256
  0
LINE
  8
KADRBM
 62
   211
 10
84224.01680578606
 20
56887.47700805256
 11
84225.0979471124
 21
56886.92442470875
  0
LINE
  8
KADRBM
 62
   211
 10
84225.0979471124
 20
56886.92442470875
 11
84225.6024797312
 21
56886.32379063829
  0
LINE
  8
KADRBM
 62
   211
 10
84225.6024797312
 20
56886.32379063829
 11
84225.9388348104
 21
56885.00239568441
  0
LINE
  8
KADRBM
 62
   211
 10
84225.9388348104
 20
56885.00239568441
 11
84225.9388348104
 21
56884.83421814481
  0
LINE
  8
KADRBM
 62
   211
 10
84225.9388348104
 20
56884.83421814481
 11
84225.50637827953
 21
56883.51282319093
  0
LINE
  8
KADRBM
 62
   211
 10
84225.50637827953
 20
56883.51282319093
 11
84225.36222610285
 21
56883.32062028842
  0
LINE
  8
KADRBM
 62
   211
 10
84225.36222610285
 20
56883.32062028842
 11
84224.20900868857
 21
56882.52778331625
  0
LINE
  8
KADRBM
 62
   211
 10
84224.20900868857
 20
56882.52778331625
 11
84223.41617171641
 21
56882.33558041374
  0
LINE
  8
KADRBM
 62
   211
 10
84223.41617171641
 20
56882.33558041374
 11
84221.8785484971
 21
56882.21545359997
  0
LINE
  8
KADRBM
 62
   211
 10
84221.8785484971
 20
56882.21545359997
 11
84217.16957738833
 21
56882.21545359997
  0
LINE
  8
KADRBM
 62
   211
 10
84227.04400149884
 20
56882.04727606037
 11
84227.35633121594
 21
56882.40765650249
  0
LINE
  8
KADRBM
 62
   211
 10
84227.35633121594
 20
56882.40765650249
 11
84227.98099064769
 21
56883.60892464178
  0
LINE
  8
KADRBM
 62
   211
 10
84227.98099064769
 20
56883.60892464178
 11
84228.19721891312
 21
56885.00239568441
  0
LINE
  8
KADRBM
 62
   211
 10
84228.19721891312
 20
56885.00239568441
 11
84228.05306673644
 21
56886.20366382452
  0
LINE
  8
KADRBM
 62
   211
 10
84228.05306673644
 20
56886.20366382452
 11
84227.5004833918
 21
56887.50103341548
  0
LINE
  8
KADRBM
 62
   211
 10
84227.5004833918
 20
56887.50103341548
 11
84226.82777323341
 21
56888.34192111348
  0
LINE
  8
KADRBM
 62
   211
 10
84222.31100502796
 20
56889.51916389067
 11
84214.98326937354
 21
56889.51916389067
  0
LINE
  8
KADRBM
 62
   211
 10
84214.98326937354
 20
56889.51916389067
 11
84214.98326937354
 21
56872.98971428494
  0
LINE
  8
KADRBM
 62
   211
 10
84214.98326937354
 20
56872.98971428494
 11
84217.16957738833
 21
56872.98971428494
  0
LINE
  8
KADRBM
 62
   211
 10
84217.16957738833
 20
56872.98971428494
 11
84217.16957738833
 21
56880.31744993855
  0
LINE
  8
KADRBM
 62
   211
 10
84217.16957738833
 20
56880.31744993855
 11
84219.71626584523
 21
56880.31744993855
  0
LINE
  8
KADRBM
 62
   211
 10
84223.53629853018
 20
56880.50965284106
 11
84224.7856173953
 21
56880.74990646941
  0
LINE
  8
KADRBM
 62
   211
 10
84224.7856173953
 20
56880.74990646941
 11
84226.08298698626
 21
56881.27846445031
  0
LINE
  8
KADRBM
 62
   211
 10
84226.08298698626
 20
56881.27846445031
 11
84227.04400149884
 21
56882.04727606037
  0
LINE
  8
KADRBM
 62
   211
 10
84217.16957738833
 20
56882.21545359997
 11
84217.16957738833
 21
56887.69323631799
  0
LINE
  8
KADRBM
 62
   211
 10
84217.16957738833
 20
56887.69323631799
 11
84222.40710647881
 21
56887.69323631799
  0
LINE
  8
KADRBM
 62
   211
 10
84226.82777323341
 20
56888.34192111348
 11
84225.67455581995
 21
56889.06268199689
  0
LINE
  8
KADRBM
 62
   211
 10
84225.67455581995
 20
56889.06268199689
 11
84225.24209928827
 21
56889.20683417439
  0
LINE
  8
KADRBM
 62
   211
 10
84225.24209928827
 20
56889.20683417439
 11
84223.96875506022
 21
56889.44708780274
  0
LINE
  8
KADRBM
 62
   211
 10
84223.96875506022
 20
56889.44708780274
 11
84222.31100502796
 21
56889.51916389067
  0
LINE
  8
KADRBM
 62
   211
 10
84243.59747646749
 20
56889.51916389067
 11
84231.65687115514
 21
56889.51916389067
  0
LINE
  8
KADRBM
 62
   211
 10
84231.65687115514
 20
56889.51916389067
 11
84231.65687115514
 21
56872.98971428494
  0
LINE
  8
KADRBM
 62
   211
 10
84231.65687115514
 20
56872.98971428494
 11
84243.98188227252
 21
56872.98971428494
  0
LINE
  8
KADRBM
 62
   211
 10
84243.98188227252
 20
56872.98971428494
 11
84243.98188227252
 21
56874.93576867219
  0
LINE
  8
KADRBM
 62
   211
 10
84243.98188227252
 20
56874.93576867219
 11
84233.84317917074
 21
56874.93576867219
  0
LINE
  8
KADRBM
 62
   211
 10
84233.84317917074
 20
56874.93576867219
 11
84233.84317917074
 21
56880.5577035669
  0
LINE
  8
KADRBM
 62
   211
 10
84233.84317917074
 20
56880.5577035669
 11
84242.97281703493
 21
56880.5577035669
  0
LINE
  8
KADRBM
 62
   211
 10
84242.97281703493
 20
56880.5577035669
 11
84242.97281703493
 21
56882.50375795334
  0
LINE
  8
KADRBM
 62
   211
 10
84242.97281703493
 20
56882.50375795334
 11
84233.84317917074
 21
56882.50375795334
  0
LINE
  8
KADRBM
 62
   211
 10
84233.84317917074
 20
56882.50375795334
 11
84233.84317917074
 21
56887.57310950423
  0
LINE
  8
KADRBM
 62
   211
 10
84233.84317917074
 20
56887.57310950423
 11
84243.59747646749
 21
56887.57310950423
  0
LINE
  8
KADRBM
 62
   211
 10
84243.59747646749
 20
56887.57310950423
 11
84243.59747646749
 21
56889.51916389067
  0
LINE
  8
KADRBM
 62
   211
 10
84256.03329626017
 20
56890.38695119221
 11
84250.96929197176
 21
56882.74364670859
  0
LINE
  8
KADRBM
 62
   211
 10
84257.84495186422
 20
56889.24966488387
 11
84253.5344466361
 21
56882.74364670859
  0
LINE
  8
KADRBM
 62
   211
 10
84273.55527406838
 20
56880.31781481164
 11
84312.53585006576
 21
56880.31781481164
  0
INSERT
  8
1
 62
    91
  2
*U3
 10
0.0
 20
0.0
 30
0.0
  0
LINE
  8
KADRBM
 62
   211
 10
84274.62116858107
 20
56875.0690022187
 11
84319.50345783657
 21
56875.0690022187
  0
LINE
  8
KADRBM
 62
   211
 10
84312.53585006576
 20
56882.74364670859
 11
84273.55527406838
 21
56882.74364670859
  0
LINE
  8
KADRBM
 62
   211
 10
84319.50345783657
 20
56887.99245930153
 11
84274.62116858107
 21
56887.99245930153
  0
LINE
  8
KADRBM
 62
   211
 10
84273.55527406838
 20
56882.74364670859
 11
84273.55527406838
 21
56880.31781481164
  0
LINE
  8
KADRBM
 62
   211
 10
84319.50345783657
 20
56881.53073076012
 11
84312.53585006576
 21
56882.74364670859
  0
LINE
  8
KADRBM
 62
   211
 10
84319.50345783657
 20
56881.53073076012
 11
84312.53585006576
 21
56880.31781481164
  0
LINE
  8
KADRBM
 62
   211
 10
84262.31308546767
 20
56891.66160830755
 11
84262.31308546767
 21
56882.74364670859
  0
LINE
  8
KADRBM
 62
   211
 10
84262.31308546767
 20
56880.31781481164
 11
84262.31308546767
 21
56871.39985321269
  0
LINE
  8
KADRBM
 62
   211
 10
84259.88725357235
 20
56891.66160830755
 11
84259.88725357235
 21
56882.74364670859
  0
LINE
  8
KADRBM
 62
   211
 10
84259.88725357235
 20
56880.31781481164
 11
84259.88725357235
 21
56871.39985321269
  0
LINE
  8
KADRBM
 62
   211
 10
84250.96929197176
 20
56880.31781481164
 11
84259.88725357235
 21
56880.31781481164
  0
LINE
  8
KADRBM
 62
   211
 10
84262.31308546767
 20
56880.31781481164
 11
84271.23104706744
 21
56880.31781481164
  0
LINE
  8
KADRBM
 62
   211
 10
84253.5344466361
 20
56882.74364670859
 11
84259.88725357235
 21
56882.74364670859
  0
LINE
  8
KADRBM
 62
   211
 10
84262.31308546767
 20
56882.74364670859
 11
84271.23104706744
 21
56882.74364670859
  0
LINE
  8
KADRBM
 62
   211
 10
84259.88725357235
 20
56891.66160830755
 11
84262.31308546767
 21
56891.66160830755
  0
LINE
  8
KADRBM
 62
   211
 10
84271.23104706744
 20
56880.31781481164
 11
84271.23104706744
 21
56882.74364670859
  0
LINE
  8
KADRBM
 62
   211
 10
84259.88725357235
 20
56871.39985321269
 11
84262.31308546767
 21
56871.39985321269
  0
LINE
  8
KADRBM
 62
   211
 10
84250.96929197176
 20
56880.31781481164
 11
84250.96929197176
 21
56882.74364670859
  0
LINE
  8
KADRBM
 62
   211
 10
84256.03329626017
 20
56890.38695119221
 11
84257.84495186422
 21
56889.24966488387
  0
LINE
  8
KADRBM
 62
   211
 10
84259.88725357235
 20
56893.98583530767
 11
84259.88725357235
 21
56911.07797011155
  0
INSERT
  8
1
 62
    91
  2
*U4
 10
0.0
 20
0.0
 30
0.0
  0
LINE
  8
KADRBM
 62
   211
 10
84254.63844097778
 20
56894.76797648442
 11
84254.63844097778
 21
56918.04557788074
  0
LINE
  8
KADRBM
 62
   211
 10
84262.31308546767
 20
56911.07797011155
 11
84262.31308546767
 21
56893.98583530767
  0
LINE
  8
KADRBM
 62
   211
 10
84262.31308546767
 20
56893.98583530767
 11
84259.88725357235
 21
56893.98583530767
  0
LINE
  8
KADRBM
 62
   211
 10
84261.1001695192
 20
56918.04557788074
 11
84262.31308546767
 21
56911.07797011155
  0
LINE
  8
KADRBM
 62
   211
 10
84261.1001695192
 20
56918.04557788074
 11
84259.88725357235
 21
56911.07797011155
  0
LINE
  8
KADRBM
 62
   211
 10
84267.42695426254
 20
56861.00733642832
 11
84267.41003772512
 21
56860.44909071612
  0
LINE
  8
KADRBM
 62
   211
 10
84267.41003772512
 20
56860.44909071612
 11
84267.30853850464
 21
56859.11268431337
  0
LINE
  8
KADRBM
 62
   211
 10
84267.30853850464
 20
56859.11268431337
 11
84267.0886235279
 21
56858.16535825508
  0
LINE
  8
KADRBM
 62
   211
 10
84267.0886235279
 20
56858.16535825508
 11
84266.91945816018
 21
56857.81011098383
  0
LINE
  8
KADRBM
 62
   211
 10
84266.91945816018
 20
56857.81011098383
 11
84266.24279669009
 21
56856.87970146297
  0
LINE
  8
KADRBM
 62
   211
 10
84266.24279669009
 20
56856.87970146297
 11
84265.22780448617
 21
56856.08462423661
  0
LINE
  8
KADRBM
 62
   211
 10
84265.22780448617
 20
56856.08462423661
 11
84264.87255721493
 21
56855.89854233146
  0
LINE
  8
KADRBM
 62
   211
 10
84264.87255721493
 20
56855.89854233146
 11
84263.8575650102
 21
56855.54329506021
  0
LINE
  8
KADRBM
 62
   211
 10
84263.8575650102
 20
56855.54329506021
 11
84262.63957436453
 21
56855.32338008266
  0
LINE
  8
KADRBM
 62
   211
 10
84262.63957436453
 20
56855.32338008266
 11
84261.21858527791
 21
56855.23879739879
  0
LINE
  8
KADRBM
 62
   211
 10
84261.21858527791
 20
56855.23879739879
 11
84260.33892536606
 21
56855.27263047283
  0
LINE
  8
KADRBM
 62
   211
 10
84260.33892536606
 20
56855.27263047283
 11
84259.12093472038
 21
56855.40796276652
  0
LINE
  8
KADRBM
 62
   211
 10
84259.12093472038
 20
56855.40796276652
 11
84258.03827636922
 21
56855.67862735472
  0
LINE
  8
KADRBM
 62
   211
 10
84258.03827636922
 20
56855.67862735472
 11
84258.02135983261
 21
56855.67862735472
  0
LINE
  8
KADRBM
 62
   211
 10
84258.02135983261
 20
56855.67862735472
 11
84256.83720226097
 21
56856.20303999288
  0
LINE
  8
KADRBM
 62
   211
 10
84256.83720226097
 20
56856.20303999288
 11
84255.94062581332
 21
56856.89661800039
  0
LINE
  8
KADRBM
 62
   211
 10
84255.94062581332
 20
56856.89661800039
 11
84255.63612815109
 21
56857.25186527164
  0
LINE
  8
KADRBM
 62
   211
 10
84255.63612815109
 20
56857.25186527164
 11
84255.0778824389
 21
56858.36835669602
  0
LINE
  8
KADRBM
 62
   211
 10
84255.0778824389
 20
56858.36835669602
 11
84255.04404936486
 21
56858.48677245392
  0
LINE
  8
KADRBM
 62
   211
 10
84255.04404936486
 20
56858.48677245392
 11
84254.84105092392
 21
56859.5694308059
  0
LINE
  8
KADRBM
 62
   211
 10
84254.84105092392
 20
56859.5694308059
 11
84254.77338477748
 21
56860.93967028188
  0
LINE
  8
KADRBM
 62
   211
 10
84254.77338477748
 20
56860.93967028188
 11
84254.77338477748
 21
56864.47522646181
  0
LINE
  8
KADRBM
 62
   211
 10
84254.48580365267
 20
56855.3910462291
 11
84255.45004624675
 21
56854.5621359287
  0
LINE
  8
KADRBM
 62
   211
 10
84255.45004624675
 20
56854.5621359287
 11
84255.60229507787
 21
56854.44372017162
  0
LINE
  8
KADRBM
 62
   211
 10
84255.60229507787
 20
56854.44372017162
 11
84256.6172872826
 21
56853.88547445943
  0
LINE
  8
KADRBM
 62
   211
 10
84256.6172872826
 20
56853.88547445943
 11
84257.8521944657
 21
56853.42872796689
  0
LINE
  8
KADRBM
 62
   211
 10
84257.8521944657
 20
56853.42872796689
 11
84258.69802130188
 21
56853.22572952595
  0
LINE
  8
KADRBM
 62
   211
 10
84258.69802130188
 20
56853.22572952595
 11
84259.88217887352
 21
56853.03964762243
  0
LINE
  8
KADRBM
 62
   211
 10
84259.88217887352
 20
56853.03964762243
 11
84261.18475220387
 21
56852.98889801178
  0
LINE
  8
KADRBM
 62
   211
 10
84261.18475220387
 20
56852.98889801178
 11
84261.57383254915
 21
56852.98889801178
  0
LINE
  8
KADRBM
 62
   211
 10
84261.57383254915
 20
56852.98889801178
 11
84262.85948934127
 21
56853.09039723226
  0
LINE
  8
KADRBM
 62
   211
 10
84262.85948934127
 20
56853.09039723226
 11
84264.04364691372
 21
56853.2933956732
  0
LINE
  8
KADRBM
 62
   211
 10
84264.04364691372
 20
56853.2933956732
 11
84265.1263052657
 21
56853.63172640784
  0
LINE
  8
KADRBM
 62
   211
 10
84265.1263052657
 20
56853.63172640784
 11
84266.1074643964
 21
56854.08847290037
  0
LINE
  8
KADRBM
 62
   211
 10
84266.1074643964
 20
56854.08847290037
 11
84267.1055400637
 21
56854.76513436965
  0
LINE
  8
KADRBM
 62
   211
 10
84267.1055400637
 20
56854.76513436965
 11
84267.95136690151
 21
56855.59404467004
  0
LINE
  8
KADRBM
 62
   211
 10
84269.37235598813
 20
56860.9735033551
 11
84269.37235598813
 21
56866.65745970157
  0
LINE
  8
KADRBM
 62
   211
 10
84269.37235598813
 20
56866.65745970157
 11
84252.82798305189
 21
56866.65745970157
  0
LINE
  8
KADRBM
 62
   211
 10
84252.82798305189
 20
56866.65745970157
 11
84252.82798305189
 21
56860.7028387669
  0
LINE
  8
KADRBM
 62
   211
 10
84252.82798305189
 20
56860.7028387669
 11
84252.82798305189
 21
56860.43217417951
  0
LINE
  8
KADRBM
 62
   211
 10
84252.82798305189
 20
56860.43217417951
 11
84252.91256573494
 21
56859.16343392401
  0
LINE
  8
KADRBM
 62
   211
 10
84252.91256573494
 20
56859.16343392401
 11
84253.09864764009
 21
56858.03002596139
  0
LINE
  8
KADRBM
 62
   211
 10
84253.09864764009
 20
56858.03002596139
 11
84253.40314530069
 21
56857.09961644134
  0
LINE
  8
KADRBM
 62
   211
 10
84253.40314530069
 20
56857.09961644134
 11
84253.94447447709
 21
56856.05079116258
  0
LINE
  8
KADRBM
 62
   211
 10
84253.94447447709
 20
56856.05079116258
 11
84254.48580365267
 21
56855.3910462291
  0
LINE
  8
KADRBM
 62
   211
 10
84254.77338477748
 20
56864.47522646181
 11
84267.42695426254
 21
56864.47522646181
  0
LINE
  8
KADRBM
 62
   211
 10
84267.42695426254
 20
56864.47522646181
 11
84267.42695426254
 21
56861.00733642832
  0
LINE
  8
KADRBM
 62
   211
 10
84267.95136690151
 20
56855.59404467004
 11
84268.13744880585
 21
56855.83087618502
  0
LINE
  8
KADRBM
 62
   211
 10
84268.13744880585
 20
56855.83087618502
 11
84268.74644412869
 21
56856.84586838975
  0
LINE
  8
KADRBM
 62
   211
 10
84268.74644412869
 20
56856.84586838975
 11
84269.13552447315
 21
56858.03002596139
  0
LINE
  8
KADRBM
 62
   211
 10
84269.13552447315
 20
56858.03002596139
 11
84269.22010715702
 21
56858.40218977006
  0
LINE
  8
KADRBM
 62
   211
 10
84269.22010715702
 20
56858.40218977006
 11
84269.3385229141
 21
56859.53559773187
  0
LINE
  8
KADRBM
 62
   211
 10
84269.3385229141
 20
56859.53559773187
 11
84269.37235598813
 21
56860.9735033551
  0
LINE
  8
KADRBM
 62
   211
 10
84269.37235598813
 20
56837.96701338263
 11
84269.37235598813
 21
56849.92700486099
  0
LINE
  8
KADRBM
 62
   211
 10
84269.37235598813
 20
56849.92700486099
 11
84252.82798305189
 21
56849.92700486099
  0
LINE
  8
KADRBM
 62
   211
 10
84252.82798305189
 20
56849.92700486099
 11
84252.82798305189
 21
56837.59484957396
  0
LINE
  8
KADRBM
 62
   211
 10
84252.82798305189
 20
56837.59484957396
 11
84254.77338477748
 21
56837.59484957396
  0
LINE
  8
KADRBM
 62
   211
 10
84254.77338477748
 20
56837.59484957396
 11
84254.77338477748
 21
56847.74477162123
  0
LINE
  8
KADRBM
 62
   211
 10
84254.77338477748
 20
56847.74477162123
 11
84260.40659151413
 21
56847.74477162123
  0
LINE
  8
KADRBM
 62
   211
 10
84260.40659151413
 20
56847.74477162123
 11
84260.40659151413
 21
56838.59292524208
  0
LINE
  8
KADRBM
 62
   211
 10
84260.40659151413
 20
56838.59292524208
 11
84262.3519932389
 21
56838.59292524208
  0
LINE
  8
KADRBM
 62
   211
 10
84262.3519932389
 20
56838.59292524208
 11
84262.3519932389
 21
56847.74477162123
  0
LINE
  8
KADRBM
 62
   211
 10
84262.3519932389
 20
56847.74477162123
 11
84267.42695426254
 21
56847.74477162123
  0
LINE
  8
KADRBM
 62
   211
 10
84267.42695426254
 20
56847.74477162123
 11
84267.42695426254
 21
56837.96701338263
  0
LINE
  8
KADRBM
 62
   211
 10
84267.42695426254
 20
56837.96701338263
 11
84269.37235598813
 21
56837.96701338263
  0
LINE
  8
KADRBM
 62
   211
 10
84258.32585749403
 20
56833.24729963105
 11
84258.13977558969
 21
56835.31111711373
  0
LINE
  8
KADRBM
 62
   211
 10
84258.13977558969
 20
56835.31111711373
 11
84257.39544797316
 21
56835.24345096647
  0
LINE
  8
KADRBM
 62
   211
 10
84257.39544797316
 20
56835.24345096647
 11
84256.22820693813
 21
56834.93895330506
  0
LINE
  8
KADRBM
 62
   211
 10
84256.22820693813
 20
56834.93895330506
 11
84255.17938165937
 21
56834.39762412947
  0
LINE
  8
KADRBM
 62
   211
 10
84255.17938165937
 20
56834.39762412947
 11
84254.60421941057
 21
56833.95779417436
  0
LINE
  8
KADRBM
 62
   211
 10
84254.60421941057
 20
56833.95779417436
 11
84253.79222564679
 21
56833.07813426333
  0
LINE
  8
KADRBM
 62
   211
 10
84253.79222564679
 20
56833.07813426333
 11
84253.20014685974
 21
56832.01239244796
  0
LINE
  8
KADRBM
 62
   211
 10
84253.20014685974
 20
56832.01239244796
 11
84253.1324807133
 21
56831.86014361765
  0
LINE
  8
KADRBM
 62
   211
 10
84253.1324807133
 20
56831.86014361765
 11
84252.81106651446
 21
56830.81131833971
  0
LINE
  8
KADRBM
 62
   211
 10
84252.81106651446
 20
56830.81131833971
 11
84252.60806807352
 21
56829.61024423064
  0
LINE
  8
KADRBM
 62
   211
 10
84252.60806807352
 20
56829.61024423064
 11
84252.54040192708
 21
56828.25692129128
  0
LINE
  8
KADRBM
 62
   211
 10
84252.54040192708
 20
56828.25692129128
 11
84252.59115153691
 21
56827.36034484363
  0
LINE
  8
KADRBM
 62
   211
 10
84252.59115153691
 20
56827.36034484363
 11
84252.79414997785
 21
56826.15927073457
  0
LINE
  8
KADRBM
 62
   211
 10
84252.79414997785
 20
56826.15927073457
 11
84253.20014685974
 21
56825.05969584679
  0
LINE
  8
KADRBM
 62
   211
 10
84253.20014685974
 20
56825.05969584679
 11
84253.40314530069
 21
56824.63678242748
  0
LINE
  8
KADRBM
 62
   211
 10
84253.40314530069
 20
56824.63678242748
 11
84254.11363984481
 21
56823.65562329679
  0
LINE
  8
KADRBM
 62
   211
 10
84254.5027201901
 20
56828.35842051175
 11
84254.5027201901
 21
56828.54450241609
  0
LINE
  8
KADRBM
 62
   211
 10
84254.5027201901
 20
56828.54450241609
 11
84254.6549690204
 21
56829.77940959756
  0
LINE
  8
KADRBM
 62
   211
 10
84254.6549690204
 20
56829.77940959756
 11
84255.01021629246
 21
56830.89590102276
  0
LINE
  8
KADRBM
 62
   211
 10
84255.01021629246
 20
56830.89590102276
 11
84255.48387932079
 21
56831.75864439718
  0
LINE
  8
KADRBM
 62
   211
 10
84255.48387932079
 20
56831.75864439718
 11
84256.29587308457
 21
56832.55372162435
  0
LINE
  8
KADRBM
 62
   211
 10
84256.29587308457
 20
56832.55372162435
 11
84257.07403377432
 21
56832.95971850624
  0
LINE
  8
KADRBM
 62
   211
 10
84257.07403377432
 20
56832.95971850624
 11
84258.32585749403
 21
56833.24729963105
  0
LINE
  8
KADRBM
 62
   211
 10
84268.32353070937
 20
56833.19655002041
 11
84267.44387079915
 21
56833.95779417436
  0
LINE
  8
KADRBM
 62
   211
 10
84267.44387079915
 20
56833.95779417436
 11
84267.3931211885
 21
56834.00854378419
  0
LINE
  8
KADRBM
 62
   211
 10
84267.3931211885
 20
56834.00854378419
 11
84266.27662976412
 21
56834.51603988656
  0
LINE
  8
KADRBM
 62
   211
 10
84266.27662976412
 20
56834.51603988656
 11
84265.09247219167
 21
56834.66828871767
  0
LINE
  8
KADRBM
 62
   211
 10
84265.09247219167
 20
56834.66828871767
 11
84264.12822959758
 21
56834.5667894972
  0
LINE
  8
KADRBM
 62
   211
 10
84264.12822959758
 20
56834.5667894972
 11
84263.04557124642
 21
56834.09312646805
  0
LINE
  8
KADRBM
 62
   211
 10
84263.04557124642
 20
56834.09312646805
 11
84262.21666094521
 21
56833.38263192475
  0
LINE
  8
KADRBM
 62
   211
 10
84262.21666094521
 20
56833.38263192475
 11
84261.48924986529
 21
56832.3338066468
  0
LINE
  8
KADRBM
 62
   211
 10
84261.48924986529
 20
56832.3338066468
 11
84261.21858527791
 21
56831.72481132396
  0
LINE
  8
KADRBM
 62
   211
 10
84261.21858527791
 20
56831.72481132396
 11
84260.86333800585
 21
56830.60831989876
  0
LINE
  8
KADRBM
 62
   211
 10
84260.86333800585
 20
56830.60831989876
 11
84260.47425766056
 21
56829.1365812015
  0
LINE
  8
KADRBM
 62
   211
 10
84260.47425766056
 20
56829.1365812015
 11
84260.25434268301
 21
56828.2907543645
  0
LINE
  8
KADRBM
 62
   211
 10
84260.25434268301
 20
56828.2907543645
 11
84259.91601194756
 21
56826.98818103496
  0
LINE
  8
KADRBM
 62
   211
 10
84259.91601194756
 20
56826.98818103496
 11
84259.66226389678
 21
56826.19310380779
  0
LINE
  8
KADRBM
 62
   211
 10
84259.66226389678
 20
56826.19310380779
 11
84259.37468277197
 21
56825.56719194834
  0
LINE
  8
KADRBM
 62
   211
 10
84259.37468277197
 20
56825.56719194834
 11
84258.68110476527
 21
56824.70444857473
  0
LINE
  8
KADRBM
 62
   211
 10
84258.68110476527
 20
56824.70444857473
 11
84258.4611897869
 21
56824.55219974362
  0
LINE
  8
KADRBM
 62
   211
 10
84258.4611897869
 20
56824.55219974362
 11
84257.3108652893
 21
56824.24770208301
  0
LINE
  8
KADRBM
 62
   211
 10
84257.3108652893
 20
56824.24770208301
 11
84257.00636762788
 21
56824.26461861962
  0
LINE
  8
KADRBM
 62
   211
 10
84257.00636762788
 20
56824.26461861962
 11
84255.90679273929
 21
56824.72136511134
  0
LINE
  8
KADRBM
 62
   211
 10
84255.90679273929
 20
56824.72136511134
 11
84255.51771239482
 21
56825.0766123834
  0
LINE
  8
KADRBM
 62
   211
 10
84255.51771239482
 20
56825.0766123834
 11
84254.87488399795
 21
56826.14235419796
  0
LINE
  8
KADRBM
 62
   211
 10
84254.87488399795
 20
56826.14235419796
 11
84254.62113594636
 21
56827.08968025625
  0
LINE
  8
KADRBM
 62
   211
 10
84254.62113594636
 20
56827.08968025625
 11
84254.5027201901
 21
56828.35842051175
  0
LINE
  8
KADRBM
 62
   211
 10
84254.11363984481
 20
56823.65562329679
 11
84255.01021629246
 21
56822.89437914283
  0
LINE
  8
KADRBM
 62
   211
 10
84255.01021629246
 20
56822.89437914283
 11
84255.2132147334
 21
56822.77596338575
  0
LINE
  8
KADRBM
 62
   211
 10
84255.2132147334
 20
56822.77596338575
 11
84256.31278962118
 21
56822.3023003566
  0
LINE
  8
KADRBM
 62
   211
 10
84256.31278962118
 20
56822.3023003566
 11
84257.49694719363
 21
56822.13313498969
  0
LINE
  8
KADRBM
 62
   211
 10
84257.49694719363
 20
56822.13313498969
 11
84257.58152987668
 21
56822.13313498969
  0
LINE
  8
KADRBM
 62
   211
 10
84257.58152987668
 20
56822.13313498969
 11
84258.79952052236
 21
56822.31921689321
  0
LINE
  8
KADRBM
 62
   211
 10
84258.79952052236
 20
56822.31921689321
 11
84259.86526233773
 21
56822.82671299639
  0
LINE
  8
KADRBM
 62
   211
 10
84259.86526233773
 20
56822.82671299639
 11
84260.10209385189
 21
56823.01279489991
  0
LINE
  8
KADRBM
 62
   211
 10
84260.10209385189
 20
56823.01279489991
 11
84260.88025454246
 21
56823.84170520112
  0
LINE
  8
KADRBM
 62
   211
 10
84260.88025454246
 20
56823.84170520112
 11
84261.53999947512
 21
56824.95819662551
  0
LINE
  8
KADRBM
 62
   211
 10
84261.53999947512
 20
56824.95819662551
 11
84261.57383254915
 21
56825.04277930937
  0
LINE
  8
KADRBM
 62
   211
 10
84261.57383254915
 20
56825.04277930937
 11
84261.87833021057
 21
56825.88860614637
  0
LINE
  8
KADRBM
 62
   211
 10
84261.87833021057
 20
56825.88860614637
 11
84262.23357748264
 21
56827.07276371882
  0
LINE
  8
KADRBM
 62
   211
 10
84262.23357748264
 20
56827.07276371882
 11
84262.60574129049
 21
56828.61216856253
  0
LINE
  8
KADRBM
 62
   211
 10
84262.60574129049
 20
56828.61216856253
 11
84262.97790509835
 21
56830.08390725897
  0
LINE
  8
KADRBM
 62
   211
 10
84262.97790509835
 20
56830.08390725897
 11
84263.38390198024
 21
56831.25114829482
  0
LINE
  8
KADRBM
 62
   211
 10
84263.38390198024
 20
56831.25114829482
 11
84263.77298232552
 21
56831.92780976491
  0
LINE
  8
KADRBM
 62
   211
 10
84263.77298232552
 20
56831.92780976491
 11
84264.12822959758
 21
56832.23230742633
  0
LINE
  8
KADRBM
 62
   211
 10
84264.12822959758
 20
56832.23230742633
 11
84265.24472102278
 21
56832.57063816096
  0
LINE
  8
KADRBM
 62
   211
 10
84265.24472102278
 20
56832.57063816096
 11
84266.05671478657
 21
56832.40147279405
  0
LINE
  8
KADRBM
 62
   211
 10
84266.05671478657
 20
56832.40147279405
 11
84267.00404084323
 21
56831.65714517671
  0
LINE
  8
KADRBM
 62
   211
 10
84267.00404084323
 20
56831.65714517671
 11
84267.27470543224
 21
56831.23423175821
  0
LINE
  8
KADRBM
 62
   211
 10
84267.27470543224
 20
56831.23423175821
 11
84267.61303616606
 21
56830.16848994365
  0
LINE
  8
KADRBM
 62
   211
 10
84267.61303616606
 20
56830.16848994365
 11
84267.73145192396
 21
56828.76441739364
  0
LINE
  8
KADRBM
 62
   211
 10
84269.65993711294
 20
56828.84900007751
 11
84269.64302057552
 21
56829.55949462081
  0
LINE
  8
KADRBM
 62
   211
 10
84269.64302057552
 20
56829.55949462081
 11
84269.456938672
 21
56830.77748526649
  0
LINE
  8
KADRBM
 62
   211
 10
84269.456938672
 20
56830.77748526649
 11
84269.10169140075
 21
56831.89397669169
  0
LINE
  8
KADRBM
 62
   211
 10
84269.10169140075
 20
56831.89397669169
 11
84268.98327564285
 21
56832.16464127907
  0
LINE
  8
KADRBM
 62
   211
 10
84268.98327564285
 20
56832.16464127907
 11
84268.32353070937
 21
56833.19655002041
  0
LINE
  8
KADRBM
 62
   211
 10
84267.73145192396
 20
56828.76441739364
 11
84267.69761885074
 21
56827.98625670308
  0
LINE
  8
KADRBM
 62
   211
 10
84267.69761885074
 20
56827.98625670308
 11
84267.44387079915
 21
56826.78518259402
  0
LINE
  8
KADRBM
 62
   211
 10
84267.44387079915
 20
56826.78518259402
 11
84266.93637469679
 21
56825.87168961058
  0
LINE
  8
KADRBM
 62
   211
 10
84266.93637469679
 20
56825.87168961058
 11
84266.73337625584
 21
56825.66869116963
  0
LINE
  8
KADRBM
 62
   211
 10
84266.73337625584
 20
56825.66869116963
 11
84265.80296673498
 21
56825.04277930937
  0
LINE
  8
KADRBM
 62
   211
 10
84265.80296673498
 20
56825.04277930937
 11
84264.55114301527
 21
56824.73828164795
  0
LINE
  8
KADRBM
 62
   211
 10
84264.55114301527
 20
56824.73828164795
 11
84264.72030838381
 21
56822.64063109206
  0
LINE
  8
KADRBM
 62
   211
 10
84264.72030838381
 20
56822.64063109206
 11
84265.07555565587
 21
56822.65754762867
  0
LINE
  8
KADRBM
 62
   211
 10
84265.07555565587
 20
56822.65754762867
 11
84266.25971322751
 21
56822.92821221605
  0
LINE
  8
KADRBM
 62
   211
 10
84266.25971322751
 20
56822.92821221605
 11
84267.32545504207
 21
56823.45262485584
  0
LINE
  8
KADRBM
 62
   211
 10
84267.32545504207
 20
56823.45262485584
 11
84267.6468692401
 21
56823.67253983339
  0
LINE
  8
KADRBM
 62
   211
 10
84267.6468692401
 20
56823.67253983339
 11
84268.45886300388
 21
56824.5183666704
  0
LINE
  8
KADRBM
 62
   211
 10
84268.45886300388
 20
56824.5183666704
 11
84269.06785832671
 21
56825.60102502238
  0
LINE
  8
KADRBM
 62
   211
 10
84269.06785832671
 20
56825.60102502238
 11
84269.35543945152
 21
56826.39610224873
  0
LINE
  8
KADRBM
 62
   211
 10
84269.35543945152
 20
56826.39610224873
 11
84269.57535442908
 21
56827.56334328458
  0
LINE
  8
KADRBM
 62
   211
 10
84269.57535442908
 20
56827.56334328458
 11
84269.65993711294
 21
56828.84900007751
  0
LINE
  8
KADRBM
 62
   211
 10
84252.82798305189
 20
56818.78366071409
 11
84269.37235598813
 21
56818.78366071409
  0
LINE
  8
KADRBM
 62
   211
 10
84269.37235598813
 20
56818.78366071409
 11
84269.37235598813
 21
56816.58451093773
  0
LINE
  8
KADRBM
 62
   211
 10
84269.37235598813
 20
56816.58451093773
 11
84252.82798305189
 21
56816.58451093773
  0
LINE
  8
KADRBM
 62
   211
 10
84252.82798305189
 20
56816.58451093773
 11
84252.82798305189
 21
56818.78366071409
  0
LINE
  8
KADRBM
 62
   211
 10
84252.82798305189
 20
56818.78366071409
 11
84252.82798305189
 21
56818.78366071409
  0
LINE
  8
KADRBM
 62
   211
 10
84261.26933488774
 20
56797.97632051799
 11
84261.25241835031
 21
56804.99668326722
  0
LINE
  8
KADRBM
 62
   211
 10
84261.25241835031
 20
56804.99668326722
 11
84259.32393316133
 21
56804.99668326722
  0
LINE
  8
KADRBM
 62
   211
 10
84259.32393316133
 20
56804.99668326722
 11
84259.32393316133
 21
56800.12472068453
  0
LINE
  8
KADRBM
 62
   211
 10
84259.32393316133
 20
56800.12472068453
 11
84256.22820693813
 21
56800.12472068453
  0
LINE
  8
KADRBM
 62
   211
 10
84256.22820693813
 20
56800.12472068453
 11
84255.6530446877
 21
56800.95363098492
  0
LINE
  8
KADRBM
 62
   211
 10
84255.6530446877
 20
56800.95363098492
 11
84255.0778824389
 21
56802.17162163059
  0
LINE
  8
KADRBM
 62
   211
 10
84255.0778824389
 20
56802.17162163059
 11
84254.9256336086
 21
56802.57761851249
  0
LINE
  8
KADRBM
 62
   211
 10
84254.9256336086
 20
56802.57761851249
 11
84254.62113594636
 21
56803.74485954833
  0
LINE
  8
KADRBM
 62
   211
 10
84254.62113594636
 20
56803.74485954833
 11
84254.5196367267
 21
56804.962850194
  0
LINE
  8
KADRBM
 62
   211
 10
84254.3843044322
 20
56799.00822925933
 11
84255.12863204954
 21
56797.97632051799
  0
LINE
  8
KADRBM
 62
   211
 10
84255.12863204954
 20
56797.97632051799
 11
84261.26933488774
 21
56797.97632051799
  0
LINE
  8
KADRBM
 62
   211
 10
84268.28969763697
 20
56809.97014507039
 11
84267.52845348301
 21
56810.86672151803
  0
LINE
  8
KADRBM
 62
   211
 10
84267.52845348301
 20
56810.86672151803
 11
84266.61496049876
 21
56811.64488220778
  0
LINE
  8
KADRBM
 62
   211
 10
84266.61496049876
 20
56811.64488220778
 11
84265.53230214678
 21
56812.27079406723
  0
LINE
  8
KADRBM
 62
   211
 10
84265.53230214678
 20
56812.27079406723
 11
84264.60189262591
 21
56812.65987441251
  0
LINE
  8
KADRBM
 62
   211
 10
84264.60189262591
 20
56812.65987441251
 11
84263.45156812831
 21
56813.01512168375
  0
LINE
  8
KADRBM
 62
   211
 10
84263.45156812831
 20
56813.01512168375
 11
84262.25049401843
 21
56813.2181201247
  0
LINE
  8
KADRBM
 62
   211
 10
84262.25049401843
 20
56813.2181201247
 11
84261.01558683696
 21
56813.28578627195
  0
LINE
  8
KADRBM
 62
   211
 10
84261.01558683696
 20
56813.28578627195
 11
84260.05134424206
 21
56813.23503666212
  0
LINE
  8
KADRBM
 62
   211
 10
84260.05134424206
 20
56813.23503666212
 11
84258.83335359639
 21
56813.0658712944
  0
LINE
  8
KADRBM
 62
   211
 10
84258.83335359639
 20
56813.0658712944
 11
84257.68302909716
 21
56812.72754055976
  0
LINE
  8
KADRBM
 62
   211
 10
84257.68302909716
 20
56812.72754055976
 11
84256.60037074599
 21
56812.27079406723
  0
LINE
  8
KADRBM
 62
   211
 10
84256.60037074599
 20
56812.27079406723
 11
84255.97445888654
 21
56811.89863025855
  0
LINE
  8
KADRBM
 62
   211
 10
84255.97445888654
 20
56811.89863025855
 11
84255.04404936486
 21
56811.17121917864
  0
LINE
  8
KADRBM
 62
   211
 10
84255.04404936486
 20
56811.17121917864
 11
84254.2489721385
 21
56810.29155926841
  0
LINE
  8
KADRBM
 62
   211
 10
84254.2489721385
 20
56810.29155926841
 11
84253.58922720584
 21
56809.25965052708
  0
LINE
  8
KADRBM
 62
   211
 10
84253.58922720584
 20
56809.25965052708
 11
84253.20014685974
 21
56808.41382368926
  0
LINE
  8
KADRBM
 62
   211
 10
84253.20014685974
 20
56808.41382368926
 11
84252.82798305189
 21
56807.28041572745
  0
LINE
  8
KADRBM
 62
   211
 10
84252.82798305189
 20
56807.28041572745
 11
84252.60806807352
 21
56806.0793416192
  0
LINE
  8
KADRBM
 62
   211
 10
84252.60806807352
 20
56806.0793416192
 11
84252.54040192708
 21
56804.8275178995
  0
LINE
  8
KADRBM
 62
   211
 10
84252.54040192708
 20
56804.8275178995
 11
84252.60806807352
 21
56803.67719340108
  0
LINE
  8
KADRBM
 62
   211
 10
84252.60806807352
 20
56803.67719340108
 11
84252.82798305189
 21
56802.47611929201
  0
LINE
  8
KADRBM
 62
   211
 10
84252.82798305189
 20
56802.47611929201
 11
84253.20014685974
 21
56801.30887825698
  0
LINE
  8
KADRBM
 62
   211
 10
84253.20014685974
 20
56801.30887825698
 11
84253.267813007
 21
56801.12279635265
  0
LINE
  8
KADRBM
 62
   211
 10
84253.267813007
 20
56801.12279635265
 11
84253.75839257275
 21
56800.05705453809
  0
LINE
  8
KADRBM
 62
   211
 10
84253.75839257275
 20
56800.05705453809
 11
84254.3843044322
 21
56799.00822925933
  0
LINE
  8
KADRBM
 62
   211
 10
84254.5196367267
 20
56804.962850194
 11
84254.55346979992
 21
56805.74101088375
  0
LINE
  8
KADRBM
 62
   211
 10
84254.55346979992
 20
56805.74101088375
 11
84254.79030131409
 21
56806.9251684562
  0
LINE
  8
KADRBM
 62
   211
 10
84254.79030131409
 20
56806.9251684562
 11
84255.24704780581
 21
56808.0416598814
  0
LINE
  8
KADRBM
 62
   211
 10
84255.24704780581
 20
56808.0416598814
 11
84255.63612815109
 21
56808.71832135068
  0
LINE
  8
KADRBM
 62
   211
 10
84255.63612815109
 20
56808.71832135068
 11
84256.43120537908
 21
56809.58106472511
  0
LINE
  8
KADRBM
 62
   211
 10
84256.43120537908
 20
56809.58106472511
 11
84257.4461975838
 21
56810.2577261952
  0
LINE
  8
KADRBM
 62
   211
 10
84257.4461975838
 20
56810.2577261952
 11
84257.59844641411
 21
56810.32539234163
  0
LINE
  8
KADRBM
 62
   211
 10
84257.59844641411
 20
56810.32539234163
 11
84258.63035515544
 21
56810.71447268692
  0
LINE
  8
KADRBM
 62
   211
 10
84258.63035515544
 20
56810.71447268692
 11
84259.81451272708
 21
56810.95130420108
  0
LINE
  8
KADRBM
 62
   211
 10
84259.81451272708
 20
56810.95130420108
 11
84261.15091912984
 21
56811.01897034833
  0
LINE
  8
KADRBM
 62
   211
 10
84261.15091912984
 20
56811.01897034833
 11
84262.16591133457
 21
56810.96822073769
  0
LINE
  8
KADRBM
 62
   211
 10
84262.16591133457
 20
56810.96822073769
 11
84263.36698544363
 21
56810.76522229674
  0
LINE
  8
KADRBM
 62
   211
 10
84263.36698544363
 20
56810.76522229674
 11
84264.48347686883
 21
56810.39305848889
  0
LINE
  8
KADRBM
 62
   211
 10
84264.48347686883
 20
56810.39305848889
 11
84265.14322180231
 21
56810.07164429086
  0
LINE
  8
KADRBM
 62
   211
 10
84265.14322180231
 20
56810.07164429086
 11
84266.124380933
 21
56809.34423321013
  0
LINE
  8
KADRBM
 62
   211
 10
84266.124380933
 20
56809.34423321013
 11
84266.71645971923
 21
56808.68448827746
  0
LINE
  8
KADRBM
 62
   211
 10
84266.71645971923
 20
56808.68448827746
 11
84267.34237157868
 21
56807.58491338887
  0
LINE
  8
KADRBM
 62
   211
 10
84267.34237157868
 20
56807.58491338887
 11
84267.41003772512
 21
56807.39883148453
  0
LINE
  8
KADRBM
 62
   211
 10
84267.41003772512
 20
56807.39883148453
 11
84267.69761885074
 21
56806.28234006015
  0
LINE
  8
KADRBM
 62
   211
 10
84267.69761885074
 20
56806.28234006015
 11
84267.7822015346
 21
56804.99668326722
  0
LINE
  8
KADRBM
 62
   211
 10
84269.65993711294
 20
56804.99668326722
 11
84269.6261040389
 21
56805.9440093247
  0
LINE
  8
KADRBM
 62
   211
 10
84269.6261040389
 20
56805.9440093247
 11
84269.44002213457
 21
56807.17891650698
  0
LINE
  8
KADRBM
 62
   211
 10
84269.44002213457
 20
56807.17891650698
 11
84269.11860793736
 21
56808.31232446879
  0
LINE
  8
KADRBM
 62
   211
 10
84269.11860793736
 20
56808.31232446879
 11
84268.64494490821
 21
56809.36114974755
  0
LINE
  8
KADRBM
 62
   211
 10
84268.64494490821
 20
56809.36114974755
 11
84268.28969763697
 21
56809.97014507039
  0
LINE
  8
KADRBM
 62
   211
 10
84267.7822015346
 20
56804.99668326722
 11
84267.68070231413
 21
56803.8463587688
  0
LINE
  8
KADRBM
 62
   211
 10
84267.68070231413
 20
56803.8463587688
 11
84267.35928811529
 21
56802.71295080618
  0
LINE
  8
KADRBM
 62
   211
 10
84267.35928811529
 20
56802.71295080618
 11
84266.97020777082
 21
56801.98553972707
  0
LINE
  8
KADRBM
 62
   211
 10
84266.97020777082
 20
56801.98553972707
 11
84266.19204707944
 21
56801.12279635265
  0
LINE
  8
KADRBM
 62
   211
 10
84266.19204707944
 20
56801.12279635265
 11
84265.44771946373
 21
56800.66604986093
  0
LINE
  8
KADRBM
 62
   211
 10
84265.44771946373
 20
56800.66604986093
 11
84264.21281228145
 21
56800.20930336839
  0
LINE
  8
KADRBM
 62
   211
 10
84264.21281228145
 20
56800.20930336839
 11
84264.75414145621
 21
56798.23006856958
  0
LINE
  8
KADRBM
 62
   211
 10
84264.75414145621
 20
56798.23006856958
 11
84265.36313677905
 21
56798.4161504731
  0
LINE
  8
KADRBM
 62
   211
 10
84265.36313677905
 20
56798.4161504731
 11
84266.51346127829
 21
56798.87289696564
  0
LINE
  8
KADRBM
 62
   211
 10
84266.51346127829
 20
56798.87289696564
 11
84267.46078733576
 21
56799.48189228847
  0
LINE
  8
KADRBM
 62
   211
 10
84267.46078733576
 20
56799.48189228847
 11
84267.74836846057
 21
56799.73564033925
  0
LINE
  8
KADRBM
 62
   211
 10
84267.74836846057
 20
56799.73564033925
 11
84268.49269607791
 21
56800.63221678689
  0
LINE
  8
KADRBM
 62
   211
 10
84268.49269607791
 20
56800.63221678689
 11
84269.08477486332
 21
56801.74870821209
  0
LINE
  8
KADRBM
 62
   211
 10
84269.08477486332
 20
56801.74870821209
 11
84269.35543945152
 21
56802.54378543927
  0
LINE
  8
KADRBM
 62
   211
 10
84269.35543945152
 20
56802.54378543927
 11
84269.59227096569
 21
56803.7279430109
  0
LINE
  8
KADRBM
 62
   211
 10
84269.59227096569
 20
56803.7279430109
 11
84269.65993711294
 21
56804.99668326722
  0
LINE
  8
KADRBM
 62
   211
 10
84269.37235598813
 20
56781.75336177977
 11
84269.37235598813
 21
56783.85101233648
  0
LINE
  8
KADRBM
 62
   211
 10
84269.37235598813
 20
56783.85101233648
 11
84256.38045576843
 21
56783.85101233648
  0
LINE
  8
KADRBM
 62
   211
 10
84252.82798305189
 20
56783.98634463018
 11
84252.82798305189
 21
56781.75336177977
  0
LINE
  8
KADRBM
 62
   211
 10
84252.82798305189
 20
56781.75336177977
 11
84269.37235598813
 21
56781.75336177977
  0
LINE
  8
KADRBM
 62
   211
 10
84269.37235598813
 20
56792.5291956865
 11
84269.37235598813
 21
56794.77909507351
  0
LINE
  8
KADRBM
 62
   211
 10
84269.37235598813
 20
56794.77909507351
 11
84252.82798305189
 21
56794.77909507351
  0
LINE
  8
KADRBM
 62
   211
 10
84252.82798305189
 20
56794.77909507351
 11
84252.82798305189
 21
56792.6814445168
  0
LINE
  8
KADRBM
 62
   211
 10
84252.82798305189
 20
56792.6814445168
 11
84265.8367998082
 21
56792.6814445168
  0
LINE
  8
KADRBM
 62
   211
 10
84265.8367998082
 20
56792.6814445168
 11
84252.82798305189
 21
56783.98634463018
  0
LINE
  8
KADRBM
 62
   211
 10
84256.38045576843
 20
56783.85101233648
 11
84269.37235598813
 21
56792.5291956865
  0
LINE
  8
KADRBM
 62
   211
 10
84071.91223390703
 20
56887.76531240674
 11
84069.19736791053
 21
56879.76486659392
  0
LINE
  8
KADRBM
 62
   211
 10
84074.79527744232
 20
56879.76486659392
 11
84071.91223390703
 21
56887.76531240674
  0
LINE
  8
KADRBM
 62
   211
 10
84288.24307786231
 20
56786.20388166331
 11
84287.97409039643
 21
56785.07902498943
  0
LINE
  8
KADRBM
 62
   211
 10
84287.97409039643
 20
56785.07902498943
 11
84287.28939502954
 21
56784.05198193951
  0
LINE
  8
KADRBM
 62
   211
 10
84287.28939502954
 20
56784.05198193951
 11
84286.70251328743
 21
56783.6607274445
  0
LINE
  8
KADRBM
 62
   211
 10
84286.70251328743
 20
56783.6607274445
 11
84285.38202936563
 21
56783.34283316745
  0
LINE
  8
KADRBM
 62
   211
 10
84281.64065825497
 20
56783.29392635466
 11
84281.73847187811
 21
56783.19611273152
  0
LINE
  8
KADRBM
 62
   211
 10
84281.73847187811
 20
56783.19611273152
 11
84282.76551492885
 21
56782.41360374067
  0
LINE
  8
KADRBM
 62
   211
 10
84282.76551492885
 20
56782.41360374067
 11
84283.98818522587
 21
56781.9245356217
  0
LINE
  8
KADRBM
 62
   211
 10
84283.98818522587
 20
56781.9245356217
 11
84285.40648277162
 21
56781.75336177977
  0
LINE
  8
KADRBM
 62
   211
 10
84285.40648277162
 20
56781.75336177977
 11
84286.14008495049
 21
56781.80226859175
  0
LINE
  8
KADRBM
 62
   211
 10
84286.14008495049
 20
56781.80226859175
 11
84287.43611546466
 21
56782.16906968159
  0
LINE
  8
KADRBM
 62
   211
 10
84287.43611546466
 20
56782.16906968159
 11
84288.56097213936
 21
56782.87821845365
  0
LINE
  8
KADRBM
 62
   211
 10
84288.56097213936
 20
56782.87821845365
 11
84289.0989470703
 21
56783.44064679059
  0
LINE
  8
KADRBM
 62
   211
 10
84289.0989470703
 20
56783.44064679059
 11
84289.7591890312
 21
56784.56550346447
  0
LINE
  8
KADRBM
 62
   211
 10
84289.7591890312
 20
56784.56550346447
 11
84290.15044352622
 21
56785.95934760424
  0
LINE
  8
KADRBM
 62
   211
 10
84290.15044352622
 20
56785.95934760424
 11
84288.24307786231
 21
56786.20388166331
  0
LINE
  8
KADRBM
 62
   211
 10
84285.47984298877
 20
56792.09715249778
 11
84285.94445770176
 21
56792.07269909179
  0
LINE
  8
KADRBM
 62
   211
 10
84285.94445770176
 20
56792.07269909179
 11
84287.1426745936
 21
56791.53472416084
  0
LINE
  8
KADRBM
 62
   211
 10
84287.1426745936
 20
56791.53472416084
 11
84287.53392908943
 21
56791.09456285385
  0
LINE
  8
KADRBM
 62
   211
 10
84287.53392908943
 20
56791.09456285385
 11
84288.09635742637
 21
56789.79853233804
  0
LINE
  8
KADRBM
 62
   211
 10
84288.09635742637
 20
56789.79853233804
 11
84289.97926968511
 21
56790.09197320991
  0
LINE
  8
KADRBM
 62
   211
 10
84289.97926968511
 20
56790.09197320991
 11
84289.85700265516
 21
56790.53213451691
  0
LINE
  8
KADRBM
 62
   211
 10
84289.85700265516
 20
56790.53213451691
 11
84289.31902772421
 21
56791.80371162672
  0
LINE
  8
KADRBM
 62
   211
 10
84289.31902772421
 20
56791.80371162672
 11
84288.4631585154
 21
56792.75739445868
  0
LINE
  8
KADRBM
 62
   211
 10
84285.40648277162
 20
56793.68662388464
 11
84285.33312255284
 21
56793.68662388464
  0
LINE
  8
KADRBM
 62
   211
 10
84285.33312255284
 20
56793.68662388464
 11
84283.96373181988
 21
56793.51545004353
  0
LINE
  8
KADRBM
 62
   211
 10
84283.96373181988
 20
56793.51545004353
 11
84282.69215471088
 21
56793.00192851776
  0
LINE
  8
KADRBM
 62
   211
 10
84282.69215471088
 20
56793.00192851776
 11
84282.59434108692
 21
56792.95302170578
  0
LINE
  8
KADRBM
 62
   211
 10
84282.59434108692
 20
56792.95302170578
 11
84281.567298037
 21
56792.09715249778
  0
LINE
  8
KADRBM
 62
   211
 10
84281.567298037
 20
56792.09715249778
 11
84280.83369585813
 21
56790.92338901192
  0
LINE
  8
KADRBM
 62
   211
 10
84280.83369585813
 20
56790.92338901192
 11
84280.63806861104
 21
56790.45877429894
  0
LINE
  8
KADRBM
 62
   211
 10
84280.63806861104
 20
56790.45877429894
 11
84280.32017433317
 21
56789.13829037796
  0
LINE
  8
KADRBM
 62
   211
 10
84280.32017433317
 20
56789.13829037796
 11
84280.22236070922
 21
56787.69553942622
  0
LINE
  8
KADRBM
 62
   211
 10
84280.22236070922
 20
56787.69553942622
 11
84280.2468141152
 21
56786.93748384218
  0
LINE
  8
KADRBM
 62
   211
 10
84280.2468141152
 20
56786.93748384218
 11
84280.46689476911
 21
56785.49473289044
  0
LINE
  8
KADRBM
 62
   211
 10
84280.46689476911
 20
56785.49473289044
 11
84280.93150948209
 21
56784.29651599859
  0
LINE
  8
KADRBM
 62
   211
 10
84280.93150948209
 20
56784.29651599859
 11
84281.64065825497
 21
56783.29392635466
  0
LINE
  8
KADRBM
 62
   211
 10
84285.38202936563
 20
56783.34283316745
 11
84284.1349056618
 21
56783.58736722653
  0
LINE
  8
KADRBM
 62
   211
 10
84284.1349056618
 20
56783.58736722653
 11
84283.0834092059
 21
56784.39432962336
  0
LINE
  8
KADRBM
 62
   211
 10
84283.0834092059
 20
56784.39432962336
 11
84282.71660811687
 21
56784.93230455431
  0
LINE
  8
KADRBM
 62
   211
 10
84282.71660811687
 20
56784.93230455431
 11
84282.32535362104
 21
56786.15497485134
  0
LINE
  8
KADRBM
 62
   211
 10
84282.32535362104
 20
56786.15497485134
 11
84282.2030865911
 21
56787.7444462382
  0
LINE
  8
KADRBM
 62
   211
 10
84282.2030865911
 20
56787.7444462382
 11
84282.25199340389
 21
56788.69812907015
  0
LINE
  8
KADRBM
 62
   211
 10
84282.25199340389
 20
56788.69812907015
 11
84282.54543427494
 21
56790.06751980392
  0
LINE
  8
KADRBM
 62
   211
 10
84282.54543427494
 20
56790.06751980392
 11
84283.10786261107
 21
56791.07010944786
  0
LINE
  8
KADRBM
 62
   211
 10
84283.10786261107
 20
56791.07010944786
 11
84284.15935906698
 21
56791.8281650319
  0
LINE
  8
KADRBM
 62
   211
 10
84284.15935906698
 20
56791.8281650319
 11
84285.47984298877
 21
56792.09715249778
  0
LINE
  8
KADRBM
 62
   211
 10
84288.4631585154
 20
56792.75739445868
 11
84288.07190402038
 21
56793.02638192374
  0
LINE
  8
KADRBM
 62
   211
 10
84288.07190402038
 20
56793.02638192374
 11
84286.84923372336
 21
56793.53990344871
  0
LINE
  8
KADRBM
 62
   211
 10
84286.84923372336
 20
56793.53990344871
 11
84285.40648277162
 21
56793.68662388464
  0
LINE
  8
KADRBM
 62
   211
 10
84296.43496885651
 20
56792.09715249778
 11
84296.45942226169
 21
56792.09715249778
  0
LINE
  8
KADRBM
 62
   211
 10
84296.45942226169
 20
56792.09715249778
 11
84297.75545277749
 21
56791.8281650319
  0
LINE
  8
KADRBM
 62
   211
 10
84297.75545277749
 20
56791.8281650319
 11
84298.8314026394
 21
56790.99674922989
  0
LINE
  8
KADRBM
 62
   211
 10
84298.8314026394
 20
56790.99674922989
 11
84299.17375032243
 21
56790.50768111092
  0
LINE
  8
KADRBM
 62
   211
 10
84299.17375032243
 20
56790.50768111092
 11
84299.63836503541
 21
56789.30946421988
  0
LINE
  8
KADRBM
 62
   211
 10
84299.63836503541
 20
56789.30946421988
 11
84299.78508547135
 21
56787.79335305018
  0
LINE
  8
KADRBM
 62
   211
 10
84299.78508547135
 20
56787.79335305018
 11
84299.73617865937
 21
56786.81521681223
  0
LINE
  8
KADRBM
 62
   211
 10
84299.73617865937
 20
56786.81521681223
 11
84299.41828438232
 21
56785.47027948445
  0
LINE
  8
KADRBM
 62
   211
 10
84299.41828438232
 20
56785.47027948445
 11
84298.8314026394
 21
56784.44323643453
  0
LINE
  8
KADRBM
 62
   211
 10
84298.8314026394
 20
56784.44323643453
 11
84298.8069492334
 21
56784.41878302854
  0
LINE
  8
KADRBM
 62
   211
 10
84298.8069492334
 20
56784.41878302854
 11
84297.73099937232
 21
56783.61182063252
  0
LINE
  8
KADRBM
 62
   211
 10
84297.73099937232
 20
56783.61182063252
 11
84296.43496885651
 21
56783.34283316745
  0
LINE
  8
KADRBM
 62
   211
 10
84300.32306040311
 20
56783.31837976065
 11
84301.10556939314
 21
56784.41878302854
  0
LINE
  8
KADRBM
 62
   211
 10
84301.10556939314
 20
56784.41878302854
 11
84301.37455685902
 21
56785.03011817746
  0
LINE
  8
KADRBM
 62
   211
 10
84301.37455685902
 20
56785.03011817746
 11
84301.66799773008
 21
56786.32614869326
  0
LINE
  8
KADRBM
 62
   211
 10
84301.66799773008
 20
56786.32614869326
 11
84301.76581135404
 21
56787.89116667413
  0
LINE
  8
KADRBM
 62
   211
 10
84301.76581135404
 20
56787.89116667413
 11
84301.74135794723
 21
56788.52695522904
  0
LINE
  8
KADRBM
 62
   211
 10
84301.74135794723
 20
56788.52695522904
 11
84301.52127729414
 21
56789.94525277398
  0
LINE
  8
KADRBM
 62
   211
 10
84301.52127729414
 20
56789.94525277398
 11
84301.03220917517
 21
56791.14346966583
  0
LINE
  8
KADRBM
 62
   211
 10
84301.03220917517
 20
56791.14346966583
 11
84300.27415359113
 21
56792.14605930976
  0
LINE
  8
KADRBM
 62
   211
 10
84296.43496885651
 20
56793.68662388464
 11
84295.21229855868
 21
56793.5888102615
  0
LINE
  8
KADRBM
 62
   211
 10
84295.21229855868
 20
56793.5888102615
 11
84293.96517485485
 21
56793.14864895369
  0
LINE
  8
KADRBM
 62
   211
 10
84293.96517485485
 20
56793.14864895369
 11
84292.84031818178
 21
56792.41504677564
  0
LINE
  8
KADRBM
 62
   211
 10
84292.84031818178
 20
56792.41504677564
 11
84292.15562281408
 21
56791.68144459678
  0
LINE
  8
KADRBM
 62
   211
 10
84292.15562281408
 20
56791.68144459678
 11
84291.56874107115
 21
56790.58104132889
  0
LINE
  8
KADRBM
 62
   211
 10
84291.56874107115
 20
56790.58104132889
 11
84291.20193998213
 21
56789.26055740791
  0
LINE
  8
KADRBM
 62
   211
 10
84291.20193998213
 20
56789.26055740791
 11
84291.07967295218
 21
56787.71999283221
  0
LINE
  8
KADRBM
 62
   211
 10
84291.07967295218
 20
56787.71999283221
 11
84291.12857976416
 21
56786.8885770302
  0
LINE
  8
KADRBM
 62
   211
 10
84291.12857976416
 20
56786.8885770302
 11
84291.37311382405
 21
56785.47027948445
  0
LINE
  8
KADRBM
 62
   211
 10
84291.37311382405
 20
56785.47027948445
 11
84291.83772853704
 21
56784.27206259342
  0
LINE
  8
KADRBM
 62
   211
 10
84291.83772853704
 20
56784.27206259342
 11
84292.5713307159
 21
56783.29392635466
  0
LINE
  8
KADRBM
 62
   211
 10
84292.5713307159
 20
56783.29392635466
 11
84292.71805115184
 21
56783.14720591954
  0
LINE
  8
KADRBM
 62
   211
 10
84292.71805115184
 20
56783.14720591954
 11
84293.76954760775
 21
56782.36469692869
  0
LINE
  8
KADRBM
 62
   211
 10
84293.76954760775
 20
56782.36469692869
 11
84295.01667131076
 21
56781.9245356217
  0
LINE
  8
KADRBM
 62
   211
 10
84295.01667131076
 20
56781.9245356217
 11
84296.43496885651
 21
56781.75336177977
  0
LINE
  8
KADRBM
 62
   211
 10
84296.43496885651
 20
56781.75336177977
 11
84296.55723588646
 21
56781.75336177977
  0
LINE
  8
KADRBM
 62
   211
 10
84296.55723588646
 20
56781.75336177977
 11
84297.92662661942
 21
56781.94898902769
  0
LINE
  8
KADRBM
 62
   211
 10
84297.92662661942
 20
56781.94898902769
 11
84299.19820372842
 21
56782.46251055265
  0
LINE
  8
KADRBM
 62
   211
 10
84299.19820372842
 20
56782.46251055265
 11
84299.24711054121
 21
56782.48696395864
  0
LINE
  8
KADRBM
 62
   211
 10
84299.24711054121
 20
56782.48696395864
 11
84300.32306040311
 21
56783.31837976065
  0
LINE
  8
KADRBM
 62
   211
 10
84296.43496885651
 20
56783.34283316745
 11
84296.41051545052
 21
56783.34283316745
  0
LINE
  8
KADRBM
 62
   211
 10
84296.41051545052
 20
56783.34283316745
 11
84295.09003152873
 21
56783.63627403851
  0
LINE
  8
KADRBM
 62
   211
 10
84295.09003152873
 20
56783.63627403851
 11
84294.03853507282
 21
56784.44323643453
  0
LINE
  8
KADRBM
 62
   211
 10
84294.03853507282
 20
56784.44323643453
 11
84293.6472805778
 21
56784.98121136548
  0
LINE
  8
KADRBM
 62
   211
 10
84293.6472805778
 20
56784.98121136548
 11
84293.20711927
 21
56786.17942825732
  0
LINE
  8
KADRBM
 62
   211
 10
84293.20711927
 20
56786.17942825732
 11
84293.06039883406
 21
56787.71999283221
  0
LINE
  8
KADRBM
 62
   211
 10
84293.06039883406
 20
56787.71999283221
 11
84293.10930564685
 21
56788.62476885218
  0
LINE
  8
KADRBM
 62
   211
 10
84293.10930564685
 20
56788.62476885218
 11
84293.4271999239
 21
56789.99415958596
  0
LINE
  8
KADRBM
 62
   211
 10
84293.4271999239
 20
56789.99415958596
 11
84294.03853507282
 21
56790.99674922989
  0
LINE
  8
KADRBM
 62
   211
 10
84294.03853507282
 20
56790.99674922989
 11
84294.03853507282
 21
56791.02120263588
  0
LINE
  8
KADRBM
 62
   211
 10
84294.03853507282
 20
56791.02120263588
 11
84295.11448493472
 21
56791.8281650319
  0
LINE
  8
KADRBM
 62
   211
 10
84295.11448493472
 20
56791.8281650319
 11
84296.43496885651
 21
56792.09715249778
  0
LINE
  8
KADRBM
 62
   211
 10
84300.27415359113
 20
56792.14605930976
 11
84300.1274331552
 21
56792.29277974569
  0
LINE
  8
KADRBM
 62
   211
 10
84300.1274331552
 20
56792.29277974569
 11
84299.07593669929
 21
56793.07528873572
  0
LINE
  8
KADRBM
 62
   211
 10
84299.07593669929
 20
56793.07528873572
 11
84297.85326640145
 21
56793.53990344871
  0
LINE
  8
KADRBM
 62
   211
 10
84297.85326640145
 20
56793.53990344871
 11
84296.43496885651
 21
56793.68662388464
  0
LINE
  8
KADRBM
 62
   211
 10
84308.80839226837
 20
56791.75480481474
 11
84309.24855357537
 21
56791.70589800277
  0
LINE
  8
KADRBM
 62
   211
 10
84309.24855357537
 20
56791.70589800277
 11
84310.34895684326
 21
56791.09456285385
  0
LINE
  8
KADRBM
 62
   211
 10
84312.45194975508
 20
56791.43691053688
 11
84312.23186910199
 21
56791.92597865667
  0
LINE
  8
KADRBM
 62
   211
 10
84313.38117918186
 20
56792.48840699279
 11
84312.45194975508
 21
56791.43691053688
  0
LINE
  8
KADRBM
 62
   211
 10
84310.34895684326
 20
56791.09456285385
 11
84310.59349090315
 21
56790.62994814086
  0
LINE
  8
KADRBM
 62
   211
 10
84310.59349090315
 20
56790.62994814086
 11
84310.81357155624
 21
56789.16274378395
  0
LINE
  8
KADRBM
 62
   211
 10
84310.81357155624
 20
56789.16274378395
 11
84310.81357155624
 21
56781.75336177977
  0
LINE
  8
KADRBM
 62
   211
 10
84310.81357155624
 20
56781.75336177977
 11
84312.74539062614
 21
56781.75336177977
  0
LINE
  8
KADRBM
 62
   211
 10
84312.74539062614
 20
56781.75336177977
 11
84312.74539062614
 21
56788.38023479311
  0
LINE
  8
KADRBM
 62
   211
 10
84312.74539062614
 20
56788.38023479311
 11
84312.74539062614
 21
56788.42914160508
  0
LINE
  8
KADRBM
 62
   211
 10
84312.74539062614
 20
56788.42914160508
 11
84312.96547128004
 21
56789.92079936799
  0
LINE
  8
KADRBM
 62
   211
 10
84312.96547128004
 20
56789.92079936799
 11
84313.55235302378
 21
56790.94784241873
  0
LINE
  8
KADRBM
 62
   211
 10
84313.55235302378
 20
56790.94784241873
 11
84314.21259498387
 21
56791.46136394287
  0
LINE
  8
KADRBM
 62
   211
 10
84314.21259498387
 20
56791.46136394287
 11
84315.53307890566
 21
56791.75480481474
  0
LINE
  8
KADRBM
 62
   211
 10
84305.77616993058
 20
56793.17310235968
 11
84304.03997810779
 21
56793.17310235968
  0
LINE
  8
KADRBM
 62
   211
 10
84304.03997810779
 20
56793.17310235968
 11
84304.03997810779
 21
56781.75336177977
  0
LINE
  8
KADRBM
 62
   211
 10
84304.03997810779
 20
56781.75336177977
 11
84305.97179717768
 21
56781.75336177977
  0
LINE
  8
KADRBM
 62
   211
 10
84305.97179717768
 20
56781.75336177977
 11
84305.97179717768
 21
56787.67108602104
  0
LINE
  8
KADRBM
 62
   211
 10
84305.97179717768
 20
56787.67108602104
 11
84306.02070398966
 21
56788.86930291208
  0
LINE
  8
KADRBM
 62
   211
 10
84306.02070398966
 20
56788.86930291208
 11
84306.28969145473
 21
56790.06751980392
  0
LINE
  8
KADRBM
 62
   211
 10
84306.28969145473
 20
56790.06751980392
 11
84306.41195848468
 21
56790.33650726899
  0
LINE
  8
KADRBM
 62
   211
 10
84306.41195848468
 20
56790.33650726899
 11
84307.29228109948
 21
56791.31464350694
  0
LINE
  8
KADRBM
 62
   211
 10
84307.29228109948
 20
56791.31464350694
 11
84307.48790834658
 21
56791.43691053688
  0
LINE
  8
KADRBM
 62
   211
 10
84305.77616993058
 20
56791.55917756683
 11
84305.77616993058
 21
56793.17310235968
  0
LINE
  8
KADRBM
 62
   211
 10
84315.97324021265
 20
56793.41763641957
 11
84315.75315955793
 21
56793.41763641957
  0
LINE
  8
KADRBM
 62
   211
 10
84315.75315955793
 20
56793.41763641957
 11
84314.48158244975
 21
56793.14864895369
  0
LINE
  8
KADRBM
 62
   211
 10
84314.48158244975
 20
56793.14864895369
 11
84313.38117918186
 21
56792.48840699279
  0
LINE
  8
KADRBM
 62
   211
 10
84315.53307890566
 20
56791.75480481474
 11
84316.70684239152
 21
56791.43691053688
  0
LINE
  8
KADRBM
 62
   211
 10
84316.70684239152
 20
56791.43691053688
 11
84317.39153775759
 21
56790.62994814086
  0
LINE
  8
KADRBM
 62
   211
 10
84317.39153775759
 20
56790.62994814086
 11
84317.44044456957
 21
56790.40986748696
  0
LINE
  8
KADRBM
 62
   211
 10
84317.44044456957
 20
56790.40986748696
 11
84317.56271159952
 21
56788.94266313004
  0
LINE
  8
KADRBM
 62
   211
 10
84317.56271159952
 20
56788.94266313004
 11
84317.56271159952
 21
56781.75336177977
  0
LINE
  8
KADRBM
 62
   211
 10
84317.56271159952
 20
56781.75336177977
 11
84319.49453067023
 21
56781.75336177977
  0
LINE
  8
KADRBM
 62
   211
 10
84319.49453067023
 20
56781.75336177977
 11
84319.49453067023
 21
56789.57845168495
  0
LINE
  8
KADRBM
 62
   211
 10
84319.49453067023
 20
56789.57845168495
 11
84319.47007726342
 21
56790.06751980392
  0
LINE
  8
KADRBM
 62
   211
 10
84319.47007726342
 20
56790.06751980392
 11
84319.20108979836
 21
56791.48581734968
  0
LINE
  8
KADRBM
 62
   211
 10
84319.20108979836
 20
56791.48581734968
 11
84318.58975464944
 21
56792.48840699279
  0
LINE
  8
KADRBM
 62
   211
 10
84318.58975464944
 20
56792.48840699279
 11
84318.49194102548
 21
56792.58622061757
  0
LINE
  8
KADRBM
 62
   211
 10
84318.49194102548
 20
56792.58622061757
 11
84317.41599116358
 21
56793.22200917166
  0
LINE
  8
KADRBM
 62
   211
 10
84317.41599116358
 20
56793.22200917166
 11
84315.97324021265
 21
56793.41763641957
  0
LINE
  8
KADRBM
 62
   211
 10
84309.22410017019
 20
56793.41763641957
 11
84308.46604458534
 21
56793.3687296076
  0
LINE
  8
KADRBM
 62
   211
 10
84308.46604458534
 20
56793.3687296076
 11
84307.19446747552
 21
56792.9285683006
  0
LINE
  8
KADRBM
 62
   211
 10
84307.19446747552
 20
56792.9285683006
 11
84306.68094595056
 21
56792.58622061757
  0
LINE
  8
KADRBM
 62
   211
 10
84306.68094595056
 20
56792.58622061757
 11
84305.77616993058
 21
56791.55917756683
  0
LINE
  8
KADRBM
 62
   211
 10
84307.48790834658
 20
56791.43691053688
 11
84308.80839226837
 21
56791.75480481474
  0
LINE
  8
KADRBM
 62
   211
 10
84312.23186910199
 20
56791.92597865667
 11
84311.30263967603
 21
56792.90411489461
  0
LINE
  8
KADRBM
 62
   211
 10
84311.30263967603
 20
56792.90411489461
 11
84310.64239771431
 21
56793.22200917166
  0
LINE
  8
KADRBM
 62
   211
 10
84310.64239771431
 20
56793.22200917166
 11
84309.22410017019
 21
56793.41763641957
  0
CIRCLE
  8
KADRBM
 62
   211
 10
84274.42951342661
 20
56784.54838222235
 40
2.658578594162933
  0
LINE
  8
KADRBM
 62
   211
 10
84254.63844097778
 20
56918.04557788074
 11
84064.44034607592
 21
56918.04557788074
  0
LINE
  8
KADRBM
 62
   211
 10
84319.50345783657
 20
56918.04557788074
 11
84319.50345783657
 21
56887.99245930153
  0
LINE
  8
KADRBM
 62
   211
 10
84319.50345783657
 20
56875.0690022187
 11
84319.50345783657
 21
56798.42191495343
  0
LINE
  8
KADRBM
 62
   211
 10
84274.62116858107
 20
56875.0690022187
 11
84274.62116858107
 21
56798.42191495343
  0
LINE
  8
KADRBM
 62
   211
 10
84254.63844097778
 20
56894.76797648442
 11
84064.44034607592
 21
56894.76797648442
  0
LINE
  8
KADRBM
 62
   211
 10
84274.62116858107
 20
56918.04557788074
 11
84319.50345783657
 21
56918.04557788074
  0
LINE
  8
KADRBM
 62
   211
 10
84064.44034607592
 20
56894.76797648442
 11
84064.44034607592
 21
56918.04557788074
  0
LINE
  8
KADRBM
 62
   211
 10
84274.62116858107
 20
56798.42191495343
 11
84319.50345783657
 21
56798.42191495343
  0
LINE
  8
KADRBM
 62
   211
 10
84274.62116858107
 20
56887.99245930153
 11
84274.62116858107
 21
56918.04557788074
  0
ENDBLK
  8
0
  0
BLOCK
  8
0
  2
*U3
 70
     1
 10
0.0
 20
0.0
  0
SOLID
  8
1
  6
CONTINUOUS
 62
    91
 10
84274.62116858107
 20
56798.42191495343
 11
84274.62116858107
 21
56875.0690022187
 12
84319.50345783657
 22
56798.42191495343
 13
84319.50345783657
 23
56798.42191495343
  0
SOLID
  8
1
  6
CONTINUOUS
 62
    91
 10
84319.50345783657
 20
56798.42191495343
 11
84274.62116858107
 21
56875.0690022187
 12
84319.50345783657
 22
56875.0690022187
 13
84319.50345783657
 23
56875.0690022187
  0
SOLID
  8
1
  6
CONTINUOUS
 62
    91
 10
84274.62116858107
 20
56887.99245930153
 11
84274.62116858107
 21
56918.04557788074
 12
84319.50345783657
 22
56887.99245930153
 13
84319.50345783657
 23
56887.99245930153
  0
SOLID
  8
1
  6
CONTINUOUS
 62
    91
 10
84319.50345783657
 20
56887.99245930153
 11
84274.62116858107
 21
56918.04557788074
 12
84319.50345783657
 22
56918.04557788074
 13
84319.50345783657
 23
56918.04557788074
  0
ENDBLK
  8
0
  0
BLOCK
  8
0
  2
*U4
 70
     1
 10
0.0
 20
0.0
  0
SOLID
  8
1
  6
CONTINUOUS
 62
    91
 10
84064.44034607592
 20
56894.76797648442
 11
84064.44034607592
 21
56918.04557788074
 12
84254.63844097778
 22
56894.76797648442
 13
84254.63844097778
 23
56894.76797648442
  0
SOLID
  8
1
  6
CONTINUOUS
 62
    91
 10
84254.63844097778
 20
56894.76797648442
 11
84064.44034607592
 21
56918.04557788074
 12
84254.63844097778
 22
56918.04557788074
 13
84254.63844097778
 23
56918.04557788074
  0
ENDBLK
  8
0
  0
ENDSEC
  0
SECTION
  2
ENTITIES
  0
LINE
  8
KADRBM
 10
1253.345963688934
 20
2036.30716126978
 11
1239.188460962372
 21
2189.487635642682
  0
LINE
  8
KADRBM
 10
1285.298100269566
 20
2196.503248614668
 11
1265.382524067129
 21
2031.025414391102
  0
LINE
  8
KADRBM
 10
1279.112993987523
 20
2026.605373498456
 11
1289.372647333691
 21
2207.423372874303
  0
LINE
  8
KADRBM
 10
1236.364426892554
 20
2201.328388999305
 11
1248.334020167168
 21
2026.605373492278
  0
LINE
  8
KADRBM
 10
1713.250869704034
 20
1799.059134015948
 11
1711.540929775588
 21
2211.486703060501
  0
POLYLINE
  8
KADRBM
 66
     1
  0
VERTEX
  8
KADRBM
 10
1718.498279298546
 20
1821.895142841569
  0
VERTEX
  8
KADRBM
 10
1736.390939332795
 20
2006.231205087078
  0
VERTEX
  8
KADRBM
 10
1721.04437664426
 20
2190.890771931478
  0
SEQEND
  8
KADRBM
  0
POLYLINE
  8
KADRBM
 66
     1
  0
VERTEX
  8
KADRBM
 10
1472.914175670004
 20
1546.375231946479
  0
VERTEX
  8
KADRBM
 10
1539.715081528194
 20
1651.697847841398
  0
VERTEX
  8
KADRBM
 10
1587.703136571647
 20
1770.604777861485
  0
VERTEX
  8
KADRBM
 10
1614.99121121968
 20
1898.420008678296
  0
SEQEND
  8
KADRBM
  0
POLYLINE
  8
KADRBM
 66
     1
  0
VERTEX
  8
KADRBM
 10
1464.413840395016
 20
1534.832783150731
  0
VERTEX
  8
KADRBM
 10
1514.078458387412
 20
1580.446722656016
  0
VERTEX
  8
KADRBM
 10
1555.683902775083
 20
1636.287094904234
  0
VERTEX
  8
KADRBM
 10
1587.761999223551
 20
1700.383402943138
  0
VERTEX
  8
KADRBM
 10
1609.180774775962
 20
1770.47381407793
  0
VERTEX
  8
KADRBM
 10
1619.184402953237
 20
1844.084975500203
  0
VERTEX
  8
KADRBM
 10
1617.419875384533
 20
1918.619294045838
  0
SEQEND
  8
KADRBM
  0
POLYLINE
  8
KADRBM
 66
     1
  0
VERTEX
  8
KADRBM
 10
1625.644547617866
 20
1900.759829464329
  0
VERTEX
  8
KADRBM
 10
1569.779475397334
 20
1928.093250616903
  0
VERTEX
  8
KADRBM
 10
1510.361825373888
 20
1941.110194393918
  0
VERTEX
  8
KADRBM
 10
1449.962116780533
 20
1939.2475233384
  0
VERTEX
  8
KADRBM
 10
1391.193354550074
 20
1922.585820101649
  0
VERTEX
  8
KADRBM
 10
1336.597985809816
 20
1891.845901286269
  0
SEQEND
  8
KADRBM
  0
POLYLINE
  8
KADRBM
 66
     1
  0
VERTEX
  8
KADRBM
 10
1622.62272482326
 20
1896.588572735433
  0
VERTEX
  8
KADRBM
 10
1579.496490427306
 20
1917.69869858794
  0
VERTEX
  8
KADRBM
 10
1533.70372310261
 20
1928.243748716028
  0
VERTEX
  8
KADRBM
 10
1487.059570655525
 20
1927.805735176927
  0
VERTEX
  8
KADRBM
 10
1441.412928357942
 20
1916.40202008612
  0
VERTEX
  8
KADRBM
 10
1398.573151867411
 20
1894.484627412471
  0
VERTEX
  8
KADRBM
 10
1360.23833743066
 20
1862.92232551301
  0
VERTEX
  8
KADRBM
 10
1327.92801222189
 20
1822.966190625387
  0
SEQEND
  8
KADRBM
  0
POLYLINE
  8
KADRBM
 66
     1
  0
VERTEX
  8
KADRBM
 10
1515.938554262195
 20
1735.920006772795
  0
VERTEX
  8
KADRBM
 10
1490.625873190691
 20
1650.136708697882
  0
VERTEX
  8
KADRBM
 10
1476.63215203082
 20
1560.77049402125
  0
SEQEND
  8
KADRBM
  0
POLYLINE
  8
KADRBM
 66
     1
  0
VERTEX
  8
KADRBM
 10
1405.298181552658
 20
1898.216998433374
  0
VERTEX
  8
KADRBM
 10
1382.566522721927
 20
1938.196538394096
  0
VERTEX
  8
KADRBM
 10
1353.499939880442
 20
1971.894048193834
  0
VERTEX
  8
KADRBM
 10
1319.298326939168
 20
1997.918465214603
  0
VERTEX
  8
KADRBM
 10
1281.373556333785
 20
2015.195478805927
  0
VERTEX
  8
KADRBM
 10
1241.291195698173
 20
2023.011878766216
  0
SEQEND
  8
KADRBM
  0
LINE
  8
KADRBM
 10
1728.640356600386
 20
1827.50242251474
 11
1627.152143899685
 21
1815.987936496313
  0
LINE
  8
KADRBM
 10
1623.414414210984
 20
1799.056665597564
 11
1718.498279306758
 21
1821.895142844258
  0
LINE
  8
KADRBM
 10
1591.027338498723
 20
1879.328872882348
 11
1554.666364234752
 21
1821.073392799002
  0
LINE
  8
KADRBM
 10
1541.400798435756
 20
1612.345142843296
 11
1748.212650734433
 21
1612.345142843296
  0
LINE
  8
KADRBM
 10
1508.439191933223
 20
1561.545142846277
 11
1748.360028374442
 21
1561.545142846277
  0
LINE
  8
KADRBM
 10
1730.350310314137
 20
2181.011760880058
 11
1272.273220495905
 21
2189.138398427777
  0
POLYLINE
  8
KADRBM
 66
     1
  0
VERTEX
  8
KADRBM
 10
1721.044376652564
 20
2190.890771937526
  0
VERTEX
  8
KADRBM
 10
1576.740694465926
 20
2221.711927756714
  0
VERTEX
  8
KADRBM
 10
1430.130666004738
 20
2223.600286671891
  0
VERTEX
  8
KADRBM
 10
1285.298100269351
 20
2196.503248617326
  0
SEQEND
  8
KADRBM
  0
LINE
  8
KADRBM
 10
1740.221879306682
 20
2251.988356048336
 11
1740.221879306682
 21
190.2417842243813
  0
POLYLINE
  8
KADRBM
 66
     1
  0
VERTEX
  8
KADRBM
 10
926.4636085689508
 20
2073.524100398966
  0
VERTEX
  8
KADRBM
 10
885.7264385275686
 20
2061.977448660454
  0
VERTEX
  8
KADRBM
 10
848.2358970372878
 20
2039.806273292477
  0
VERTEX
  8
KADRBM
 10
815.9277861093407
 20
2008.155369866468
  0
SEQEND
  8
KADRBM
  0
POLYLINE
  8
KADRBM
 66
     1
  0
VERTEX
  8
KADRBM
 10
1051.503170748159
 20
1880.389164912945
  0
VERTEX
  8
KADRBM
 10
1032.738872067179
 20
1938.625091828714
  0
VERTEX
  8
KADRBM
 10
1004.902748139546
 20
1991.494074317516
  0
VERTEX
  8
KADRBM
 10
969.0320945526555
 20
2037.02598311896
  0
VERTEX
  8
KADRBM
 10
926.463608570085
 20
2073.524100392294
  0
SEQEND
  8
KADRBM
  0
LINE
  8
KADRBM
 10
726.5993390070939
 20
2012.713878966118
 11
739.199478571009
 21
2217.315032815471
  0
LINE
  8
KADRBM
 10
732.5493524815281
 20
2198.096803207216
 11
718.0340769276378
 21
2011.127144863872
  0
LINE
  8
KADRBM
 10
698.1207203365125
 20
1973.712958245593
 11
687.2625930982758
 21
2193.792208008525
  0
LINE
  8
KADRBM
 10
683.1988460404141
 20
2207.334488161825
 11
690.1989251065452
 21
1992.752789665336
  0
POLYLINE
  8
KADRBM
 66
     1
  0
VERTEX
  8
KADRBM
 10
780.9167009809953
 20
1592.172412588249
  0
VERTEX
  8
KADRBM
 10
822.0662495640022
 20
1691.151988340811
  0
VERTEX
  8
KADRBM
 10
847.907011242644
 20
1797.187313632751
  0
VERTEX
  8
KADRBM
 10
857.6324021143631
 20
1906.968641346451
  0
VERTEX
  8
KADRBM
 10
850.9388574537555
 20
2017.069298041074
  0
SEQEND
  8
KADRBM
  0
POLYLINE
  8
KADRBM
 66
     1
  0
VERTEX
  8
KADRBM
 10
848.7453421307412
 20
1976.296356049721
  0
VERTEX
  8
KADRBM
 10
806.2772167175976
 20
1859.949562165799
  0
VERTEX
  8
KADRBM
 10
783.3449395558763
 20
1736.099990560264
  0
VERTEX
  8
KADRBM
 10
780.7964821388115
 20
1609.327252120868
  0
SEQEND
  8
KADRBM
  0
LINE
  8
KADRBM
 10
804.7741161170088
 20
1612.345142843296
 11
835.9341342406951
 21
1612.345142843296
  0
POLYLINE
  8
KADRBM
 66
     1
  0
VERTEX
  8
KADRBM
 10
870.7867576517338
 20
1972.239122745517
  0
VERTEX
  8
KADRBM
 10
841.5803469776603
 20
1992.504831065691
  0
VERTEX
  8
KADRBM
 10
809.6400225856279
 20
2005.729970480639
  0
VERTEX
  8
KADRBM
 10
776.1554626128552
 20
2011.421945516673
  0
VERTEX
  8
KADRBM
 10
742.373863188131
 20
2009.368747736594
  0
VERTEX
  8
KADRBM
 10
709.553484239645
 20
1999.646852397209
  0
VERTEX
  8
KADRBM
 10
678.9167832105651
 20
1982.618369982921
  0
VERTEX
  8
KADRBM
 10
651.6048823062721
 20
1958.917558711951
  0
VERTEX
  8
KADRBM
 10
628.6350652272351
 20
1929.427200382547
  0
VERTEX
  8
KADRBM
 10
610.8628865025644
 20
1895.245719485726
  0
SEQEND
  8
KADRBM
  0
POLYLINE
  8
KADRBM
 66
     1
  0
VERTEX
  8
KADRBM
 10
844.1124599857926
 20
1967.12212103976
  0
VERTEX
  8
KADRBM
 10
801.2512601111393
 20
1972.512740195014
  0
VERTEX
  8
KADRBM
 10
758.3697263309743
 20
1967.355262677178
  0
VERTEX
  8
KADRBM
 10
717.2887042148308
 20
1951.868686485167
  0
VERTEX
  8
KADRBM
 10
679.752585591031
 20
1926.710606186168
  0
VERTEX
  8
KADRBM
 10
647.3552377788739
 20
1892.94928998358
  0
VERTEX
  8
KADRBM
 10
621.4723244272109
 20
1852.018318666382
  0
VERTEX
  8
KADRBM
 10
603.2028917675644
 20
1805.65571257129
  0
SEQEND
  8
KADRBM
  0
POLYLINE
  8
KADRBM
 66
     1
  0
VERTEX
  8
KADRBM
 10
814.6792430239907
 20
1658.639975438347
  0
VERTEX
  8
KADRBM
 10
895.8380235287358
 20
1599.294641576701
  0
VERTEX
  8
KADRBM
 10
984.6351192781356
 20
1558.175556993382
  0
VERTEX
  8
KADRBM
 10
1078.197908178093
 20
1536.612940766688
  0
VERTEX
  8
KADRBM
 10
1173.49959602649
 20
1535.304352284754
  0
SEQEND
  8
KADRBM
  0
POLYLINE
  8
KADRBM
 66
     1
  0
VERTEX
  8
KADRBM
 10
278.894966817668
 20
2214.656642640031
  0
VERTEX
  8
KADRBM
 10
250.3072475719193
 20
2147.915459748111
  0
VERTEX
  8
KADRBM
 10
233.0245563983339
 20
2075.902767671076
  0
VERTEX
  8
KADRBM
 10
227.6881807129964
 20
2001.290652183273
  0
VERTEX
  8
KADRBM
 10
234.4961307991512
 20
1926.847652644065
  0
VERTEX
  8
KADRBM
 10
253.1957924848654
 20
1855.336033236768
  0
VERTEX
  8
KADRBM
 10
283.0933005842348
 20
1789.409287052771
  0
SEQEND
  8
KADRBM
  0
POLYLINE
  8
KADRBM
 66
     1
  0
VERTEX
  8
KADRBM
 10
264.4284388937098
 20
2200.249100804524
  0
VERTEX
  8
KADRBM
 10
244.7626942941688
 20
2074.694971910729
  0
VERTEX
  8
KADRBM
 10
245.7641334354744
 20
1946.992477666876
  0
VERTEX
  8
KADRBM
 10
267.3954793185447
 20
1821.895142839776
  0
SEQEND
  8
KADRBM
  0
LINE
  8
KADRBM
 10
441.1811740053556
 20
1803.126939263359
 11
245.3082691325823
 21
1828.06812925596
  0
LINE
  8
KADRBM
 10
267.3954793206798
 20
1821.89514283794
 11
445.4879216685418
 21
1795.928282141568
  0
POLYLINE
  8
KADRBM
 66
     1
  0
VERTEX
  8
KADRBM
 10
476.3646044963252
 20
2043.811059737591
  0
VERTEX
  8
KADRBM
 10
453.695012349468
 20
1941.891091599558
  0
VERTEX
  8
KADRBM
 10
449.0536703328312
 20
1836.619206339
  0
VERTEX
  8
KADRBM
 10
462.6367463106682
 20
1732.444755204646
  0
VERTEX
  8
KADRBM
 10
493.8701470584306
 20
1633.770706026822
  0
SEQEND
  8
KADRBM
  0
POLYLINE
  8
KADRBM
 66
     1
  0
VERTEX
  8
KADRBM
 10
645.8739716201853
 20
1916.04485479495
  0
VERTEX
  8
KADRBM
 10
634.2094260111181
 20
1946.730893396097
  0
VERTEX
  8
KADRBM
 10
617.943727175239
 20
1974.305638905984
  0
VERTEX
  8
KADRBM
 10
597.6442698502175
 20
1997.807204248455
  0
VERTEX
  8
KADRBM
 10
574.0191579656771
 20
2016.415786681749
  0
VERTEX
  8
KADRBM
 10
547.8925039249884
 20
2029.482264895145
  0
VERTEX
  8
KADRBM
 10
520.1756811751313
 20
2036.550842242404
  0
VERTEX
  8
KADRBM
 10
491.8355328583441
 20
2037.374946250364
  0
VERTEX
  8
KADRBM
 10
463.8606455199676
 20
2031.925829781744
  0
SEQEND
  8
KADRBM
  0
POLYLINE
  8
KADRBM
 66
     1
  0
VERTEX
  8
KADRBM
 10
471.3630209120892
 20
1663.483792343941
  0
VERTEX
  8
KADRBM
 10
578.962396699808
 20
1613.499557617378
  0
VERTEX
  8
KADRBM
 10
693.1214258584694
 20
1592.366281672344
  0
VERTEX
  8
KADRBM
 10
808.4254107252732
 20
1601.086340761599
  0
SEQEND
  8
KADRBM
  0
LINE
  8
KADRBM
 10
433.8745721685373
 20
1561.545142846277
 11
947.8109609963976
 21
1561.545142846277
  0
LINE
  8
KADRBM
 10
347.6805624919616
 20
1612.345142843296
 11
611.702517661699
 21
1612.345142843296
  0
POLYLINE
  8
KADRBM
 66
     1
  0
VERTEX
  8
KADRBM
 10
687.2625931002306
 20
2193.792208006692
  0
VERTEX
  8
KADRBM
 10
476.1132295583778
 20
2221.748864061447
  0
VERTEX
  8
KADRBM
 10
264.4284388914591
 20
2200.249100807122
  0
SEQEND
  8
KADRBM
  0
POLYLINE
  8
KADRBM
 66
     1
  0
VERTEX
  8
KADRBM
 10
706.999120372799
 20
2179.05627452547
  0
VERTEX
  8
KADRBM
 10
478.2149884660732
 20
2210.076156406903
  0
VERTEX
  8
KADRBM
 10
248.3416358111726
 20
2194.027102912065
  0
SEQEND
  8
KADRBM
  0
LINE
  8
KADRBM
 10
224.6218793126427
 20
2251.988356048336
 11
224.6218793126427
 21
190.2417842243813
  0
POLYLINE
  8
KADRBM
 66
     1
  0
VERTEX
  8
KADRBM
 10
1750.670141985644
 20
2216.807159350898
  0
VERTEX
  8
KADRBM
 10
1761.898190159639
 20
2220.972964231642
  0
VERTEX
  8
KADRBM
 10
1772.223883547248
 20
2227.665279893434
  0
SEQEND
  8
KADRBM
  0
POLYLINE
  8
KADRBM
 66
     1
  0
VERTEX
  8
KADRBM
 10
1772.223883550002
 20
2227.665279890045
  0
VERTEX
  8
KADRBM
 10
1775.561461142189
 20
2239.29722811004
  0
VERTEX
  8
KADRBM
 10
1776.691981130288
 20
2251.512453818757
  0
VERTEX
  8
KADRBM
 10
1775.561461142189
 20
2263.727679527476
  0
VERTEX
  8
KADRBM
 10
1772.223883550002
 20
2275.359627747475
  0
SEQEND
  8
KADRBM
  0
LINE
  8
KADRBM
 10
1772.223883542665
 20
2275.359627748003
 11
177.3550059231602
 21
2275.359627748003
  0
POLYLINE
  8
KADRBM
 66
     1
  0
VERTEX
  8
KADRBM
 10
177.3550059373852
 20
2275.359627745185
  0
VERTEX
  8
KADRBM
 10
173.8697659759547
 20
2259.057287913086
  0
VERTEX
  8
KADRBM
 10
173.5578043033468
 20
2242.241749867245
  0
VERTEX
  8
KADRBM
 10
176.4350738471298
 20
2225.77291751261
  0
SEQEND
  8
KADRBM
  0
POLYLINE
  8
KADRBM
 66
     1
  0
VERTEX
  8
KADRBM
 10
176.4350738443459
 20
2225.772917511131
  0
VERTEX
  8
KADRBM
 10
194.9174696896208
 20
2218.99312192923
  0
VERTEX
  8
KADRBM
 10
214.1736166354353
 20
2216.807159343739
  0
SEQEND
  8
KADRBM
  0
LINE
  8
KADRBM
 10
214.173616636238
 20
2216.807159344622
 11
212.0952766673627
 21
2033.760668477892
  0
LINE
  8
KADRBM
 10
212.0952766640294
 20
2033.760668480138
 11
208.0591228064768
 21
1805.233034192072
  0
LINE
  8
KADRBM
 10
208.0591228059074
 20
1805.233034191992
 11
213.6715226200475
 21
1668.205583017431
  0
LINE
  8
KADRBM
 10
215.8292334279437
 20
1544.500862711155
 11
213.6715226257066
 21
1668.205583019509
  0
LINE
  8
KADRBM
 10
215.8292334124849
 20
1544.500862708595
 11
215.8292334124849
 21
1390.261150790345
  0
LINE
  8
KADRBM
 10
209.3008353901341
 20
1184.295261335876
 11
215.8292334140656
 21
1390.261150788035
  0
LINE
  8
KADRBM
 10
209.3008353987389
 20
1184.295261341801
 11
204.5785647819857
 21
1034.269205638863
  0
LINE
  8
KADRBM
 10
212.5341774883082
 20
749.4343150604268
 11
204.578564781528
 21
1034.269205631261
  0
LINE
  8
KADRBM
 10
212.5341774929243
 20
749.4343150635207
 11
208.0463582156799
 21
560.825434869851
  0
POLYLINE
  8
KADRBM
 66
     1
  0
VERTEX
  8
KADRBM
 10
211.9441781118412
 20
462.6424477882929
  0
VERTEX
  8
KADRBM
 10
213.3259710664876
 20
511.9204492328673
  0
VERTEX
  8
KADRBM
 10
208.0463582089096
 20
560.8254348697792
  0
SEQEND
  8
KADRBM
  0
LINE
  8
KADRBM
 10
211.9441781121959
 20
462.6424477922074
 11
206.2788644092049
 21
334.0730415032757
  0
POLYLINE
  8
KADRBM
 66
     1
  0
VERTEX
  8
KADRBM
 10
192.0485558926052
 20
293.068193819246
  0
VERTEX
  8
KADRBM
 10
198.2513760424787
 20
301.7601660722705
  0
VERTEX
  8
KADRBM
 10
202.8085193026814
 20
311.7864744037111
  0
VERTEX
  8
KADRBM
 10
205.5233889029338
 20
322.7145803298637
  0
VERTEX
  8
KADRBM
 10
206.2788644095199
 20
334.073041500184
  0
SEQEND
  8
KADRBM
  0
POLYLINE
  8
KADRBM
 66
     1
  0
VERTEX
  8
KADRBM
 10
192.0485558875939
 20
293.0681938190751
  0
VERTEX
  8
KADRBM
 10
180.379737908928
 20
275.4178322495094
  0
VERTEX
  8
KADRBM
 10
172.1020850339389
 20
255.2449646441383
  0
VERTEX
  8
KADRBM
 10
167.5868136406945
 20
233.4542555208878
  0
VERTEX
  8
KADRBM
 10
167.0364138212424
 20
211.0229224846063
  0
VERTEX
  8
KADRBM
 10
170.475568590267
 20
188.9569123091824
  0
VERTEX
  8
KADRBM
 10
177.7500469602828
 20
168.2457886426014
  0
SEQEND
  8
KADRBM
  0
POLYLINE
  8
KADRBM
 66
     1
  0
VERTEX
  8
KADRBM
 10
177.7500469688907
 20
168.2457886454281
  0
VERTEX
  8
KADRBM
 10
183.1689657316624
 20
157.3379143710127
  0
VERTEX
  8
KADRBM
 10
190.3476759878194
 20
147.9724529444591
  0
VERTEX
  8
KADRBM
 10
198.9842083273738
 20
140.5433585386375
  0
VERTEX
  8
KADRBM
 10
208.7152706711278
 20
135.3631328668671
  0
VERTEX
  8
KADRBM
 10
219.1315299982958
 20
132.6496799305482
  0
VERTEX
  8
KADRBM
 10
229.7948307668555
 20
132.5171399795267
  0
VERTEX
  8
KADRBM
 10
240.2566257410631
 20
134.9710882507716
  0
SEQEND
  8
KADRBM
  0
POLYLINE
  8
KADRBM
 66
     1
  0
VERTEX
  8
KADRBM
 10
240.2566257295616
 20
134.9710882465256
  0
VERTEX
  8
KADRBM
 10
257.0783504627069
 20
145.7797946291025
  0
VERTEX
  8
KADRBM
 10
272.1843727390729
 20
159.7115465904303
  0
VERTEX
  8
KADRBM
 10
285.1675763737417
 20
176.3908752212255
  0
SEQEND
  8
KADRBM
  0
POLYLINE
  8
KADRBM
 66
     1
  0
VERTEX
  8
KADRBM
 10
337.7792572001463
 20
196.7508020961736
  0
VERTEX
  8
KADRBM
 10
329.5481736789986
 20
199.2546731744662
  0
VERTEX
  8
KADRBM
 10
321.0677929530025
 20
199.8815857321993
  0
VERTEX
  8
KADRBM
 10
312.6388009103786
 20
198.6093115504579
  0
VERTEX
  8
KADRBM
 10
304.5600613688058
 20
195.4829612091509
  0
VERTEX
  8
KADRBM
 10
297.1180193657473
 20
190.6133846169838
  0
VERTEX
  8
KADRBM
 10
290.5765447771163
 20
184.1732406450832
  0
VERTEX
  8
KADRBM
 10
285.1675763755347
 20
176.3908752218958
  0
SEQEND
  8
KADRBM
  0
LINE
  8
KADRBM
 10
337.7792572098313
 20
196.750802091429
 11
556.9590817845545
 21
199.2390396656268
  0
LINE
  8
KADRBM
 10
670.5945688248446
 20
214.3332908677666
 11
556.9590817835658
 21
199.2390396791664
  0
LINE
  8
KADRBM
 10
762.2167005012351
 20
212.3717651643389
 11
670.5945688175711
 21
214.3332908583532
  0
LINE
  8
KADRBM
 10
762.2167005005642
 20
212.3717651667384
 11
846.4198018740965
 21
214.4604262372402
  0
LINE
  8
KADRBM
 10
1050.264175872485
 20
212.0124898884835
 11
846.4198018725142
 21
214.4604262362618
  0
LINE
  8
KADRBM
 10
1050.264175886201
 20
212.0124898831154
 11
1084.391783111772
 21
205.1947031680828
  0
LINE
  8
KADRBM
 10
1084.39178310894
 20
205.1947031683103
 11
1118.519390334454
 21
212.0124898833428
  0
LINE
  8
KADRBM
 10
1322.363764333183
 20
214.4604262365458
 11
1118.519390333212
 21
212.012489888768
  0
LINE
  8
KADRBM
 10
1322.363764326728
 20
214.4604262331624
 11
1396.118658118785
 21
212.3717651626605
  0
LINE
  8
KADRBM
 10
1512.158789808597
 20
214.3332908547128
 11
1396.118658124908
 21
212.3717651606987
  0
LINE
  8
KADRBM
 10
1625.794276847764
 20
199.2390396791664
 11
1512.158789806485
 21
214.3332908677664
  0
POLYLINE
  8
KADRBM
 66
     1
  0
VERTEX
  8
KADRBM
 10
1679.676182240275
 20
176.3908752260613
  0
VERTEX
  8
KADRBM
 10
1672.696642874009
 20
184.9239313428444
  0
VERTEX
  8
KADRBM
 10
1664.527410839535
 20
191.8081391340194
  0
VERTEX
  8
KADRBM
 10
1655.440655705011
 20
196.8141414392412
  0
VERTEX
  8
KADRBM
 10
1645.739115623847
 20
199.7751561815832
  0
VERTEX
  8
KADRBM
 10
1635.746011183144
 20
200.5925329493143
  0
VERTEX
  8
KADRBM
 10
1625.794276850758
 20
199.2390396744804
  0
SEQEND
  8
KADRBM
  0
POLYLINE
  8
KADRBM
 66
     1
  0
VERTEX
  8
KADRBM
 10
1679.676182238133
 20
176.3908752211119
  0
VERTEX
  8
KADRBM
 10
1692.659385872812
 20
159.7115465903008
  0
VERTEX
  8
KADRBM
 10
1707.765408149198
 20
145.7797946289724
  0
VERTEX
  8
KADRBM
 10
1724.58713288237
 20
134.9710882464119
  0
SEQEND
  8
KADRBM
  0
POLYLINE
  8
KADRBM
 66
     1
  0
VERTEX
  8
KADRBM
 10
1724.587132885712
 20
134.9710882507716
  0
VERTEX
  8
KADRBM
 10
1735.04892785991
 20
132.5171399795183
  0
VERTEX
  8
KADRBM
 10
1745.712228628461
 20
132.6496799305342
  0
VERTEX
  8
KADRBM
 10
1756.12848795562
 20
135.3631328668505
  0
VERTEX
  8
KADRBM
 10
1765.859550299366
 20
140.5433585386213
  0
VERTEX
  8
KADRBM
 10
1774.496082638913
 20
147.9724529444461
  0
VERTEX
  8
KADRBM
 10
1781.674792895063
 20
157.3379143710054
  0
VERTEX
  8
KADRBM
 10
1787.093711657828
 20
168.2457886454281
  0
SEQEND
  8
KADRBM
  0
POLYLINE
  8
KADRBM
 66
     1
  0
VERTEX
  8
KADRBM
 10
1787.093711658985
 20
168.2457886426014
  0
VERTEX
  8
KADRBM
 10
1794.368190029032
 20
188.9569123091828
  0
VERTEX
  8
KADRBM
 10
1797.807344798075
 20
211.0229224846116
  0
VERTEX
  8
KADRBM
 10
1797.256944978629
 20
233.454255520899
  0
VERTEX
  8
KADRBM
 10
1792.741673585378
 20
255.2449646441528
  0
VERTEX
  8
KADRBM
 10
1784.464020710369
 20
275.417832249521
  0
VERTEX
  8
KADRBM
 10
1772.795202731674
 20
293.068193819075
  0
SEQEND
  8
KADRBM
  0
POLYLINE
  8
KADRBM
 66
     1
  0
VERTEX
  8
KADRBM
 10
1758.564894209805
 20
334.073041500184
  0
VERTEX
  8
KADRBM
 10
1759.320369716358
 20
322.714580329857
  0
VERTEX
  8
KADRBM
 10
1762.03523931659
 20
311.7864744037004
  0
VERTEX
  8
KADRBM
 10
1766.592382576785
 20
301.7601660722613
  0
VERTEX
  8
KADRBM
 10
1772.795202726663
 20
293.0681938192461
  0
SEQEND
  8
KADRBM
  0
LINE
  8
KADRBM
 10
1758.564894217628
 20
334.0730415037868
 11
1752.89958051458
 21
462.6424477927191
  0
LINE
  8
KADRBM
 10
1748.94630619516
 20
589.9103803327564
 11
1752.899580510098
 21
462.6424477853591
  0
POLYLINE
  8
KADRBM
 66
     1
  0
VERTEX
  8
KADRBM
 10
1776.431588468963
 20
706.0315003264732
  0
VERTEX
  8
KADRBM
 10
1761.751439869452
 20
680.3455244806124
  0
VERTEX
  8
KADRBM
 10
1752.020183347241
 20
651.5328172682579
  0
VERTEX
  8
KADRBM
 10
1747.685353401412
 20
620.9184573634788
  0
VERTEX
  8
KADRBM
 10
1748.946306193627
 20
589.9103803389762
  0
SEQEND
  8
KADRBM
  0
POLYLINE
  8
KADRBM
 66
     1
  0
VERTEX
  8
KADRBM
 10
1776.431588462279
 20
706.0315003197278
  0
VERTEX
  8
KADRBM
 10
1787.00388058625
 20
738.0159252648027
  0
VERTEX
  8
KADRBM
 10
1793.041547164822
 20
771.6201346097238
  0
VERTEX
  8
KADRBM
 10
1794.382850094499
 20
805.9439327212663
  0
SEQEND
  8
KADRBM
  0
POLYLINE
  8
KADRBM
 66
     1
  0
VERTEX
  8
KADRBM
 10
1794.382850102205
 20
805.9439327305822
  0
VERTEX
  8
KADRBM
 10
1793.274215892078
 20
838.9482249794215
  0
VERTEX
  8
KADRBM
 10
1787.419719438185
 20
871.2386500016486
  0
VERTEX
  8
KADRBM
 10
1776.992571683446
 20
901.8598643258824
  0
SEQEND
  8
KADRBM
  0
POLYLINE
  8
KADRBM
 66
     1
  0
VERTEX
  8
KADRBM
 10
1760.265193839494
 20
1034.269205635289
  0
VERTEX
  8
KADRBM
 10
1763.329634471426
 20
967.1202581619302
  0
VERTEX
  8
KADRBM
 10
1776.992571680885
 20
901.8598643210312
  0
SEQEND
  8
KADRBM
  0
LINE
  8
KADRBM
 10
1760.265193844676
 20
1034.269205638863
 11
1755.542923227923
 21
1184.295261341801
  0
LINE
  8
KADRBM
 10
1749.014525205203
 20
1390.261150788036
 11
1755.542923229134
 21
1184.295261335877
  0
LINE
  8
KADRBM
 10
1749.014525199332
 20
1390.261150790343
 11
1749.014525199332
 21
1544.500862708595
  0
LINE
  8
KADRBM
 10
1751.172235993561
 20
1668.205583019509
 11
1749.014525191324
 21
1544.500862711156
  0
LINE
  8
KADRBM
 10
1751.1722360065
 20
1668.205583017715
 11
1756.784635820641
 21
1805.233034192219
  0
LINE
  8
KADRBM
 10
1756.784635809829
 20
1805.233034186734
 11
1752.748481952331
 21
2033.760668474859
  0
LINE
  8
KADRBM
 10
1752.748481951962
 20
2033.76066847789
 11
1750.67014198303
 21
2216.807159344619
  0
LINE
  8
KADRBM
 10
203.5892283427202
 20
1684.613100202849
 11
1779.568180497237
 21
882.0301450808547
  0
LINE
  8
KADRBM
 10
203.5892283427202
 20
1654.56988700675
 11
1757.894651609906
 21
693.1870874260567
  0
LINE
  8
KADRBM
 10
195.7238407986843
 20
244.9451428447865
 11
1779.568125392743
 21
244.9451428447865
  0
LINE
  8
KADRBM
 10
1239.188460968945
 20
2189.487635638567
 11
732.5493524906065
 21
2198.096803207203
  0
LINE
  8
KADRBM
 10
1253.463853723743
 20
2176.948430698937
 11
727.8336657665673
 21
2189.138398436463
  0
POLYLINE
  8
KADRBM
 66
     1
  0
VERTEX
  8
KADRBM
 10
1248.793571092872
 20
2017.069275207224
  0
VERTEX
  8
KADRBM
 10
1236.845313591095
 20
2006.875562532587
  0
VERTEX
  8
KADRBM
 10
1226.783647740119
 20
1994.12874419533
  0
VERTEX
  8
KADRBM
 10
1218.988877873686
 20
1979.310616184992
  0
VERTEX
  8
KADRBM
 10
1213.755625658291
 20
1962.981264513548
  0
VERTEX
  8
KADRBM
 10
1211.281694174115
 20
1945.757895446821
  0
SEQEND
  8
KADRBM
  0
POLYLINE
  8
KADRBM
 66
     1
  0
VERTEX
  8
KADRBM
 10
1149.246392896746
 20
1540.984164870947
  0
VERTEX
  8
KADRBM
 10
1213.41707996331
 20
1731.986793046002
  0
VERTEX
  8
KADRBM
 10
1238.913987048338
 20
1935.391181270218
  0
SEQEND
  8
KADRBM
  0
POLYLINE
  8
KADRBM
 66
     1
  0
VERTEX
  8
KADRBM
 10
1144.163386175616
 20
1521.898310268674
  0
VERTEX
  8
KADRBM
 10
1189.591691111564
 20
1596.908383887398
  0
VERTEX
  8
KADRBM
 10
1223.020548031524
 20
1680.342156718963
  0
VERTEX
  8
KADRBM
 10
1243.376882573607
 20
1769.521384551928
  0
VERTEX
  8
KADRBM
 10
1250.007251494112
 20
1861.583392684928
  0
VERTEX
  8
KADRBM
 10
1242.698818353087
 20
1953.572968474354
  0
SEQEND
  8
KADRBM
  0
LINE
  8
KADRBM
 10
1184.316620151945
 20
1561.545142846277
 11
1279.507800008603
 21
1561.545142846277
  0
POLYLINE
  8
KADRBM
 66
     1
  0
VERTEX
  8
KADRBM
 10
1193.776165375356
 20
1624.856755013354
  0
VERTEX
  8
KADRBM
 10
1292.538103355259
 20
1574.342064165616
  0
VERTEX
  8
KADRBM
 10
1397.799754730553
 20
1548.241001864358
  0
VERTEX
  8
KADRBM
 10
1505.329839559169
 20
1547.602771688844
  0
SEQEND
  8
KADRBM
  0
POLYLINE
  8
KADRBM
 66
     1
  0
VERTEX
  8
KADRBM
 10
1248.793557305912
 20
1939.815291879579
  0
VERTEX
  8
KADRBM
 10
1191.35814617525
 20
1947.155719104153
  0
VERTEX
  8
KADRBM
 10
1133.790206416708
 20
1941.465027311304
  0
VERTEX
  8
KADRBM
 10
1078.166907636383
 20
1922.948548358994
  0
VERTEX
  8
KADRBM
 10
1026.495252796377
 20
1892.274394871247
  0
SEQEND
  8
KADRBM
  0
POLYLINE
  8
KADRBM
 66
     1
  0
VERTEX
  8
KADRBM
 10
1238.814442171305
 20
1935.9297539412
  0
VERTEX
  8
KADRBM
 10
1182.203802931089
 20
1936.360268268026
  0
VERTEX
  8
KADRBM
 10
1126.783927558914
 20
1922.636205888307
  0
VERTEX
  8
KADRBM
 10
1075.035568144089
 20
1895.371895076757
  0
VERTEX
  8
KADRBM
 10
1029.275129223334
 20
1855.7877643449
  0
VERTEX
  8
KADRBM
 10
991.5509788901905
 20
1805.6557125712
  0
SEQEND
  8
KADRBM
  0
LINE
  8
KADRBM
 10
195.7238407986843
 20
2221.945142844786
 11
1779.568125392743
 21
2221.945142844786
  0
ENDSEC
  0
EOF
