  0
SECTION
  2
HEADER
  9
$ACADVER
  1
AC1003
  9
$INSBASE
 10
0.0
 20
0.0
  9
$EXTMIN
 10
53.35127906106993
 20
465.975330338526
  9
$EXTMAX
 10
795.6353796717777
 20
2400.975330338488
  9
$LIMMIN
 10
0.0
 20
0.0
  9
$LIMMAX
 10
420.0
 20
297.0
  9
$ORTHOMODE
 70
     0
  9
$REGENMODE
 70
     1
  9
$FILLMODE
 70
     1
  9
$QTEXTMODE
 70
     0
  9
$DRAGMODE
 70
     2
  9
$LTSCALE
 40
1.0
  9
$OSMODE
 70
    37
  9
$ATTMODE
 70
     1
  9
$TEXTSIZE
 40
2.5
  9
$TRACEWID
 40
1.0
  9
$TEXTSTYLE
  7
STANDARD
  9
$CLAYER
  8
KADRBM
  9
$CELTYPE
  6
BYLAYER
  9
$CECOLOR
 62
   256
  9
$DIMSCALE
 40
1.0
  9
$DIMASZ
 40
0.18
  9
$DIMEXO
 40
0.0625
  9
$DIMDLI
 40
0.38
  9
$DIMRND
 40
0.0
  9
$DIMDLE
 40
0.0
  9
$DIMEXE
 40
0.18
  9
$DIMTP
 40
0.0
  9
$DIMTM
 40
0.0
  9
$DIMTXT
 40
0.18
  9
$DIMCEN
 40
0.09
  9
$DIMTSZ
 40
0.0
  9
$DIMTOL
 70
     0
  9
$DIMLIM
 70
     0
  9
$DIMTIH
 70
     1
  9
$DIMTOH
 70
     1
  9
$DIMSE1
 70
     0
  9
$DIMSE2
 70
     0
  9
$DIMTAD
 70
     0
  9
$DIMZIN
 70
     0
  9
$DIMBLK
  1

  9
$DIMASO
 70
     1
  9
$DIMSHO
 70
     1
  9
$DIMPOST
  1

  9
$DIMAPOST
  1

  9
$DIMALT
 70
     0
  9
$DIMALTD
 70
     2
  9
$DIMALTF
 40
25.4
  9
$DIMLFAC
 40
1.0
  9
$DIMTOFL
 70
     0
  9
$DIMTVP
 40
0.0
  9
$DIMTIX
 70
     0
  9
$DIMSOXD
 70
     0
  9
$DIMSAH
 70
     0
  9
$DIMBLK1
  1

  9
$DIMBLK2
  1

  9
$LUNITS
 70
     2
  9
$LUPREC
 70
     4
  9
$SKETCHINC
 40
1.0
  9
$FILLETRAD
 40
0.0
  9
$AUNITS
 70
     0
  9
$AUPREC
 70
     0
  9
$MENU
  1
.
  9
$ELEVATION
 40
0.0
  9
$THICKNESS
 40
0.0
  9
$LIMCHECK
 70
     0
  9
$CHAMFERA
 40
0.0
  9
$CHAMFERB
 40
0.0
  9
$SKPOLY
 70
     0
  9
$TDCREATE
 40
2457619.479474294
  9
$TDUPDATE
 40
2461135.794820799
  9
$TDINDWG
 40
0.1040380093
  9
$TDUSRTIMER
 40
0.1040379861
  9
$USRTIMER
 70
     1
  9
$ANGBASE
 50
0.0
  9
$ANGDIR
 70
     0
  9
$PDMODE
 70
     0
  9
$PDSIZE
 40
0.0
  9
$PLINEWID
 40
0.0
  9
$COORDS
 70
     1
  9
$SURFTAB1
 70
     6
  9
$SURFTAB2
 70
     6
  9
$SURFTYPE
 70
     6
  9
$SURFU
 70
     6
  9
$SURFV
 70
     6
  9
$UCSNAME
  2

  9
$UCSORG
 10
0.0
 20
0.0
 30
0.0
  9
$UCSXDIR
 10
1.0
 20
0.0
 30
0.0
  9
$UCSYDIR
 10
0.0
 20
1.0
 30
0.0
  9
$USERI1
 70
     0
  9
$USERI2
 70
     0
  9
$USERI3
 70
     0
  9
$USERI4
 70
     0
  9
$USERI5
 70
     0
  9
$USERR1
 40
0.0
  9
$USERR2
 40
0.0
  9
$USERR3
 40
0.0
  9
$USERR4
 40
0.0
  9
$USERR5
 40
0.0
  9
$WORLDVIEW
 70
     1
  0
ENDSEC
  0
SECTION
  2
TABLES
  0
TABLE
  2
LTYPE
 70
     1
  0
LTYPE
  2
CONTINUOUS
 70
     0
  3
Solid line
 72
    65
 73
     0
 40
0.0
  0
ENDTAB
  0
TABLE
  2
LAYER
 70
     3
  0
LAYER
  2
0
 70
     0
 62
     5
  6
CONTINUOUS
  0
LAYER
  2
KADRBM
 70
     0
 62
     7
  6
CONTINUOUS
  0
LAYER
  2
1
 70
     0
 62
     2
  6
CONTINUOUS
  0
ENDTAB
  0
TABLE
  2
STYLE
 70
     7
  0
STYLE
  2
STANDARD
 70
     0
 40
0.0
 41
1.0
 50
0.0
 71
     0
 42
2.5
  3

  4

  0
STYLE
  2
ANNOTATIVE
 70
     0
 40
0.0
 41
1.0
 50
0.0
 71
     0
 42
2.5
  3

  4

  0
STYLE
  2
BMMM
 70
     0
 40
0.0
 41
1.0
 50
0.0
 71
     0
 42
0.2
  3

  4

  0
STYLE
  2
CEN
 70
     0
 40
7.5
 41
1.0
 50
0.0
 71
     0
 42
7.5
  3
romans.shx
  4

  0
STYLE
  2
WOR
 70
     0
 40
5.0
 41
1.0
 50
0.0
 71
     0
 42
5.0
  3
romans.shx
  4

  0
STYLE
  2
STYLE1
 70
     0
 40
0.0
 41
1.0
 50
0.0
 71
     0
 42
4.5
  3

  4

  0
STYLE
  2
STANDARD_360
 70
     0
 40
0.0
 41
1.0
 50
0.0
 71
     0
 42
0.2
  3

  4

  0
ENDTAB
  0
TABLE
  2
VIEW
 70
     0
  0
ENDTAB
  0
ENDSEC
  0
SECTION
  2
BLOCKS
  0
BLOCK
  8
0
  2
ARCHLOGO
 70
     0
 10
0.0
 20
0.0
  0
LINE
  8
KADRBM
 62
   211
 10
84073.13752740924
 20
56889.51916389067
 11
84070.78304185567
 21
56889.51916389067
  0
LINE
  8
KADRBM
 62
   211
 10
84070.78304185567
 20
56889.51916389067
 11
84064.44034607592
 21
56872.98971428494
  0
LINE
  8
KADRBM
 62
   211
 10
84064.44034607592
 20
56872.98971428494
 11
84066.7708062682
 21
56872.98971428494
  0
LINE
  8
KADRBM
 62
   211
 10
84066.7708062682
 20
56872.98971428494
 11
84068.57270847796
 21
56877.98698974708
  0
LINE
  8
KADRBM
 62
   211
 10
84068.57270847796
 20
56877.98698974708
 11
84075.46798760071
 21
56877.98698974708
  0
LINE
  8
KADRBM
 62
   211
 10
84074.79527744232
 20
56879.76486659392
 11
84069.19736791053
 21
56879.76486659392
  0
LINE
  8
KADRBM
 62
   211
 10
84075.46798760071
 20
56877.98698974708
 11
84077.41404198797
 21
56872.98971428494
  0
LINE
  8
KADRBM
 62
   211
 10
84077.41404198797
 20
56872.98971428494
 11
84079.88865435612
 21
56872.98971428494
  0
LINE
  8
KADRBM
 62
   211
 10
84079.88865435612
 20
56872.98971428494
 11
84073.13752740924
 21
56889.51916389067
  0
LINE
  8
KADRBM
 62
   211
 10
84086.39952767547
 20
56880.31744993855
 11
84087.62482117768
 21
56880.24537385062
  0
LINE
  8
KADRBM
 62
   211
 10
84087.62482117768
 20
56880.24537385062
 11
84088.60986105236
 21
56879.81291731975
  0
LINE
  8
KADRBM
 62
   211
 10
84088.60986105236
 20
56879.81291731975
 11
84088.70596250321
 21
56879.74084123182
  0
LINE
  8
KADRBM
 62
   211
 10
84088.70596250321
 20
56879.74084123182
 11
84089.7150277408
 21
56878.70775063131
  0
LINE
  8
KADRBM
 62
   211
 10
84089.7150277408
 20
56878.70775063131
 11
84090.41176326212
 21
56877.77076148165
  0
LINE
  8
KADRBM
 62
   211
 10
84090.41176326212
 20
56877.77076148165
 11
84091.30070168595
 21
56876.42534116485
  0
LINE
  8
KADRBM
 62
   211
 10
84091.30070168595
 20
56876.42534116485
 11
84093.48700970074
 21
56872.98971428494
  0
LINE
  8
KADRBM
 62
   211
 10
84093.48700970074
 20
56872.98971428494
 11
84096.22590105934
 21
56872.98971428494
  0
LINE
  8
KADRBM
 62
   211
 10
84096.22590105934
 20
56872.98971428494
 11
84093.36688288616
 21
56877.48245712828
  0
LINE
  8
KADRBM
 62
   211
 10
84093.36688288616
 20
56877.48245712828
 11
84093.34285752405
 21
56877.5064824912
  0
LINE
  8
KADRBM
 62
   211
 10
84093.34285752405
 20
56877.5064824912
 11
84092.47794446314
 21
56878.68372526839
  0
LINE
  8
KADRBM
 62
   211
 10
84092.47794446314
 20
56878.68372526839
 11
84091.54095531348
 21
56879.66876514307
  0
LINE
  8
KADRBM
 62
   211
 10
84091.54095531348
 20
56879.66876514307
 11
84091.46887922555
 21
56879.74084123182
  0
LINE
  8
KADRBM
 62
   211
 10
84091.46887922555
 20
56879.74084123182
 11
84090.2195603596
 21
56880.50965284106
  0
LINE
  8
KADRBM
 62
   211
 10
84089.09036830743
 20
56887.69323631799
 11
84089.18646975991
 21
56887.69323631799
  0
LINE
  8
KADRBM
 62
   211
 10
84089.18646975991
 20
56887.69323631799
 11
84090.7240929784
 21
56887.47700805256
  0
LINE
  8
KADRBM
 62
   211
 10
84090.7240929784
 20
56887.47700805256
 11
84091.78120894101
 21
56886.92442470875
  0
LINE
  8
KADRBM
 62
   211
 10
84091.78120894101
 20
56886.92442470875
 11
84092.28574155981
 21
56886.32379063829
  0
LINE
  8
KADRBM
 62
   211
 10
84092.28574155981
 20
56886.32379063829
 11
84092.62209663901
 21
56885.00239568441
  0
LINE
  8
KADRBM
 62
   211
 10
84092.62209663901
 20
56885.00239568441
 11
84092.62209663901
 21
56884.83421814481
  0
LINE
  8
KADRBM
 62
   211
 10
84092.62209663901
 20
56884.83421814481
 11
84092.18964010896
 21
56883.51282319093
  0
LINE
  8
KADRBM
 62
   211
 10
84092.18964010896
 20
56883.51282319093
 11
84092.04548793146
 21
56883.32062028842
  0
LINE
  8
KADRBM
 62
   211
 10
84092.04548793146
 20
56883.32062028842
 11
84090.892270518
 21
56882.52778331625
  0
LINE
  8
KADRBM
 62
   211
 10
84090.892270518
 20
56882.52778331625
 11
84090.12345890875
 21
56882.33558041374
  0
LINE
  8
KADRBM
 62
   211
 10
84090.12345890875
 20
56882.33558041374
 11
84088.56181032653
 21
56882.21545359997
  0
LINE
  8
KADRBM
 62
   211
 10
84088.56181032653
 20
56882.21545359997
 11
84083.85283921775
 21
56882.21545359997
  0
LINE
  8
KADRBM
 62
   211
 10
84093.75128869119
 20
56882.04727606037
 11
84094.06361840665
 21
56882.40765650249
  0
LINE
  8
KADRBM
 62
   211
 10
84094.06361840665
 20
56882.40765650249
 11
84094.66425247712
 21
56883.60892464178
  0
LINE
  8
KADRBM
 62
   211
 10
84094.66425247712
 20
56883.60892464178
 11
84094.88048074255
 21
56885.00239568441
  0
LINE
  8
KADRBM
 62
   211
 10
84094.88048074255
 20
56885.00239568441
 11
84094.73632856505
 21
56886.20366382452
  0
LINE
  8
KADRBM
 62
   211
 10
84094.73632856505
 20
56886.20366382452
 11
84094.18374522123
 21
56887.50103341548
  0
LINE
  8
KADRBM
 62
   211
 10
84094.18374522123
 20
56887.50103341548
 11
84093.51103506284
 21
56888.34192111348
  0
LINE
  8
KADRBM
 62
   211
 10
84088.99426685658
 20
56889.51916389067
 11
84081.66653120297
 21
56889.51916389067
  0
LINE
  8
KADRBM
 62
   211
 10
84081.66653120297
 20
56889.51916389067
 11
84081.66653120297
 21
56872.98971428494
  0
LINE
  8
KADRBM
 62
   211
 10
84081.66653120297
 20
56872.98971428494
 11
84083.85283921775
 21
56872.98971428494
  0
LINE
  8
KADRBM
 62
   211
 10
84083.85283921775
 20
56872.98971428494
 11
84083.85283921775
 21
56880.31744993855
  0
LINE
  8
KADRBM
 62
   211
 10
84083.85283921775
 20
56880.31744993855
 11
84086.39952767547
 21
56880.31744993855
  0
LINE
  8
KADRBM
 62
   211
 10
84090.2195603596
 20
56880.50965284106
 11
84091.49290458765
 21
56880.74990646941
  0
LINE
  8
KADRBM
 62
   211
 10
84091.49290458765
 20
56880.74990646941
 11
84092.76624881651
 21
56881.27846445031
  0
LINE
  8
KADRBM
 62
   211
 10
84092.76624881651
 20
56881.27846445031
 11
84093.75128869119
 21
56882.04727606037
  0
LINE
  8
KADRBM
 62
   211
 10
84083.85283921775
 20
56882.21545359997
 11
84083.85283921775
 21
56887.69323631799
  0
LINE
  8
KADRBM
 62
   211
 10
84083.85283921775
 20
56887.69323631799
 11
84089.09036830743
 21
56887.69323631799
  0
LINE
  8
KADRBM
 62
   211
 10
84093.51103506284
 20
56888.34192111348
 11
84092.35781764856
 21
56889.06268199689
  0
LINE
  8
KADRBM
 62
   211
 10
84092.35781764856
 20
56889.06268199689
 11
84091.94938648061
 21
56889.20683417439
  0
LINE
  8
KADRBM
 62
   211
 10
84091.94938648061
 20
56889.20683417439
 11
84090.65201689047
 21
56889.44708780274
  0
LINE
  8
KADRBM
 62
   211
 10
84090.65201689047
 20
56889.44708780274
 11
84088.99426685658
 21
56889.51916389067
  0
LINE
  8
KADRBM
 62
   211
 10
84110.08853539359
 20
56878.77982671924
 11
84109.82425640314
 21
56877.8428375704
  0
LINE
  8
KADRBM
 62
   211
 10
84109.82425640314
 20
56877.8428375704
 11
84109.22362233349
 21
56876.59351870527
  0
LINE
  8
KADRBM
 62
   211
 10
84109.22362233349
 20
56876.59351870527
 11
84108.3587092734
 21
56875.63250419269
  0
LINE
  8
KADRBM
 62
   211
 10
84108.3587092734
 20
56875.63250419269
 11
84107.92625274253
 21
56875.29614911349
  0
LINE
  8
KADRBM
 62
   211
 10
84107.92625274253
 20
56875.29614911349
 11
84106.6769338774
 21
56874.74356576886
  0
LINE
  8
KADRBM
 62
   211
 10
84106.6769338774
 20
56874.74356576886
 11
84105.25943747186
 21
56874.57538823008
  0
LINE
  8
KADRBM
 62
   211
 10
84110.2807382961
 20
56874.52733750425
 11
84111.1216259941
 21
56875.56042810476
  0
LINE
  8
KADRBM
 62
   211
 10
84111.1216259941
 20
56875.56042810476
 11
84111.7943361525
 21
56876.78572160778
  0
LINE
  8
KADRBM
 62
   211
 10
84111.7943361525
 20
56876.78572160778
 11
84112.27484340919
 21
56878.22724337543
  0
LINE
  8
KADRBM
 62
   211
 10
84112.27484340919
 20
56878.22724337543
 11
84110.08853539359
 21
56878.77982671924
  0
LINE
  8
KADRBM
 62
   211
 10
84100.40631418722
 20
56888.07764212221
 11
84099.44529967383
 21
56887.09260224835
  0
LINE
  8
KADRBM
 62
   211
 10
84099.44529967383
 20
56887.09260224835
 11
84098.67648806458
 21
56885.89133410824
  0
LINE
  8
KADRBM
 62
   211
 10
84098.67648806458
 20
56885.89133410824
 11
84098.48428516288
 21
56885.53095366612
  0
LINE
  8
KADRBM
 62
   211
 10
84098.48428516288
 20
56885.53095366612
 11
84098.0278032691
 21
56884.25760943808
  0
LINE
  8
KADRBM
 62
   211
 10
84098.0278032691
 20
56884.25760943808
 11
84097.76352427783
 21
56882.86413839545
  0
LINE
  8
KADRBM
 62
   211
 10
84097.76352427783
 20
56882.86413839545
 11
84097.66742282698
 21
56881.37456590198
  0
LINE
  8
KADRBM
 62
   211
 10
84097.66742282698
 20
56881.37456590198
 11
84097.66742282698
 21
56881.06223618569
  0
LINE
  8
KADRBM
 62
   211
 10
84097.66742282698
 20
56881.06223618569
 11
84097.81157500448
 21
56879.62071441805
  0
LINE
  8
KADRBM
 62
   211
 10
84097.81157500448
 20
56879.62071441805
 11
84098.09987935703
 21
56878.25126873753
  0
LINE
  8
KADRBM
 62
   211
 10
84098.09987935703
 20
56878.25126873753
 11
84098.55636125081
 21
56876.92987378447
  0
LINE
  8
KADRBM
 62
   211
 10
84098.55636125081
 20
56876.92987378447
 11
84099.18102068338
 21
56875.72860564436
  0
LINE
  8
KADRBM
 62
   211
 10
84099.18102068338
 20
56875.72860564436
 11
84100.04593374429
 21
56874.64746431801
  0
LINE
  8
KADRBM
 62
   211
 10
84100.04593374429
 20
56874.64746431801
 11
84101.10304970772
 21
56873.7825512571
  0
LINE
  8
KADRBM
 62
   211
 10
84101.10304970772
 20
56873.7825512571
 11
84101.34330333606
 21
56873.63839908042
  0
LINE
  8
KADRBM
 62
   211
 10
84101.34330333606
 20
56873.63839908042
 11
84102.52054611326
 21
56873.1098410987
  0
LINE
  8
KADRBM
 62
   211
 10
84102.52054611326
 20
56873.1098410987
 11
84103.88999179215
 21
56872.79751138242
  0
LINE
  8
KADRBM
 62
   211
 10
84103.88999179215
 20
56872.79751138242
 11
84105.42761501146
 21
56872.70140993157
  0
LINE
  8
KADRBM
 62
   211
 10
84105.42761501146
 20
56872.70140993157
 11
84105.98019835609
 21
56872.70140993157
  0
LINE
  8
KADRBM
 62
   211
 10
84105.98019835609
 20
56872.70140993157
 11
84107.39769476
 21
56872.917638197
  0
LINE
  8
KADRBM
 62
   211
 10
84107.39769476
 20
56872.917638197
 11
84108.67103898886
 21
56873.39814545207
  0
LINE
  8
KADRBM
 62
   211
 10
84108.67103898886
 20
56873.39814545207
 11
84109.80023104104
 21
56874.1189063363
  0
LINE
  8
KADRBM
 62
   211
 10
84109.80023104104
 20
56874.1189063363
 11
84110.2807382961
 21
56874.52733750425
  0
LINE
  8
KADRBM
 62
   211
 10
84105.25943747186
 20
56874.57538823008
 11
84105.11528529436
 21
56874.57538823008
  0
LINE
  8
KADRBM
 62
   211
 10
84105.11528529436
 20
56874.57538823008
 11
84103.74583961547
 21
56874.79161649469
  0
LINE
  8
KADRBM
 62
   211
 10
84103.74583961547
 20
56874.79161649469
 11
84102.44847002451
 21
56875.34419983932
  0
LINE
  8
KADRBM
 62
   211
 10
84102.44847002451
 20
56875.34419983932
 11
84102.20821639616
 21
56875.51237737892
  0
LINE
  8
KADRBM
 62
   211
 10
84102.20821639616
 20
56875.51237737892
 11
84101.24720188358
 21
56876.44936652858
  0
LINE
  8
KADRBM
 62
   211
 10
84101.24720188358
 20
56876.44936652858
 11
84100.55046636309
 21
56877.69868539371
  0
LINE
  8
KADRBM
 62
   211
 10
84100.55046636309
 20
56877.69868539371
 11
84100.28618737264
 21
56878.51554772879
  0
LINE
  8
KADRBM
 62
   211
 10
84100.28618737264
 20
56878.51554772879
 11
84100.02190838137
 21
56879.86096804558
  0
LINE
  8
KADRBM
 62
   211
 10
84100.02190838137
 20
56879.86096804558
 11
84099.92580693052
 21
56881.37456590198
  0
LINE
  8
KADRBM
 62
   211
 10
84099.92580693052
 20
56881.37456590198
 11
84099.92580693052
 21
56881.78299706911
  0
LINE
  8
KADRBM
 62
   211
 10
84099.92580693052
 20
56881.78299706911
 11
84100.09398447012
 21
56883.20049347465
  0
LINE
  8
KADRBM
 62
   211
 10
84100.09398447012
 20
56883.20049347465
 11
84100.45436491142
 21
56884.56993915436
  0
LINE
  8
KADRBM
 62
   211
 10
84100.45436491142
 20
56884.56993915436
 11
84100.55046636309
 21
56884.83421814481
  0
LINE
  8
KADRBM
 62
   211
 10
84100.55046636309
 20
56884.83421814481
 11
84101.24720188358
 21
56886.05951164702
  0
LINE
  8
KADRBM
 62
   211
 10
84101.24720188358
 20
56886.05951164702
 11
84102.25626712118
 21
56887.0205261596
  0
LINE
  8
KADRBM
 62
   211
 10
84102.25626712118
 20
56887.0205261596
 11
84102.68872365286
 21
56887.28480515005
  0
LINE
  8
KADRBM
 62
   211
 10
84102.68872365286
 20
56887.28480515005
 11
84103.93804251717
 21
56887.76531240674
  0
LINE
  8
KADRBM
 62
   211
 10
84103.93804251717
 20
56887.76531240674
 11
84105.42761501146
 21
56887.93348994634
  0
LINE
  8
KADRBM
 62
   211
 10
84105.4756657373
 20
56889.78344288193
 11
84104.10622005677
 21
56889.68734143027
  0
LINE
  8
KADRBM
 62
   211
 10
84104.10622005677
 20
56889.68734143027
 11
84102.73677437787
 21
56889.35098635107
  0
LINE
  8
KADRBM
 62
   211
 10
84102.73677437787
 20
56889.35098635107
 11
84101.46343014902
 21
56888.79840300644
  0
LINE
  8
KADRBM
 62
   211
 10
84101.46343014902
 20
56888.79840300644
 11
84100.40631418722
 21
56888.07764212221
  0
LINE
  8
KADRBM
 62
   211
 10
84105.42761501146
 20
56887.93348994634
 11
84105.57176718814
 21
56887.93348994634
  0
LINE
  8
KADRBM
 62
   211
 10
84105.57176718814
 20
56887.93348994634
 11
84106.98926359368
 21
56887.69323631799
  0
LINE
  8
KADRBM
 62
   211
 10
84106.98926359368
 20
56887.69323631799
 11
84108.16650637006
 21
56887.09260224835
  0
LINE
  8
KADRBM
 62
   211
 10
84108.16650637006
 20
56887.09260224835
 11
84108.4067599976
 21
56886.90039934583
  0
LINE
  8
KADRBM
 62
   211
 10
84108.4067599976
 20
56886.90039934583
 11
84109.22362233349
 21
56885.89133410824
  0
LINE
  8
KADRBM
 62
   211
 10
84109.22362233349
 20
56885.89133410824
 11
84109.84828176606
 21
56884.4738377027
  0
LINE
  8
KADRBM
 62
   211
 10
84109.84828176606
 20
56884.4738377027
 11
84111.98653905583
 21
56884.97837032149
  0
LINE
  8
KADRBM
 62
   211
 10
84111.98653905583
 20
56884.97837032149
 11
84111.9625136921
 21
56885.12252249818
  0
LINE
  8
KADRBM
 62
   211
 10
84111.9625136921
 20
56885.12252249818
 11
84111.38590498618
 21
56886.46794281497
  0
LINE
  8
KADRBM
 62
   211
 10
84111.38590498618
 20
56886.46794281497
 11
84110.6170933753
 21
56887.62116022925
  0
LINE
  8
KADRBM
 62
   211
 10
84110.6170933753
 20
56887.62116022925
 11
84109.63205350144
 21
56888.53412401599
  0
LINE
  8
KADRBM
 62
   211
 10
84109.63205350144
 20
56888.53412401599
 11
84109.46387596184
 21
56888.65425082976
  0
LINE
  8
KADRBM
 62
   211
 10
84109.46387596184
 20
56888.65425082976
 11
84108.28663318465
 21
56889.30293562524
  0
LINE
  8
KADRBM
 62
   211
 10
84108.28663318465
 20
56889.30293562524
 11
84106.96523822995
 21
56889.66331606735
  0
LINE
  8
KADRBM
 62
   211
 10
84106.96523822995
 20
56889.66331606735
 11
84105.4756657373
 21
56889.78344288193
  0
LINE
  8
KADRBM
 62
   211
 10
84127.98743067903
 20
56889.51916389067
 11
84125.80112266424
 21
56889.51916389067
  0
LINE
  8
KADRBM
 62
   211
 10
84125.80112266424
 20
56889.51916389067
 11
84125.80112266424
 21
56882.71998621877
  0
LINE
  8
KADRBM
 62
   211
 10
84125.80112266424
 20
56882.71998621877
 11
84117.2240681455
 21
56882.71998621877
  0
LINE
  8
KADRBM
 62
   211
 10
84125.80112266424
 20
56880.77393183151
 11
84125.80112266424
 21
56872.98971428494
  0
LINE
  8
KADRBM
 62
   211
 10
84125.80112266424
 20
56872.98971428494
 11
84127.98743067903
 21
56872.98971428494
  0
LINE
  8
KADRBM
 62
   211
 10
84127.98743067903
 20
56872.98971428494
 11
84127.98743067903
 21
56889.51916389067
  0
LINE
  8
KADRBM
 62
   211
 10
84117.2240681455
 20
56889.51916389067
 11
84115.03776013071
 21
56889.51916389067
  0
LINE
  8
KADRBM
 62
   211
 10
84115.03776013071
 20
56889.51916389067
 11
84115.03776013071
 21
56872.98971428494
  0
LINE
  8
KADRBM
 62
   211
 10
84115.03776013071
 20
56872.98971428494
 11
84117.2240681455
 21
56872.98971428494
  0
LINE
  8
KADRBM
 62
   211
 10
84117.2240681455
 20
56872.98971428494
 11
84117.2240681455
 21
56880.77393183151
  0
LINE
  8
KADRBM
 62
   211
 10
84117.2240681455
 20
56880.77393183151
 11
84125.80112266424
 21
56880.77393183151
  0
LINE
  8
KADRBM
 62
   211
 10
84117.2240681455
 20
56882.71998621877
 11
84117.2240681455
 21
56889.51916389067
  0
LINE
  8
KADRBM
 62
   211
 10
84131.99966626731
 20
56872.98971428494
 11
84131.99966626731
 21
56889.51916389067
  0
LINE
  8
KADRBM
 62
   211
 10
84131.99966626731
 20
56889.51916389067
 11
84134.18597428128
 21
56889.51916389067
  0
LINE
  8
KADRBM
 62
   211
 10
84134.18597428128
 20
56889.51916389067
 11
84134.18597428128
 21
56872.98971428494
  0
LINE
  8
KADRBM
 62
   211
 10
84134.18597428128
 20
56872.98971428494
 11
84131.99966626731
 21
56872.98971428494
  0
LINE
  8
KADRBM
 62
   211
 10
84131.99966626731
 20
56872.98971428494
 11
84131.99966626731
 21
56872.98971428494
  0
LINE
  8
KADRBM
 62
   211
 10
84149.89856155193
 20
56889.51916389067
 11
84136.80473882693
 21
56889.51916389067
  0
LINE
  8
KADRBM
 62
   211
 10
84136.80473882693
 20
56889.51916389067
 11
84136.80473882693
 21
56887.57310950423
  0
LINE
  8
KADRBM
 62
   211
 10
84136.80473882693
 20
56887.57310950423
 11
84142.25849618122
 21
56887.57310950423
  0
LINE
  8
KADRBM
 62
   211
 10
84142.25849618122
 20
56887.57310950423
 11
84142.25849618122
 21
56872.98971428494
  0
LINE
  8
KADRBM
 62
   211
 10
84142.25849618122
 20
56872.98971428494
 11
84144.44480419601
 21
56872.98971428494
  0
LINE
  8
KADRBM
 62
   211
 10
84144.44480419601
 20
56872.98971428494
 11
84144.44480419601
 21
56887.57310950423
  0
LINE
  8
KADRBM
 62
   211
 10
84144.44480419601
 20
56887.57310950423
 11
84149.89856155193
 21
56887.57310950423
  0
LINE
  8
KADRBM
 62
   211
 10
84149.89856155193
 20
56887.57310950423
 11
84149.89856155193
 21
56889.51916389067
  0
LINE
  8
KADRBM
 62
   211
 10
84164.1215763283
 20
56889.51916389067
 11
84152.18097101757
 21
56889.51916389067
  0
LINE
  8
KADRBM
 62
   211
 10
84152.18097101757
 20
56889.51916389067
 11
84152.18097101757
 21
56872.98971428494
  0
LINE
  8
KADRBM
 62
   211
 10
84152.18097101757
 20
56872.98971428494
 11
84164.50598213333
 21
56872.98971428494
  0
LINE
  8
KADRBM
 62
   211
 10
84164.50598213333
 20
56872.98971428494
 11
84164.50598213333
 21
56874.93576867219
  0
LINE
  8
KADRBM
 62
   211
 10
84164.50598213333
 20
56874.93576867219
 11
84154.36727903236
 21
56874.93576867219
  0
LINE
  8
KADRBM
 62
   211
 10
84154.36727903236
 20
56874.93576867219
 11
84154.36727903236
 21
56880.5577035669
  0
LINE
  8
KADRBM
 62
   211
 10
84154.36727903236
 20
56880.5577035669
 11
84163.49691689573
 21
56880.5577035669
  0
LINE
  8
KADRBM
 62
   211
 10
84163.49691689573
 20
56880.5577035669
 11
84163.49691689573
 21
56882.50375795334
  0
LINE
  8
KADRBM
 62
   211
 10
84163.49691689573
 20
56882.50375795334
 11
84154.36727903236
 21
56882.50375795334
  0
LINE
  8
KADRBM
 62
   211
 10
84154.36727903236
 20
56882.50375795334
 11
84154.36727903236
 21
56887.57310950423
  0
LINE
  8
KADRBM
 62
   211
 10
84154.36727903236
 20
56887.57310950423
 11
84164.1215763283
 21
56887.57310950423
  0
LINE
  8
KADRBM
 62
   211
 10
84164.1215763283
 20
56887.57310950423
 11
84164.1215763283
 21
56889.51916389067
  0
LINE
  8
KADRBM
 62
   211
 10
84179.30560561724
 20
56878.77982671924
 11
84179.06535198889
 21
56877.8428375704
  0
LINE
  8
KADRBM
 62
   211
 10
84179.06535198889
 20
56877.8428375704
 11
84178.44069255632
 21
56876.59351870527
  0
LINE
  8
KADRBM
 62
   211
 10
84178.44069255632
 20
56876.59351870527
 11
84177.59980485914
 21
56875.63250419269
  0
LINE
  8
KADRBM
 62
   211
 10
84177.59980485914
 20
56875.63250419269
 11
84177.14332296618
 21
56875.29614911349
  0
LINE
  8
KADRBM
 62
   211
 10
84177.14332296618
 20
56875.29614911349
 11
84175.91802946315
 21
56874.74356576886
  0
LINE
  8
KADRBM
 62
   211
 10
84175.91802946315
 20
56874.74356576886
 11
84174.4765076947
 21
56874.57538823008
  0
LINE
  8
KADRBM
 62
   211
 10
84179.49780852057
 20
56874.52733750425
 11
84180.36272158066
 21
56875.56042810476
  0
LINE
  8
KADRBM
 62
   211
 10
84180.36272158066
 20
56875.56042810476
 11
84181.01140637533
 21
56876.78572160778
  0
LINE
  8
KADRBM
 62
   211
 10
84181.01140637533
 20
56876.78572160778
 11
84181.49191363202
 21
56878.22724337543
  0
LINE
  8
KADRBM
 62
   211
 10
84181.49191363202
 20
56878.22724337543
 11
84179.30560561724
 21
56878.77982671924
  0
LINE
  8
KADRBM
 62
   211
 10
84169.62338441005
 20
56888.07764212221
 11
84168.66236989747
 21
56887.09260224835
  0
LINE
  8
KADRBM
 62
   211
 10
84168.66236989747
 20
56887.09260224835
 11
84167.89355828823
 21
56885.89133410824
  0
LINE
  8
KADRBM
 62
   211
 10
84167.89355828823
 20
56885.89133410824
 11
84167.72538074863
 21
56885.53095366612
  0
LINE
  8
KADRBM
 62
   211
 10
84167.72538074863
 20
56885.53095366612
 11
84167.26889885566
 21
56884.25760943808
  0
LINE
  8
KADRBM
 62
   211
 10
84167.26889885566
 20
56884.25760943808
 11
84166.98059450148
 21
56882.86413839545
  0
LINE
  8
KADRBM
 62
   211
 10
84166.98059450148
 20
56882.86413839545
 11
84166.90851841273
 21
56881.37456590198
  0
LINE
  8
KADRBM
 62
   211
 10
84166.90851841273
 20
56881.37456590198
 11
84166.90851841273
 21
56881.06223618569
  0
LINE
  8
KADRBM
 62
   211
 10
84166.90851841273
 20
56881.06223618569
 11
84167.02864522731
 21
56879.62071441805
  0
LINE
  8
KADRBM
 62
   211
 10
84167.02864522731
 20
56879.62071441805
 11
84167.31694958068
 21
56878.25126873753
  0
LINE
  8
KADRBM
 62
   211
 10
84167.31694958068
 20
56878.25126873753
 11
84167.77343147446
 21
56876.92987378447
  0
LINE
  8
KADRBM
 62
   211
 10
84167.77343147446
 20
56876.92987378447
 11
84168.42211626912
 21
56875.72860564436
  0
LINE
  8
KADRBM
 62
   211
 10
84168.42211626912
 20
56875.72860564436
 11
84169.26300396712
 21
56874.64746431801
  0
LINE
  8
KADRBM
 62
   211
 10
84169.26300396712
 20
56874.64746431801
 11
84170.32011993136
 21
56873.7825512571
  0
LINE
  8
KADRBM
 62
   211
 10
84170.32011993136
 20
56873.7825512571
 11
84170.5603735589
 21
56873.63839908042
  0
LINE
  8
KADRBM
 62
   211
 10
84170.5603735589
 20
56873.63839908042
 11
84171.73761633609
 21
56873.1098410987
  0
LINE
  8
KADRBM
 62
   211
 10
84171.73761633609
 20
56873.1098410987
 11
84173.1070620158
 21
56872.79751138242
  0
LINE
  8
KADRBM
 62
   211
 10
84173.1070620158
 20
56872.79751138242
 11
84174.66871059721
 21
56872.70140993157
  0
LINE
  8
KADRBM
 62
   211
 10
84174.66871059721
 20
56872.70140993157
 11
84175.19726857892
 21
56872.70140993157
  0
LINE
  8
KADRBM
 62
   211
 10
84175.19726857892
 20
56872.70140993157
 11
84176.61476498365
 21
56872.917638197
  0
LINE
  8
KADRBM
 62
   211
 10
84176.61476498365
 20
56872.917638197
 11
84177.8881092117
 21
56873.39814545207
  0
LINE
  8
KADRBM
 62
   211
 10
84177.8881092117
 20
56873.39814545207
 11
84179.04132662679
 21
56874.1189063363
  0
LINE
  8
KADRBM
 62
   211
 10
84179.04132662679
 20
56874.1189063363
 11
84179.49780852057
 21
56874.52733750425
  0
LINE
  8
KADRBM
 62
   211
 10
84174.4765076947
 20
56874.57538823008
 11
84174.33235551801
 21
56874.57538823008
  0
LINE
  8
KADRBM
 62
   211
 10
84174.33235551801
 20
56874.57538823008
 11
84172.9629098383
 21
56874.79161649469
  0
LINE
  8
KADRBM
 62
   211
 10
84172.9629098383
 20
56874.79161649469
 11
84171.66554024816
 21
56875.34419983932
  0
LINE
  8
KADRBM
 62
   211
 10
84171.66554024816
 20
56875.34419983932
 11
84171.44931198191
 21
56875.51237737892
  0
LINE
  8
KADRBM
 62
   211
 10
84171.44931198191
 20
56875.51237737892
 11
84170.46427210805
 21
56876.44936652858
  0
LINE
  8
KADRBM
 62
   211
 10
84170.46427210805
 20
56876.44936652858
 11
84169.76753658592
 21
56877.69868539371
  0
LINE
  8
KADRBM
 62
   211
 10
84169.76753658592
 20
56877.69868539371
 11
84169.50325759547
 21
56878.51554772879
  0
LINE
  8
KADRBM
 62
   211
 10
84169.50325759547
 20
56878.51554772879
 11
84169.23897860502
 21
56879.86096804558
  0
LINE
  8
KADRBM
 62
   211
 10
84169.23897860502
 20
56879.86096804558
 11
84169.14287715335
 21
56881.37456590198
  0
LINE
  8
KADRBM
 62
   211
 10
84169.14287715335
 20
56881.37456590198
 11
84169.16690251627
 21
56881.78299706911
  0
LINE
  8
KADRBM
 62
   211
 10
84169.16690251627
 20
56881.78299706911
 11
84169.31105469377
 21
56883.20049347465
  0
LINE
  8
KADRBM
 62
   211
 10
84169.31105469377
 20
56883.20049347465
 11
84169.67143513507
 21
56884.56993915436
  0
LINE
  8
KADRBM
 62
   211
 10
84169.67143513507
 20
56884.56993915436
 11
84169.76753658592
 21
56884.83421814481
  0
LINE
  8
KADRBM
 62
   211
 10
84169.76753658592
 20
56884.83421814481
 11
84170.46427210805
 21
56886.05951164702
  0
LINE
  8
KADRBM
 62
   211
 10
84170.46427210805
 20
56886.05951164702
 11
84171.47333734483
 21
56887.0205261596
  0
LINE
  8
KADRBM
 62
   211
 10
84171.47333734483
 20
56887.0205261596
 11
84171.90579387569
 21
56887.28480515005
  0
LINE
  8
KADRBM
 62
   211
 10
84171.90579387569
 20
56887.28480515005
 11
84173.17913810373
 21
56887.76531240674
  0
LINE
  8
KADRBM
 62
   211
 10
84173.17913810373
 20
56887.76531240674
 11
84174.64468523429
 21
56887.93348994634
  0
LINE
  8
KADRBM
 62
   211
 10
84174.69273596094
 20
56889.78344288193
 11
84173.32329028042
 21
56889.68734143027
  0
LINE
  8
KADRBM
 62
   211
 10
84173.32329028042
 20
56889.68734143027
 11
84171.9538446007
 21
56889.35098635107
  0
LINE
  8
KADRBM
 62
   211
 10
84171.9538446007
 20
56889.35098635107
 11
84170.70452573476
 21
56888.79840300644
  0
LINE
  8
KADRBM
 62
   211
 10
84170.70452573476
 20
56888.79840300644
 11
84169.62338441005
 21
56888.07764212221
  0
LINE
  8
KADRBM
 62
   211
 10
84174.64468523429
 20
56887.93348994634
 11
84174.78883741179
 21
56887.93348994634
  0
LINE
  8
KADRBM
 62
   211
 10
84174.78883741179
 20
56887.93348994634
 11
84176.23035917943
 21
56887.69323631799
  0
LINE
  8
KADRBM
 62
   211
 10
84176.23035917943
 20
56887.69323631799
 11
84177.40760195663
 21
56887.09260224835
  0
LINE
  8
KADRBM
 62
   211
 10
84177.40760195663
 20
56887.09260224835
 11
84177.64785558498
 21
56886.90039934583
  0
LINE
  8
KADRBM
 62
   211
 10
84177.64785558498
 20
56886.90039934583
 11
84178.46471791924
 21
56885.89133410824
  0
LINE
  8
KADRBM
 62
   211
 10
84178.46471791924
 20
56885.89133410824
 11
84179.06535198889
 21
56884.4738377027
  0
LINE
  8
KADRBM
 62
   211
 10
84179.06535198889
 20
56884.4738377027
 11
84181.22763464157
 21
56884.97837032149
  0
LINE
  8
KADRBM
 62
   211
 10
84181.22763464157
 20
56884.97837032149
 11
84181.17958391574
 21
56885.12252249818
  0
LINE
  8
KADRBM
 62
   211
 10
84181.17958391574
 20
56885.12252249818
 11
84180.62700057193
 21
56886.46794281497
  0
LINE
  8
KADRBM
 62
   211
 10
84180.62700057193
 20
56886.46794281497
 11
84179.85818896187
 21
56887.62116022925
  0
LINE
  8
KADRBM
 62
   211
 10
84179.85818896187
 20
56887.62116022925
 11
84178.87314908719
 21
56888.53412401599
  0
LINE
  8
KADRBM
 62
   211
 10
84178.87314908719
 20
56888.53412401599
 11
84178.68094618467
 21
56888.65425082976
  0
LINE
  8
KADRBM
 62
   211
 10
84178.68094618467
 20
56888.65425082976
 11
84177.50370340748
 21
56889.30293562524
  0
LINE
  8
KADRBM
 62
   211
 10
84177.50370340748
 20
56889.30293562524
 11
84176.1823084536
 21
56889.66331606735
  0
LINE
  8
KADRBM
 62
   211
 10
84176.1823084536
 20
56889.66331606735
 11
84174.69273596094
 21
56889.78344288193
  0
LINE
  8
KADRBM
 62
   211
 10
84196.0512834884
 20
56889.51916389067
 11
84182.9574607634
 21
56889.51916389067
  0
LINE
  8
KADRBM
 62
   211
 10
84182.9574607634
 20
56889.51916389067
 11
84182.9574607634
 21
56887.57310950423
  0
LINE
  8
KADRBM
 62
   211
 10
84182.9574607634
 20
56887.57310950423
 11
84188.38719275559
 21
56887.57310950423
  0
LINE
  8
KADRBM
 62
   211
 10
84188.38719275559
 20
56887.57310950423
 11
84188.38719275559
 21
56872.98971428494
  0
LINE
  8
KADRBM
 62
   211
 10
84188.38719275559
 20
56872.98971428494
 11
84190.57350077038
 21
56872.98971428494
  0
LINE
  8
KADRBM
 62
   211
 10
84190.57350077038
 20
56872.98971428494
 11
84190.57350077038
 21
56887.57310950423
  0
LINE
  8
KADRBM
 62
   211
 10
84190.57350077038
 20
56887.57310950423
 11
84196.0512834884
 21
56887.57310950423
  0
LINE
  8
KADRBM
 62
   211
 10
84196.0512834884
 20
56887.57310950423
 11
84196.0512834884
 21
56889.51916389067
  0
LINE
  8
KADRBM
 62
   211
 10
84211.30738886527
 20
56889.51916389067
 11
84209.1210808513
 21
56889.51916389067
  0
LINE
  8
KADRBM
 62
   211
 10
84209.1210808513
 20
56889.51916389067
 11
84209.1210808513
 21
56879.98109485935
  0
LINE
  8
KADRBM
 62
   211
 10
84209.1210808513
 20
56879.98109485935
 11
84209.1210808513
 21
56879.64473978015
  0
LINE
  8
KADRBM
 62
   211
 10
84209.1210808513
 20
56879.64473978015
 11
84208.97692867462
 21
56877.93893902206
  0
LINE
  8
KADRBM
 62
   211
 10
84208.97692867462
 20
56877.93893902206
 11
84208.64057359542
 21
56876.6655947932
  0
LINE
  8
KADRBM
 62
   211
 10
84208.64057359542
 20
56876.6655947932
 11
84208.1120156137
 21
56875.77665637019
  0
LINE
  8
KADRBM
 62
   211
 10
84208.1120156137
 20
56875.77665637019
 11
84207.48735618033
 21
56875.27212375139
  0
LINE
  8
KADRBM
 62
   211
 10
84207.48735618033
 20
56875.27212375139
 11
84206.28608804103
 21
56874.81564185761
  0
LINE
  8
KADRBM
 62
   211
 10
84206.28608804103
 20
56874.81564185761
 11
84204.67638873297
 21
56874.67148968093
  0
LINE
  8
KADRBM
 62
   211
 10
84199.9433922621
 20
56874.33513460173
 11
84201.04855895054
 21
56873.49424690373
  0
LINE
  8
KADRBM
 62
   211
 10
84201.04855895054
 20
56873.49424690373
 11
84201.96152273729
 21
56873.1098410987
  0
LINE
  8
KADRBM
 62
   211
 10
84201.96152273729
 20
56873.1098410987
 11
84203.30694305408
 21
56872.79751138242
  0
LINE
  8
KADRBM
 62
   211
 10
84203.30694305408
 20
56872.79751138242
 11
84204.86859163549
 21
56872.70140993157
  0
LINE
  8
KADRBM
 62
   211
 10
84204.86859163549
 20
56872.70140993157
 11
84206.21401195228
 21
56872.77348602032
  0
LINE
  8
KADRBM
 62
   211
 10
84206.21401195228
 20
56872.77348602032
 11
84207.58345763118
 21
56873.0858157366
  0
LINE
  8
KADRBM
 62
   211
 10
84207.58345763118
 20
56873.0858157366
 11
84208.71264968335
 21
56873.6143737175
  0
LINE
  8
KADRBM
 62
   211
 10
84208.71264968335
 20
56873.6143737175
 11
84209.07303012547
 21
56873.85462734585
  0
LINE
  8
KADRBM
 62
   211
 10
84209.07303012547
 20
56873.85462734585
 11
84210.08209536306
 21
56874.81564185761
  0
LINE
  8
KADRBM
 62
   211
 10
84210.08209536306
 20
56874.81564185761
 11
84210.75480552146
 21
56875.9928846348
  0
LINE
  8
KADRBM
 62
   211
 10
84210.75480552146
 20
56875.9928846348
 11
84211.04310987401
 21
56876.95389914738
  0
LINE
  8
KADRBM
 62
   211
 10
84211.04310987401
 20
56876.95389914738
 11
84211.23531277734
 21
56878.32334482628
  0
LINE
  8
KADRBM
 62
   211
 10
84211.23531277734
 20
56878.32334482628
 11
84211.30738886527
 21
56879.95706949725
  0
LINE
  8
KADRBM
 62
   211
 10
84211.30738886527
 20
56879.95706949725
 11
84211.30738886527
 21
56889.51916389067
  0
LINE
  8
KADRBM
 62
   211
 10
84200.52000096883
 20
56889.51916389067
 11
84198.33369295485
 21
56889.51916389067
  0
LINE
  8
KADRBM
 62
   211
 10
84198.33369295485
 20
56889.51916389067
 11
84198.33369295485
 21
56879.95706949725
  0
LINE
  8
KADRBM
 62
   211
 10
84198.33369295485
 20
56879.95706949725
 11
84198.38174367906
 21
56878.34737018919
  0
LINE
  8
KADRBM
 62
   211
 10
84198.38174367906
 20
56878.34737018919
 11
84198.5979719453
 21
56876.95389914738
  0
LINE
  8
KADRBM
 62
   211
 10
84198.5979719453
 20
56876.95389914738
 11
84198.9583523866
 21
56875.82470709521
  0
LINE
  8
KADRBM
 62
   211
 10
84198.9583523866
 20
56875.82470709521
 11
84199.1265299262
 21
56875.44030129099
  0
LINE
  8
KADRBM
 62
   211
 10
84199.1265299262
 20
56875.44030129099
 11
84199.9433922621
 21
56874.33513460173
  0
LINE
  8
KADRBM
 62
   211
 10
84204.67638873297
 20
56874.67148968093
 11
84203.5471966808
 21
56874.76759113259
  0
LINE
  8
KADRBM
 62
   211
 10
84203.5471966808
 20
56874.76759113259
 11
84202.29787781648
 21
56875.22407302556
  0
LINE
  8
KADRBM
 62
   211
 10
84202.29787781648
 20
56875.22407302556
 11
84201.6732183831
 21
56875.65652955561
  0
LINE
  8
KADRBM
 62
   211
 10
84201.6732183831
 20
56875.65652955561
 11
84200.90440677386
 21
56876.80974696988
  0
LINE
  8
KADRBM
 62
   211
 10
84200.90440677386
 20
56876.80974696988
 11
84200.83233068511
 21
56877.05000059823
  0
LINE
  8
KADRBM
 62
   211
 10
84200.83233068511
 20
56877.05000059823
 11
84200.59207705676
 21
56878.29931946336
  0
LINE
  8
KADRBM
 62
   211
 10
84200.59207705676
 20
56878.29931946336
 11
84200.52000096883
 21
56879.98109485935
  0
LINE
  8
KADRBM
 62
   211
 10
84200.52000096883
 20
56879.98109485935
 11
84200.52000096883
 21
56889.51916389067
  0
LINE
  8
KADRBM
 62
   211
 10
84219.71626584523
 20
56880.31744993855
 11
84220.91753398452
 21
56880.24537385062
  0
LINE
  8
KADRBM
 62
   211
 10
84220.91753398452
 20
56880.24537385062
 11
84221.92659922212
 21
56879.81291731975
  0
LINE
  8
KADRBM
 62
   211
 10
84221.92659922212
 20
56879.81291731975
 11
84222.02270067297
 21
56879.74084123182
  0
LINE
  8
KADRBM
 62
   211
 10
84222.02270067297
 20
56879.74084123182
 11
84223.03176591056
 21
56878.70775063131
  0
LINE
  8
KADRBM
 62
   211
 10
84223.03176591056
 20
56878.70775063131
 11
84223.70447606896
 21
56877.77076148165
  0
LINE
  8
KADRBM
 62
   211
 10
84223.70447606896
 20
56877.77076148165
 11
84224.6174398557
 21
56876.42534116485
  0
LINE
  8
KADRBM
 62
   211
 10
84224.6174398557
 20
56876.42534116485
 11
84226.8037478705
 21
56872.98971428494
  0
LINE
  8
KADRBM
 62
   211
 10
84226.8037478705
 20
56872.98971428494
 11
84229.5426392291
 21
56872.98971428494
  0
LINE
  8
KADRBM
 62
   211
 10
84229.5426392291
 20
56872.98971428494
 11
84226.65959569381
 21
56877.48245712828
  0
LINE
  8
KADRBM
 62
   211
 10
84226.65959569381
 20
56877.48245712828
 11
84226.65959569381
 21
56877.5064824912
  0
LINE
  8
KADRBM
 62
   211
 10
84226.65959569381
 20
56877.5064824912
 11
84225.7946826329
 21
56878.68372526839
  0
LINE
  8
KADRBM
 62
   211
 10
84225.7946826329
 20
56878.68372526839
 11
84224.85769348405
 21
56879.66876514307
  0
LINE
  8
KADRBM
 62
   211
 10
84224.85769348405
 20
56879.66876514307
 11
84224.7615920332
 21
56879.74084123182
  0
LINE
  8
KADRBM
 62
   211
 10
84224.7615920332
 20
56879.74084123182
 11
84223.53629853018
 21
56880.50965284106
  0
LINE
  8
KADRBM
 62
   211
 10
84222.40710647881
 20
56887.69323631799
 11
84222.47918256675
 21
56887.69323631799
  0
LINE
  8
KADRBM
 62
   211
 10
84222.47918256675
 20
56887.69323631799
 11
84224.01680578606
 21
56887.47700805256
  0
LINE
  8
KADRBM
 62
   211
 10
84224.01680578606
 20
56887.47700805256
 11
84225.0979471124
 21
56886.92442470875
  0
LINE
  8
KADRBM
 62
   211
 10
84225.0979471124
 20
56886.92442470875
 11
84225.6024797312
 21
56886.32379063829
  0
LINE
  8
KADRBM
 62
   211
 10
84225.6024797312
 20
56886.32379063829
 11
84225.9388348104
 21
56885.00239568441
  0
LINE
  8
KADRBM
 62
   211
 10
84225.9388348104
 20
56885.00239568441
 11
84225.9388348104
 21
56884.83421814481
  0
LINE
  8
KADRBM
 62
   211
 10
84225.9388348104
 20
56884.83421814481
 11
84225.50637827953
 21
56883.51282319093
  0
LINE
  8
KADRBM
 62
   211
 10
84225.50637827953
 20
56883.51282319093
 11
84225.36222610285
 21
56883.32062028842
  0
LINE
  8
KADRBM
 62
   211
 10
84225.36222610285
 20
56883.32062028842
 11
84224.20900868857
 21
56882.52778331625
  0
LINE
  8
KADRBM
 62
   211
 10
84224.20900868857
 20
56882.52778331625
 11
84223.41617171641
 21
56882.33558041374
  0
LINE
  8
KADRBM
 62
   211
 10
84223.41617171641
 20
56882.33558041374
 11
84221.8785484971
 21
56882.21545359997
  0
LINE
  8
KADRBM
 62
   211
 10
84221.8785484971
 20
56882.21545359997
 11
84217.16957738833
 21
56882.21545359997
  0
LINE
  8
KADRBM
 62
   211
 10
84227.04400149884
 20
56882.04727606037
 11
84227.35633121594
 21
56882.40765650249
  0
LINE
  8
KADRBM
 62
   211
 10
84227.35633121594
 20
56882.40765650249
 11
84227.98099064769
 21
56883.60892464178
  0
LINE
  8
KADRBM
 62
   211
 10
84227.98099064769
 20
56883.60892464178
 11
84228.19721891312
 21
56885.00239568441
  0
LINE
  8
KADRBM
 62
   211
 10
84228.19721891312
 20
56885.00239568441
 11
84228.05306673644
 21
56886.20366382452
  0
LINE
  8
KADRBM
 62
   211
 10
84228.05306673644
 20
56886.20366382452
 11
84227.5004833918
 21
56887.50103341548
  0
LINE
  8
KADRBM
 62
   211
 10
84227.5004833918
 20
56887.50103341548
 11
84226.82777323341
 21
56888.34192111348
  0
LINE
  8
KADRBM
 62
   211
 10
84222.31100502796
 20
56889.51916389067
 11
84214.98326937354
 21
56889.51916389067
  0
LINE
  8
KADRBM
 62
   211
 10
84214.98326937354
 20
56889.51916389067
 11
84214.98326937354
 21
56872.98971428494
  0
LINE
  8
KADRBM
 62
   211
 10
84214.98326937354
 20
56872.98971428494
 11
84217.16957738833
 21
56872.98971428494
  0
LINE
  8
KADRBM
 62
   211
 10
84217.16957738833
 20
56872.98971428494
 11
84217.16957738833
 21
56880.31744993855
  0
LINE
  8
KADRBM
 62
   211
 10
84217.16957738833
 20
56880.31744993855
 11
84219.71626584523
 21
56880.31744993855
  0
LINE
  8
KADRBM
 62
   211
 10
84223.53629853018
 20
56880.50965284106
 11
84224.7856173953
 21
56880.74990646941
  0
LINE
  8
KADRBM
 62
   211
 10
84224.7856173953
 20
56880.74990646941
 11
84226.08298698626
 21
56881.27846445031
  0
LINE
  8
KADRBM
 62
   211
 10
84226.08298698626
 20
56881.27846445031
 11
84227.04400149884
 21
56882.04727606037
  0
LINE
  8
KADRBM
 62
   211
 10
84217.16957738833
 20
56882.21545359997
 11
84217.16957738833
 21
56887.69323631799
  0
LINE
  8
KADRBM
 62
   211
 10
84217.16957738833
 20
56887.69323631799
 11
84222.40710647881
 21
56887.69323631799
  0
LINE
  8
KADRBM
 62
   211
 10
84226.82777323341
 20
56888.34192111348
 11
84225.67455581995
 21
56889.06268199689
  0
LINE
  8
KADRBM
 62
   211
 10
84225.67455581995
 20
56889.06268199689
 11
84225.24209928827
 21
56889.20683417439
  0
LINE
  8
KADRBM
 62
   211
 10
84225.24209928827
 20
56889.20683417439
 11
84223.96875506022
 21
56889.44708780274
  0
LINE
  8
KADRBM
 62
   211
 10
84223.96875506022
 20
56889.44708780274
 11
84222.31100502796
 21
56889.51916389067
  0
LINE
  8
KADRBM
 62
   211
 10
84243.59747646749
 20
56889.51916389067
 11
84231.65687115514
 21
56889.51916389067
  0
LINE
  8
KADRBM
 62
   211
 10
84231.65687115514
 20
56889.51916389067
 11
84231.65687115514
 21
56872.98971428494
  0
LINE
  8
KADRBM
 62
   211
 10
84231.65687115514
 20
56872.98971428494
 11
84243.98188227252
 21
56872.98971428494
  0
LINE
  8
KADRBM
 62
   211
 10
84243.98188227252
 20
56872.98971428494
 11
84243.98188227252
 21
56874.93576867219
  0
LINE
  8
KADRBM
 62
   211
 10
84243.98188227252
 20
56874.93576867219
 11
84233.84317917074
 21
56874.93576867219
  0
LINE
  8
KADRBM
 62
   211
 10
84233.84317917074
 20
56874.93576867219
 11
84233.84317917074
 21
56880.5577035669
  0
LINE
  8
KADRBM
 62
   211
 10
84233.84317917074
 20
56880.5577035669
 11
84242.97281703493
 21
56880.5577035669
  0
LINE
  8
KADRBM
 62
   211
 10
84242.97281703493
 20
56880.5577035669
 11
84242.97281703493
 21
56882.50375795334
  0
LINE
  8
KADRBM
 62
   211
 10
84242.97281703493
 20
56882.50375795334
 11
84233.84317917074
 21
56882.50375795334
  0
LINE
  8
KADRBM
 62
   211
 10
84233.84317917074
 20
56882.50375795334
 11
84233.84317917074
 21
56887.57310950423
  0
LINE
  8
KADRBM
 62
   211
 10
84233.84317917074
 20
56887.57310950423
 11
84243.59747646749
 21
56887.57310950423
  0
LINE
  8
KADRBM
 62
   211
 10
84243.59747646749
 20
56887.57310950423
 11
84243.59747646749
 21
56889.51916389067
  0
LINE
  8
KADRBM
 62
   211
 10
84256.03329626017
 20
56890.38695119221
 11
84250.96929197176
 21
56882.74364670859
  0
LINE
  8
KADRBM
 62
   211
 10
84257.84495186422
 20
56889.24966488387
 11
84253.5344466361
 21
56882.74364670859
  0
LINE
  8
KADRBM
 62
   211
 10
84273.55527406838
 20
56880.31781481164
 11
84312.53585006576
 21
56880.31781481164
  0
INSERT
  8
1
 62
    91
  2
*U5
 10
0.0
 20
0.0
 30
0.0
  0
LINE
  8
KADRBM
 62
   211
 10
84274.62116858107
 20
56875.0690022187
 11
84319.50345783657
 21
56875.0690022187
  0
LINE
  8
KADRBM
 62
   211
 10
84312.53585006576
 20
56882.74364670859
 11
84273.55527406838
 21
56882.74364670859
  0
LINE
  8
KADRBM
 62
   211
 10
84319.50345783657
 20
56887.99245930153
 11
84274.62116858107
 21
56887.99245930153
  0
LINE
  8
KADRBM
 62
   211
 10
84273.55527406838
 20
56882.74364670859
 11
84273.55527406838
 21
56880.31781481164
  0
LINE
  8
KADRBM
 62
   211
 10
84319.50345783657
 20
56881.53073076012
 11
84312.53585006576
 21
56882.74364670859
  0
LINE
  8
KADRBM
 62
   211
 10
84319.50345783657
 20
56881.53073076012
 11
84312.53585006576
 21
56880.31781481164
  0
LINE
  8
KADRBM
 62
   211
 10
84262.31308546767
 20
56891.66160830755
 11
84262.31308546767
 21
56882.74364670859
  0
LINE
  8
KADRBM
 62
   211
 10
84262.31308546767
 20
56880.31781481164
 11
84262.31308546767
 21
56871.39985321269
  0
LINE
  8
KADRBM
 62
   211
 10
84259.88725357235
 20
56891.66160830755
 11
84259.88725357235
 21
56882.74364670859
  0
LINE
  8
KADRBM
 62
   211
 10
84259.88725357235
 20
56880.31781481164
 11
84259.88725357235
 21
56871.39985321269
  0
LINE
  8
KADRBM
 62
   211
 10
84250.96929197176
 20
56880.31781481164
 11
84259.88725357235
 21
56880.31781481164
  0
LINE
  8
KADRBM
 62
   211
 10
84262.31308546767
 20
56880.31781481164
 11
84271.23104706744
 21
56880.31781481164
  0
LINE
  8
KADRBM
 62
   211
 10
84253.5344466361
 20
56882.74364670859
 11
84259.88725357235
 21
56882.74364670859
  0
LINE
  8
KADRBM
 62
   211
 10
84262.31308546767
 20
56882.74364670859
 11
84271.23104706744
 21
56882.74364670859
  0
LINE
  8
KADRBM
 62
   211
 10
84259.88725357235
 20
56891.66160830755
 11
84262.31308546767
 21
56891.66160830755
  0
LINE
  8
KADRBM
 62
   211
 10
84271.23104706744
 20
56880.31781481164
 11
84271.23104706744
 21
56882.74364670859
  0
LINE
  8
KADRBM
 62
   211
 10
84259.88725357235
 20
56871.39985321269
 11
84262.31308546767
 21
56871.39985321269
  0
LINE
  8
KADRBM
 62
   211
 10
84250.96929197176
 20
56880.31781481164
 11
84250.96929197176
 21
56882.74364670859
  0
LINE
  8
KADRBM
 62
   211
 10
84256.03329626017
 20
56890.38695119221
 11
84257.84495186422
 21
56889.24966488387
  0
LINE
  8
KADRBM
 62
   211
 10
84259.88725357235
 20
56893.98583530767
 11
84259.88725357235
 21
56911.07797011155
  0
INSERT
  8
1
 62
    91
  2
*U6
 10
0.0
 20
0.0
 30
0.0
  0
LINE
  8
KADRBM
 62
   211
 10
84254.63844097778
 20
56894.76797648442
 11
84254.63844097778
 21
56918.04557788074
  0
LINE
  8
KADRBM
 62
   211
 10
84262.31308546767
 20
56911.07797011155
 11
84262.31308546767
 21
56893.98583530767
  0
LINE
  8
KADRBM
 62
   211
 10
84262.31308546767
 20
56893.98583530767
 11
84259.88725357235
 21
56893.98583530767
  0
LINE
  8
KADRBM
 62
   211
 10
84261.1001695192
 20
56918.04557788074
 11
84262.31308546767
 21
56911.07797011155
  0
LINE
  8
KADRBM
 62
   211
 10
84261.1001695192
 20
56918.04557788074
 11
84259.88725357235
 21
56911.07797011155
  0
LINE
  8
KADRBM
 62
   211
 10
84267.42695426254
 20
56861.00733642832
 11
84267.41003772512
 21
56860.44909071612
  0
LINE
  8
KADRBM
 62
   211
 10
84267.41003772512
 20
56860.44909071612
 11
84267.30853850464
 21
56859.11268431337
  0
LINE
  8
KADRBM
 62
   211
 10
84267.30853850464
 20
56859.11268431337
 11
84267.0886235279
 21
56858.16535825508
  0
LINE
  8
KADRBM
 62
   211
 10
84267.0886235279
 20
56858.16535825508
 11
84266.91945816018
 21
56857.81011098383
  0
LINE
  8
KADRBM
 62
   211
 10
84266.91945816018
 20
56857.81011098383
 11
84266.24279669009
 21
56856.87970146297
  0
LINE
  8
KADRBM
 62
   211
 10
84266.24279669009
 20
56856.87970146297
 11
84265.22780448617
 21
56856.08462423661
  0
LINE
  8
KADRBM
 62
   211
 10
84265.22780448617
 20
56856.08462423661
 11
84264.87255721493
 21
56855.89854233146
  0
LINE
  8
KADRBM
 62
   211
 10
84264.87255721493
 20
56855.89854233146
 11
84263.8575650102
 21
56855.54329506021
  0
LINE
  8
KADRBM
 62
   211
 10
84263.8575650102
 20
56855.54329506021
 11
84262.63957436453
 21
56855.32338008266
  0
LINE
  8
KADRBM
 62
   211
 10
84262.63957436453
 20
56855.32338008266
 11
84261.21858527791
 21
56855.23879739879
  0
LINE
  8
KADRBM
 62
   211
 10
84261.21858527791
 20
56855.23879739879
 11
84260.33892536606
 21
56855.27263047283
  0
LINE
  8
KADRBM
 62
   211
 10
84260.33892536606
 20
56855.27263047283
 11
84259.12093472038
 21
56855.40796276652
  0
LINE
  8
KADRBM
 62
   211
 10
84259.12093472038
 20
56855.40796276652
 11
84258.03827636922
 21
56855.67862735472
  0
LINE
  8
KADRBM
 62
   211
 10
84258.03827636922
 20
56855.67862735472
 11
84258.02135983261
 21
56855.67862735472
  0
LINE
  8
KADRBM
 62
   211
 10
84258.02135983261
 20
56855.67862735472
 11
84256.83720226097
 21
56856.20303999288
  0
LINE
  8
KADRBM
 62
   211
 10
84256.83720226097
 20
56856.20303999288
 11
84255.94062581332
 21
56856.89661800039
  0
LINE
  8
KADRBM
 62
   211
 10
84255.94062581332
 20
56856.89661800039
 11
84255.63612815109
 21
56857.25186527164
  0
LINE
  8
KADRBM
 62
   211
 10
84255.63612815109
 20
56857.25186527164
 11
84255.0778824389
 21
56858.36835669602
  0
LINE
  8
KADRBM
 62
   211
 10
84255.0778824389
 20
56858.36835669602
 11
84255.04404936486
 21
56858.48677245392
  0
LINE
  8
KADRBM
 62
   211
 10
84255.04404936486
 20
56858.48677245392
 11
84254.84105092392
 21
56859.5694308059
  0
LINE
  8
KADRBM
 62
   211
 10
84254.84105092392
 20
56859.5694308059
 11
84254.77338477748
 21
56860.93967028188
  0
LINE
  8
KADRBM
 62
   211
 10
84254.77338477748
 20
56860.93967028188
 11
84254.77338477748
 21
56864.47522646181
  0
LINE
  8
KADRBM
 62
   211
 10
84254.48580365267
 20
56855.3910462291
 11
84255.45004624675
 21
56854.5621359287
  0
LINE
  8
KADRBM
 62
   211
 10
84255.45004624675
 20
56854.5621359287
 11
84255.60229507787
 21
56854.44372017162
  0
LINE
  8
KADRBM
 62
   211
 10
84255.60229507787
 20
56854.44372017162
 11
84256.6172872826
 21
56853.88547445943
  0
LINE
  8
KADRBM
 62
   211
 10
84256.6172872826
 20
56853.88547445943
 11
84257.8521944657
 21
56853.42872796689
  0
LINE
  8
KADRBM
 62
   211
 10
84257.8521944657
 20
56853.42872796689
 11
84258.69802130188
 21
56853.22572952595
  0
LINE
  8
KADRBM
 62
   211
 10
84258.69802130188
 20
56853.22572952595
 11
84259.88217887352
 21
56853.03964762243
  0
LINE
  8
KADRBM
 62
   211
 10
84259.88217887352
 20
56853.03964762243
 11
84261.18475220387
 21
56852.98889801178
  0
LINE
  8
KADRBM
 62
   211
 10
84261.18475220387
 20
56852.98889801178
 11
84261.57383254915
 21
56852.98889801178
  0
LINE
  8
KADRBM
 62
   211
 10
84261.57383254915
 20
56852.98889801178
 11
84262.85948934127
 21
56853.09039723226
  0
LINE
  8
KADRBM
 62
   211
 10
84262.85948934127
 20
56853.09039723226
 11
84264.04364691372
 21
56853.2933956732
  0
LINE
  8
KADRBM
 62
   211
 10
84264.04364691372
 20
56853.2933956732
 11
84265.1263052657
 21
56853.63172640784
  0
LINE
  8
KADRBM
 62
   211
 10
84265.1263052657
 20
56853.63172640784
 11
84266.1074643964
 21
56854.08847290037
  0
LINE
  8
KADRBM
 62
   211
 10
84266.1074643964
 20
56854.08847290037
 11
84267.1055400637
 21
56854.76513436965
  0
LINE
  8
KADRBM
 62
   211
 10
84267.1055400637
 20
56854.76513436965
 11
84267.95136690151
 21
56855.59404467004
  0
LINE
  8
KADRBM
 62
   211
 10
84269.37235598813
 20
56860.9735033551
 11
84269.37235598813
 21
56866.65745970157
  0
LINE
  8
KADRBM
 62
   211
 10
84269.37235598813
 20
56866.65745970157
 11
84252.82798305189
 21
56866.65745970157
  0
LINE
  8
KADRBM
 62
   211
 10
84252.82798305189
 20
56866.65745970157
 11
84252.82798305189
 21
56860.7028387669
  0
LINE
  8
KADRBM
 62
   211
 10
84252.82798305189
 20
56860.7028387669
 11
84252.82798305189
 21
56860.43217417951
  0
LINE
  8
KADRBM
 62
   211
 10
84252.82798305189
 20
56860.43217417951
 11
84252.91256573494
 21
56859.16343392401
  0
LINE
  8
KADRBM
 62
   211
 10
84252.91256573494
 20
56859.16343392401
 11
84253.09864764009
 21
56858.03002596139
  0
LINE
  8
KADRBM
 62
   211
 10
84253.09864764009
 20
56858.03002596139
 11
84253.40314530069
 21
56857.09961644134
  0
LINE
  8
KADRBM
 62
   211
 10
84253.40314530069
 20
56857.09961644134
 11
84253.94447447709
 21
56856.05079116258
  0
LINE
  8
KADRBM
 62
   211
 10
84253.94447447709
 20
56856.05079116258
 11
84254.48580365267
 21
56855.3910462291
  0
LINE
  8
KADRBM
 62
   211
 10
84254.77338477748
 20
56864.47522646181
 11
84267.42695426254
 21
56864.47522646181
  0
LINE
  8
KADRBM
 62
   211
 10
84267.42695426254
 20
56864.47522646181
 11
84267.42695426254
 21
56861.00733642832
  0
LINE
  8
KADRBM
 62
   211
 10
84267.95136690151
 20
56855.59404467004
 11
84268.13744880585
 21
56855.83087618502
  0
LINE
  8
KADRBM
 62
   211
 10
84268.13744880585
 20
56855.83087618502
 11
84268.74644412869
 21
56856.84586838975
  0
LINE
  8
KADRBM
 62
   211
 10
84268.74644412869
 20
56856.84586838975
 11
84269.13552447315
 21
56858.03002596139
  0
LINE
  8
KADRBM
 62
   211
 10
84269.13552447315
 20
56858.03002596139
 11
84269.22010715702
 21
56858.40218977006
  0
LINE
  8
KADRBM
 62
   211
 10
84269.22010715702
 20
56858.40218977006
 11
84269.3385229141
 21
56859.53559773187
  0
LINE
  8
KADRBM
 62
   211
 10
84269.3385229141
 20
56859.53559773187
 11
84269.37235598813
 21
56860.9735033551
  0
LINE
  8
KADRBM
 62
   211
 10
84269.37235598813
 20
56837.96701338263
 11
84269.37235598813
 21
56849.92700486099
  0
LINE
  8
KADRBM
 62
   211
 10
84269.37235598813
 20
56849.92700486099
 11
84252.82798305189
 21
56849.92700486099
  0
LINE
  8
KADRBM
 62
   211
 10
84252.82798305189
 20
56849.92700486099
 11
84252.82798305189
 21
56837.59484957396
  0
LINE
  8
KADRBM
 62
   211
 10
84252.82798305189
 20
56837.59484957396
 11
84254.77338477748
 21
56837.59484957396
  0
LINE
  8
KADRBM
 62
   211
 10
84254.77338477748
 20
56837.59484957396
 11
84254.77338477748
 21
56847.74477162123
  0
LINE
  8
KADRBM
 62
   211
 10
84254.77338477748
 20
56847.74477162123
 11
84260.40659151413
 21
56847.74477162123
  0
LINE
  8
KADRBM
 62
   211
 10
84260.40659151413
 20
56847.74477162123
 11
84260.40659151413
 21
56838.59292524208
  0
LINE
  8
KADRBM
 62
   211
 10
84260.40659151413
 20
56838.59292524208
 11
84262.3519932389
 21
56838.59292524208
  0
LINE
  8
KADRBM
 62
   211
 10
84262.3519932389
 20
56838.59292524208
 11
84262.3519932389
 21
56847.74477162123
  0
LINE
  8
KADRBM
 62
   211
 10
84262.3519932389
 20
56847.74477162123
 11
84267.42695426254
 21
56847.74477162123
  0
LINE
  8
KADRBM
 62
   211
 10
84267.42695426254
 20
56847.74477162123
 11
84267.42695426254
 21
56837.96701338263
  0
LINE
  8
KADRBM
 62
   211
 10
84267.42695426254
 20
56837.96701338263
 11
84269.37235598813
 21
56837.96701338263
  0
LINE
  8
KADRBM
 62
   211
 10
84258.32585749403
 20
56833.24729963105
 11
84258.13977558969
 21
56835.31111711373
  0
LINE
  8
KADRBM
 62
   211
 10
84258.13977558969
 20
56835.31111711373
 11
84257.39544797316
 21
56835.24345096647
  0
LINE
  8
KADRBM
 62
   211
 10
84257.39544797316
 20
56835.24345096647
 11
84256.22820693813
 21
56834.93895330506
  0
LINE
  8
KADRBM
 62
   211
 10
84256.22820693813
 20
56834.93895330506
 11
84255.17938165937
 21
56834.39762412947
  0
LINE
  8
KADRBM
 62
   211
 10
84255.17938165937
 20
56834.39762412947
 11
84254.60421941057
 21
56833.95779417436
  0
LINE
  8
KADRBM
 62
   211
 10
84254.60421941057
 20
56833.95779417436
 11
84253.79222564679
 21
56833.07813426333
  0
LINE
  8
KADRBM
 62
   211
 10
84253.79222564679
 20
56833.07813426333
 11
84253.20014685974
 21
56832.01239244796
  0
LINE
  8
KADRBM
 62
   211
 10
84253.20014685974
 20
56832.01239244796
 11
84253.1324807133
 21
56831.86014361765
  0
LINE
  8
KADRBM
 62
   211
 10
84253.1324807133
 20
56831.86014361765
 11
84252.81106651446
 21
56830.81131833971
  0
LINE
  8
KADRBM
 62
   211
 10
84252.81106651446
 20
56830.81131833971
 11
84252.60806807352
 21
56829.61024423064
  0
LINE
  8
KADRBM
 62
   211
 10
84252.60806807352
 20
56829.61024423064
 11
84252.54040192708
 21
56828.25692129128
  0
LINE
  8
KADRBM
 62
   211
 10
84252.54040192708
 20
56828.25692129128
 11
84252.59115153691
 21
56827.36034484363
  0
LINE
  8
KADRBM
 62
   211
 10
84252.59115153691
 20
56827.36034484363
 11
84252.79414997785
 21
56826.15927073457
  0
LINE
  8
KADRBM
 62
   211
 10
84252.79414997785
 20
56826.15927073457
 11
84253.20014685974
 21
56825.05969584679
  0
LINE
  8
KADRBM
 62
   211
 10
84253.20014685974
 20
56825.05969584679
 11
84253.40314530069
 21
56824.63678242748
  0
LINE
  8
KADRBM
 62
   211
 10
84253.40314530069
 20
56824.63678242748
 11
84254.11363984481
 21
56823.65562329679
  0
LINE
  8
KADRBM
 62
   211
 10
84254.5027201901
 20
56828.35842051175
 11
84254.5027201901
 21
56828.54450241609
  0
LINE
  8
KADRBM
 62
   211
 10
84254.5027201901
 20
56828.54450241609
 11
84254.6549690204
 21
56829.77940959756
  0
LINE
  8
KADRBM
 62
   211
 10
84254.6549690204
 20
56829.77940959756
 11
84255.01021629246
 21
56830.89590102276
  0
LINE
  8
KADRBM
 62
   211
 10
84255.01021629246
 20
56830.89590102276
 11
84255.48387932079
 21
56831.75864439718
  0
LINE
  8
KADRBM
 62
   211
 10
84255.48387932079
 20
56831.75864439718
 11
84256.29587308457
 21
56832.55372162435
  0
LINE
  8
KADRBM
 62
   211
 10
84256.29587308457
 20
56832.55372162435
 11
84257.07403377432
 21
56832.95971850624
  0
LINE
  8
KADRBM
 62
   211
 10
84257.07403377432
 20
56832.95971850624
 11
84258.32585749403
 21
56833.24729963105
  0
LINE
  8
KADRBM
 62
   211
 10
84268.32353070937
 20
56833.19655002041
 11
84267.44387079915
 21
56833.95779417436
  0
LINE
  8
KADRBM
 62
   211
 10
84267.44387079915
 20
56833.95779417436
 11
84267.3931211885
 21
56834.00854378419
  0
LINE
  8
KADRBM
 62
   211
 10
84267.3931211885
 20
56834.00854378419
 11
84266.27662976412
 21
56834.51603988656
  0
LINE
  8
KADRBM
 62
   211
 10
84266.27662976412
 20
56834.51603988656
 11
84265.09247219167
 21
56834.66828871767
  0
LINE
  8
KADRBM
 62
   211
 10
84265.09247219167
 20
56834.66828871767
 11
84264.12822959758
 21
56834.5667894972
  0
LINE
  8
KADRBM
 62
   211
 10
84264.12822959758
 20
56834.5667894972
 11
84263.04557124642
 21
56834.09312646805
  0
LINE
  8
KADRBM
 62
   211
 10
84263.04557124642
 20
56834.09312646805
 11
84262.21666094521
 21
56833.38263192475
  0
LINE
  8
KADRBM
 62
   211
 10
84262.21666094521
 20
56833.38263192475
 11
84261.48924986529
 21
56832.3338066468
  0
LINE
  8
KADRBM
 62
   211
 10
84261.48924986529
 20
56832.3338066468
 11
84261.21858527791
 21
56831.72481132396
  0
LINE
  8
KADRBM
 62
   211
 10
84261.21858527791
 20
56831.72481132396
 11
84260.86333800585
 21
56830.60831989876
  0
LINE
  8
KADRBM
 62
   211
 10
84260.86333800585
 20
56830.60831989876
 11
84260.47425766056
 21
56829.1365812015
  0
LINE
  8
KADRBM
 62
   211
 10
84260.47425766056
 20
56829.1365812015
 11
84260.25434268301
 21
56828.2907543645
  0
LINE
  8
KADRBM
 62
   211
 10
84260.25434268301
 20
56828.2907543645
 11
84259.91601194756
 21
56826.98818103496
  0
LINE
  8
KADRBM
 62
   211
 10
84259.91601194756
 20
56826.98818103496
 11
84259.66226389678
 21
56826.19310380779
  0
LINE
  8
KADRBM
 62
   211
 10
84259.66226389678
 20
56826.19310380779
 11
84259.37468277197
 21
56825.56719194834
  0
LINE
  8
KADRBM
 62
   211
 10
84259.37468277197
 20
56825.56719194834
 11
84258.68110476527
 21
56824.70444857473
  0
LINE
  8
KADRBM
 62
   211
 10
84258.68110476527
 20
56824.70444857473
 11
84258.4611897869
 21
56824.55219974362
  0
LINE
  8
KADRBM
 62
   211
 10
84258.4611897869
 20
56824.55219974362
 11
84257.3108652893
 21
56824.24770208301
  0
LINE
  8
KADRBM
 62
   211
 10
84257.3108652893
 20
56824.24770208301
 11
84257.00636762788
 21
56824.26461861962
  0
LINE
  8
KADRBM
 62
   211
 10
84257.00636762788
 20
56824.26461861962
 11
84255.90679273929
 21
56824.72136511134
  0
LINE
  8
KADRBM
 62
   211
 10
84255.90679273929
 20
56824.72136511134
 11
84255.51771239482
 21
56825.0766123834
  0
LINE
  8
KADRBM
 62
   211
 10
84255.51771239482
 20
56825.0766123834
 11
84254.87488399795
 21
56826.14235419796
  0
LINE
  8
KADRBM
 62
   211
 10
84254.87488399795
 20
56826.14235419796
 11
84254.62113594636
 21
56827.08968025625
  0
LINE
  8
KADRBM
 62
   211
 10
84254.62113594636
 20
56827.08968025625
 11
84254.5027201901
 21
56828.35842051175
  0
LINE
  8
KADRBM
 62
   211
 10
84254.11363984481
 20
56823.65562329679
 11
84255.01021629246
 21
56822.89437914283
  0
LINE
  8
KADRBM
 62
   211
 10
84255.01021629246
 20
56822.89437914283
 11
84255.2132147334
 21
56822.77596338575
  0
LINE
  8
KADRBM
 62
   211
 10
84255.2132147334
 20
56822.77596338575
 11
84256.31278962118
 21
56822.3023003566
  0
LINE
  8
KADRBM
 62
   211
 10
84256.31278962118
 20
56822.3023003566
 11
84257.49694719363
 21
56822.13313498969
  0
LINE
  8
KADRBM
 62
   211
 10
84257.49694719363
 20
56822.13313498969
 11
84257.58152987668
 21
56822.13313498969
  0
LINE
  8
KADRBM
 62
   211
 10
84257.58152987668
 20
56822.13313498969
 11
84258.79952052236
 21
56822.31921689321
  0
LINE
  8
KADRBM
 62
   211
 10
84258.79952052236
 20
56822.31921689321
 11
84259.86526233773
 21
56822.82671299639
  0
LINE
  8
KADRBM
 62
   211
 10
84259.86526233773
 20
56822.82671299639
 11
84260.10209385189
 21
56823.01279489991
  0
LINE
  8
KADRBM
 62
   211
 10
84260.10209385189
 20
56823.01279489991
 11
84260.88025454246
 21
56823.84170520112
  0
LINE
  8
KADRBM
 62
   211
 10
84260.88025454246
 20
56823.84170520112
 11
84261.53999947512
 21
56824.95819662551
  0
LINE
  8
KADRBM
 62
   211
 10
84261.53999947512
 20
56824.95819662551
 11
84261.57383254915
 21
56825.04277930937
  0
LINE
  8
KADRBM
 62
   211
 10
84261.57383254915
 20
56825.04277930937
 11
84261.87833021057
 21
56825.88860614637
  0
LINE
  8
KADRBM
 62
   211
 10
84261.87833021057
 20
56825.88860614637
 11
84262.23357748264
 21
56827.07276371882
  0
LINE
  8
KADRBM
 62
   211
 10
84262.23357748264
 20
56827.07276371882
 11
84262.60574129049
 21
56828.61216856253
  0
LINE
  8
KADRBM
 62
   211
 10
84262.60574129049
 20
56828.61216856253
 11
84262.97790509835
 21
56830.08390725897
  0
LINE
  8
KADRBM
 62
   211
 10
84262.97790509835
 20
56830.08390725897
 11
84263.38390198024
 21
56831.25114829482
  0
LINE
  8
KADRBM
 62
   211
 10
84263.38390198024
 20
56831.25114829482
 11
84263.77298232552
 21
56831.92780976491
  0
LINE
  8
KADRBM
 62
   211
 10
84263.77298232552
 20
56831.92780976491
 11
84264.12822959758
 21
56832.23230742633
  0
LINE
  8
KADRBM
 62
   211
 10
84264.12822959758
 20
56832.23230742633
 11
84265.24472102278
 21
56832.57063816096
  0
LINE
  8
KADRBM
 62
   211
 10
84265.24472102278
 20
56832.57063816096
 11
84266.05671478657
 21
56832.40147279405
  0
LINE
  8
KADRBM
 62
   211
 10
84266.05671478657
 20
56832.40147279405
 11
84267.00404084323
 21
56831.65714517671
  0
LINE
  8
KADRBM
 62
   211
 10
84267.00404084323
 20
56831.65714517671
 11
84267.27470543224
 21
56831.23423175821
  0
LINE
  8
KADRBM
 62
   211
 10
84267.27470543224
 20
56831.23423175821
 11
84267.61303616606
 21
56830.16848994365
  0
LINE
  8
KADRBM
 62
   211
 10
84267.61303616606
 20
56830.16848994365
 11
84267.73145192396
 21
56828.76441739364
  0
LINE
  8
KADRBM
 62
   211
 10
84269.65993711294
 20
56828.84900007751
 11
84269.64302057552
 21
56829.55949462081
  0
LINE
  8
KADRBM
 62
   211
 10
84269.64302057552
 20
56829.55949462081
 11
84269.456938672
 21
56830.77748526649
  0
LINE
  8
KADRBM
 62
   211
 10
84269.456938672
 20
56830.77748526649
 11
84269.10169140075
 21
56831.89397669169
  0
LINE
  8
KADRBM
 62
   211
 10
84269.10169140075
 20
56831.89397669169
 11
84268.98327564285
 21
56832.16464127907
  0
LINE
  8
KADRBM
 62
   211
 10
84268.98327564285
 20
56832.16464127907
 11
84268.32353070937
 21
56833.19655002041
  0
LINE
  8
KADRBM
 62
   211
 10
84267.73145192396
 20
56828.76441739364
 11
84267.69761885074
 21
56827.98625670308
  0
LINE
  8
KADRBM
 62
   211
 10
84267.69761885074
 20
56827.98625670308
 11
84267.44387079915
 21
56826.78518259402
  0
LINE
  8
KADRBM
 62
   211
 10
84267.44387079915
 20
56826.78518259402
 11
84266.93637469679
 21
56825.87168961058
  0
LINE
  8
KADRBM
 62
   211
 10
84266.93637469679
 20
56825.87168961058
 11
84266.73337625584
 21
56825.66869116963
  0
LINE
  8
KADRBM
 62
   211
 10
84266.73337625584
 20
56825.66869116963
 11
84265.80296673498
 21
56825.04277930937
  0
LINE
  8
KADRBM
 62
   211
 10
84265.80296673498
 20
56825.04277930937
 11
84264.55114301527
 21
56824.73828164795
  0
LINE
  8
KADRBM
 62
   211
 10
84264.55114301527
 20
56824.73828164795
 11
84264.72030838381
 21
56822.64063109206
  0
LINE
  8
KADRBM
 62
   211
 10
84264.72030838381
 20
56822.64063109206
 11
84265.07555565587
 21
56822.65754762867
  0
LINE
  8
KADRBM
 62
   211
 10
84265.07555565587
 20
56822.65754762867
 11
84266.25971322751
 21
56822.92821221605
  0
LINE
  8
KADRBM
 62
   211
 10
84266.25971322751
 20
56822.92821221605
 11
84267.32545504207
 21
56823.45262485584
  0
LINE
  8
KADRBM
 62
   211
 10
84267.32545504207
 20
56823.45262485584
 11
84267.6468692401
 21
56823.67253983339
  0
LINE
  8
KADRBM
 62
   211
 10
84267.6468692401
 20
56823.67253983339
 11
84268.45886300388
 21
56824.5183666704
  0
LINE
  8
KADRBM
 62
   211
 10
84268.45886300388
 20
56824.5183666704
 11
84269.06785832671
 21
56825.60102502238
  0
LINE
  8
KADRBM
 62
   211
 10
84269.06785832671
 20
56825.60102502238
 11
84269.35543945152
 21
56826.39610224873
  0
LINE
  8
KADRBM
 62
   211
 10
84269.35543945152
 20
56826.39610224873
 11
84269.57535442908
 21
56827.56334328458
  0
LINE
  8
KADRBM
 62
   211
 10
84269.57535442908
 20
56827.56334328458
 11
84269.65993711294
 21
56828.84900007751
  0
LINE
  8
KADRBM
 62
   211
 10
84252.82798305189
 20
56818.78366071409
 11
84269.37235598813
 21
56818.78366071409
  0
LINE
  8
KADRBM
 62
   211
 10
84269.37235598813
 20
56818.78366071409
 11
84269.37235598813
 21
56816.58451093773
  0
LINE
  8
KADRBM
 62
   211
 10
84269.37235598813
 20
56816.58451093773
 11
84252.82798305189
 21
56816.58451093773
  0
LINE
  8
KADRBM
 62
   211
 10
84252.82798305189
 20
56816.58451093773
 11
84252.82798305189
 21
56818.78366071409
  0
LINE
  8
KADRBM
 62
   211
 10
84252.82798305189
 20
56818.78366071409
 11
84252.82798305189
 21
56818.78366071409
  0
LINE
  8
KADRBM
 62
   211
 10
84261.26933488774
 20
56797.97632051799
 11
84261.25241835031
 21
56804.99668326722
  0
LINE
  8
KADRBM
 62
   211
 10
84261.25241835031
 20
56804.99668326722
 11
84259.32393316133
 21
56804.99668326722
  0
LINE
  8
KADRBM
 62
   211
 10
84259.32393316133
 20
56804.99668326722
 11
84259.32393316133
 21
56800.12472068453
  0
LINE
  8
KADRBM
 62
   211
 10
84259.32393316133
 20
56800.12472068453
 11
84256.22820693813
 21
56800.12472068453
  0
LINE
  8
KADRBM
 62
   211
 10
84256.22820693813
 20
56800.12472068453
 11
84255.6530446877
 21
56800.95363098492
  0
LINE
  8
KADRBM
 62
   211
 10
84255.6530446877
 20
56800.95363098492
 11
84255.0778824389
 21
56802.17162163059
  0
LINE
  8
KADRBM
 62
   211
 10
84255.0778824389
 20
56802.17162163059
 11
84254.9256336086
 21
56802.57761851249
  0
LINE
  8
KADRBM
 62
   211
 10
84254.9256336086
 20
56802.57761851249
 11
84254.62113594636
 21
56803.74485954833
  0
LINE
  8
KADRBM
 62
   211
 10
84254.62113594636
 20
56803.74485954833
 11
84254.5196367267
 21
56804.962850194
  0
LINE
  8
KADRBM
 62
   211
 10
84254.3843044322
 20
56799.00822925933
 11
84255.12863204954
 21
56797.97632051799
  0
LINE
  8
KADRBM
 62
   211
 10
84255.12863204954
 20
56797.97632051799
 11
84261.26933488774
 21
56797.97632051799
  0
LINE
  8
KADRBM
 62
   211
 10
84268.28969763697
 20
56809.97014507039
 11
84267.52845348301
 21
56810.86672151803
  0
LINE
  8
KADRBM
 62
   211
 10
84267.52845348301
 20
56810.86672151803
 11
84266.61496049876
 21
56811.64488220778
  0
LINE
  8
KADRBM
 62
   211
 10
84266.61496049876
 20
56811.64488220778
 11
84265.53230214678
 21
56812.27079406723
  0
LINE
  8
KADRBM
 62
   211
 10
84265.53230214678
 20
56812.27079406723
 11
84264.60189262591
 21
56812.65987441251
  0
LINE
  8
KADRBM
 62
   211
 10
84264.60189262591
 20
56812.65987441251
 11
84263.45156812831
 21
56813.01512168375
  0
LINE
  8
KADRBM
 62
   211
 10
84263.45156812831
 20
56813.01512168375
 11
84262.25049401843
 21
56813.2181201247
  0
LINE
  8
KADRBM
 62
   211
 10
84262.25049401843
 20
56813.2181201247
 11
84261.01558683696
 21
56813.28578627195
  0
LINE
  8
KADRBM
 62
   211
 10
84261.01558683696
 20
56813.28578627195
 11
84260.05134424206
 21
56813.23503666212
  0
LINE
  8
KADRBM
 62
   211
 10
84260.05134424206
 20
56813.23503666212
 11
84258.83335359639
 21
56813.0658712944
  0
LINE
  8
KADRBM
 62
   211
 10
84258.83335359639
 20
56813.0658712944
 11
84257.68302909716
 21
56812.72754055976
  0
LINE
  8
KADRBM
 62
   211
 10
84257.68302909716
 20
56812.72754055976
 11
84256.60037074599
 21
56812.27079406723
  0
LINE
  8
KADRBM
 62
   211
 10
84256.60037074599
 20
56812.27079406723
 11
84255.97445888654
 21
56811.89863025855
  0
LINE
  8
KADRBM
 62
   211
 10
84255.97445888654
 20
56811.89863025855
 11
84255.04404936486
 21
56811.17121917864
  0
LINE
  8
KADRBM
 62
   211
 10
84255.04404936486
 20
56811.17121917864
 11
84254.2489721385
 21
56810.29155926841
  0
LINE
  8
KADRBM
 62
   211
 10
84254.2489721385
 20
56810.29155926841
 11
84253.58922720584
 21
56809.25965052708
  0
LINE
  8
KADRBM
 62
   211
 10
84253.58922720584
 20
56809.25965052708
 11
84253.20014685974
 21
56808.41382368926
  0
LINE
  8
KADRBM
 62
   211
 10
84253.20014685974
 20
56808.41382368926
 11
84252.82798305189
 21
56807.28041572745
  0
LINE
  8
KADRBM
 62
   211
 10
84252.82798305189
 20
56807.28041572745
 11
84252.60806807352
 21
56806.0793416192
  0
LINE
  8
KADRBM
 62
   211
 10
84252.60806807352
 20
56806.0793416192
 11
84252.54040192708
 21
56804.8275178995
  0
LINE
  8
KADRBM
 62
   211
 10
84252.54040192708
 20
56804.8275178995
 11
84252.60806807352
 21
56803.67719340108
  0
LINE
  8
KADRBM
 62
   211
 10
84252.60806807352
 20
56803.67719340108
 11
84252.82798305189
 21
56802.47611929201
  0
LINE
  8
KADRBM
 62
   211
 10
84252.82798305189
 20
56802.47611929201
 11
84253.20014685974
 21
56801.30887825698
  0
LINE
  8
KADRBM
 62
   211
 10
84253.20014685974
 20
56801.30887825698
 11
84253.267813007
 21
56801.12279635265
  0
LINE
  8
KADRBM
 62
   211
 10
84253.267813007
 20
56801.12279635265
 11
84253.75839257275
 21
56800.05705453809
  0
LINE
  8
KADRBM
 62
   211
 10
84253.75839257275
 20
56800.05705453809
 11
84254.3843044322
 21
56799.00822925933
  0
LINE
  8
KADRBM
 62
   211
 10
84254.5196367267
 20
56804.962850194
 11
84254.55346979992
 21
56805.74101088375
  0
LINE
  8
KADRBM
 62
   211
 10
84254.55346979992
 20
56805.74101088375
 11
84254.79030131409
 21
56806.9251684562
  0
LINE
  8
KADRBM
 62
   211
 10
84254.79030131409
 20
56806.9251684562
 11
84255.24704780581
 21
56808.0416598814
  0
LINE
  8
KADRBM
 62
   211
 10
84255.24704780581
 20
56808.0416598814
 11
84255.63612815109
 21
56808.71832135068
  0
LINE
  8
KADRBM
 62
   211
 10
84255.63612815109
 20
56808.71832135068
 11
84256.43120537908
 21
56809.58106472511
  0
LINE
  8
KADRBM
 62
   211
 10
84256.43120537908
 20
56809.58106472511
 11
84257.4461975838
 21
56810.2577261952
  0
LINE
  8
KADRBM
 62
   211
 10
84257.4461975838
 20
56810.2577261952
 11
84257.59844641411
 21
56810.32539234163
  0
LINE
  8
KADRBM
 62
   211
 10
84257.59844641411
 20
56810.32539234163
 11
84258.63035515544
 21
56810.71447268692
  0
LINE
  8
KADRBM
 62
   211
 10
84258.63035515544
 20
56810.71447268692
 11
84259.81451272708
 21
56810.95130420108
  0
LINE
  8
KADRBM
 62
   211
 10
84259.81451272708
 20
56810.95130420108
 11
84261.15091912984
 21
56811.01897034833
  0
LINE
  8
KADRBM
 62
   211
 10
84261.15091912984
 20
56811.01897034833
 11
84262.16591133457
 21
56810.96822073769
  0
LINE
  8
KADRBM
 62
   211
 10
84262.16591133457
 20
56810.96822073769
 11
84263.36698544363
 21
56810.76522229674
  0
LINE
  8
KADRBM
 62
   211
 10
84263.36698544363
 20
56810.76522229674
 11
84264.48347686883
 21
56810.39305848889
  0
LINE
  8
KADRBM
 62
   211
 10
84264.48347686883
 20
56810.39305848889
 11
84265.14322180231
 21
56810.07164429086
  0
LINE
  8
KADRBM
 62
   211
 10
84265.14322180231
 20
56810.07164429086
 11
84266.124380933
 21
56809.34423321013
  0
LINE
  8
KADRBM
 62
   211
 10
84266.124380933
 20
56809.34423321013
 11
84266.71645971923
 21
56808.68448827746
  0
LINE
  8
KADRBM
 62
   211
 10
84266.71645971923
 20
56808.68448827746
 11
84267.34237157868
 21
56807.58491338887
  0
LINE
  8
KADRBM
 62
   211
 10
84267.34237157868
 20
56807.58491338887
 11
84267.41003772512
 21
56807.39883148453
  0
LINE
  8
KADRBM
 62
   211
 10
84267.41003772512
 20
56807.39883148453
 11
84267.69761885074
 21
56806.28234006015
  0
LINE
  8
KADRBM
 62
   211
 10
84267.69761885074
 20
56806.28234006015
 11
84267.7822015346
 21
56804.99668326722
  0
LINE
  8
KADRBM
 62
   211
 10
84269.65993711294
 20
56804.99668326722
 11
84269.6261040389
 21
56805.9440093247
  0
LINE
  8
KADRBM
 62
   211
 10
84269.6261040389
 20
56805.9440093247
 11
84269.44002213457
 21
56807.17891650698
  0
LINE
  8
KADRBM
 62
   211
 10
84269.44002213457
 20
56807.17891650698
 11
84269.11860793736
 21
56808.31232446879
  0
LINE
  8
KADRBM
 62
   211
 10
84269.11860793736
 20
56808.31232446879
 11
84268.64494490821
 21
56809.36114974755
  0
LINE
  8
KADRBM
 62
   211
 10
84268.64494490821
 20
56809.36114974755
 11
84268.28969763697
 21
56809.97014507039
  0
LINE
  8
KADRBM
 62
   211
 10
84267.7822015346
 20
56804.99668326722
 11
84267.68070231413
 21
56803.8463587688
  0
LINE
  8
KADRBM
 62
   211
 10
84267.68070231413
 20
56803.8463587688
 11
84267.35928811529
 21
56802.71295080618
  0
LINE
  8
KADRBM
 62
   211
 10
84267.35928811529
 20
56802.71295080618
 11
84266.97020777082
 21
56801.98553972707
  0
LINE
  8
KADRBM
 62
   211
 10
84266.97020777082
 20
56801.98553972707
 11
84266.19204707944
 21
56801.12279635265
  0
LINE
  8
KADRBM
 62
   211
 10
84266.19204707944
 20
56801.12279635265
 11
84265.44771946373
 21
56800.66604986093
  0
LINE
  8
KADRBM
 62
   211
 10
84265.44771946373
 20
56800.66604986093
 11
84264.21281228145
 21
56800.20930336839
  0
LINE
  8
KADRBM
 62
   211
 10
84264.21281228145
 20
56800.20930336839
 11
84264.75414145621
 21
56798.23006856958
  0
LINE
  8
KADRBM
 62
   211
 10
84264.75414145621
 20
56798.23006856958
 11
84265.36313677905
 21
56798.4161504731
  0
LINE
  8
KADRBM
 62
   211
 10
84265.36313677905
 20
56798.4161504731
 11
84266.51346127829
 21
56798.87289696564
  0
LINE
  8
KADRBM
 62
   211
 10
84266.51346127829
 20
56798.87289696564
 11
84267.46078733576
 21
56799.48189228847
  0
LINE
  8
KADRBM
 62
   211
 10
84267.46078733576
 20
56799.48189228847
 11
84267.74836846057
 21
56799.73564033925
  0
LINE
  8
KADRBM
 62
   211
 10
84267.74836846057
 20
56799.73564033925
 11
84268.49269607791
 21
56800.63221678689
  0
LINE
  8
KADRBM
 62
   211
 10
84268.49269607791
 20
56800.63221678689
 11
84269.08477486332
 21
56801.74870821209
  0
LINE
  8
KADRBM
 62
   211
 10
84269.08477486332
 20
56801.74870821209
 11
84269.35543945152
 21
56802.54378543927
  0
LINE
  8
KADRBM
 62
   211
 10
84269.35543945152
 20
56802.54378543927
 11
84269.59227096569
 21
56803.7279430109
  0
LINE
  8
KADRBM
 62
   211
 10
84269.59227096569
 20
56803.7279430109
 11
84269.65993711294
 21
56804.99668326722
  0
LINE
  8
KADRBM
 62
   211
 10
84269.37235598813
 20
56781.75336177977
 11
84269.37235598813
 21
56783.85101233648
  0
LINE
  8
KADRBM
 62
   211
 10
84269.37235598813
 20
56783.85101233648
 11
84256.38045576843
 21
56783.85101233648
  0
LINE
  8
KADRBM
 62
   211
 10
84252.82798305189
 20
56783.98634463018
 11
84252.82798305189
 21
56781.75336177977
  0
LINE
  8
KADRBM
 62
   211
 10
84252.82798305189
 20
56781.75336177977
 11
84269.37235598813
 21
56781.75336177977
  0
LINE
  8
KADRBM
 62
   211
 10
84269.37235598813
 20
56792.5291956865
 11
84269.37235598813
 21
56794.77909507351
  0
LINE
  8
KADRBM
 62
   211
 10
84269.37235598813
 20
56794.77909507351
 11
84252.82798305189
 21
56794.77909507351
  0
LINE
  8
KADRBM
 62
   211
 10
84252.82798305189
 20
56794.77909507351
 11
84252.82798305189
 21
56792.6814445168
  0
LINE
  8
KADRBM
 62
   211
 10
84252.82798305189
 20
56792.6814445168
 11
84265.8367998082
 21
56792.6814445168
  0
LINE
  8
KADRBM
 62
   211
 10
84265.8367998082
 20
56792.6814445168
 11
84252.82798305189
 21
56783.98634463018
  0
LINE
  8
KADRBM
 62
   211
 10
84256.38045576843
 20
56783.85101233648
 11
84269.37235598813
 21
56792.5291956865
  0
LINE
  8
KADRBM
 62
   211
 10
84071.91223390703
 20
56887.76531240674
 11
84069.19736791053
 21
56879.76486659392
  0
LINE
  8
KADRBM
 62
   211
 10
84074.79527744232
 20
56879.76486659392
 11
84071.91223390703
 21
56887.76531240674
  0
LINE
  8
KADRBM
 62
   211
 10
84288.24307786231
 20
56786.20388166331
 11
84287.97409039643
 21
56785.07902498943
  0
LINE
  8
KADRBM
 62
   211
 10
84287.97409039643
 20
56785.07902498943
 11
84287.28939502954
 21
56784.05198193951
  0
LINE
  8
KADRBM
 62
   211
 10
84287.28939502954
 20
56784.05198193951
 11
84286.70251328743
 21
56783.6607274445
  0
LINE
  8
KADRBM
 62
   211
 10
84286.70251328743
 20
56783.6607274445
 11
84285.38202936563
 21
56783.34283316745
  0
LINE
  8
KADRBM
 62
   211
 10
84281.64065825497
 20
56783.29392635466
 11
84281.73847187811
 21
56783.19611273152
  0
LINE
  8
KADRBM
 62
   211
 10
84281.73847187811
 20
56783.19611273152
 11
84282.76551492885
 21
56782.41360374067
  0
LINE
  8
KADRBM
 62
   211
 10
84282.76551492885
 20
56782.41360374067
 11
84283.98818522587
 21
56781.9245356217
  0
LINE
  8
KADRBM
 62
   211
 10
84283.98818522587
 20
56781.9245356217
 11
84285.40648277162
 21
56781.75336177977
  0
LINE
  8
KADRBM
 62
   211
 10
84285.40648277162
 20
56781.75336177977
 11
84286.14008495049
 21
56781.80226859175
  0
LINE
  8
KADRBM
 62
   211
 10
84286.14008495049
 20
56781.80226859175
 11
84287.43611546466
 21
56782.16906968159
  0
LINE
  8
KADRBM
 62
   211
 10
84287.43611546466
 20
56782.16906968159
 11
84288.56097213936
 21
56782.87821845365
  0
LINE
  8
KADRBM
 62
   211
 10
84288.56097213936
 20
56782.87821845365
 11
84289.0989470703
 21
56783.44064679059
  0
LINE
  8
KADRBM
 62
   211
 10
84289.0989470703
 20
56783.44064679059
 11
84289.7591890312
 21
56784.56550346447
  0
LINE
  8
KADRBM
 62
   211
 10
84289.7591890312
 20
56784.56550346447
 11
84290.15044352622
 21
56785.95934760424
  0
LINE
  8
KADRBM
 62
   211
 10
84290.15044352622
 20
56785.95934760424
 11
84288.24307786231
 21
56786.20388166331
  0
LINE
  8
KADRBM
 62
   211
 10
84285.47984298877
 20
56792.09715249778
 11
84285.94445770176
 21
56792.07269909179
  0
LINE
  8
KADRBM
 62
   211
 10
84285.94445770176
 20
56792.07269909179
 11
84287.1426745936
 21
56791.53472416084
  0
LINE
  8
KADRBM
 62
   211
 10
84287.1426745936
 20
56791.53472416084
 11
84287.53392908943
 21
56791.09456285385
  0
LINE
  8
KADRBM
 62
   211
 10
84287.53392908943
 20
56791.09456285385
 11
84288.09635742637
 21
56789.79853233804
  0
LINE
  8
KADRBM
 62
   211
 10
84288.09635742637
 20
56789.79853233804
 11
84289.97926968511
 21
56790.09197320991
  0
LINE
  8
KADRBM
 62
   211
 10
84289.97926968511
 20
56790.09197320991
 11
84289.85700265516
 21
56790.53213451691
  0
LINE
  8
KADRBM
 62
   211
 10
84289.85700265516
 20
56790.53213451691
 11
84289.31902772421
 21
56791.80371162672
  0
LINE
  8
KADRBM
 62
   211
 10
84289.31902772421
 20
56791.80371162672
 11
84288.4631585154
 21
56792.75739445868
  0
LINE
  8
KADRBM
 62
   211
 10
84285.40648277162
 20
56793.68662388464
 11
84285.33312255284
 21
56793.68662388464
  0
LINE
  8
KADRBM
 62
   211
 10
84285.33312255284
 20
56793.68662388464
 11
84283.96373181988
 21
56793.51545004353
  0
LINE
  8
KADRBM
 62
   211
 10
84283.96373181988
 20
56793.51545004353
 11
84282.69215471088
 21
56793.00192851776
  0
LINE
  8
KADRBM
 62
   211
 10
84282.69215471088
 20
56793.00192851776
 11
84282.59434108692
 21
56792.95302170578
  0
LINE
  8
KADRBM
 62
   211
 10
84282.59434108692
 20
56792.95302170578
 11
84281.567298037
 21
56792.09715249778
  0
LINE
  8
KADRBM
 62
   211
 10
84281.567298037
 20
56792.09715249778
 11
84280.83369585813
 21
56790.92338901192
  0
LINE
  8
KADRBM
 62
   211
 10
84280.83369585813
 20
56790.92338901192
 11
84280.63806861104
 21
56790.45877429894
  0
LINE
  8
KADRBM
 62
   211
 10
84280.63806861104
 20
56790.45877429894
 11
84280.32017433317
 21
56789.13829037796
  0
LINE
  8
KADRBM
 62
   211
 10
84280.32017433317
 20
56789.13829037796
 11
84280.22236070922
 21
56787.69553942622
  0
LINE
  8
KADRBM
 62
   211
 10
84280.22236070922
 20
56787.69553942622
 11
84280.2468141152
 21
56786.93748384218
  0
LINE
  8
KADRBM
 62
   211
 10
84280.2468141152
 20
56786.93748384218
 11
84280.46689476911
 21
56785.49473289044
  0
LINE
  8
KADRBM
 62
   211
 10
84280.46689476911
 20
56785.49473289044
 11
84280.93150948209
 21
56784.29651599859
  0
LINE
  8
KADRBM
 62
   211
 10
84280.93150948209
 20
56784.29651599859
 11
84281.64065825497
 21
56783.29392635466
  0
LINE
  8
KADRBM
 62
   211
 10
84285.38202936563
 20
56783.34283316745
 11
84284.1349056618
 21
56783.58736722653
  0
LINE
  8
KADRBM
 62
   211
 10
84284.1349056618
 20
56783.58736722653
 11
84283.0834092059
 21
56784.39432962336
  0
LINE
  8
KADRBM
 62
   211
 10
84283.0834092059
 20
56784.39432962336
 11
84282.71660811687
 21
56784.93230455431
  0
LINE
  8
KADRBM
 62
   211
 10
84282.71660811687
 20
56784.93230455431
 11
84282.32535362104
 21
56786.15497485134
  0
LINE
  8
KADRBM
 62
   211
 10
84282.32535362104
 20
56786.15497485134
 11
84282.2030865911
 21
56787.7444462382
  0
LINE
  8
KADRBM
 62
   211
 10
84282.2030865911
 20
56787.7444462382
 11
84282.25199340389
 21
56788.69812907015
  0
LINE
  8
KADRBM
 62
   211
 10
84282.25199340389
 20
56788.69812907015
 11
84282.54543427494
 21
56790.06751980392
  0
LINE
  8
KADRBM
 62
   211
 10
84282.54543427494
 20
56790.06751980392
 11
84283.10786261107
 21
56791.07010944786
  0
LINE
  8
KADRBM
 62
   211
 10
84283.10786261107
 20
56791.07010944786
 11
84284.15935906698
 21
56791.8281650319
  0
LINE
  8
KADRBM
 62
   211
 10
84284.15935906698
 20
56791.8281650319
 11
84285.47984298877
 21
56792.09715249778
  0
LINE
  8
KADRBM
 62
   211
 10
84288.4631585154
 20
56792.75739445868
 11
84288.07190402038
 21
56793.02638192374
  0
LINE
  8
KADRBM
 62
   211
 10
84288.07190402038
 20
56793.02638192374
 11
84286.84923372336
 21
56793.53990344871
  0
LINE
  8
KADRBM
 62
   211
 10
84286.84923372336
 20
56793.53990344871
 11
84285.40648277162
 21
56793.68662388464
  0
LINE
  8
KADRBM
 62
   211
 10
84296.43496885651
 20
56792.09715249778
 11
84296.45942226169
 21
56792.09715249778
  0
LINE
  8
KADRBM
 62
   211
 10
84296.45942226169
 20
56792.09715249778
 11
84297.75545277749
 21
56791.8281650319
  0
LINE
  8
KADRBM
 62
   211
 10
84297.75545277749
 20
56791.8281650319
 11
84298.8314026394
 21
56790.99674922989
  0
LINE
  8
KADRBM
 62
   211
 10
84298.8314026394
 20
56790.99674922989
 11
84299.17375032243
 21
56790.50768111092
  0
LINE
  8
KADRBM
 62
   211
 10
84299.17375032243
 20
56790.50768111092
 11
84299.63836503541
 21
56789.30946421988
  0
LINE
  8
KADRBM
 62
   211
 10
84299.63836503541
 20
56789.30946421988
 11
84299.78508547135
 21
56787.79335305018
  0
LINE
  8
KADRBM
 62
   211
 10
84299.78508547135
 20
56787.79335305018
 11
84299.73617865937
 21
56786.81521681223
  0
LINE
  8
KADRBM
 62
   211
 10
84299.73617865937
 20
56786.81521681223
 11
84299.41828438232
 21
56785.47027948445
  0
LINE
  8
KADRBM
 62
   211
 10
84299.41828438232
 20
56785.47027948445
 11
84298.8314026394
 21
56784.44323643453
  0
LINE
  8
KADRBM
 62
   211
 10
84298.8314026394
 20
56784.44323643453
 11
84298.8069492334
 21
56784.41878302854
  0
LINE
  8
KADRBM
 62
   211
 10
84298.8069492334
 20
56784.41878302854
 11
84297.73099937232
 21
56783.61182063252
  0
LINE
  8
KADRBM
 62
   211
 10
84297.73099937232
 20
56783.61182063252
 11
84296.43496885651
 21
56783.34283316745
  0
LINE
  8
KADRBM
 62
   211
 10
84300.32306040311
 20
56783.31837976065
 11
84301.10556939314
 21
56784.41878302854
  0
LINE
  8
KADRBM
 62
   211
 10
84301.10556939314
 20
56784.41878302854
 11
84301.37455685902
 21
56785.03011817746
  0
LINE
  8
KADRBM
 62
   211
 10
84301.37455685902
 20
56785.03011817746
 11
84301.66799773008
 21
56786.32614869326
  0
LINE
  8
KADRBM
 62
   211
 10
84301.66799773008
 20
56786.32614869326
 11
84301.76581135404
 21
56787.89116667413
  0
LINE
  8
KADRBM
 62
   211
 10
84301.76581135404
 20
56787.89116667413
 11
84301.74135794723
 21
56788.52695522904
  0
LINE
  8
KADRBM
 62
   211
 10
84301.74135794723
 20
56788.52695522904
 11
84301.52127729414
 21
56789.94525277398
  0
LINE
  8
KADRBM
 62
   211
 10
84301.52127729414
 20
56789.94525277398
 11
84301.03220917517
 21
56791.14346966583
  0
LINE
  8
KADRBM
 62
   211
 10
84301.03220917517
 20
56791.14346966583
 11
84300.27415359113
 21
56792.14605930976
  0
LINE
  8
KADRBM
 62
   211
 10
84296.43496885651
 20
56793.68662388464
 11
84295.21229855868
 21
56793.5888102615
  0
LINE
  8
KADRBM
 62
   211
 10
84295.21229855868
 20
56793.5888102615
 11
84293.96517485485
 21
56793.14864895369
  0
LINE
  8
KADRBM
 62
   211
 10
84293.96517485485
 20
56793.14864895369
 11
84292.84031818178
 21
56792.41504677564
  0
LINE
  8
KADRBM
 62
   211
 10
84292.84031818178
 20
56792.41504677564
 11
84292.15562281408
 21
56791.68144459678
  0
LINE
  8
KADRBM
 62
   211
 10
84292.15562281408
 20
56791.68144459678
 11
84291.56874107115
 21
56790.58104132889
  0
LINE
  8
KADRBM
 62
   211
 10
84291.56874107115
 20
56790.58104132889
 11
84291.20193998213
 21
56789.26055740791
  0
LINE
  8
KADRBM
 62
   211
 10
84291.20193998213
 20
56789.26055740791
 11
84291.07967295218
 21
56787.71999283221
  0
LINE
  8
KADRBM
 62
   211
 10
84291.07967295218
 20
56787.71999283221
 11
84291.12857976416
 21
56786.8885770302
  0
LINE
  8
KADRBM
 62
   211
 10
84291.12857976416
 20
56786.8885770302
 11
84291.37311382405
 21
56785.47027948445
  0
LINE
  8
KADRBM
 62
   211
 10
84291.37311382405
 20
56785.47027948445
 11
84291.83772853704
 21
56784.27206259342
  0
LINE
  8
KADRBM
 62
   211
 10
84291.83772853704
 20
56784.27206259342
 11
84292.5713307159
 21
56783.29392635466
  0
LINE
  8
KADRBM
 62
   211
 10
84292.5713307159
 20
56783.29392635466
 11
84292.71805115184
 21
56783.14720591954
  0
LINE
  8
KADRBM
 62
   211
 10
84292.71805115184
 20
56783.14720591954
 11
84293.76954760775
 21
56782.36469692869
  0
LINE
  8
KADRBM
 62
   211
 10
84293.76954760775
 20
56782.36469692869
 11
84295.01667131076
 21
56781.9245356217
  0
LINE
  8
KADRBM
 62
   211
 10
84295.01667131076
 20
56781.9245356217
 11
84296.43496885651
 21
56781.75336177977
  0
LINE
  8
KADRBM
 62
   211
 10
84296.43496885651
 20
56781.75336177977
 11
84296.55723588646
 21
56781.75336177977
  0
LINE
  8
KADRBM
 62
   211
 10
84296.55723588646
 20
56781.75336177977
 11
84297.92662661942
 21
56781.94898902769
  0
LINE
  8
KADRBM
 62
   211
 10
84297.92662661942
 20
56781.94898902769
 11
84299.19820372842
 21
56782.46251055265
  0
LINE
  8
KADRBM
 62
   211
 10
84299.19820372842
 20
56782.46251055265
 11
84299.24711054121
 21
56782.48696395864
  0
LINE
  8
KADRBM
 62
   211
 10
84299.24711054121
 20
56782.48696395864
 11
84300.32306040311
 21
56783.31837976065
  0
LINE
  8
KADRBM
 62
   211
 10
84296.43496885651
 20
56783.34283316745
 11
84296.41051545052
 21
56783.34283316745
  0
LINE
  8
KADRBM
 62
   211
 10
84296.41051545052
 20
56783.34283316745
 11
84295.09003152873
 21
56783.63627403851
  0
LINE
  8
KADRBM
 62
   211
 10
84295.09003152873
 20
56783.63627403851
 11
84294.03853507282
 21
56784.44323643453
  0
LINE
  8
KADRBM
 62
   211
 10
84294.03853507282
 20
56784.44323643453
 11
84293.6472805778
 21
56784.98121136548
  0
LINE
  8
KADRBM
 62
   211
 10
84293.6472805778
 20
56784.98121136548
 11
84293.20711927
 21
56786.17942825732
  0
LINE
  8
KADRBM
 62
   211
 10
84293.20711927
 20
56786.17942825732
 11
84293.06039883406
 21
56787.71999283221
  0
LINE
  8
KADRBM
 62
   211
 10
84293.06039883406
 20
56787.71999283221
 11
84293.10930564685
 21
56788.62476885218
  0
LINE
  8
KADRBM
 62
   211
 10
84293.10930564685
 20
56788.62476885218
 11
84293.4271999239
 21
56789.99415958596
  0
LINE
  8
KADRBM
 62
   211
 10
84293.4271999239
 20
56789.99415958596
 11
84294.03853507282
 21
56790.99674922989
  0
LINE
  8
KADRBM
 62
   211
 10
84294.03853507282
 20
56790.99674922989
 11
84294.03853507282
 21
56791.02120263588
  0
LINE
  8
KADRBM
 62
   211
 10
84294.03853507282
 20
56791.02120263588
 11
84295.11448493472
 21
56791.8281650319
  0
LINE
  8
KADRBM
 62
   211
 10
84295.11448493472
 20
56791.8281650319
 11
84296.43496885651
 21
56792.09715249778
  0
LINE
  8
KADRBM
 62
   211
 10
84300.27415359113
 20
56792.14605930976
 11
84300.1274331552
 21
56792.29277974569
  0
LINE
  8
KADRBM
 62
   211
 10
84300.1274331552
 20
56792.29277974569
 11
84299.07593669929
 21
56793.07528873572
  0
LINE
  8
KADRBM
 62
   211
 10
84299.07593669929
 20
56793.07528873572
 11
84297.85326640145
 21
56793.53990344871
  0
LINE
  8
KADRBM
 62
   211
 10
84297.85326640145
 20
56793.53990344871
 11
84296.43496885651
 21
56793.68662388464
  0
LINE
  8
KADRBM
 62
   211
 10
84308.80839226837
 20
56791.75480481474
 11
84309.24855357537
 21
56791.70589800277
  0
LINE
  8
KADRBM
 62
   211
 10
84309.24855357537
 20
56791.70589800277
 11
84310.34895684326
 21
56791.09456285385
  0
LINE
  8
KADRBM
 62
   211
 10
84312.45194975508
 20
56791.43691053688
 11
84312.23186910199
 21
56791.92597865667
  0
LINE
  8
KADRBM
 62
   211
 10
84313.38117918186
 20
56792.48840699279
 11
84312.45194975508
 21
56791.43691053688
  0
LINE
  8
KADRBM
 62
   211
 10
84310.34895684326
 20
56791.09456285385
 11
84310.59349090315
 21
56790.62994814086
  0
LINE
  8
KADRBM
 62
   211
 10
84310.59349090315
 20
56790.62994814086
 11
84310.81357155624
 21
56789.16274378395
  0
LINE
  8
KADRBM
 62
   211
 10
84310.81357155624
 20
56789.16274378395
 11
84310.81357155624
 21
56781.75336177977
  0
LINE
  8
KADRBM
 62
   211
 10
84310.81357155624
 20
56781.75336177977
 11
84312.74539062614
 21
56781.75336177977
  0
LINE
  8
KADRBM
 62
   211
 10
84312.74539062614
 20
56781.75336177977
 11
84312.74539062614
 21
56788.38023479311
  0
LINE
  8
KADRBM
 62
   211
 10
84312.74539062614
 20
56788.38023479311
 11
84312.74539062614
 21
56788.42914160508
  0
LINE
  8
KADRBM
 62
   211
 10
84312.74539062614
 20
56788.42914160508
 11
84312.96547128004
 21
56789.92079936799
  0
LINE
  8
KADRBM
 62
   211
 10
84312.96547128004
 20
56789.92079936799
 11
84313.55235302378
 21
56790.94784241873
  0
LINE
  8
KADRBM
 62
   211
 10
84313.55235302378
 20
56790.94784241873
 11
84314.21259498387
 21
56791.46136394287
  0
LINE
  8
KADRBM
 62
   211
 10
84314.21259498387
 20
56791.46136394287
 11
84315.53307890566
 21
56791.75480481474
  0
LINE
  8
KADRBM
 62
   211
 10
84305.77616993058
 20
56793.17310235968
 11
84304.03997810779
 21
56793.17310235968
  0
LINE
  8
KADRBM
 62
   211
 10
84304.03997810779
 20
56793.17310235968
 11
84304.03997810779
 21
56781.75336177977
  0
LINE
  8
KADRBM
 62
   211
 10
84304.03997810779
 20
56781.75336177977
 11
84305.97179717768
 21
56781.75336177977
  0
LINE
  8
KADRBM
 62
   211
 10
84305.97179717768
 20
56781.75336177977
 11
84305.97179717768
 21
56787.67108602104
  0
LINE
  8
KADRBM
 62
   211
 10
84305.97179717768
 20
56787.67108602104
 11
84306.02070398966
 21
56788.86930291208
  0
LINE
  8
KADRBM
 62
   211
 10
84306.02070398966
 20
56788.86930291208
 11
84306.28969145473
 21
56790.06751980392
  0
LINE
  8
KADRBM
 62
   211
 10
84306.28969145473
 20
56790.06751980392
 11
84306.41195848468
 21
56790.33650726899
  0
LINE
  8
KADRBM
 62
   211
 10
84306.41195848468
 20
56790.33650726899
 11
84307.29228109948
 21
56791.31464350694
  0
LINE
  8
KADRBM
 62
   211
 10
84307.29228109948
 20
56791.31464350694
 11
84307.48790834658
 21
56791.43691053688
  0
LINE
  8
KADRBM
 62
   211
 10
84305.77616993058
 20
56791.55917756683
 11
84305.77616993058
 21
56793.17310235968
  0
LINE
  8
KADRBM
 62
   211
 10
84315.97324021265
 20
56793.41763641957
 11
84315.75315955793
 21
56793.41763641957
  0
LINE
  8
KADRBM
 62
   211
 10
84315.75315955793
 20
56793.41763641957
 11
84314.48158244975
 21
56793.14864895369
  0
LINE
  8
KADRBM
 62
   211
 10
84314.48158244975
 20
56793.14864895369
 11
84313.38117918186
 21
56792.48840699279
  0
LINE
  8
KADRBM
 62
   211
 10
84315.53307890566
 20
56791.75480481474
 11
84316.70684239152
 21
56791.43691053688
  0
LINE
  8
KADRBM
 62
   211
 10
84316.70684239152
 20
56791.43691053688
 11
84317.39153775759
 21
56790.62994814086
  0
LINE
  8
KADRBM
 62
   211
 10
84317.39153775759
 20
56790.62994814086
 11
84317.44044456957
 21
56790.40986748696
  0
LINE
  8
KADRBM
 62
   211
 10
84317.44044456957
 20
56790.40986748696
 11
84317.56271159952
 21
56788.94266313004
  0
LINE
  8
KADRBM
 62
   211
 10
84317.56271159952
 20
56788.94266313004
 11
84317.56271159952
 21
56781.75336177977
  0
LINE
  8
KADRBM
 62
   211
 10
84317.56271159952
 20
56781.75336177977
 11
84319.49453067023
 21
56781.75336177977
  0
LINE
  8
KADRBM
 62
   211
 10
84319.49453067023
 20
56781.75336177977
 11
84319.49453067023
 21
56789.57845168495
  0
LINE
  8
KADRBM
 62
   211
 10
84319.49453067023
 20
56789.57845168495
 11
84319.47007726342
 21
56790.06751980392
  0
LINE
  8
KADRBM
 62
   211
 10
84319.47007726342
 20
56790.06751980392
 11
84319.20108979836
 21
56791.48581734968
  0
LINE
  8
KADRBM
 62
   211
 10
84319.20108979836
 20
56791.48581734968
 11
84318.58975464944
 21
56792.48840699279
  0
LINE
  8
KADRBM
 62
   211
 10
84318.58975464944
 20
56792.48840699279
 11
84318.49194102548
 21
56792.58622061757
  0
LINE
  8
KADRBM
 62
   211
 10
84318.49194102548
 20
56792.58622061757
 11
84317.41599116358
 21
56793.22200917166
  0
LINE
  8
KADRBM
 62
   211
 10
84317.41599116358
 20
56793.22200917166
 11
84315.97324021265
 21
56793.41763641957
  0
LINE
  8
KADRBM
 62
   211
 10
84309.22410017019
 20
56793.41763641957
 11
84308.46604458534
 21
56793.3687296076
  0
LINE
  8
KADRBM
 62
   211
 10
84308.46604458534
 20
56793.3687296076
 11
84307.19446747552
 21
56792.9285683006
  0
LINE
  8
KADRBM
 62
   211
 10
84307.19446747552
 20
56792.9285683006
 11
84306.68094595056
 21
56792.58622061757
  0
LINE
  8
KADRBM
 62
   211
 10
84306.68094595056
 20
56792.58622061757
 11
84305.77616993058
 21
56791.55917756683
  0
LINE
  8
KADRBM
 62
   211
 10
84307.48790834658
 20
56791.43691053688
 11
84308.80839226837
 21
56791.75480481474
  0
LINE
  8
KADRBM
 62
   211
 10
84312.23186910199
 20
56791.92597865667
 11
84311.30263967603
 21
56792.90411489461
  0
LINE
  8
KADRBM
 62
   211
 10
84311.30263967603
 20
56792.90411489461
 11
84310.64239771431
 21
56793.22200917166
  0
LINE
  8
KADRBM
 62
   211
 10
84310.64239771431
 20
56793.22200917166
 11
84309.22410017019
 21
56793.41763641957
  0
CIRCLE
  8
KADRBM
 62
   211
 10
84274.42951342661
 20
56784.54838222235
 40
2.658578594162933
  0
LINE
  8
KADRBM
 62
   211
 10
84254.63844097778
 20
56918.04557788074
 11
84064.44034607592
 21
56918.04557788074
  0
LINE
  8
KADRBM
 62
   211
 10
84319.50345783657
 20
56918.04557788074
 11
84319.50345783657
 21
56887.99245930153
  0
LINE
  8
KADRBM
 62
   211
 10
84319.50345783657
 20
56875.0690022187
 11
84319.50345783657
 21
56798.42191495343
  0
LINE
  8
KADRBM
 62
   211
 10
84274.62116858107
 20
56875.0690022187
 11
84274.62116858107
 21
56798.42191495343
  0
LINE
  8
KADRBM
 62
   211
 10
84254.63844097778
 20
56894.76797648442
 11
84064.44034607592
 21
56894.76797648442
  0
LINE
  8
KADRBM
 62
   211
 10
84274.62116858107
 20
56918.04557788074
 11
84319.50345783657
 21
56918.04557788074
  0
LINE
  8
KADRBM
 62
   211
 10
84064.44034607592
 20
56894.76797648442
 11
84064.44034607592
 21
56918.04557788074
  0
LINE
  8
KADRBM
 62
   211
 10
84274.62116858107
 20
56798.42191495343
 11
84319.50345783657
 21
56798.42191495343
  0
LINE
  8
KADRBM
 62
   211
 10
84274.62116858107
 20
56887.99245930153
 11
84274.62116858107
 21
56918.04557788074
  0
ENDBLK
  8
0
  0
BLOCK
  8
0
  2
_OBLIQUE
 70
     0
 10
0.0
 20
0.0
  0
LINE
  8
0
  6
BYBLOCK
 62
     0
 10
-0.5
 20
-0.5
 11
0.5
 21
0.5
  0
ENDBLK
  8
0
  0
BLOCK
  8
0
  2
_ARCHTICK
 70
     0
 10
0.0
 20
0.0
  0
POLYLINE
  8
0
  6
BYBLOCK
 62
     0
 66
     1
 40
0.15
 41
0.15
  0
VERTEX
  8
0
  6
BYBLOCK
 62
     0
 10
-0.5
 20
-0.5
  0
VERTEX
  8
0
  6
BYBLOCK
 62
     0
 10
0.5
 20
0.5
  0
SEQEND
  8
0
  6
BYBLOCK
 62
     0
  0
ENDBLK
  8
0
  0
BLOCK
  8
0
  2
*U5
 70
     1
 10
0.0
 20
0.0
  0
SOLID
  8
1
  6
CONTINUOUS
 62
    91
 10
84274.62116858107
 20
56798.42191495343
 11
84274.62116858107
 21
56875.0690022187
 12
84319.50345783657
 22
56798.42191495343
 13
84319.50345783657
 23
56798.42191495343
  0
SOLID
  8
1
  6
CONTINUOUS
 62
    91
 10
84319.50345783657
 20
56798.42191495343
 11
84274.62116858107
 21
56875.0690022187
 12
84319.50345783657
 22
56875.0690022187
 13
84319.50345783657
 23
56875.0690022187
  0
SOLID
  8
1
  6
CONTINUOUS
 62
    91
 10
84274.62116858107
 20
56887.99245930153
 11
84274.62116858107
 21
56918.04557788074
 12
84319.50345783657
 22
56887.99245930153
 13
84319.50345783657
 23
56887.99245930153
  0
SOLID
  8
1
  6
CONTINUOUS
 62
    91
 10
84319.50345783657
 20
56887.99245930153
 11
84274.62116858107
 21
56918.04557788074
 12
84319.50345783657
 22
56918.04557788074
 13
84319.50345783657
 23
56918.04557788074
  0
ENDBLK
  8
0
  0
BLOCK
  8
0
  2
*U6
 70
     1
 10
0.0
 20
0.0
  0
SOLID
  8
1
  6
CONTINUOUS
 62
    91
 10
84064.44034607592
 20
56894.76797648442
 11
84064.44034607592
 21
56918.04557788074
 12
84254.63844097778
 22
56894.76797648442
 13
84254.63844097778
 23
56894.76797648442
  0
SOLID
  8
1
  6
CONTINUOUS
 62
    91
 10
84254.63844097778
 20
56894.76797648442
 11
84064.44034607592
 21
56918.04557788074
 12
84254.63844097778
 22
56918.04557788074
 13
84254.63844097778
 23
56918.04557788074
  0
ENDBLK
  8
0
  0
ENDSEC
  0
SECTION
  2
ENTITIES
  0
ARC
  8
KADRBM
 10
424.4933293664114
 20
1475.898032782938
 40
925.0772975555501
 50
78.33557166229143
 51
101.6602094026464
  0
LINE
  8
KADRBM
 10
208.8504230103177
 20
2352.78034800135
 11
155.7667376603318
 21
2074.890291901585
  0
LINE
  8
KADRBM
 10
155.7667376603318
 20
2074.890291901585
 11
155.7667376603318
 21
1984.17715982717
  0
LINE
  8
KADRBM
 10
176.2543821107907
 20
1963.68951537678
 11
244.8803804004607
 21
1963.68951537678
  0
LINE
  8
KADRBM
 10
691.2657367421494
 20
1984.17715982717
 11
691.2657367421494
 21
2074.890291901585
  0
LINE
  8
KADRBM
 10
691.2657367421494
 20
2074.890291901585
 11
640.2477665887604
 21
2352.513804523212
  0
ARC
  8
KADRBM
 10
604.092590871322
 20
2345.869685449001
 40
36.76059098317476
 50
10.41288129538457
 51
78.33557166229143
  0
ARC
  8
KADRBM
 10
244.9581281093711
 20
2345.88290775791
 40
36.76059098317476
 50
101.6602094026464
 51
169.1854138677862
  0
ARC
  8
KADRBM
 10
670.7780922916869
 20
1984.17715982717
 40
20.48764445040952
 50
270.0
 51
0.0
  0
ARC
  8
KADRBM
 10
176.2543821107907
 20
1984.17715982717
 40
20.48764445040952
 50
180.0
 51
270.0
  0
LINE
  8
KADRBM
 10
221.6113122178982
 20
2010.331139654354
 11
627.375346514979
 21
2010.331139654354
  0
LINE
  8
KADRBM
 10
219.3406848536766
 20
2045.203117627618
 11
629.6459738791751
 21
2045.203117627618
  0
LINE
  8
KADRBM
 10
690.2779318146428
 20
1977.892270511769
 11
671.1871846197179
 21
1994.180656126093
  0
LINE
  8
KADRBM
 10
690.2779318146428
 20
2014.701566795131
 11
673.457811983914
 21
2029.052634099378
  0
ARC
  8
KADRBM
 10
627.375346514979
 20
1942.831139654354
 40
67.5
 50
49.52891119445705
 51
90.00000000000001
  0
ARC
  8
KADRBM
 10
629.6459738791751
 20
1977.703117627618
 40
67.5
 50
49.52891119445705
 51
90.00000000000001
  0
LINE
  8
KADRBM
 10
158.708726918209
 20
1977.892270511769
 11
177.7994741131339
 21
1994.180656126093
  0
LINE
  8
KADRBM
 10
158.708726918209
 20
2014.701566795131
 11
175.5288467489378
 21
2029.052634099378
  0
ARC
  8
KADRBM
 10
221.6113122178982
 20
1942.831139654354
 40
67.5
 50
90.00000000000001
 51
130.471088805543
  0
ARC
  8
KADRBM
 10
219.3406848536766
 20
1977.703117627618
 40
67.5
 50
90.00000000000001
 51
130.471088805543
  0
ARC
  8
KADRBM
 10
595.8425122916674
 20
2472.400332056819
 40
134.660089416017
 50
261.4189683529335
 51
289.8181110646175
  0
ARC
  8
KADRBM
 10
253.144146441155
 20
2472.400332056819
 40
134.660089416017
 50
250.1866613000994
 51
278.5810316470665
  0
ARC
  8
KADRBM
 10
424.4933293664115
 20
1336.864205326016
 40
1013.731323648334
 50
81.41896835293348
 51
98.58103164707433
  0
LINE
  8
KADRBM
 10
265.026414417313
 20
2045.203117627618
 11
301.1859418862336
 21
2343.068202902385
  0
LINE
  8
KADRBM
 10
583.9602443155387
 20
2045.203117627618
 11
547.8007168465888
 21
2343.068202902385
  0
LINE
  8
KADRBM
 10
604.1062783324165
 20
1984.796609507746
 11
604.1062783324167
 21
1679.226409852428
  0
LINE
  8
KADRBM
 10
467.6661923785583
 20
1963.68951537678
 11
467.6661923785584
 21
1669.825503153941
  0
LINE
  8
KADRBM
 10
460.5384548907467
 20
1072.349888676403
 11
424.4933293664116
 21
1072.349888676403
  0
LINE
  8
KADRBM
 10
503.5714811554031
 20
1984.796609507746
 11
503.5714811554032
 21
1679.226409852428
  0
POLYLINE
  8
KADRBM
 66
     1
 70
     1
  0
VERTEX
  8
KADRBM
 10
640.966745039929
 20
1390.40899783
  0
VERTEX
  8
KADRBM
 10
640.966745039929
 20
1642.365943144829
 42
0.414213562373095
  0
VERTEX
  8
KADRBM
 10
604.1062783324167
 20
1679.226409852428
  0
VERTEX
  8
KADRBM
 10
492.2561612684992
 20
1679.226409852428
 42
0.4142135623730948
  0
VERTEX
  8
KADRBM
 10
455.3956945609613
 20
1642.365943144829
  0
VERTEX
  8
KADRBM
 10
455.3956945609614
 20
1390.40899783
 42
0.414213562373095
  0
VERTEX
  8
KADRBM
 10
492.2561612684993
 20
1353.548531122444
  0
VERTEX
  8
KADRBM
 10
604.1062783324167
 20
1353.548531122444
 42
0.414213562373095
  0
SEQEND
  8
KADRBM
  0
POLYLINE
  8
KADRBM
 66
     1
  0
VERTEX
  8
KADRBM
 10
455.3956945609614
 20
1600.7316199913
  0
VERTEX
  8
KADRBM
 10
455.3956945609614
 20
1600.7316199913
 42
-0.414213562373095
  0
VERTEX
  8
KADRBM
 10
475.0088941686561
 20
1581.118420383576
  0
VERTEX
  8
KADRBM
 10
475.0088941686561
 20
1390.40899783
 42
0.414213562373095
  0
VERTEX
  8
KADRBM
 10
492.2561612684992
 20
1373.161730730058
  0
VERTEX
  8
KADRBM
 10
604.1062783324167
 20
1373.161730730058
 42
0.414213562373095
  0
VERTEX
  8
KADRBM
 10
621.3535454322598
 20
1390.40899783
  0
VERTEX
  8
KADRBM
 10
621.3535454322598
 20
1531.30441912555
 42
-0.414213562373095
  0
VERTEX
  8
KADRBM
 10
640.966745039929
 20
1550.917618733209
  0
VERTEX
  8
KADRBM
 10
640.966745039929
 20
1550.917618733209
  0
SEQEND
  8
KADRBM
  0
LINE
  8
KADRBM
 10
503.5714811554033
 20
1353.548531122444
 11
503.5714811554034
 21
1060.56267132358
  0
POLYLINE
  8
KADRBM
 66
     1
 70
     1
  0
VERTEX
  8
KADRBM
 10
615.3187125918491
 20
1391.663774037905
  0
VERTEX
  8
KADRBM
 10
615.3187125918491
 20
1391.663774037905
 42
0.414213562373095
  0
VERTEX
  8
KADRBM
 10
611.1675458203069
 20
1395.814940809363
  0
VERTEX
  8
KADRBM
 10
487.4579501593332
 20
1395.814940809363
 42
0.4142135623730948
  0
VERTEX
  8
KADRBM
 10
483.306783387791
 20
1391.663774037905
  0
VERTEX
  8
KADRBM
 10
483.306783387791
 20
1391.663774037905
 42
0.4142135623730836
  0
VERTEX
  8
KADRBM
 10
487.4579501593332
 20
1387.512607266381
  0
VERTEX
  8
KADRBM
 10
611.1675458203069
 20
1387.512607266381
 42
0.414213562373095
  0
SEQEND
  8
KADRBM
  0
POLYLINE
  8
KADRBM
 66
     1
 70
     1
  0
VERTEX
  8
KADRBM
 10
615.3187125918491
 20
1414.163774037905
  0
VERTEX
  8
KADRBM
 10
615.3187125918491
 20
1414.163774037905
 42
0.414213562373095
  0
VERTEX
  8
KADRBM
 10
611.1675458203069
 20
1418.314940809363
  0
VERTEX
  8
KADRBM
 10
487.4579501593332
 20
1418.314940809363
 42
0.4142135623730948
  0
VERTEX
  8
KADRBM
 10
483.306783387791
 20
1414.163774037905
  0
VERTEX
  8
KADRBM
 10
483.306783387791
 20
1414.163774037905
 42
0.4142135623730836
  0
VERTEX
  8
KADRBM
 10
487.4579501593332
 20
1410.012607266381
  0
VERTEX
  8
KADRBM
 10
611.1675458203069
 20
1410.012607266381
 42
0.414213562373095
  0
SEQEND
  8
KADRBM
  0
POLYLINE
  8
KADRBM
 66
     1
 70
     1
  0
VERTEX
  8
KADRBM
 10
615.3187125918491
 20
1436.663774037905
  0
VERTEX
  8
KADRBM
 10
615.3187125918491
 20
1436.663774037905
 42
0.414213562373095
  0
VERTEX
  8
KADRBM
 10
611.1675458203069
 20
1440.814940809363
  0
VERTEX
  8
KADRBM
 10
487.4579501593332
 20
1440.814940809363
 42
0.4142135623730948
  0
VERTEX
  8
KADRBM
 10
483.306783387791
 20
1436.663774037905
  0
VERTEX
  8
KADRBM
 10
483.306783387791
 20
1436.663774037905
 42
0.4142135623730836
  0
VERTEX
  8
KADRBM
 10
487.4579501593332
 20
1432.512607266381
  0
VERTEX
  8
KADRBM
 10
611.1675458203069
 20
1432.512607266381
 42
0.414213562373095
  0
SEQEND
  8
KADRBM
  0
POLYLINE
  8
KADRBM
 66
     1
 70
     1
  0
VERTEX
  8
KADRBM
 10
615.3187125918491
 20
1459.163774037905
  0
VERTEX
  8
KADRBM
 10
615.3187125918491
 20
1459.163774037905
 42
0.414213562373095
  0
VERTEX
  8
KADRBM
 10
611.1675458203069
 20
1463.314940809363
  0
VERTEX
  8
KADRBM
 10
487.4579501593332
 20
1463.314940809363
 42
0.4142135623730948
  0
VERTEX
  8
KADRBM
 10
483.306783387791
 20
1459.163774037905
  0
VERTEX
  8
KADRBM
 10
483.306783387791
 20
1459.163774037905
 42
0.4142135623730836
  0
VERTEX
  8
KADRBM
 10
487.4579501593332
 20
1455.012607266381
  0
VERTEX
  8
KADRBM
 10
611.1675458203069
 20
1455.012607266381
 42
0.414213562373095
  0
SEQEND
  8
KADRBM
  0
POLYLINE
  8
KADRBM
 66
     1
 70
     1
  0
VERTEX
  8
KADRBM
 10
615.3187125918491
 20
1481.663774037905
  0
VERTEX
  8
KADRBM
 10
615.3187125918491
 20
1481.663774037905
 42
0.414213562373095
  0
VERTEX
  8
KADRBM
 10
611.1675458203069
 20
1485.814940809363
  0
VERTEX
  8
KADRBM
 10
487.4579501593332
 20
1485.814940809363
 42
0.4142135623730948
  0
VERTEX
  8
KADRBM
 10
483.306783387791
 20
1481.663774037905
  0
VERTEX
  8
KADRBM
 10
483.306783387791
 20
1481.663774037905
 42
0.4142135623730836
  0
VERTEX
  8
KADRBM
 10
487.4579501593332
 20
1477.512607266381
  0
VERTEX
  8
KADRBM
 10
611.1675458203069
 20
1477.512607266381
 42
0.414213562373095
  0
SEQEND
  8
KADRBM
  0
POLYLINE
  8
KADRBM
 66
     1
 70
     1
  0
VERTEX
  8
KADRBM
 10
615.3187125918491
 20
1504.163774037905
  0
VERTEX
  8
KADRBM
 10
615.3187125918491
 20
1504.163774037905
 42
0.414213562373095
  0
VERTEX
  8
KADRBM
 10
611.1675458203069
 20
1508.314940809363
  0
VERTEX
  8
KADRBM
 10
487.4579501593332
 20
1508.314940809363
 42
0.4142135623730948
  0
VERTEX
  8
KADRBM
 10
483.306783387791
 20
1504.163774037905
  0
VERTEX
  8
KADRBM
 10
483.306783387791
 20
1504.163774037905
 42
0.4142135623730836
  0
VERTEX
  8
KADRBM
 10
487.4579501593332
 20
1500.012607266381
  0
VERTEX
  8
KADRBM
 10
611.1675458203069
 20
1500.012607266381
 42
0.414213562373095
  0
SEQEND
  8
KADRBM
  0
POLYLINE
  8
KADRBM
 66
     1
 70
     1
  0
VERTEX
  8
KADRBM
 10
615.3187125918491
 20
1526.663774037905
  0
VERTEX
  8
KADRBM
 10
615.3187125918491
 20
1526.663774037905
 42
0.414213562373095
  0
VERTEX
  8
KADRBM
 10
611.1675458203069
 20
1530.814940809363
  0
VERTEX
  8
KADRBM
 10
487.4579501593332
 20
1530.814940809363
 42
0.4142135623730948
  0
VERTEX
  8
KADRBM
 10
483.306783387791
 20
1526.663774037905
  0
VERTEX
  8
KADRBM
 10
483.306783387791
 20
1526.663774037905
 42
0.4142135623730836
  0
VERTEX
  8
KADRBM
 10
487.4579501593332
 20
1522.512607266381
  0
VERTEX
  8
KADRBM
 10
611.1675458203069
 20
1522.512607266381
 42
0.414213562373095
  0
SEQEND
  8
KADRBM
  0
POLYLINE
  8
KADRBM
 66
     1
 70
     1
  0
VERTEX
  8
KADRBM
 10
615.3187125918491
 20
1549.163774037905
  0
VERTEX
  8
KADRBM
 10
615.3187125918491
 20
1549.163774037905
 42
0.414213562373095
  0
VERTEX
  8
KADRBM
 10
611.1675458203069
 20
1553.314940809363
  0
VERTEX
  8
KADRBM
 10
487.4579501593332
 20
1553.314940809363
 42
0.4142135623730948
  0
VERTEX
  8
KADRBM
 10
483.306783387791
 20
1549.163774037905
  0
VERTEX
  8
KADRBM
 10
483.306783387791
 20
1549.163774037905
 42
0.4142135623730836
  0
VERTEX
  8
KADRBM
 10
487.4579501593332
 20
1545.012607266381
  0
VERTEX
  8
KADRBM
 10
611.1675458203069
 20
1545.012607266381
 42
0.414213562373095
  0
SEQEND
  8
KADRBM
  0
POLYLINE
  8
KADRBM
 66
     1
 70
     1
  0
VERTEX
  8
KADRBM
 10
615.3187125918491
 20
1571.663774037905
  0
VERTEX
  8
KADRBM
 10
615.3187125918491
 20
1571.663774037905
 42
0.414213562373095
  0
VERTEX
  8
KADRBM
 10
611.1675458203069
 20
1575.814940809363
  0
VERTEX
  8
KADRBM
 10
487.4579501593332
 20
1575.814940809363
 42
0.4142135623730948
  0
VERTEX
  8
KADRBM
 10
483.306783387791
 20
1571.663774037905
  0
VERTEX
  8
KADRBM
 10
483.306783387791
 20
1571.663774037905
 42
0.4142135623730836
  0
VERTEX
  8
KADRBM
 10
487.4579501593332
 20
1567.512607266381
  0
VERTEX
  8
KADRBM
 10
611.1675458203069
 20
1567.512607266381
 42
0.414213562373095
  0
SEQEND
  8
KADRBM
  0
POLYLINE
  8
KADRBM
 66
     1
 70
     1
  0
VERTEX
  8
KADRBM
 10
615.3187125918491
 20
1594.163774037905
  0
VERTEX
  8
KADRBM
 10
615.3187125918491
 20
1594.163774037905
 42
0.414213562373095
  0
VERTEX
  8
KADRBM
 10
611.1675458203069
 20
1598.314940809363
  0
VERTEX
  8
KADRBM
 10
487.4579501593332
 20
1598.314940809363
 42
0.4142135623730948
  0
VERTEX
  8
KADRBM
 10
483.306783387791
 20
1594.163774037905
  0
VERTEX
  8
KADRBM
 10
483.306783387791
 20
1594.163774037905
 42
0.4142135623730836
  0
VERTEX
  8
KADRBM
 10
487.4579501593332
 20
1590.012607266381
  0
VERTEX
  8
KADRBM
 10
611.1675458203069
 20
1590.012607266381
 42
0.414213562373095
  0
SEQEND
  8
KADRBM
  0
POLYLINE
  8
KADRBM
 66
     1
 70
     1
  0
VERTEX
  8
KADRBM
 10
615.3187125918491
 20
1616.663774037905
  0
VERTEX
  8
KADRBM
 10
615.3187125918491
 20
1616.663774037905
 42
0.414213562373095
  0
VERTEX
  8
KADRBM
 10
611.1675458203069
 20
1620.814940809363
  0
VERTEX
  8
KADRBM
 10
487.4579501593332
 20
1620.814940809363
 42
0.4142135623730948
  0
VERTEX
  8
KADRBM
 10
483.306783387791
 20
1616.663774037905
  0
VERTEX
  8
KADRBM
 10
483.306783387791
 20
1616.663774037905
 42
0.4142135623730836
  0
VERTEX
  8
KADRBM
 10
487.4579501593332
 20
1612.512607266381
  0
VERTEX
  8
KADRBM
 10
611.1675458203069
 20
1612.512607266381
 42
0.414213562373095
  0
SEQEND
  8
KADRBM
  0
POLYLINE
  8
KADRBM
 66
     1
 70
     1
  0
VERTEX
  8
KADRBM
 10
615.3187125918491
 20
1639.163774037905
  0
VERTEX
  8
KADRBM
 10
615.3187125918491
 20
1639.163774037905
 42
0.414213562373095
  0
VERTEX
  8
KADRBM
 10
611.1675458203069
 20
1643.314940809363
  0
VERTEX
  8
KADRBM
 10
487.4579501593332
 20
1643.314940809363
 42
0.4142135623730948
  0
VERTEX
  8
KADRBM
 10
483.306783387791
 20
1639.163774037905
  0
VERTEX
  8
KADRBM
 10
483.306783387791
 20
1639.163774037905
 42
0.4142135623730836
  0
VERTEX
  8
KADRBM
 10
487.4579501593332
 20
1635.012607266381
  0
VERTEX
  8
KADRBM
 10
611.1675458203069
 20
1635.012607266381
 42
0.414213562373095
  0
SEQEND
  8
KADRBM
  0
POLYLINE
  8
KADRBM
 66
     1
 70
     1
  0
VERTEX
  8
KADRBM
 10
615.3187125918491
 20
1661.663774037905
  0
VERTEX
  8
KADRBM
 10
615.3187125918491
 20
1661.663774037905
 42
0.414213562373095
  0
VERTEX
  8
KADRBM
 10
611.1675458203069
 20
1665.814940809363
  0
VERTEX
  8
KADRBM
 10
487.4579501593332
 20
1665.814940809363
 42
0.4142135623730948
  0
VERTEX
  8
KADRBM
 10
483.306783387791
 20
1661.663774037905
  0
VERTEX
  8
KADRBM
 10
483.306783387791
 20
1661.663774037905
 42
0.4142135623730836
  0
VERTEX
  8
KADRBM
 10
487.4579501593332
 20
1657.512607266381
  0
VERTEX
  8
KADRBM
 10
611.1675458203069
 20
1657.512607266381
 42
0.414213562373095
  0
SEQEND
  8
KADRBM
  0
POLYLINE
  8
KADRBM
 66
     1
  0
VERTEX
  8
KADRBM
 10
604.1062783324165
 20
1968.838886430418
 42
0.4142135623730775
  0
VERTEX
  8
KADRBM
 10
612.0851398710262
 20
1976.817747969082
  0
VERTEX
  8
KADRBM
 10
612.0851398710262
 20
1976.817747969082
 42
0.414213562373095
  0
VERTEX
  8
KADRBM
 10
604.1062783324165
 20
1984.796609507746
  0
VERTEX
  8
KADRBM
 10
503.5714811554031
 20
1984.796609507746
 42
0.414213562373095
  0
VERTEX
  8
KADRBM
 10
495.5926196166844
 20
1976.817747969082
  0
VERTEX
  8
KADRBM
 10
495.5926196166844
 20
1976.817747969082
 42
0.414213562373095
  0
VERTEX
  8
KADRBM
 10
503.5714811554031
 20
1968.838886430418
  0
SEQEND
  8
KADRBM
  0
LINE
  8
KADRBM
 10
604.1062783324165
 20
1963.68951537678
 11
670.7780922916869
 21
1963.68951537678
  0
CIRCLE
  8
KADRBM
 10
479.0808740220535
 20
1032.513166967456
 40
17.2544544612245
  0
ARC
  8
KADRBM
 10
537.0908149998075
 20
1055.0954342152
 40
17.2544544612245
 50
291.2701031632017
 51
111.2701031632017
  0
LINE
  8
KADRBM
 10
472.8215613972578
 20
1048.592259112807
 11
530.8315023749864
 21
1071.174526360552
  0
LINE
  8
KADRBM
 10
485.3401866469002
 20
1016.434074822038
 11
543.3501276246287
 21
1039.016342069848
  0
POLYLINE
  8
KADRBM
 66
     1
  0
VERTEX
  8
KADRBM
 10
542.8192533205955
 20
1071.371219700359
 42
-0.3668153564260138
  0
VERTEX
  8
KADRBM
 10
591.7037825860106
 20
1056.826653882632
 42
-0.2171809623982375
  0
VERTEX
  8
KADRBM
 10
599.8042685561567
 20
991.2037532281138
  0
VERTEX
  8
KADRBM
 10
574.1473371449437
 20
889.601975695321
  0
SEQEND
  8
KADRBM
  0
POLYLINE
  8
KADRBM
 66
     1
  0
VERTEX
  8
KADRBM
 10
551.2527055771797
 20
1045.238606427851
 42
-0.4251050428748535
  0
VERTEX
  8
KADRBM
 10
568.9245155815596
 20
1042.320404241629
 42
-0.2184288150147849
  0
VERTEX
  8
KADRBM
 10
573.8354826133335
 20
998.6457012409846
  0
VERTEX
  8
KADRBM
 10
547.0208486452328
 20
892.4594067309408
  0
SEQEND
  8
KADRBM
  0
POLYLINE
  8
KADRBM
 66
     1
 70
     1
  0
VERTEX
  8
KADRBM
 10
542.9156648080434
 20
702.286682873626
  0
VERTEX
  8
KADRBM
 10
542.9156648080434
 20
804.6679927773621
 42
0.414213562373095
  0
VERTEX
  8
KADRBM
 10
532.787974842312
 20
814.7956827430862
  0
VERTEX
  8
KADRBM
 10
316.1986838905149
 20
814.7956827430862
 42
0.414213562373095
  0
VERTEX
  8
KADRBM
 10
306.0709939247798
 20
804.6679927773621
  0
VERTEX
  8
KADRBM
 10
306.0709939247799
 20
702.286682873626
 42
0.414213562373095
  0
VERTEX
  8
KADRBM
 10
323.3735356513652
 20
684.9841411470225
  0
VERTEX
  8
KADRBM
 10
525.6131230814581
 20
684.9841411470225
 42
0.414213562373095
  0
SEQEND
  8
KADRBM
  0
POLYLINE
  8
KADRBM
 66
     1
  0
VERTEX
  8
KADRBM
 10
532.787974842312
 20
814.7956827430862
  0
VERTEX
  8
KADRBM
 10
532.787974842312
 20
727.0088334299544
  0
VERTEX
  8
KADRBM
 10
316.1986838905149
 20
727.0088334299544
  0
VERTEX
  8
KADRBM
 10
316.1986838905149
 20
814.7956827430862
  0
SEQEND
  8
KADRBM
  0
POLYLINE
  8
KADRBM
 66
     1
  0
VERTEX
  8
KADRBM
 10
306.0709939247799
 20
778.5153376353228
  0
VERTEX
  8
KADRBM
 10
263.2941294922429
 20
778.5153376353228
 42
-0.2568460300503503
  0
VERTEX
  8
KADRBM
 10
229.1120677428561
 20
797.3145748353018
  0
VERTEX
  8
KADRBM
 10
214.5695276350388
 20
820.2470039371219
  0
VERTEX
  8
KADRBM
 10
214.5695276350388
 20
854.5105496738288
  0
VERTEX
  8
KADRBM
 10
634.4171310978135
 20
854.5105496738288
  0
VERTEX
  8
KADRBM
 10
634.4171310978135
 20
820.2470039371219
  0
VERTEX
  8
KADRBM
 10
619.874590989967
 20
797.3145748353018
 42
-0.2568460300503503
  0
VERTEX
  8
KADRBM
 10
585.6925292405803
 20
778.5153376353228
  0
VERTEX
  8
KADRBM
 10
542.9156648080434
 20
778.5153376353228
  0
SEQEND
  8
KADRBM
  0
POLYLINE
  8
KADRBM
 66
     1
  0
VERTEX
  8
KADRBM
 10
634.4171310978135
 20
820.2470039371219
  0
VERTEX
  8
KADRBM
 10
634.4171310978135
 20
756.8098022100203
 42
-0.2102123050250419
  0
VERTEX
  8
KADRBM
 10
627.4851836552451
 20
741.0504247119206
  0
VERTEX
  8
KADRBM
 10
599.1302069219246
 20
715.0548681710752
 42
-0.6526025984825934
  0
VERTEX
  8
KADRBM
 10
594.2126292171279
 20
717.2179225302207
  0
VERTEX
  8
KADRBM
 10
594.2126292171279
 20
720.3931271055881
 42
0.9999999999999917
  0
VERTEX
  8
KADRBM
 10
577.8632323680695
 20
720.3931271055881
  0
VERTEX
  8
KADRBM
 10
577.8632323680695
 20
719.3316374215901
 42
-0.4142135623730957
  0
VERTEX
  8
KADRBM
 10
560.898444185751
 20
702.3668492392717
  0
VERTEX
  8
KADRBM
 10
542.9156648080434
 20
702.3668492392717
  0
SEQEND
  8
KADRBM
  0
LINE
  8
KADRBM
 10
528.3366974471872
 20
895.5459610673388
 11
528.3366974471872
 21
1019.216541735692
  0
LINE
  8
KADRBM
 10
725.885484344716
 20
821.3882644961377
 11
725.885484344716
 21
944.2454636183356
  0
LINE
  8
KADRBM
 10
687.3382753916093
 20
821.3882644961377
 11
687.3382753916093
 21
944.2454636183356
  0
POLYLINE
  8
KADRBM
 66
     1
 70
     1
  0
VERTEX
  8
KADRBM
 10
725.8854843447242
 20
821.3882644961377
  0
VERTEX
  8
KADRBM
 10
725.515147439088
 20
818.414986997182
  0
VERTEX
  8
KADRBM
 10
724.4183685617757
 20
815.5559708850781
  0
VERTEX
  8
KADRBM
 10
722.6372963099616
 20
812.9210865456591
  0
VERTEX
  8
KADRBM
 10
720.2403762914462
 20
810.611591106429
  0
VERTEX
  8
KADRBM
 10
717.3197207983328
 20
808.7162371819373
  0
VERTEX
  8
KADRBM
 10
713.9875689832993
 20
807.3078621605756
  0
VERTEX
  8
KADRBM
 10
710.3719735719051
 20
806.4405891045889
  0
VERTEX
  8
KADRBM
 10
706.6118798681608
 20
806.1477468311464
  0
VERTEX
  8
KADRBM
 10
702.8517861644166
 20
806.4405891045889
  0
VERTEX
  8
KADRBM
 10
699.2361907530224
 20
807.3078621605756
  0
VERTEX
  8
KADRBM
 10
695.9040389379888
 20
808.7162371819373
  0
VERTEX
  8
KADRBM
 10
692.9833834448755
 20
810.611591106429
  0
VERTEX
  8
KADRBM
 10
690.5864634263601
 20
812.9210865456591
  0
VERTEX
  8
KADRBM
 10
688.805391174546
 20
815.5559708850781
  0
VERTEX
  8
KADRBM
 10
687.7086122972337
 20
818.414986997182
  0
VERTEX
  8
KADRBM
 10
687.3382753915974
 20
821.3882644961377
  0
VERTEX
  8
KADRBM
 10
687.7086122972337
 20
824.3615419950934
  0
VERTEX
  8
KADRBM
 10
688.805391174546
 20
827.2205581071973
  0
VERTEX
  8
KADRBM
 10
690.5864634263601
 20
829.8554424466163
  0
VERTEX
  8
KADRBM
 10
692.9833834448755
 20
832.1649378858464
  0
VERTEX
  8
KADRBM
 10
695.9040389379888
 20
834.0602918103381
  0
VERTEX
  8
KADRBM
 10
699.2361907530225
 20
835.4686668316999
  0
VERTEX
  8
KADRBM
 10
702.8517861644166
 20
836.3359398876865
  0
VERTEX
  8
KADRBM
 10
706.6118798681608
 20
836.628782161129
  0
VERTEX
  8
KADRBM
 10
710.3719735719051
 20
836.3359398876865
  0
VERTEX
  8
KADRBM
 10
713.9875689832993
 20
835.4686668316998
  0
VERTEX
  8
KADRBM
 10
717.3197207983328
 20
834.0602918103381
  0
VERTEX
  8
KADRBM
 10
720.2403762914463
 20
832.1649378858464
  0
VERTEX
  8
KADRBM
 10
722.6372963099616
 20
829.8554424466163
  0
VERTEX
  8
KADRBM
 10
724.4183685617757
 20
827.2205581071973
  0
VERTEX
  8
KADRBM
 10
725.5151474390881
 20
824.3615419950933
  0
SEQEND
  8
KADRBM
  0
POLYLINE
  8
KADRBM
 66
     1
  0
VERTEX
  8
KADRBM
 10
687.3382753915974
 20
944.2454636183356
  0
VERTEX
  8
KADRBM
 10
687.7086122972337
 20
947.2187411172913
  0
VERTEX
  8
KADRBM
 10
688.805391174546
 20
950.0777572293953
  0
VERTEX
  8
KADRBM
 10
690.5864634263601
 20
952.7126415688142
  0
VERTEX
  8
KADRBM
 10
692.9833834448755
 20
955.0221370080443
  0
VERTEX
  8
KADRBM
 10
695.9040389379888
 20
956.917490932536
  0
VERTEX
  8
KADRBM
 10
699.2361907530224
 20
958.3258659538977
  0
VERTEX
  8
KADRBM
 10
702.8517861644166
 20
959.1931390098845
  0
VERTEX
  8
KADRBM
 10
706.6118798681608
 20
959.485981283327
  0
VERTEX
  8
KADRBM
 10
710.3719735719051
 20
959.1931390098845
  0
VERTEX
  8
KADRBM
 10
713.9875689832993
 20
958.3258659538977
  0
VERTEX
  8
KADRBM
 10
717.3197207983328
 20
956.917490932536
  0
VERTEX
  8
KADRBM
 10
720.2403762914463
 20
955.0221370080443
  0
VERTEX
  8
KADRBM
 10
722.6372963099616
 20
952.7126415688142
  0
VERTEX
  8
KADRBM
 10
724.4183685617757
 20
950.0777572293953
  0
VERTEX
  8
KADRBM
 10
725.5151474390881
 20
947.2187411172912
  0
VERTEX
  8
KADRBM
 10
725.8854843447242
 20
944.2454636183356
  0
SEQEND
  8
KADRBM
  0
POLYLINE
  8
KADRBM
 66
     1
  0
VERTEX
  8
KADRBM
 10
624.6155814014572
 20
875.9212096194351
  0
VERTEX
  8
KADRBM
 10
633.2109913985486
 20
875.9212096194351
 42
0.414213562373095
  0
VERTEX
  8
KADRBM
 10
638.9537943709155
 20
881.6640125918238
  0
VERTEX
  8
KADRBM
 10
638.9537943709155
 20
886.1982619214068
  0
SEQEND
  8
KADRBM
  0
POLYLINE
  8
KADRBM
 66
     1
  0
VERTEX
  8
KADRBM
 10
638.9537943709155
 20
913.4562384392739
  0
VERTEX
  8
KADRBM
 10
638.9537943709155
 20
936.4257273870498
 42
0.4142135623730943
  0
VERTEX
  8
KADRBM
 10
633.2109913985486
 20
942.1685303594386
  0
VERTEX
  8
KADRBM
 10
587.4216766327708
 20
942.1685303594386
  0
SEQEND
  8
KADRBM
  0
POLYLINE
  8
KADRBM
 66
     1
  0
VERTEX
  8
KADRBM
 10
559.5736169768287
 20
942.1685303594386
  0
VERTEX
  8
KADRBM
 10
528.3366974471872
 20
942.1685303594386
  0
SEQEND
  8
KADRBM
  0
ARC
  8
KADRBM
 10
475.2033505065054
 20
1019.216541735692
 40
53.13334694073291
 50
0.0
 51
14.49288910381021
  0
ARC
  8
KADRBM
 10
460.5384548907467
 20
1057.136767840846
 40
15.2131208355629
 50
0.0
 51
90.00000000000001
  0
LINE
  8
KADRBM
 10
475.7515757262926
 20
1049.732863042129
 11
475.7515757262926
 21
1057.136767840846
  0
POLYLINE
  8
KADRBM
 66
     1
  0
VERTEX
  8
KADRBM
 10
214.5695276350388
 20
854.5105496738288
  0
VERTEX
  8
KADRBM
 10
222.4854052975724
 20
872.4753484683861
 42
-0.2689171754790462
  0
VERTEX
  8
KADRBM
 10
241.0844991986386
 20
886.0463338694499
  0
VERTEX
  8
KADRBM
 10
308.6304150153745
 20
893.1614382143853
 42
0.1177519864513806
  0
VERTEX
  8
KADRBM
 10
338.2000728314277
 20
903.6005191684417
 42
-0.1000019239063733
  0
VERTEX
  8
KADRBM
 10
352.3501347844548
 20
909.1615055925176
 42
-0.0877829394924617
  0
VERTEX
  8
KADRBM
 10
496.6365239484229
 20
909.1615055925176
 42
-0.1000019239063741
  0
VERTEX
  8
KADRBM
 10
510.7865859014245
 20
903.6005191684417
 42
0.1177519864513806
  0
VERTEX
  8
KADRBM
 10
540.3562437174522
 20
893.1614382143853
  0
VERTEX
  8
KADRBM
 10
607.9021595342391
 20
886.0463338694499
 42
-0.2689171754790461
  0
VERTEX
  8
KADRBM
 10
626.5012534352799
 20
872.4753484683861
  0
VERTEX
  8
KADRBM
 10
634.4171310978135
 20
854.5105496738288
  0
SEQEND
  8
KADRBM
  0
LINE
  8
KADRBM
 10
388.44820384208
 20
1072.349888676403
 11
424.4933293664116
 21
1072.349888676403
  0
CIRCLE
  8
KADRBM
 10
369.9057847107732
 20
1032.513166967456
 40
17.2544544612245
  0
ARC
  8
KADRBM
 10
311.8958437330447
 20
1055.0954342152
 40
17.2544544612245
 50
68.72989683679836
 51
248.7298968367983
  0
LINE
  8
KADRBM
 10
376.1650973355944
 20
1048.592259112807
 11
318.1551563578658
 21
1071.174526360552
  0
LINE
  8
KADRBM
 10
363.6464720859229
 20
1016.434074822038
 11
305.6365311081944
 21
1039.016342069848
  0
POLYLINE
  8
KADRBM
 66
     1
  0
VERTEX
  8
KADRBM
 10
306.1674054122276
 20
1071.371219700359
 42
0.3668153564260138
  0
VERTEX
  8
KADRBM
 10
257.2828761468126
 20
1056.826653882632
 42
0.2171809623982375
  0
VERTEX
  8
KADRBM
 10
249.1823901766919
 20
991.2037532281138
  0
VERTEX
  8
KADRBM
 10
274.8393215879049
 20
889.601975695321
  0
SEQEND
  8
KADRBM
  0
POLYLINE
  8
KADRBM
 66
     1
  0
VERTEX
  8
KADRBM
 10
297.7339531556471
 20
1045.238606427851
 42
0.4251050428748535
  0
VERTEX
  8
KADRBM
 10
280.0621431512635
 20
1042.320404241629
 42
0.2184288150147849
  0
VERTEX
  8
KADRBM
 10
275.1511761194896
 20
998.6457012409846
  0
VERTEX
  8
KADRBM
 10
301.9658100875939
 20
892.4594067309408
  0
SEQEND
  8
KADRBM
  0
POLYLINE
  8
KADRBM
 66
     1
  0
VERTEX
  8
KADRBM
 10
214.5695276350388
 20
820.2470039371219
  0
VERTEX
  8
KADRBM
 10
214.5695276350388
 20
756.8098022100203
 42
0.2102123050250419
  0
VERTEX
  8
KADRBM
 10
221.501475077578
 20
741.0504247119206
  0
VERTEX
  8
KADRBM
 10
249.8564518108987
 20
715.0548681710752
 42
0.6526025984825934
  0
VERTEX
  8
KADRBM
 10
254.7740295156991
 20
717.2179225302207
  0
VERTEX
  8
KADRBM
 10
254.7740295156991
 20
720.3931271055881
 42
-0.9999999999999917
  0
VERTEX
  8
KADRBM
 10
271.1234263647538
 20
720.3931271055881
  0
VERTEX
  8
KADRBM
 10
271.1234263647538
 20
719.3316374215901
 42
0.4142135623730957
  0
VERTEX
  8
KADRBM
 10
288.0882145470723
 20
702.3668492392717
  0
VERTEX
  8
KADRBM
 10
306.0709939247799
 20
702.3668492392717
  0
SEQEND
  8
KADRBM
  0
LINE
  8
KADRBM
 10
320.6499612856359
 20
895.5459610673388
 11
320.6499612856359
 21
1019.216541735692
  0
LINE
  8
KADRBM
 10
123.1011743881107
 20
1222.911361173839
 11
123.1011743881107
 21
1087.436589950903
  0
LINE
  8
KADRBM
 10
161.6483833412429
 20
1222.911361173839
 11
161.6483833412429
 21
1087.436589950903
  0
POLYLINE
  8
KADRBM
 66
     1
 70
     1
  0
VERTEX
  8
KADRBM
 10
123.1011743880988
 20
1222.911361173839
  0
VERTEX
  8
KADRBM
 10
123.471511293735
 20
1225.884638672795
  0
VERTEX
  8
KADRBM
 10
124.5682901710474
 20
1228.743654784899
  0
VERTEX
  8
KADRBM
 10
126.3493624228614
 20
1231.378539124318
  0
VERTEX
  8
KADRBM
 10
128.7462824413768
 20
1233.688034563548
  0
VERTEX
  8
KADRBM
 10
131.6669379344902
 20
1235.58338848804
  0
VERTEX
  8
KADRBM
 10
134.9990897495238
 20
1236.991763509402
  0
VERTEX
  8
KADRBM
 10
138.614685160918
 20
1237.859036565388
  0
VERTEX
  8
KADRBM
 10
142.3747788646622
 20
1238.151878838831
  0
VERTEX
  8
KADRBM
 10
146.1348725684065
 20
1237.859036565388
  0
VERTEX
  8
KADRBM
 10
149.7504679798007
 20
1236.991763509402
  0
VERTEX
  8
KADRBM
 10
153.0826197948342
 20
1235.58338848804
  0
VERTEX
  8
KADRBM
 10
156.0032752879476
 20
1233.688034563548
  0
VERTEX
  8
KADRBM
 10
158.400195306463
 20
1231.378539124318
  0
VERTEX
  8
KADRBM
 10
160.1812675582771
 20
1228.743654784899
  0
VERTEX
  8
KADRBM
 10
161.2780464355894
 20
1225.884638672795
  0
VERTEX
  8
KADRBM
 10
161.6483833412256
 20
1222.911361173839
  0
VERTEX
  8
KADRBM
 10
161.2780464355894
 20
1219.938083674884
  0
VERTEX
  8
KADRBM
 10
160.1812675582771
 20
1217.07906756278
  0
VERTEX
  8
KADRBM
 10
158.400195306463
 20
1214.444183223361
  0
VERTEX
  8
KADRBM
 10
156.0032752879476
 20
1212.134687784131
  0
VERTEX
  8
KADRBM
 10
153.0826197948342
 20
1210.239333859639
  0
VERTEX
  8
KADRBM
 10
149.7504679798006
 20
1208.830958838277
  0
VERTEX
  8
KADRBM
 10
146.1348725684065
 20
1207.96368578229
  0
VERTEX
  8
KADRBM
 10
142.3747788646622
 20
1207.670843508848
  0
VERTEX
  8
KADRBM
 10
138.6146851609179
 20
1207.963685782291
  0
VERTEX
  8
KADRBM
 10
134.9990897495237
 20
1208.830958838277
  0
VERTEX
  8
KADRBM
 10
131.6669379344902
 20
1210.239333859639
  0
VERTEX
  8
KADRBM
 10
128.7462824413768
 20
1212.134687784131
  0
VERTEX
  8
KADRBM
 10
126.3493624228614
 20
1214.444183223361
  0
VERTEX
  8
KADRBM
 10
124.5682901710474
 20
1217.07906756278
  0
VERTEX
  8
KADRBM
 10
123.471511293735
 20
1219.938083674884
  0
SEQEND
  8
KADRBM
  0
POLYLINE
  8
KADRBM
 66
     1
  0
VERTEX
  8
KADRBM
 10
161.6483833412257
 20
1087.436589950903
  0
VERTEX
  8
KADRBM
 10
161.2780464355895
 20
1084.463312451947
  0
VERTEX
  8
KADRBM
 10
160.1812675582771
 20
1081.604296339843
  0
VERTEX
  8
KADRBM
 10
158.400195306463
 20
1078.969412000424
  0
VERTEX
  8
KADRBM
 10
156.0032752879476
 20
1076.659916561194
  0
VERTEX
  8
KADRBM
 10
153.0826197948342
 20
1074.764562636703
  0
VERTEX
  8
KADRBM
 10
149.7504679798007
 20
1073.356187615341
  0
VERTEX
  8
KADRBM
 10
146.1348725684065
 20
1072.488914559354
  0
VERTEX
  8
KADRBM
 10
142.3747788646622
 20
1072.196072285912
  0
VERTEX
  8
KADRBM
 10
138.614685160918
 20
1072.488914559354
  0
VERTEX
  8
KADRBM
 10
134.9990897495238
 20
1073.356187615341
  0
VERTEX
  8
KADRBM
 10
131.6669379344902
 20
1074.764562636703
  0
VERTEX
  8
KADRBM
 10
128.7462824413768
 20
1076.659916561194
  0
VERTEX
  8
KADRBM
 10
126.3493624228615
 20
1078.969412000424
  0
VERTEX
  8
KADRBM
 10
124.5682901710474
 20
1081.604296339843
  0
VERTEX
  8
KADRBM
 10
123.471511293735
 20
1084.463312451947
  0
VERTEX
  8
KADRBM
 10
123.1011743880989
 20
1087.436589950903
  0
SEQEND
  8
KADRBM
  0
POLYLINE
  8
KADRBM
 66
     1
  0
VERTEX
  8
KADRBM
 10
224.371077331395
 20
875.9212096194351
  0
VERTEX
  8
KADRBM
 10
215.7756673343291
 20
875.9212096194351
 42
-0.414213562373095
  0
VERTEX
  8
KADRBM
 10
210.0328643619113
 20
881.6640125918238
  0
VERTEX
  8
KADRBM
 10
210.0328643619113
 20
936.4257273870498
 42
-0.1449662933888723
  0
VERTEX
  8
KADRBM
 10
210.9590190628741
 20
939.5529762432598
 42
-0.1449662933888723
  0
SEQEND
  8
KADRBM
  0
POLYLINE
  8
KADRBM
 66
     1
  0
VERTEX
  8
KADRBM
 10
289.4130417560235
 20
942.1685303594386
  0
VERTEX
  8
KADRBM
 10
320.6499612856359
 20
942.1685303594386
  0
SEQEND
  8
KADRBM
  0
ARC
  8
KADRBM
 10
373.7833082263213
 20
1019.216541735692
 40
53.13334694073291
 50
165.5071108961898
 51
180.0
  0
ARC
  8
KADRBM
 10
388.44820384208
 20
1057.136767840846
 40
15.2131208355629
 50
90.00000000000001
 51
180.0
  0
LINE
  8
KADRBM
 10
373.2350830065305
 20
1049.732863042129
 11
373.2350830065305
 21
1057.136767840846
  0
POLYLINE
  8
KADRBM
 66
     1
  0
VERTEX
  8
KADRBM
 10
241.3501582783946
 20
942.1685303594386
  0
VERTEX
  8
KADRBM
 10
261.564982100056
 20
942.1685303594386
  0
SEQEND
  8
KADRBM
  0
POLYLINE
  8
KADRBM
 66
     1
  0
VERTEX
  8
KADRBM
 10
129.0667656781087
 20
1076.412319833205
  0
VERTEX
  8
KADRBM
 10
129.0667656781087
 20
1074.054222248098
 42
0.1501727438648773
  0
VERTEX
  8
KADRBM
 10
136.8312756609783
 20
1048.785302936394
  0
VERTEX
  8
KADRBM
 10
225.3032488743637
 20
918.4157673519185
 42
1.000000000000001
  0
VERTEX
  8
KADRBM
 10
247.3268218590391
 20
933.3615056367598
  0
VERTEX
  8
KADRBM
 10
159.565047042587
 20
1062.684515052311
 42
-0.1501727438648785
  0
VERTEX
  8
KADRBM
 10
155.6827920512449
 20
1075.318974708174
  0
VERTEX
  8
KADRBM
 10
155.6827920512449
 20
1076.412319833205
  0
SEQEND
  8
KADRBM
  0
POLYLINE
  8
KADRBM
 66
     1
  0
VERTEX
  8
KADRBM
 10
530.893562977596
 20
685.8095804370714
 42
-0.1503519578696977
  0
VERTEX
  8
KADRBM
 10
504.1465444369796
 20
589.4181593562498
  0
VERTEX
  8
KADRBM
 10
504.1465444369796
 20
563.6001827647669
 42
-0.3876270957815534
  0
VERTEX
  8
KADRBM
 10
484.1983598532797
 20
541.735257719858
 42
-0.0458406580659581
  0
VERTEX
  8
KADRBM
 10
364.7882988795473
 20
541.735257719858
 42
-0.3876270957815556
  0
VERTEX
  8
KADRBM
 10
344.8401142958473
 20
563.6001827647669
  0
VERTEX
  8
KADRBM
 10
344.8401142958473
 20
589.4181593562498
 42
-0.1503519578696977
  0
VERTEX
  8
KADRBM
 10
318.0930957552309
 20
685.8095804370714
  0
SEQEND
  8
KADRBM
  0
POLYLINE
  8
KADRBM
 66
     1
  0
VERTEX
  8
KADRBM
 10
504.1465444369796
 20
563.6001827647669
  0
VERTEX
  8
KADRBM
 10
504.1465444369796
 20
543.6762208405453
 42
-0.3876270957815534
  0
VERTEX
  8
KADRBM
 10
484.1983598532797
 20
521.81129579568
 42
-0.0458406580659581
  0
VERTEX
  8
KADRBM
 10
364.7882988795473
 20
521.81129579568
 42
-0.3876270957815556
  0
VERTEX
  8
KADRBM
 10
344.8401142958473
 20
543.6762208405453
  0
VERTEX
  8
KADRBM
 10
344.8401142958473
 20
563.6001827647669
  0
SEQEND
  8
KADRBM
  0
POLYLINE
  8
KADRBM
 66
     1
  0
VERTEX
  8
KADRBM
 10
616.747852357309
 20
731.2065477277247
  0
VERTEX
  8
KADRBM
 10
603.4759583891364
 20
592.4587432383669
 42
-0.3625189875475956
  0
VERTEX
  8
KADRBM
 10
554.9122721019858
 20
544.4296098949526
  0
VERTEX
  8
KADRBM
 10
503.8559050937702
 20
540.1155086554609
  0
SEQEND
  8
KADRBM
  0
POLYLINE
  8
KADRBM
 66
     1
  0
VERTEX
  8
KADRBM
 10
232.2388063755433
 20
731.2065477277247
  0
VERTEX
  8
KADRBM
 10
245.5107003436869
 20
592.4587432383669
 42
0.3625189875475956
  0
VERTEX
  8
KADRBM
 10
294.0743866308376
 20
544.4296098949526
  0
VERTEX
  8
KADRBM
 10
345.1307536390532
 20
540.1155086554609
  0
SEQEND
  8
KADRBM
  0
POLYLINE
  8
KADRBM
 66
     1
  0
VERTEX
  8
KADRBM
 10
180.3757266846668
 20
984.6195603734996
  0
VERTEX
  8
KADRBM
 10
180.3757266846668
 20
851.4607371972925
 42
0.0886526639802809
  0
VERTEX
  8
KADRBM
 10
234.1285937096663
 20
547.660316977901
 42
0.2164693682693252
  0
VERTEX
  8
KADRBM
 10
245.7419900638715
 20
535.8814778380729
 42
0.1851275738775066
  0
VERTEX
  8
KADRBM
 10
603.2446686689518
 20
535.8814778380729
 42
0.2164693682693252
  0
VERTEX
  8
KADRBM
 10
614.8580650231606
 20
547.660316977901
 42
0.0886526639802809
  0
VERTEX
  8
KADRBM
 10
668.6109320481854
 20
851.4607371972925
  0
VERTEX
  8
KADRBM
 10
668.6109320481854
 20
879.6454713455132
  0
SEQEND
  8
KADRBM
  0
POLYLINE
  8
KADRBM
 66
     1
  0
VERTEX
  8
KADRBM
 10
180.3757266846668
 20
1032.018547722892
  0
VERTEX
  8
KADRBM
 10
180.3757266846668
 20
1035.814403977911
 42
-0.6687101381852597
  0
VERTEX
  8
KADRBM
 10
216.8565058115026
 20
1050.893845315961
  0
VERTEX
  8
KADRBM
 10
244.8803804004609
 20
1050.893845315961
  0
VERTEX
  8
KADRBM
 10
244.8803804004609
 20
1135.049542296463
  0
SEQEND
  8
KADRBM
  0
POLYLINE
  8
KADRBM
 66
     1
  0
VERTEX
  8
KADRBM
 10
687.3382753916093
 20
902.7656123006127
  0
VERTEX
  8
KADRBM
 10
615.5427998129388
 20
918.6289340035255
 42
1.0
  0
VERTEX
  8
KADRBM
 10
609.8004469193555
 20
892.6397392653707
  0
VERTEX
  8
KADRBM
 10
687.3382753916093
 20
875.507635782702
  0
SEQEND
  8
KADRBM
  0
POLYLINE
  8
KADRBM
 66
     1
  0
VERTEX
  8
KADRBM
 10
668.6109320481854
 20
906.9034478634239
  0
VERTEX
  8
KADRBM
 10
668.6109320481854
 20
1035.814403977911
 42
0.6687101381852597
  0
VERTEX
  8
KADRBM
 10
632.1301529213241
 20
1050.893845315961
  0
VERTEX
  8
KADRBM
 10
604.1062783324168
 20
1050.893845315961
  0
VERTEX
  8
KADRBM
 10
604.1062783324167
 20
1353.548531122444
  0
SEQEND
  8
KADRBM
  0
LINE
  8
KADRBM
 10
244.8803804004607
 20
1984.796609507746
 11
244.8803804004608
 21
1460.727421026491
  0
LINE
  8
KADRBM
 10
381.3204663542643
 20
1963.68951537678
 11
381.3204663542645
 21
1451.32651432796
  0
LINE
  8
KADRBM
 10
345.4151775774741
 20
1984.796609507746
 11
345.4151775774742
 21
1460.727421026491
  0
POLYLINE
  8
KADRBM
 66
     1
 70
     1
  0
VERTEX
  8
KADRBM
 10
208.0199136928975
 20
1171.910009004063
  0
VERTEX
  8
KADRBM
 10
208.0199136928975
 20
1423.866954318913
 42
-0.414213562373095
  0
VERTEX
  8
KADRBM
 10
244.8803804004608
 20
1460.727421026491
  0
VERTEX
  8
KADRBM
 10
356.7304974643237
 20
1460.727421026491
 42
-0.4142135623730948
  0
VERTEX
  8
KADRBM
 10
393.5909641718615
 20
1423.866954318913
  0
VERTEX
  8
KADRBM
 10
393.5909641718616
 20
1171.910009004063
 42
-0.414213562373095
  0
VERTEX
  8
KADRBM
 10
356.7304974643237
 20
1135.049542296463
  0
VERTEX
  8
KADRBM
 10
244.8803804004609
 20
1135.049542296463
 42
-0.414213562373095
  0
SEQEND
  8
KADRBM
  0
POLYLINE
  8
KADRBM
 66
     1
  0
VERTEX
  8
KADRBM
 10
393.5909641718615
 20
1382.232631165298
  0
VERTEX
  8
KADRBM
 10
393.5909641718615
 20
1382.232631165298
 42
0.414213562373095
  0
VERTEX
  8
KADRBM
 10
373.9777645641959
 20
1362.619431557639
  0
VERTEX
  8
KADRBM
 10
373.977764564196
 20
1171.910009004063
 42
-0.414213562373095
  0
VERTEX
  8
KADRBM
 10
356.7304974643237
 20
1154.662741904187
  0
VERTEX
  8
KADRBM
 10
244.8803804004609
 20
1154.662741904187
 42
-0.414213562373095
  0
VERTEX
  8
KADRBM
 10
227.6331133005631
 20
1171.910009004063
  0
VERTEX
  8
KADRBM
 10
227.6331133005631
 20
1312.805430299613
 42
0.414213562373095
  0
VERTEX
  8
KADRBM
 10
208.0199136928975
 20
1332.418629907272
  0
VERTEX
  8
KADRBM
 10
208.0199136928975
 20
1332.418629907272
  0
SEQEND
  8
KADRBM
  0
LINE
  8
KADRBM
 10
345.4151775774743
 20
1135.049542296463
 11
345.4151775774743
 21
1060.56267132358
  0
POLYLINE
  8
KADRBM
 66
     1
 70
     1
  0
VERTEX
  8
KADRBM
 10
233.6679461409774
 20
1173.164785211968
  0
VERTEX
  8
KADRBM
 10
233.6679461409774
 20
1173.164785211968
 42
-0.414213562373095
  0
VERTEX
  8
KADRBM
 10
237.8191129125196
 20
1177.315951983426
  0
VERTEX
  8
KADRBM
 10
361.5287085735443
 20
1177.315951983426
 42
-0.4142135623730948
  0
VERTEX
  8
KADRBM
 10
365.6798753450319
 20
1173.164785211968
  0
VERTEX
  8
KADRBM
 10
365.6798753450319
 20
1173.164785211968
 42
-0.4142135623730836
  0
VERTEX
  8
KADRBM
 10
361.5287085735443
 20
1169.013618440444
  0
VERTEX
  8
KADRBM
 10
237.8191129125197
 20
1169.013618440444
 42
-0.414213562373095
  0
SEQEND
  8
KADRBM
  0
POLYLINE
  8
KADRBM
 66
     1
 70
     1
  0
VERTEX
  8
KADRBM
 10
233.6679461409774
 20
1195.664785211968
  0
VERTEX
  8
KADRBM
 10
233.6679461409774
 20
1195.664785211968
 42
-0.414213562373095
  0
VERTEX
  8
KADRBM
 10
237.8191129125196
 20
1199.815951983426
  0
VERTEX
  8
KADRBM
 10
361.5287085735443
 20
1199.815951983426
 42
-0.4142135623730948
  0
VERTEX
  8
KADRBM
 10
365.6798753450319
 20
1195.664785211968
  0
VERTEX
  8
KADRBM
 10
365.6798753450319
 20
1195.664785211968
 42
-0.4142135623730836
  0
VERTEX
  8
KADRBM
 10
361.5287085735443
 20
1191.513618440444
  0
VERTEX
  8
KADRBM
 10
237.8191129125196
 20
1191.513618440444
 42
-0.414213562373095
  0
SEQEND
  8
KADRBM
  0
POLYLINE
  8
KADRBM
 66
     1
 70
     1
  0
VERTEX
  8
KADRBM
 10
233.6679461409774
 20
1218.164785211968
  0
VERTEX
  8
KADRBM
 10
233.6679461409774
 20
1218.164785211968
 42
-0.414213562373095
  0
VERTEX
  8
KADRBM
 10
237.8191129125196
 20
1222.315951983426
  0
VERTEX
  8
KADRBM
 10
361.5287085735443
 20
1222.315951983426
 42
-0.4142135623730948
  0
VERTEX
  8
KADRBM
 10
365.6798753450319
 20
1218.164785211968
  0
VERTEX
  8
KADRBM
 10
365.6798753450319
 20
1218.164785211968
 42
-0.4142135623730836
  0
VERTEX
  8
KADRBM
 10
361.5287085735443
 20
1214.013618440444
  0
VERTEX
  8
KADRBM
 10
237.8191129125196
 20
1214.013618440444
 42
-0.414213562373095
  0
SEQEND
  8
KADRBM
  0
POLYLINE
  8
KADRBM
 66
     1
 70
     1
  0
VERTEX
  8
KADRBM
 10
233.6679461409774
 20
1240.664785211968
  0
VERTEX
  8
KADRBM
 10
233.6679461409774
 20
1240.664785211968
 42
-0.414213562373095
  0
VERTEX
  8
KADRBM
 10
237.8191129125196
 20
1244.815951983426
  0
VERTEX
  8
KADRBM
 10
361.5287085735443
 20
1244.815951983426
 42
-0.4142135623730948
  0
VERTEX
  8
KADRBM
 10
365.6798753450319
 20
1240.664785211968
  0
VERTEX
  8
KADRBM
 10
365.6798753450319
 20
1240.664785211968
 42
-0.4142135623730836
  0
VERTEX
  8
KADRBM
 10
361.5287085735443
 20
1236.513618440444
  0
VERTEX
  8
KADRBM
 10
237.8191129125196
 20
1236.513618440444
 42
-0.414213562373095
  0
SEQEND
  8
KADRBM
  0
POLYLINE
  8
KADRBM
 66
     1
 70
     1
  0
VERTEX
  8
KADRBM
 10
233.6679461409774
 20
1263.164785211968
  0
VERTEX
  8
KADRBM
 10
233.6679461409774
 20
1263.164785211968
 42
-0.414213562373095
  0
VERTEX
  8
KADRBM
 10
237.8191129125196
 20
1267.315951983426
  0
VERTEX
  8
KADRBM
 10
361.5287085735443
 20
1267.315951983426
 42
-0.4142135623730948
  0
VERTEX
  8
KADRBM
 10
365.6798753450319
 20
1263.164785211968
  0
VERTEX
  8
KADRBM
 10
365.6798753450319
 20
1263.164785211968
 42
-0.4142135623730836
  0
VERTEX
  8
KADRBM
 10
361.5287085735443
 20
1259.013618440444
  0
VERTEX
  8
KADRBM
 10
237.8191129125196
 20
1259.013618440444
 42
-0.414213562373095
  0
SEQEND
  8
KADRBM
  0
POLYLINE
  8
KADRBM
 66
     1
 70
     1
  0
VERTEX
  8
KADRBM
 10
233.6679461409774
 20
1285.664785211968
  0
VERTEX
  8
KADRBM
 10
233.6679461409774
 20
1285.664785211968
 42
-0.414213562373095
  0
VERTEX
  8
KADRBM
 10
237.8191129125196
 20
1289.815951983426
  0
VERTEX
  8
KADRBM
 10
361.5287085735443
 20
1289.815951983426
 42
-0.4142135623730948
  0
VERTEX
  8
KADRBM
 10
365.6798753450319
 20
1285.664785211968
  0
VERTEX
  8
KADRBM
 10
365.6798753450319
 20
1285.664785211968
 42
-0.4142135623730836
  0
VERTEX
  8
KADRBM
 10
361.5287085735443
 20
1281.513618440444
  0
VERTEX
  8
KADRBM
 10
237.8191129125196
 20
1281.513618440444
 42
-0.414213562373095
  0
SEQEND
  8
KADRBM
  0
POLYLINE
  8
KADRBM
 66
     1
 70
     1
  0
VERTEX
  8
KADRBM
 10
233.6679461409774
 20
1308.164785211968
  0
VERTEX
  8
KADRBM
 10
233.6679461409774
 20
1308.164785211968
 42
-0.414213562373095
  0
VERTEX
  8
KADRBM
 10
237.8191129125196
 20
1312.315951983426
  0
VERTEX
  8
KADRBM
 10
361.5287085735443
 20
1312.315951983426
 42
-0.4142135623730948
  0
VERTEX
  8
KADRBM
 10
365.6798753450319
 20
1308.164785211968
  0
VERTEX
  8
KADRBM
 10
365.6798753450319
 20
1308.164785211968
 42
-0.4142135623730836
  0
VERTEX
  8
KADRBM
 10
361.5287085735443
 20
1304.013618440444
  0
VERTEX
  8
KADRBM
 10
237.8191129125196
 20
1304.013618440444
 42
-0.414213562373095
  0
SEQEND
  8
KADRBM
  0
POLYLINE
  8
KADRBM
 66
     1
 70
     1
  0
VERTEX
  8
KADRBM
 10
233.6679461409774
 20
1330.664785211968
  0
VERTEX
  8
KADRBM
 10
233.6679461409774
 20
1330.664785211968
 42
-0.414213562373095
  0
VERTEX
  8
KADRBM
 10
237.8191129125196
 20
1334.815951983426
  0
VERTEX
  8
KADRBM
 10
361.5287085735443
 20
1334.815951983426
 42
-0.4142135623730948
  0
VERTEX
  8
KADRBM
 10
365.6798753450319
 20
1330.664785211968
  0
VERTEX
  8
KADRBM
 10
365.6798753450319
 20
1330.664785211968
 42
-0.4142135623730836
  0
VERTEX
  8
KADRBM
 10
361.5287085735443
 20
1326.513618440444
  0
VERTEX
  8
KADRBM
 10
237.8191129125196
 20
1326.513618440444
 42
-0.414213562373095
  0
SEQEND
  8
KADRBM
  0
POLYLINE
  8
KADRBM
 66
     1
 70
     1
  0
VERTEX
  8
KADRBM
 10
233.6679461409774
 20
1353.164785211968
  0
VERTEX
  8
KADRBM
 10
233.6679461409774
 20
1353.164785211968
 42
-0.414213562373095
  0
VERTEX
  8
KADRBM
 10
237.8191129125196
 20
1357.315951983426
  0
VERTEX
  8
KADRBM
 10
361.5287085735443
 20
1357.315951983426
 42
-0.4142135623730948
  0
VERTEX
  8
KADRBM
 10
365.6798753450319
 20
1353.164785211968
  0
VERTEX
  8
KADRBM
 10
365.6798753450319
 20
1353.164785211968
 42
-0.4142135623730836
  0
VERTEX
  8
KADRBM
 10
361.5287085735443
 20
1349.013618440444
  0
VERTEX
  8
KADRBM
 10
237.8191129125196
 20
1349.013618440444
 42
-0.414213562373095
  0
SEQEND
  8
KADRBM
  0
POLYLINE
  8
KADRBM
 66
     1
 70
     1
  0
VERTEX
  8
KADRBM
 10
233.6679461409774
 20
1375.664785211968
  0
VERTEX
  8
KADRBM
 10
233.6679461409774
 20
1375.664785211968
 42
-0.414213562373095
  0
VERTEX
  8
KADRBM
 10
237.8191129125196
 20
1379.815951983426
  0
VERTEX
  8
KADRBM
 10
361.5287085735442
 20
1379.815951983426
 42
-0.4142135623730948
  0
VERTEX
  8
KADRBM
 10
365.6798753450319
 20
1375.664785211968
  0
VERTEX
  8
KADRBM
 10
365.6798753450319
 20
1375.664785211968
 42
-0.4142135623730836
  0
VERTEX
  8
KADRBM
 10
361.5287085735442
 20
1371.513618440444
  0
VERTEX
  8
KADRBM
 10
237.8191129125196
 20
1371.513618440444
 42
-0.414213562373095
  0
SEQEND
  8
KADRBM
  0
POLYLINE
  8
KADRBM
 66
     1
 70
     1
  0
VERTEX
  8
KADRBM
 10
233.6679461409774
 20
1398.164785211968
  0
VERTEX
  8
KADRBM
 10
233.6679461409774
 20
1398.164785211968
 42
-0.414213562373095
  0
VERTEX
  8
KADRBM
 10
237.8191129125196
 20
1402.315951983426
  0
VERTEX
  8
KADRBM
 10
361.5287085735442
 20
1402.315951983426
 42
-0.4142135623730948
  0
VERTEX
  8
KADRBM
 10
365.6798753450319
 20
1398.164785211968
  0
VERTEX
  8
KADRBM
 10
365.6798753450319
 20
1398.164785211968
 42
-0.4142135623730836
  0
VERTEX
  8
KADRBM
 10
361.5287085735442
 20
1394.013618440444
  0
VERTEX
  8
KADRBM
 10
237.8191129125196
 20
1394.013618440444
 42
-0.414213562373095
  0
SEQEND
  8
KADRBM
  0
POLYLINE
  8
KADRBM
 66
     1
 70
     1
  0
VERTEX
  8
KADRBM
 10
233.6679461409774
 20
1420.664785211968
  0
VERTEX
  8
KADRBM
 10
233.6679461409774
 20
1420.664785211968
 42
-0.414213562373095
  0
VERTEX
  8
KADRBM
 10
237.8191129125196
 20
1424.815951983426
  0
VERTEX
  8
KADRBM
 10
361.5287085735442
 20
1424.815951983426
 42
-0.4142135623730948
  0
VERTEX
  8
KADRBM
 10
365.6798753450319
 20
1420.664785211968
  0
VERTEX
  8
KADRBM
 10
365.6798753450319
 20
1420.664785211968
 42
-0.4142135623730836
  0
VERTEX
  8
KADRBM
 10
361.5287085735442
 20
1416.513618440444
  0
VERTEX
  8
KADRBM
 10
237.8191129125196
 20
1416.513618440444
 42
-0.414213562373095
  0
SEQEND
  8
KADRBM
  0
POLYLINE
  8
KADRBM
 66
     1
 70
     1
  0
VERTEX
  8
KADRBM
 10
233.6679461409774
 20
1443.164785211968
  0
VERTEX
  8
KADRBM
 10
233.6679461409774
 20
1443.164785211968
 42
-0.414213562373095
  0
VERTEX
  8
KADRBM
 10
237.8191129125196
 20
1447.315951983426
  0
VERTEX
  8
KADRBM
 10
361.5287085735442
 20
1447.315951983426
 42
-0.4142135623730948
  0
VERTEX
  8
KADRBM
 10
365.6798753450319
 20
1443.164785211968
  0
VERTEX
  8
KADRBM
 10
365.6798753450319
 20
1443.164785211968
 42
-0.4142135623730836
  0
VERTEX
  8
KADRBM
 10
361.5287085735442
 20
1439.013618440444
  0
VERTEX
  8
KADRBM
 10
237.8191129125196
 20
1439.013618440444
 42
-0.414213562373095
  0
SEQEND
  8
KADRBM
  0
POLYLINE
  8
KADRBM
 66
     1
  0
VERTEX
  8
KADRBM
 10
244.8803804004607
 20
1968.838886430418
 42
-0.4142135623730775
  0
VERTEX
  8
KADRBM
 10
236.9015188617965
 20
1976.817747969082
  0
VERTEX
  8
KADRBM
 10
236.9015188617965
 20
1976.817747969082
 42
-0.414213562373095
  0
VERTEX
  8
KADRBM
 10
244.8803804004607
 20
1984.796609507746
  0
VERTEX
  8
KADRBM
 10
345.4151775774741
 20
1984.796609507746
 42
-0.414213562373095
  0
VERTEX
  8
KADRBM
 10
353.3940391161383
 20
1976.817747969082
  0
VERTEX
  8
KADRBM
 10
353.3940391161383
 20
1976.817747969082
 42
-0.414213562373095
  0
VERTEX
  8
KADRBM
 10
345.4151775774741
 20
1968.838886430418
  0
SEQEND
  8
KADRBM
  0
LINE
  8
KADRBM
 10
467.6661923785584
 20
1362.949437820887
 11
467.6661923785585
 21
1070.576797746395
  0
LINE
  8
KADRBM
 10
381.3204663542645
 20
1144.450448995016
 11
381.3204663542646
 21
1070.576797746395
  0
POLYLINE
  8
KADRBM
 66
     1
  0
VERTEX
  8
KADRBM
 10
551.5152102465954
 20
519.2162520929451
  0
VERTEX
  8
KADRBM
 10
521.8773980536762
 20
482.6433903730904
 42
-0.2261827848637401
  0
VERTEX
  8
KADRBM
 10
486.9159739151919
 20
465.975330338526
  0
VERTEX
  8
KADRBM
 10
424.4933293664117
 20
465.975330338526
  0
SEQEND
  8
KADRBM
  0
POLYLINE
  8
KADRBM
 66
     1
  0
VERTEX
  8
KADRBM
 10
639.3058113050402
 20
625.1489751202716
  0
VERTEX
  8
KADRBM
 10
777.2521247596533
 20
636.7000151956199
 42
-0.414213562373095
  0
VERTEX
  8
KADRBM
 10
789.4016322992948
 20
626.4279917073254
  0
VERTEX
  8
KADRBM
 10
795.5961451857484
 20
552.4510848009995
 42
-0.4142135623730929
  0
VERTEX
  8
KADRBM
 10
785.324121697432
 20
540.3015772613326
  0
VERTEX
  8
KADRBM
 10
559.523074500129
 20
521.3939538539671
  0
SEQEND
  8
KADRBM
  0
POLYLINE
  8
KADRBM
 66
     1
  0
VERTEX
  8
KADRBM
 10
297.4714484862279
 20
519.2162520929451
  0
VERTEX
  8
KADRBM
 10
327.1092606791508
 20
482.6433903730904
 42
0.2261827848637401
  0
VERTEX
  8
KADRBM
 10
362.0706848176351
 20
465.975330338526
  0
VERTEX
  8
KADRBM
 10
424.4933293664117
 20
465.975330338526
  0
SEQEND
  8
KADRBM
  0
POLYLINE
  8
KADRBM
 66
     1
  0
VERTEX
  8
KADRBM
 10
209.6808474277832
 20
625.1489751202716
  0
VERTEX
  8
KADRBM
 10
71.73453397317003
 20
636.7000151956199
 42
0.414213562373095
  0
VERTEX
  8
KADRBM
 10
59.58502643353219
 20
626.4279917073254
  0
VERTEX
  8
KADRBM
 10
53.39051354710043
 20
552.4510848009995
 42
0.4142135623730929
  0
VERTEX
  8
KADRBM
 10
63.66253703539131
 20
540.3015772613326
  0
VERTEX
  8
KADRBM
 10
289.4635842326979
 20
521.3939538539671
  0
SEQEND
  8
KADRBM
  0
LINE
  8
KADRBM
 10
345.4151775774741
 20
1963.68951537678
 11
503.5714811554031
 21
1963.68951537678
  0
ENDSEC
  0
EOF
