  0
SECTION
  2
HEADER
  9
$ACADVER
  1
AC1003
  9
$INSBASE
 10
0.0
 20
0.0
  9
$EXTMIN
 10
287.3994738463139
 20
123.8245104261414
  9
$EXTMAX
 10
4698.503065059208
 20
4340.020543052839
  9
$LIMMIN
 10
0.0
 20
0.0
  9
$LIMMAX
 10
420.0
 20
297.0
  9
$ORTHOMODE
 70
     0
  9
$REGENMODE
 70
     1
  9
$FILLMODE
 70
     1
  9
$QTEXTMODE
 70
     0
  9
$DRAGMODE
 70
     2
  9
$LTSCALE
 40
1.0
  9
$OSMODE
 70
    37
  9
$ATTMODE
 70
     1
  9
$TEXTSIZE
 40
2.5
  9
$TRACEWID
 40
1.0
  9
$TEXTSTYLE
  7
STANDARD
  9
$CLAYER
  8
KADRBM
  9
$CELTYPE
  6
BYLAYER
  9
$CECOLOR
 62
   256
  9
$DIMSCALE
 40
1.0
  9
$DIMASZ
 40
0.18
  9
$DIMEXO
 40
0.0625
  9
$DIMDLI
 40
0.38
  9
$DIMRND
 40
0.0
  9
$DIMDLE
 40
0.0
  9
$DIMEXE
 40
0.18
  9
$DIMTP
 40
0.0
  9
$DIMTM
 40
0.0
  9
$DIMTXT
 40
0.18
  9
$DIMCEN
 40
0.09
  9
$DIMTSZ
 40
0.0
  9
$DIMTOL
 70
     0
  9
$DIMLIM
 70
     0
  9
$DIMTIH
 70
     1
  9
$DIMTOH
 70
     1
  9
$DIMSE1
 70
     0
  9
$DIMSE2
 70
     0
  9
$DIMTAD
 70
     0
  9
$DIMZIN
 70
     0
  9
$DIMBLK
  1

  9
$DIMASO
 70
     1
  9
$DIMSHO
 70
     1
  9
$DIMPOST
  1

  9
$DIMAPOST
  1

  9
$DIMALT
 70
     0
  9
$DIMALTD
 70
     2
  9
$DIMALTF
 40
25.4
  9
$DIMLFAC
 40
1.0
  9
$DIMTOFL
 70
     0
  9
$DIMTVP
 40
0.0
  9
$DIMTIX
 70
     0
  9
$DIMSOXD
 70
     0
  9
$DIMSAH
 70
     0
  9
$DIMBLK1
  1

  9
$DIMBLK2
  1

  9
$LUNITS
 70
     2
  9
$LUPREC
 70
     4
  9
$SKETCHINC
 40
1.0
  9
$FILLETRAD
 40
0.0
  9
$AUNITS
 70
     0
  9
$AUPREC
 70
     0
  9
$MENU
  1
.
  9
$ELEVATION
 40
0.0
  9
$THICKNESS
 40
0.0
  9
$LIMCHECK
 70
     0
  9
$CHAMFERA
 40
0.0
  9
$CHAMFERB
 40
0.0
  9
$SKPOLY
 70
     0
  9
$TDCREATE
 40
2457619.479474294
  9
$TDUPDATE
 40
2461128.855803194
  9
$TDINDWG
 40
0.1059245833
  9
$TDUSRTIMER
 40
0.1059245602
  9
$USRTIMER
 70
     1
  9
$ANGBASE
 50
0.0
  9
$ANGDIR
 70
     0
  9
$PDMODE
 70
     0
  9
$PDSIZE
 40
0.0
  9
$PLINEWID
 40
0.0
  9
$COORDS
 70
     1
  9
$SURFTAB1
 70
     6
  9
$SURFTAB2
 70
     6
  9
$SURFTYPE
 70
     6
  9
$SURFU
 70
     6
  9
$SURFV
 70
     6
  9
$UCSNAME
  2

  9
$UCSORG
 10
0.0
 20
0.0
 30
0.0
  9
$UCSXDIR
 10
1.0
 20
0.0
 30
0.0
  9
$UCSYDIR
 10
0.0
 20
1.0
 30
0.0
  9
$USERI1
 70
     0
  9
$USERI2
 70
     0
  9
$USERI3
 70
     0
  9
$USERI4
 70
     0
  9
$USERI5
 70
     0
  9
$USERR1
 40
0.0
  9
$USERR2
 40
0.0
  9
$USERR3
 40
0.0
  9
$USERR4
 40
0.0
  9
$USERR5
 40
0.0
  9
$WORLDVIEW
 70
     1
  0
ENDSEC
  0
SECTION
  2
TABLES
  0
TABLE
  2
LTYPE
 70
     1
  0
LTYPE
  2
CONTINUOUS
 70
     0
  3
Solid line
 72
    65
 73
     0
 40
0.0
  0
ENDTAB
  0
TABLE
  2
LAYER
 70
     4
  0
LAYER
  2
0
 70
     0
 62
     7
  6
CONTINUOUS
  0
LAYER
  2
KADRBM
 70
     0
 62
     7
  6
CONTINUOUS
  0
LAYER
  2
1
 70
     0
 62
     7
  6
CONTINUOUS
  0
LAYER
  2
FUR
 70
     0
 62
     5
  6
CONTINUOUS
  0
ENDTAB
  0
TABLE
  2
STYLE
 70
     7
  0
STYLE
  2
STANDARD
 70
     0
 40
0.0
 41
1.0
 50
0.0
 71
     0
 42
2.5
  3

  4

  0
STYLE
  2
ANNOTATIVE
 70
     0
 40
0.0
 41
1.0
 50
0.0
 71
     0
 42
2.5
  3

  4

  0
STYLE
  2
BMMM
 70
     0
 40
0.0
 41
1.0
 50
0.0
 71
     0
 42
0.2
  3

  4

  0
STYLE
  2
CEN
 70
     0
 40
7.5
 41
1.0
 50
0.0
 71
     0
 42
7.5
  3
romans.shx
  4

  0
STYLE
  2
WOR
 70
     0
 40
5.0
 41
1.0
 50
0.0
 71
     0
 42
5.0
  3
romans.shx
  4

  0
STYLE
  2
STYLE1
 70
     0
 40
0.0
 41
1.0
 50
0.0
 71
     0
 42
4.5
  3

  4

  0
STYLE
  2
STANDARD_360
 70
     0
 40
0.0
 41
1.0
 50
0.0
 71
     0
 42
0.2
  3

  4

  0
ENDTAB
  0
TABLE
  2
VIEW
 70
     0
  0
ENDTAB
  0
ENDSEC
  0
SECTION
  2
BLOCKS
  0
BLOCK
  8
0
  2
KADRBM
 70
     0
 10
0.0
 20
0.0
  0
POLYLINE
  8
KADRBM
 62
     4
 66
     1
 70
     1
  0
VERTEX
  8
KADRBM
 62
     4
 10
0.0
 20
0.0
  0
VERTEX
  8
KADRBM
 62
     4
 10
0.0
 20
24.79716181331605
  0
VERTEX
  8
KADRBM
 62
     4
 10
21.0
 20
24.79716181331605
  0
VERTEX
  8
KADRBM
 62
     4
 10
21.0
 20
0.0
  0
VERTEX
  8
KADRBM
 62
     4
 10
0.0
 20
0.0
  0
SEQEND
  8
KADRBM
 62
     4
  0
POLYLINE
  8
KADRBM
 62
     4
 66
     1
  0
VERTEX
  8
KADRBM
 62
     4
 10
20.66310160432477
 20
0.325668449208024
  0
VERTEX
  8
KADRBM
 62
     4
 10
20.66310160432477
 20
24.46026341759716
  0
VERTEX
  8
KADRBM
 62
     4
 10
0.3368983956752345
 20
24.46026341759716
  0
VERTEX
  8
KADRBM
 62
     4
 10
0.3368983956752345
 20
0.325668449208024
  0
VERTEX
  8
KADRBM
 62
     4
 10
20.66310160432477
 20
0.325668449208024
  0
SEQEND
  8
KADRBM
 62
     4
  0
INSERT
  8
1
  2
ARCHLOGO
 10
-2087.449484841637
 20
-1398.615876029424
 30
0.0
 41
0.025
 42
0.025
 43
0.025
  0
TEXT
  8
KADRBM
 62
   211
 10
0.572640834153276
 20
23.67718368589863
 40
0.4851336898393175
  1
WWW.Architecture4Design.com
  7
BMMM
  0
ENDBLK
  8
0
  0
BLOCK
  8
0
  2
ARCHLOGO
 70
     0
 10
0.0
 20
0.0
  0
LINE
  8
KADRBM
 62
   211
 10
84073.13752740924
 20
56889.51916389067
 11
84070.78304185567
 21
56889.51916389067
  0
LINE
  8
KADRBM
 62
   211
 10
84070.78304185567
 20
56889.51916389067
 11
84064.44034607592
 21
56872.98971428494
  0
LINE
  8
KADRBM
 62
   211
 10
84064.44034607592
 20
56872.98971428494
 11
84066.7708062682
 21
56872.98971428494
  0
LINE
  8
KADRBM
 62
   211
 10
84066.7708062682
 20
56872.98971428494
 11
84068.57270847796
 21
56877.98698974708
  0
LINE
  8
KADRBM
 62
   211
 10
84068.57270847796
 20
56877.98698974708
 11
84075.46798760071
 21
56877.98698974708
  0
LINE
  8
KADRBM
 62
   211
 10
84074.79527744232
 20
56879.76486659392
 11
84069.19736791053
 21
56879.76486659392
  0
LINE
  8
KADRBM
 62
   211
 10
84075.46798760071
 20
56877.98698974708
 11
84077.41404198797
 21
56872.98971428494
  0
LINE
  8
KADRBM
 62
   211
 10
84077.41404198797
 20
56872.98971428494
 11
84079.88865435612
 21
56872.98971428494
  0
LINE
  8
KADRBM
 62
   211
 10
84079.88865435612
 20
56872.98971428494
 11
84073.13752740924
 21
56889.51916389067
  0
LINE
  8
KADRBM
 62
   211
 10
84086.39952767547
 20
56880.31744993855
 11
84087.62482117768
 21
56880.24537385062
  0
LINE
  8
KADRBM
 62
   211
 10
84087.62482117768
 20
56880.24537385062
 11
84088.60986105236
 21
56879.81291731975
  0
LINE
  8
KADRBM
 62
   211
 10
84088.60986105236
 20
56879.81291731975
 11
84088.70596250321
 21
56879.74084123182
  0
LINE
  8
KADRBM
 62
   211
 10
84088.70596250321
 20
56879.74084123182
 11
84089.7150277408
 21
56878.70775063131
  0
LINE
  8
KADRBM
 62
   211
 10
84089.7150277408
 20
56878.70775063131
 11
84090.41176326212
 21
56877.77076148165
  0
LINE
  8
KADRBM
 62
   211
 10
84090.41176326212
 20
56877.77076148165
 11
84091.30070168595
 21
56876.42534116485
  0
LINE
  8
KADRBM
 62
   211
 10
84091.30070168595
 20
56876.42534116485
 11
84093.48700970074
 21
56872.98971428494
  0
LINE
  8
KADRBM
 62
   211
 10
84093.48700970074
 20
56872.98971428494
 11
84096.22590105934
 21
56872.98971428494
  0
LINE
  8
KADRBM
 62
   211
 10
84096.22590105934
 20
56872.98971428494
 11
84093.36688288616
 21
56877.48245712828
  0
LINE
  8
KADRBM
 62
   211
 10
84093.36688288616
 20
56877.48245712828
 11
84093.34285752405
 21
56877.5064824912
  0
LINE
  8
KADRBM
 62
   211
 10
84093.34285752405
 20
56877.5064824912
 11
84092.47794446314
 21
56878.68372526839
  0
LINE
  8
KADRBM
 62
   211
 10
84092.47794446314
 20
56878.68372526839
 11
84091.54095531348
 21
56879.66876514307
  0
LINE
  8
KADRBM
 62
   211
 10
84091.54095531348
 20
56879.66876514307
 11
84091.46887922555
 21
56879.74084123182
  0
LINE
  8
KADRBM
 62
   211
 10
84091.46887922555
 20
56879.74084123182
 11
84090.2195603596
 21
56880.50965284106
  0
LINE
  8
KADRBM
 62
   211
 10
84089.09036830743
 20
56887.69323631799
 11
84089.18646975991
 21
56887.69323631799
  0
LINE
  8
KADRBM
 62
   211
 10
84089.18646975991
 20
56887.69323631799
 11
84090.7240929784
 21
56887.47700805256
  0
LINE
  8
KADRBM
 62
   211
 10
84090.7240929784
 20
56887.47700805256
 11
84091.78120894101
 21
56886.92442470875
  0
LINE
  8
KADRBM
 62
   211
 10
84091.78120894101
 20
56886.92442470875
 11
84092.28574155981
 21
56886.32379063829
  0
LINE
  8
KADRBM
 62
   211
 10
84092.28574155981
 20
56886.32379063829
 11
84092.62209663901
 21
56885.00239568441
  0
LINE
  8
KADRBM
 62
   211
 10
84092.62209663901
 20
56885.00239568441
 11
84092.62209663901
 21
56884.83421814481
  0
LINE
  8
KADRBM
 62
   211
 10
84092.62209663901
 20
56884.83421814481
 11
84092.18964010896
 21
56883.51282319093
  0
LINE
  8
KADRBM
 62
   211
 10
84092.18964010896
 20
56883.51282319093
 11
84092.04548793146
 21
56883.32062028842
  0
LINE
  8
KADRBM
 62
   211
 10
84092.04548793146
 20
56883.32062028842
 11
84090.892270518
 21
56882.52778331625
  0
LINE
  8
KADRBM
 62
   211
 10
84090.892270518
 20
56882.52778331625
 11
84090.12345890875
 21
56882.33558041374
  0
LINE
  8
KADRBM
 62
   211
 10
84090.12345890875
 20
56882.33558041374
 11
84088.56181032653
 21
56882.21545359997
  0
LINE
  8
KADRBM
 62
   211
 10
84088.56181032653
 20
56882.21545359997
 11
84083.85283921775
 21
56882.21545359997
  0
LINE
  8
KADRBM
 62
   211
 10
84093.75128869119
 20
56882.04727606037
 11
84094.06361840665
 21
56882.40765650249
  0
LINE
  8
KADRBM
 62
   211
 10
84094.06361840665
 20
56882.40765650249
 11
84094.66425247712
 21
56883.60892464178
  0
LINE
  8
KADRBM
 62
   211
 10
84094.66425247712
 20
56883.60892464178
 11
84094.88048074255
 21
56885.00239568441
  0
LINE
  8
KADRBM
 62
   211
 10
84094.88048074255
 20
56885.00239568441
 11
84094.73632856505
 21
56886.20366382452
  0
LINE
  8
KADRBM
 62
   211
 10
84094.73632856505
 20
56886.20366382452
 11
84094.18374522123
 21
56887.50103341548
  0
LINE
  8
KADRBM
 62
   211
 10
84094.18374522123
 20
56887.50103341548
 11
84093.51103506284
 21
56888.34192111348
  0
LINE
  8
KADRBM
 62
   211
 10
84088.99426685658
 20
56889.51916389067
 11
84081.66653120297
 21
56889.51916389067
  0
LINE
  8
KADRBM
 62
   211
 10
84081.66653120297
 20
56889.51916389067
 11
84081.66653120297
 21
56872.98971428494
  0
LINE
  8
KADRBM
 62
   211
 10
84081.66653120297
 20
56872.98971428494
 11
84083.85283921775
 21
56872.98971428494
  0
LINE
  8
KADRBM
 62
   211
 10
84083.85283921775
 20
56872.98971428494
 11
84083.85283921775
 21
56880.31744993855
  0
LINE
  8
KADRBM
 62
   211
 10
84083.85283921775
 20
56880.31744993855
 11
84086.39952767547
 21
56880.31744993855
  0
LINE
  8
KADRBM
 62
   211
 10
84090.2195603596
 20
56880.50965284106
 11
84091.49290458765
 21
56880.74990646941
  0
LINE
  8
KADRBM
 62
   211
 10
84091.49290458765
 20
56880.74990646941
 11
84092.76624881651
 21
56881.27846445031
  0
LINE
  8
KADRBM
 62
   211
 10
84092.76624881651
 20
56881.27846445031
 11
84093.75128869119
 21
56882.04727606037
  0
LINE
  8
KADRBM
 62
   211
 10
84083.85283921775
 20
56882.21545359997
 11
84083.85283921775
 21
56887.69323631799
  0
LINE
  8
KADRBM
 62
   211
 10
84083.85283921775
 20
56887.69323631799
 11
84089.09036830743
 21
56887.69323631799
  0
LINE
  8
KADRBM
 62
   211
 10
84093.51103506284
 20
56888.34192111348
 11
84092.35781764856
 21
56889.06268199689
  0
LINE
  8
KADRBM
 62
   211
 10
84092.35781764856
 20
56889.06268199689
 11
84091.94938648061
 21
56889.20683417439
  0
LINE
  8
KADRBM
 62
   211
 10
84091.94938648061
 20
56889.20683417439
 11
84090.65201689047
 21
56889.44708780274
  0
LINE
  8
KADRBM
 62
   211
 10
84090.65201689047
 20
56889.44708780274
 11
84088.99426685658
 21
56889.51916389067
  0
LINE
  8
KADRBM
 62
   211
 10
84110.08853539359
 20
56878.77982671924
 11
84109.82425640314
 21
56877.8428375704
  0
LINE
  8
KADRBM
 62
   211
 10
84109.82425640314
 20
56877.8428375704
 11
84109.22362233349
 21
56876.59351870527
  0
LINE
  8
KADRBM
 62
   211
 10
84109.22362233349
 20
56876.59351870527
 11
84108.3587092734
 21
56875.63250419269
  0
LINE
  8
KADRBM
 62
   211
 10
84108.3587092734
 20
56875.63250419269
 11
84107.92625274253
 21
56875.29614911349
  0
LINE
  8
KADRBM
 62
   211
 10
84107.92625274253
 20
56875.29614911349
 11
84106.6769338774
 21
56874.74356576886
  0
LINE
  8
KADRBM
 62
   211
 10
84106.6769338774
 20
56874.74356576886
 11
84105.25943747186
 21
56874.57538823008
  0
LINE
  8
KADRBM
 62
   211
 10
84110.2807382961
 20
56874.52733750425
 11
84111.1216259941
 21
56875.56042810476
  0
LINE
  8
KADRBM
 62
   211
 10
84111.1216259941
 20
56875.56042810476
 11
84111.7943361525
 21
56876.78572160778
  0
LINE
  8
KADRBM
 62
   211
 10
84111.7943361525
 20
56876.78572160778
 11
84112.27484340919
 21
56878.22724337543
  0
LINE
  8
KADRBM
 62
   211
 10
84112.27484340919
 20
56878.22724337543
 11
84110.08853539359
 21
56878.77982671924
  0
LINE
  8
KADRBM
 62
   211
 10
84100.40631418722
 20
56888.07764212221
 11
84099.44529967383
 21
56887.09260224835
  0
LINE
  8
KADRBM
 62
   211
 10
84099.44529967383
 20
56887.09260224835
 11
84098.67648806458
 21
56885.89133410824
  0
LINE
  8
KADRBM
 62
   211
 10
84098.67648806458
 20
56885.89133410824
 11
84098.48428516288
 21
56885.53095366612
  0
LINE
  8
KADRBM
 62
   211
 10
84098.48428516288
 20
56885.53095366612
 11
84098.0278032691
 21
56884.25760943808
  0
LINE
  8
KADRBM
 62
   211
 10
84098.0278032691
 20
56884.25760943808
 11
84097.76352427783
 21
56882.86413839545
  0
LINE
  8
KADRBM
 62
   211
 10
84097.76352427783
 20
56882.86413839545
 11
84097.66742282698
 21
56881.37456590198
  0
LINE
  8
KADRBM
 62
   211
 10
84097.66742282698
 20
56881.37456590198
 11
84097.66742282698
 21
56881.06223618569
  0
LINE
  8
KADRBM
 62
   211
 10
84097.66742282698
 20
56881.06223618569
 11
84097.81157500448
 21
56879.62071441805
  0
LINE
  8
KADRBM
 62
   211
 10
84097.81157500448
 20
56879.62071441805
 11
84098.09987935703
 21
56878.25126873753
  0
LINE
  8
KADRBM
 62
   211
 10
84098.09987935703
 20
56878.25126873753
 11
84098.55636125081
 21
56876.92987378447
  0
LINE
  8
KADRBM
 62
   211
 10
84098.55636125081
 20
56876.92987378447
 11
84099.18102068338
 21
56875.72860564436
  0
LINE
  8
KADRBM
 62
   211
 10
84099.18102068338
 20
56875.72860564436
 11
84100.04593374429
 21
56874.64746431801
  0
LINE
  8
KADRBM
 62
   211
 10
84100.04593374429
 20
56874.64746431801
 11
84101.10304970772
 21
56873.7825512571
  0
LINE
  8
KADRBM
 62
   211
 10
84101.10304970772
 20
56873.7825512571
 11
84101.34330333606
 21
56873.63839908042
  0
LINE
  8
KADRBM
 62
   211
 10
84101.34330333606
 20
56873.63839908042
 11
84102.52054611326
 21
56873.1098410987
  0
LINE
  8
KADRBM
 62
   211
 10
84102.52054611326
 20
56873.1098410987
 11
84103.88999179215
 21
56872.79751138242
  0
LINE
  8
KADRBM
 62
   211
 10
84103.88999179215
 20
56872.79751138242
 11
84105.42761501146
 21
56872.70140993157
  0
LINE
  8
KADRBM
 62
   211
 10
84105.42761501146
 20
56872.70140993157
 11
84105.98019835609
 21
56872.70140993157
  0
LINE
  8
KADRBM
 62
   211
 10
84105.98019835609
 20
56872.70140993157
 11
84107.39769476
 21
56872.917638197
  0
LINE
  8
KADRBM
 62
   211
 10
84107.39769476
 20
56872.917638197
 11
84108.67103898886
 21
56873.39814545207
  0
LINE
  8
KADRBM
 62
   211
 10
84108.67103898886
 20
56873.39814545207
 11
84109.80023104104
 21
56874.1189063363
  0
LINE
  8
KADRBM
 62
   211
 10
84109.80023104104
 20
56874.1189063363
 11
84110.2807382961
 21
56874.52733750425
  0
LINE
  8
KADRBM
 62
   211
 10
84105.25943747186
 20
56874.57538823008
 11
84105.11528529436
 21
56874.57538823008
  0
LINE
  8
KADRBM
 62
   211
 10
84105.11528529436
 20
56874.57538823008
 11
84103.74583961547
 21
56874.79161649469
  0
LINE
  8
KADRBM
 62
   211
 10
84103.74583961547
 20
56874.79161649469
 11
84102.44847002451
 21
56875.34419983932
  0
LINE
  8
KADRBM
 62
   211
 10
84102.44847002451
 20
56875.34419983932
 11
84102.20821639616
 21
56875.51237737892
  0
LINE
  8
KADRBM
 62
   211
 10
84102.20821639616
 20
56875.51237737892
 11
84101.24720188358
 21
56876.44936652858
  0
LINE
  8
KADRBM
 62
   211
 10
84101.24720188358
 20
56876.44936652858
 11
84100.55046636309
 21
56877.69868539371
  0
LINE
  8
KADRBM
 62
   211
 10
84100.55046636309
 20
56877.69868539371
 11
84100.28618737264
 21
56878.51554772879
  0
LINE
  8
KADRBM
 62
   211
 10
84100.28618737264
 20
56878.51554772879
 11
84100.02190838137
 21
56879.86096804558
  0
LINE
  8
KADRBM
 62
   211
 10
84100.02190838137
 20
56879.86096804558
 11
84099.92580693052
 21
56881.37456590198
  0
LINE
  8
KADRBM
 62
   211
 10
84099.92580693052
 20
56881.37456590198
 11
84099.92580693052
 21
56881.78299706911
  0
LINE
  8
KADRBM
 62
   211
 10
84099.92580693052
 20
56881.78299706911
 11
84100.09398447012
 21
56883.20049347465
  0
LINE
  8
KADRBM
 62
   211
 10
84100.09398447012
 20
56883.20049347465
 11
84100.45436491142
 21
56884.56993915436
  0
LINE
  8
KADRBM
 62
   211
 10
84100.45436491142
 20
56884.56993915436
 11
84100.55046636309
 21
56884.83421814481
  0
LINE
  8
KADRBM
 62
   211
 10
84100.55046636309
 20
56884.83421814481
 11
84101.24720188358
 21
56886.05951164702
  0
LINE
  8
KADRBM
 62
   211
 10
84101.24720188358
 20
56886.05951164702
 11
84102.25626712118
 21
56887.0205261596
  0
LINE
  8
KADRBM
 62
   211
 10
84102.25626712118
 20
56887.0205261596
 11
84102.68872365286
 21
56887.28480515005
  0
LINE
  8
KADRBM
 62
   211
 10
84102.68872365286
 20
56887.28480515005
 11
84103.93804251717
 21
56887.76531240674
  0
LINE
  8
KADRBM
 62
   211
 10
84103.93804251717
 20
56887.76531240674
 11
84105.42761501146
 21
56887.93348994634
  0
LINE
  8
KADRBM
 62
   211
 10
84105.4756657373
 20
56889.78344288193
 11
84104.10622005677
 21
56889.68734143027
  0
LINE
  8
KADRBM
 62
   211
 10
84104.10622005677
 20
56889.68734143027
 11
84102.73677437787
 21
56889.35098635107
  0
LINE
  8
KADRBM
 62
   211
 10
84102.73677437787
 20
56889.35098635107
 11
84101.46343014902
 21
56888.79840300644
  0
LINE
  8
KADRBM
 62
   211
 10
84101.46343014902
 20
56888.79840300644
 11
84100.40631418722
 21
56888.07764212221
  0
LINE
  8
KADRBM
 62
   211
 10
84105.42761501146
 20
56887.93348994634
 11
84105.57176718814
 21
56887.93348994634
  0
LINE
  8
KADRBM
 62
   211
 10
84105.57176718814
 20
56887.93348994634
 11
84106.98926359368
 21
56887.69323631799
  0
LINE
  8
KADRBM
 62
   211
 10
84106.98926359368
 20
56887.69323631799
 11
84108.16650637006
 21
56887.09260224835
  0
LINE
  8
KADRBM
 62
   211
 10
84108.16650637006
 20
56887.09260224835
 11
84108.4067599976
 21
56886.90039934583
  0
LINE
  8
KADRBM
 62
   211
 10
84108.4067599976
 20
56886.90039934583
 11
84109.22362233349
 21
56885.89133410824
  0
LINE
  8
KADRBM
 62
   211
 10
84109.22362233349
 20
56885.89133410824
 11
84109.84828176606
 21
56884.4738377027
  0
LINE
  8
KADRBM
 62
   211
 10
84109.84828176606
 20
56884.4738377027
 11
84111.98653905583
 21
56884.97837032149
  0
LINE
  8
KADRBM
 62
   211
 10
84111.98653905583
 20
56884.97837032149
 11
84111.9625136921
 21
56885.12252249818
  0
LINE
  8
KADRBM
 62
   211
 10
84111.9625136921
 20
56885.12252249818
 11
84111.38590498618
 21
56886.46794281497
  0
LINE
  8
KADRBM
 62
   211
 10
84111.38590498618
 20
56886.46794281497
 11
84110.6170933753
 21
56887.62116022925
  0
LINE
  8
KADRBM
 62
   211
 10
84110.6170933753
 20
56887.62116022925
 11
84109.63205350144
 21
56888.53412401599
  0
LINE
  8
KADRBM
 62
   211
 10
84109.63205350144
 20
56888.53412401599
 11
84109.46387596184
 21
56888.65425082976
  0
LINE
  8
KADRBM
 62
   211
 10
84109.46387596184
 20
56888.65425082976
 11
84108.28663318465
 21
56889.30293562524
  0
LINE
  8
KADRBM
 62
   211
 10
84108.28663318465
 20
56889.30293562524
 11
84106.96523822995
 21
56889.66331606735
  0
LINE
  8
KADRBM
 62
   211
 10
84106.96523822995
 20
56889.66331606735
 11
84105.4756657373
 21
56889.78344288193
  0
LINE
  8
KADRBM
 62
   211
 10
84127.98743067903
 20
56889.51916389067
 11
84125.80112266424
 21
56889.51916389067
  0
LINE
  8
KADRBM
 62
   211
 10
84125.80112266424
 20
56889.51916389067
 11
84125.80112266424
 21
56882.71998621877
  0
LINE
  8
KADRBM
 62
   211
 10
84125.80112266424
 20
56882.71998621877
 11
84117.2240681455
 21
56882.71998621877
  0
LINE
  8
KADRBM
 62
   211
 10
84125.80112266424
 20
56880.77393183151
 11
84125.80112266424
 21
56872.98971428494
  0
LINE
  8
KADRBM
 62
   211
 10
84125.80112266424
 20
56872.98971428494
 11
84127.98743067903
 21
56872.98971428494
  0
LINE
  8
KADRBM
 62
   211
 10
84127.98743067903
 20
56872.98971428494
 11
84127.98743067903
 21
56889.51916389067
  0
LINE
  8
KADRBM
 62
   211
 10
84117.2240681455
 20
56889.51916389067
 11
84115.03776013071
 21
56889.51916389067
  0
LINE
  8
KADRBM
 62
   211
 10
84115.03776013071
 20
56889.51916389067
 11
84115.03776013071
 21
56872.98971428494
  0
LINE
  8
KADRBM
 62
   211
 10
84115.03776013071
 20
56872.98971428494
 11
84117.2240681455
 21
56872.98971428494
  0
LINE
  8
KADRBM
 62
   211
 10
84117.2240681455
 20
56872.98971428494
 11
84117.2240681455
 21
56880.77393183151
  0
LINE
  8
KADRBM
 62
   211
 10
84117.2240681455
 20
56880.77393183151
 11
84125.80112266424
 21
56880.77393183151
  0
LINE
  8
KADRBM
 62
   211
 10
84117.2240681455
 20
56882.71998621877
 11
84117.2240681455
 21
56889.51916389067
  0
LINE
  8
KADRBM
 62
   211
 10
84131.99966626731
 20
56872.98971428494
 11
84131.99966626731
 21
56889.51916389067
  0
LINE
  8
KADRBM
 62
   211
 10
84131.99966626731
 20
56889.51916389067
 11
84134.18597428128
 21
56889.51916389067
  0
LINE
  8
KADRBM
 62
   211
 10
84134.18597428128
 20
56889.51916389067
 11
84134.18597428128
 21
56872.98971428494
  0
LINE
  8
KADRBM
 62
   211
 10
84134.18597428128
 20
56872.98971428494
 11
84131.99966626731
 21
56872.98971428494
  0
LINE
  8
KADRBM
 62
   211
 10
84131.99966626731
 20
56872.98971428494
 11
84131.99966626731
 21
56872.98971428494
  0
LINE
  8
KADRBM
 62
   211
 10
84149.89856155193
 20
56889.51916389067
 11
84136.80473882693
 21
56889.51916389067
  0
LINE
  8
KADRBM
 62
   211
 10
84136.80473882693
 20
56889.51916389067
 11
84136.80473882693
 21
56887.57310950423
  0
LINE
  8
KADRBM
 62
   211
 10
84136.80473882693
 20
56887.57310950423
 11
84142.25849618122
 21
56887.57310950423
  0
LINE
  8
KADRBM
 62
   211
 10
84142.25849618122
 20
56887.57310950423
 11
84142.25849618122
 21
56872.98971428494
  0
LINE
  8
KADRBM
 62
   211
 10
84142.25849618122
 20
56872.98971428494
 11
84144.44480419601
 21
56872.98971428494
  0
LINE
  8
KADRBM
 62
   211
 10
84144.44480419601
 20
56872.98971428494
 11
84144.44480419601
 21
56887.57310950423
  0
LINE
  8
KADRBM
 62
   211
 10
84144.44480419601
 20
56887.57310950423
 11
84149.89856155193
 21
56887.57310950423
  0
LINE
  8
KADRBM
 62
   211
 10
84149.89856155193
 20
56887.57310950423
 11
84149.89856155193
 21
56889.51916389067
  0
LINE
  8
KADRBM
 62
   211
 10
84164.1215763283
 20
56889.51916389067
 11
84152.18097101757
 21
56889.51916389067
  0
LINE
  8
KADRBM
 62
   211
 10
84152.18097101757
 20
56889.51916389067
 11
84152.18097101757
 21
56872.98971428494
  0
LINE
  8
KADRBM
 62
   211
 10
84152.18097101757
 20
56872.98971428494
 11
84164.50598213333
 21
56872.98971428494
  0
LINE
  8
KADRBM
 62
   211
 10
84164.50598213333
 20
56872.98971428494
 11
84164.50598213333
 21
56874.93576867219
  0
LINE
  8
KADRBM
 62
   211
 10
84164.50598213333
 20
56874.93576867219
 11
84154.36727903236
 21
56874.93576867219
  0
LINE
  8
KADRBM
 62
   211
 10
84154.36727903236
 20
56874.93576867219
 11
84154.36727903236
 21
56880.5577035669
  0
LINE
  8
KADRBM
 62
   211
 10
84154.36727903236
 20
56880.5577035669
 11
84163.49691689573
 21
56880.5577035669
  0
LINE
  8
KADRBM
 62
   211
 10
84163.49691689573
 20
56880.5577035669
 11
84163.49691689573
 21
56882.50375795334
  0
LINE
  8
KADRBM
 62
   211
 10
84163.49691689573
 20
56882.50375795334
 11
84154.36727903236
 21
56882.50375795334
  0
LINE
  8
KADRBM
 62
   211
 10
84154.36727903236
 20
56882.50375795334
 11
84154.36727903236
 21
56887.57310950423
  0
LINE
  8
KADRBM
 62
   211
 10
84154.36727903236
 20
56887.57310950423
 11
84164.1215763283
 21
56887.57310950423
  0
LINE
  8
KADRBM
 62
   211
 10
84164.1215763283
 20
56887.57310950423
 11
84164.1215763283
 21
56889.51916389067
  0
LINE
  8
KADRBM
 62
   211
 10
84179.30560561724
 20
56878.77982671924
 11
84179.06535198889
 21
56877.8428375704
  0
LINE
  8
KADRBM
 62
   211
 10
84179.06535198889
 20
56877.8428375704
 11
84178.44069255632
 21
56876.59351870527
  0
LINE
  8
KADRBM
 62
   211
 10
84178.44069255632
 20
56876.59351870527
 11
84177.59980485914
 21
56875.63250419269
  0
LINE
  8
KADRBM
 62
   211
 10
84177.59980485914
 20
56875.63250419269
 11
84177.14332296618
 21
56875.29614911349
  0
LINE
  8
KADRBM
 62
   211
 10
84177.14332296618
 20
56875.29614911349
 11
84175.91802946315
 21
56874.74356576886
  0
LINE
  8
KADRBM
 62
   211
 10
84175.91802946315
 20
56874.74356576886
 11
84174.4765076947
 21
56874.57538823008
  0
LINE
  8
KADRBM
 62
   211
 10
84179.49780852057
 20
56874.52733750425
 11
84180.36272158066
 21
56875.56042810476
  0
LINE
  8
KADRBM
 62
   211
 10
84180.36272158066
 20
56875.56042810476
 11
84181.01140637533
 21
56876.78572160778
  0
LINE
  8
KADRBM
 62
   211
 10
84181.01140637533
 20
56876.78572160778
 11
84181.49191363202
 21
56878.22724337543
  0
LINE
  8
KADRBM
 62
   211
 10
84181.49191363202
 20
56878.22724337543
 11
84179.30560561724
 21
56878.77982671924
  0
LINE
  8
KADRBM
 62
   211
 10
84169.62338441005
 20
56888.07764212221
 11
84168.66236989747
 21
56887.09260224835
  0
LINE
  8
KADRBM
 62
   211
 10
84168.66236989747
 20
56887.09260224835
 11
84167.89355828823
 21
56885.89133410824
  0
LINE
  8
KADRBM
 62
   211
 10
84167.89355828823
 20
56885.89133410824
 11
84167.72538074863
 21
56885.53095366612
  0
LINE
  8
KADRBM
 62
   211
 10
84167.72538074863
 20
56885.53095366612
 11
84167.26889885566
 21
56884.25760943808
  0
LINE
  8
KADRBM
 62
   211
 10
84167.26889885566
 20
56884.25760943808
 11
84166.98059450148
 21
56882.86413839545
  0
LINE
  8
KADRBM
 62
   211
 10
84166.98059450148
 20
56882.86413839545
 11
84166.90851841273
 21
56881.37456590198
  0
LINE
  8
KADRBM
 62
   211
 10
84166.90851841273
 20
56881.37456590198
 11
84166.90851841273
 21
56881.06223618569
  0
LINE
  8
KADRBM
 62
   211
 10
84166.90851841273
 20
56881.06223618569
 11
84167.02864522731
 21
56879.62071441805
  0
LINE
  8
KADRBM
 62
   211
 10
84167.02864522731
 20
56879.62071441805
 11
84167.31694958068
 21
56878.25126873753
  0
LINE
  8
KADRBM
 62
   211
 10
84167.31694958068
 20
56878.25126873753
 11
84167.77343147446
 21
56876.92987378447
  0
LINE
  8
KADRBM
 62
   211
 10
84167.77343147446
 20
56876.92987378447
 11
84168.42211626912
 21
56875.72860564436
  0
LINE
  8
KADRBM
 62
   211
 10
84168.42211626912
 20
56875.72860564436
 11
84169.26300396712
 21
56874.64746431801
  0
LINE
  8
KADRBM
 62
   211
 10
84169.26300396712
 20
56874.64746431801
 11
84170.32011993136
 21
56873.7825512571
  0
LINE
  8
KADRBM
 62
   211
 10
84170.32011993136
 20
56873.7825512571
 11
84170.5603735589
 21
56873.63839908042
  0
LINE
  8
KADRBM
 62
   211
 10
84170.5603735589
 20
56873.63839908042
 11
84171.73761633609
 21
56873.1098410987
  0
LINE
  8
KADRBM
 62
   211
 10
84171.73761633609
 20
56873.1098410987
 11
84173.1070620158
 21
56872.79751138242
  0
LINE
  8
KADRBM
 62
   211
 10
84173.1070620158
 20
56872.79751138242
 11
84174.66871059721
 21
56872.70140993157
  0
LINE
  8
KADRBM
 62
   211
 10
84174.66871059721
 20
56872.70140993157
 11
84175.19726857892
 21
56872.70140993157
  0
LINE
  8
KADRBM
 62
   211
 10
84175.19726857892
 20
56872.70140993157
 11
84176.61476498365
 21
56872.917638197
  0
LINE
  8
KADRBM
 62
   211
 10
84176.61476498365
 20
56872.917638197
 11
84177.8881092117
 21
56873.39814545207
  0
LINE
  8
KADRBM
 62
   211
 10
84177.8881092117
 20
56873.39814545207
 11
84179.04132662679
 21
56874.1189063363
  0
LINE
  8
KADRBM
 62
   211
 10
84179.04132662679
 20
56874.1189063363
 11
84179.49780852057
 21
56874.52733750425
  0
LINE
  8
KADRBM
 62
   211
 10
84174.4765076947
 20
56874.57538823008
 11
84174.33235551801
 21
56874.57538823008
  0
LINE
  8
KADRBM
 62
   211
 10
84174.33235551801
 20
56874.57538823008
 11
84172.9629098383
 21
56874.79161649469
  0
LINE
  8
KADRBM
 62
   211
 10
84172.9629098383
 20
56874.79161649469
 11
84171.66554024816
 21
56875.34419983932
  0
LINE
  8
KADRBM
 62
   211
 10
84171.66554024816
 20
56875.34419983932
 11
84171.44931198191
 21
56875.51237737892
  0
LINE
  8
KADRBM
 62
   211
 10
84171.44931198191
 20
56875.51237737892
 11
84170.46427210805
 21
56876.44936652858
  0
LINE
  8
KADRBM
 62
   211
 10
84170.46427210805
 20
56876.44936652858
 11
84169.76753658592
 21
56877.69868539371
  0
LINE
  8
KADRBM
 62
   211
 10
84169.76753658592
 20
56877.69868539371
 11
84169.50325759547
 21
56878.51554772879
  0
LINE
  8
KADRBM
 62
   211
 10
84169.50325759547
 20
56878.51554772879
 11
84169.23897860502
 21
56879.86096804558
  0
LINE
  8
KADRBM
 62
   211
 10
84169.23897860502
 20
56879.86096804558
 11
84169.14287715335
 21
56881.37456590198
  0
LINE
  8
KADRBM
 62
   211
 10
84169.14287715335
 20
56881.37456590198
 11
84169.16690251627
 21
56881.78299706911
  0
LINE
  8
KADRBM
 62
   211
 10
84169.16690251627
 20
56881.78299706911
 11
84169.31105469377
 21
56883.20049347465
  0
LINE
  8
KADRBM
 62
   211
 10
84169.31105469377
 20
56883.20049347465
 11
84169.67143513507
 21
56884.56993915436
  0
LINE
  8
KADRBM
 62
   211
 10
84169.67143513507
 20
56884.56993915436
 11
84169.76753658592
 21
56884.83421814481
  0
LINE
  8
KADRBM
 62
   211
 10
84169.76753658592
 20
56884.83421814481
 11
84170.46427210805
 21
56886.05951164702
  0
LINE
  8
KADRBM
 62
   211
 10
84170.46427210805
 20
56886.05951164702
 11
84171.47333734483
 21
56887.0205261596
  0
LINE
  8
KADRBM
 62
   211
 10
84171.47333734483
 20
56887.0205261596
 11
84171.90579387569
 21
56887.28480515005
  0
LINE
  8
KADRBM
 62
   211
 10
84171.90579387569
 20
56887.28480515005
 11
84173.17913810373
 21
56887.76531240674
  0
LINE
  8
KADRBM
 62
   211
 10
84173.17913810373
 20
56887.76531240674
 11
84174.64468523429
 21
56887.93348994634
  0
LINE
  8
KADRBM
 62
   211
 10
84174.69273596094
 20
56889.78344288193
 11
84173.32329028042
 21
56889.68734143027
  0
LINE
  8
KADRBM
 62
   211
 10
84173.32329028042
 20
56889.68734143027
 11
84171.9538446007
 21
56889.35098635107
  0
LINE
  8
KADRBM
 62
   211
 10
84171.9538446007
 20
56889.35098635107
 11
84170.70452573476
 21
56888.79840300644
  0
LINE
  8
KADRBM
 62
   211
 10
84170.70452573476
 20
56888.79840300644
 11
84169.62338441005
 21
56888.07764212221
  0
LINE
  8
KADRBM
 62
   211
 10
84174.64468523429
 20
56887.93348994634
 11
84174.78883741179
 21
56887.93348994634
  0
LINE
  8
KADRBM
 62
   211
 10
84174.78883741179
 20
56887.93348994634
 11
84176.23035917943
 21
56887.69323631799
  0
LINE
  8
KADRBM
 62
   211
 10
84176.23035917943
 20
56887.69323631799
 11
84177.40760195663
 21
56887.09260224835
  0
LINE
  8
KADRBM
 62
   211
 10
84177.40760195663
 20
56887.09260224835
 11
84177.64785558498
 21
56886.90039934583
  0
LINE
  8
KADRBM
 62
   211
 10
84177.64785558498
 20
56886.90039934583
 11
84178.46471791924
 21
56885.89133410824
  0
LINE
  8
KADRBM
 62
   211
 10
84178.46471791924
 20
56885.89133410824
 11
84179.06535198889
 21
56884.4738377027
  0
LINE
  8
KADRBM
 62
   211
 10
84179.06535198889
 20
56884.4738377027
 11
84181.22763464157
 21
56884.97837032149
  0
LINE
  8
KADRBM
 62
   211
 10
84181.22763464157
 20
56884.97837032149
 11
84181.17958391574
 21
56885.12252249818
  0
LINE
  8
KADRBM
 62
   211
 10
84181.17958391574
 20
56885.12252249818
 11
84180.62700057193
 21
56886.46794281497
  0
LINE
  8
KADRBM
 62
   211
 10
84180.62700057193
 20
56886.46794281497
 11
84179.85818896187
 21
56887.62116022925
  0
LINE
  8
KADRBM
 62
   211
 10
84179.85818896187
 20
56887.62116022925
 11
84178.87314908719
 21
56888.53412401599
  0
LINE
  8
KADRBM
 62
   211
 10
84178.87314908719
 20
56888.53412401599
 11
84178.68094618467
 21
56888.65425082976
  0
LINE
  8
KADRBM
 62
   211
 10
84178.68094618467
 20
56888.65425082976
 11
84177.50370340748
 21
56889.30293562524
  0
LINE
  8
KADRBM
 62
   211
 10
84177.50370340748
 20
56889.30293562524
 11
84176.1823084536
 21
56889.66331606735
  0
LINE
  8
KADRBM
 62
   211
 10
84176.1823084536
 20
56889.66331606735
 11
84174.69273596094
 21
56889.78344288193
  0
LINE
  8
KADRBM
 62
   211
 10
84196.0512834884
 20
56889.51916389067
 11
84182.9574607634
 21
56889.51916389067
  0
LINE
  8
KADRBM
 62
   211
 10
84182.9574607634
 20
56889.51916389067
 11
84182.9574607634
 21
56887.57310950423
  0
LINE
  8
KADRBM
 62
   211
 10
84182.9574607634
 20
56887.57310950423
 11
84188.38719275559
 21
56887.57310950423
  0
LINE
  8
KADRBM
 62
   211
 10
84188.38719275559
 20
56887.57310950423
 11
84188.38719275559
 21
56872.98971428494
  0
LINE
  8
KADRBM
 62
   211
 10
84188.38719275559
 20
56872.98971428494
 11
84190.57350077038
 21
56872.98971428494
  0
LINE
  8
KADRBM
 62
   211
 10
84190.57350077038
 20
56872.98971428494
 11
84190.57350077038
 21
56887.57310950423
  0
LINE
  8
KADRBM
 62
   211
 10
84190.57350077038
 20
56887.57310950423
 11
84196.0512834884
 21
56887.57310950423
  0
LINE
  8
KADRBM
 62
   211
 10
84196.0512834884
 20
56887.57310950423
 11
84196.0512834884
 21
56889.51916389067
  0
LINE
  8
KADRBM
 62
   211
 10
84211.30738886527
 20
56889.51916389067
 11
84209.1210808513
 21
56889.51916389067
  0
LINE
  8
KADRBM
 62
   211
 10
84209.1210808513
 20
56889.51916389067
 11
84209.1210808513
 21
56879.98109485935
  0
LINE
  8
KADRBM
 62
   211
 10
84209.1210808513
 20
56879.98109485935
 11
84209.1210808513
 21
56879.64473978015
  0
LINE
  8
KADRBM
 62
   211
 10
84209.1210808513
 20
56879.64473978015
 11
84208.97692867462
 21
56877.93893902206
  0
LINE
  8
KADRBM
 62
   211
 10
84208.97692867462
 20
56877.93893902206
 11
84208.64057359542
 21
56876.6655947932
  0
LINE
  8
KADRBM
 62
   211
 10
84208.64057359542
 20
56876.6655947932
 11
84208.1120156137
 21
56875.77665637019
  0
LINE
  8
KADRBM
 62
   211
 10
84208.1120156137
 20
56875.77665637019
 11
84207.48735618033
 21
56875.27212375139
  0
LINE
  8
KADRBM
 62
   211
 10
84207.48735618033
 20
56875.27212375139
 11
84206.28608804103
 21
56874.81564185761
  0
LINE
  8
KADRBM
 62
   211
 10
84206.28608804103
 20
56874.81564185761
 11
84204.67638873297
 21
56874.67148968093
  0
LINE
  8
KADRBM
 62
   211
 10
84199.9433922621
 20
56874.33513460173
 11
84201.04855895054
 21
56873.49424690373
  0
LINE
  8
KADRBM
 62
   211
 10
84201.04855895054
 20
56873.49424690373
 11
84201.96152273729
 21
56873.1098410987
  0
LINE
  8
KADRBM
 62
   211
 10
84201.96152273729
 20
56873.1098410987
 11
84203.30694305408
 21
56872.79751138242
  0
LINE
  8
KADRBM
 62
   211
 10
84203.30694305408
 20
56872.79751138242
 11
84204.86859163549
 21
56872.70140993157
  0
LINE
  8
KADRBM
 62
   211
 10
84204.86859163549
 20
56872.70140993157
 11
84206.21401195228
 21
56872.77348602032
  0
LINE
  8
KADRBM
 62
   211
 10
84206.21401195228
 20
56872.77348602032
 11
84207.58345763118
 21
56873.0858157366
  0
LINE
  8
KADRBM
 62
   211
 10
84207.58345763118
 20
56873.0858157366
 11
84208.71264968335
 21
56873.6143737175
  0
LINE
  8
KADRBM
 62
   211
 10
84208.71264968335
 20
56873.6143737175
 11
84209.07303012547
 21
56873.85462734585
  0
LINE
  8
KADRBM
 62
   211
 10
84209.07303012547
 20
56873.85462734585
 11
84210.08209536306
 21
56874.81564185761
  0
LINE
  8
KADRBM
 62
   211
 10
84210.08209536306
 20
56874.81564185761
 11
84210.75480552146
 21
56875.9928846348
  0
LINE
  8
KADRBM
 62
   211
 10
84210.75480552146
 20
56875.9928846348
 11
84211.04310987401
 21
56876.95389914738
  0
LINE
  8
KADRBM
 62
   211
 10
84211.04310987401
 20
56876.95389914738
 11
84211.23531277734
 21
56878.32334482628
  0
LINE
  8
KADRBM
 62
   211
 10
84211.23531277734
 20
56878.32334482628
 11
84211.30738886527
 21
56879.95706949725
  0
LINE
  8
KADRBM
 62
   211
 10
84211.30738886527
 20
56879.95706949725
 11
84211.30738886527
 21
56889.51916389067
  0
LINE
  8
KADRBM
 62
   211
 10
84200.52000096883
 20
56889.51916389067
 11
84198.33369295485
 21
56889.51916389067
  0
LINE
  8
KADRBM
 62
   211
 10
84198.33369295485
 20
56889.51916389067
 11
84198.33369295485
 21
56879.95706949725
  0
LINE
  8
KADRBM
 62
   211
 10
84198.33369295485
 20
56879.95706949725
 11
84198.38174367906
 21
56878.34737018919
  0
LINE
  8
KADRBM
 62
   211
 10
84198.38174367906
 20
56878.34737018919
 11
84198.5979719453
 21
56876.95389914738
  0
LINE
  8
KADRBM
 62
   211
 10
84198.5979719453
 20
56876.95389914738
 11
84198.9583523866
 21
56875.82470709521
  0
LINE
  8
KADRBM
 62
   211
 10
84198.9583523866
 20
56875.82470709521
 11
84199.1265299262
 21
56875.44030129099
  0
LINE
  8
KADRBM
 62
   211
 10
84199.1265299262
 20
56875.44030129099
 11
84199.9433922621
 21
56874.33513460173
  0
LINE
  8
KADRBM
 62
   211
 10
84204.67638873297
 20
56874.67148968093
 11
84203.5471966808
 21
56874.76759113259
  0
LINE
  8
KADRBM
 62
   211
 10
84203.5471966808
 20
56874.76759113259
 11
84202.29787781648
 21
56875.22407302556
  0
LINE
  8
KADRBM
 62
   211
 10
84202.29787781648
 20
56875.22407302556
 11
84201.6732183831
 21
56875.65652955561
  0
LINE
  8
KADRBM
 62
   211
 10
84201.6732183831
 20
56875.65652955561
 11
84200.90440677386
 21
56876.80974696988
  0
LINE
  8
KADRBM
 62
   211
 10
84200.90440677386
 20
56876.80974696988
 11
84200.83233068511
 21
56877.05000059823
  0
LINE
  8
KADRBM
 62
   211
 10
84200.83233068511
 20
56877.05000059823
 11
84200.59207705676
 21
56878.29931946336
  0
LINE
  8
KADRBM
 62
   211
 10
84200.59207705676
 20
56878.29931946336
 11
84200.52000096883
 21
56879.98109485935
  0
LINE
  8
KADRBM
 62
   211
 10
84200.52000096883
 20
56879.98109485935
 11
84200.52000096883
 21
56889.51916389067
  0
LINE
  8
KADRBM
 62
   211
 10
84219.71626584523
 20
56880.31744993855
 11
84220.91753398452
 21
56880.24537385062
  0
LINE
  8
KADRBM
 62
   211
 10
84220.91753398452
 20
56880.24537385062
 11
84221.92659922212
 21
56879.81291731975
  0
LINE
  8
KADRBM
 62
   211
 10
84221.92659922212
 20
56879.81291731975
 11
84222.02270067297
 21
56879.74084123182
  0
LINE
  8
KADRBM
 62
   211
 10
84222.02270067297
 20
56879.74084123182
 11
84223.03176591056
 21
56878.70775063131
  0
LINE
  8
KADRBM
 62
   211
 10
84223.03176591056
 20
56878.70775063131
 11
84223.70447606896
 21
56877.77076148165
  0
LINE
  8
KADRBM
 62
   211
 10
84223.70447606896
 20
56877.77076148165
 11
84224.6174398557
 21
56876.42534116485
  0
LINE
  8
KADRBM
 62
   211
 10
84224.6174398557
 20
56876.42534116485
 11
84226.8037478705
 21
56872.98971428494
  0
LINE
  8
KADRBM
 62
   211
 10
84226.8037478705
 20
56872.98971428494
 11
84229.5426392291
 21
56872.98971428494
  0
LINE
  8
KADRBM
 62
   211
 10
84229.5426392291
 20
56872.98971428494
 11
84226.65959569381
 21
56877.48245712828
  0
LINE
  8
KADRBM
 62
   211
 10
84226.65959569381
 20
56877.48245712828
 11
84226.65959569381
 21
56877.5064824912
  0
LINE
  8
KADRBM
 62
   211
 10
84226.65959569381
 20
56877.5064824912
 11
84225.7946826329
 21
56878.68372526839
  0
LINE
  8
KADRBM
 62
   211
 10
84225.7946826329
 20
56878.68372526839
 11
84224.85769348405
 21
56879.66876514307
  0
LINE
  8
KADRBM
 62
   211
 10
84224.85769348405
 20
56879.66876514307
 11
84224.7615920332
 21
56879.74084123182
  0
LINE
  8
KADRBM
 62
   211
 10
84224.7615920332
 20
56879.74084123182
 11
84223.53629853018
 21
56880.50965284106
  0
LINE
  8
KADRBM
 62
   211
 10
84222.40710647881
 20
56887.69323631799
 11
84222.47918256675
 21
56887.69323631799
  0
LINE
  8
KADRBM
 62
   211
 10
84222.47918256675
 20
56887.69323631799
 11
84224.01680578606
 21
56887.47700805256
  0
LINE
  8
KADRBM
 62
   211
 10
84224.01680578606
 20
56887.47700805256
 11
84225.0979471124
 21
56886.92442470875
  0
LINE
  8
KADRBM
 62
   211
 10
84225.0979471124
 20
56886.92442470875
 11
84225.6024797312
 21
56886.32379063829
  0
LINE
  8
KADRBM
 62
   211
 10
84225.6024797312
 20
56886.32379063829
 11
84225.9388348104
 21
56885.00239568441
  0
LINE
  8
KADRBM
 62
   211
 10
84225.9388348104
 20
56885.00239568441
 11
84225.9388348104
 21
56884.83421814481
  0
LINE
  8
KADRBM
 62
   211
 10
84225.9388348104
 20
56884.83421814481
 11
84225.50637827953
 21
56883.51282319093
  0
LINE
  8
KADRBM
 62
   211
 10
84225.50637827953
 20
56883.51282319093
 11
84225.36222610285
 21
56883.32062028842
  0
LINE
  8
KADRBM
 62
   211
 10
84225.36222610285
 20
56883.32062028842
 11
84224.20900868857
 21
56882.52778331625
  0
LINE
  8
KADRBM
 62
   211
 10
84224.20900868857
 20
56882.52778331625
 11
84223.41617171641
 21
56882.33558041374
  0
LINE
  8
KADRBM
 62
   211
 10
84223.41617171641
 20
56882.33558041374
 11
84221.8785484971
 21
56882.21545359997
  0
LINE
  8
KADRBM
 62
   211
 10
84221.8785484971
 20
56882.21545359997
 11
84217.16957738833
 21
56882.21545359997
  0
LINE
  8
KADRBM
 62
   211
 10
84227.04400149884
 20
56882.04727606037
 11
84227.35633121594
 21
56882.40765650249
  0
LINE
  8
KADRBM
 62
   211
 10
84227.35633121594
 20
56882.40765650249
 11
84227.98099064769
 21
56883.60892464178
  0
LINE
  8
KADRBM
 62
   211
 10
84227.98099064769
 20
56883.60892464178
 11
84228.19721891312
 21
56885.00239568441
  0
LINE
  8
KADRBM
 62
   211
 10
84228.19721891312
 20
56885.00239568441
 11
84228.05306673644
 21
56886.20366382452
  0
LINE
  8
KADRBM
 62
   211
 10
84228.05306673644
 20
56886.20366382452
 11
84227.5004833918
 21
56887.50103341548
  0
LINE
  8
KADRBM
 62
   211
 10
84227.5004833918
 20
56887.50103341548
 11
84226.82777323341
 21
56888.34192111348
  0
LINE
  8
KADRBM
 62
   211
 10
84222.31100502796
 20
56889.51916389067
 11
84214.98326937354
 21
56889.51916389067
  0
LINE
  8
KADRBM
 62
   211
 10
84214.98326937354
 20
56889.51916389067
 11
84214.98326937354
 21
56872.98971428494
  0
LINE
  8
KADRBM
 62
   211
 10
84214.98326937354
 20
56872.98971428494
 11
84217.16957738833
 21
56872.98971428494
  0
LINE
  8
KADRBM
 62
   211
 10
84217.16957738833
 20
56872.98971428494
 11
84217.16957738833
 21
56880.31744993855
  0
LINE
  8
KADRBM
 62
   211
 10
84217.16957738833
 20
56880.31744993855
 11
84219.71626584523
 21
56880.31744993855
  0
LINE
  8
KADRBM
 62
   211
 10
84223.53629853018
 20
56880.50965284106
 11
84224.7856173953
 21
56880.74990646941
  0
LINE
  8
KADRBM
 62
   211
 10
84224.7856173953
 20
56880.74990646941
 11
84226.08298698626
 21
56881.27846445031
  0
LINE
  8
KADRBM
 62
   211
 10
84226.08298698626
 20
56881.27846445031
 11
84227.04400149884
 21
56882.04727606037
  0
LINE
  8
KADRBM
 62
   211
 10
84217.16957738833
 20
56882.21545359997
 11
84217.16957738833
 21
56887.69323631799
  0
LINE
  8
KADRBM
 62
   211
 10
84217.16957738833
 20
56887.69323631799
 11
84222.40710647881
 21
56887.69323631799
  0
LINE
  8
KADRBM
 62
   211
 10
84226.82777323341
 20
56888.34192111348
 11
84225.67455581995
 21
56889.06268199689
  0
LINE
  8
KADRBM
 62
   211
 10
84225.67455581995
 20
56889.06268199689
 11
84225.24209928827
 21
56889.20683417439
  0
LINE
  8
KADRBM
 62
   211
 10
84225.24209928827
 20
56889.20683417439
 11
84223.96875506022
 21
56889.44708780274
  0
LINE
  8
KADRBM
 62
   211
 10
84223.96875506022
 20
56889.44708780274
 11
84222.31100502796
 21
56889.51916389067
  0
LINE
  8
KADRBM
 62
   211
 10
84243.59747646749
 20
56889.51916389067
 11
84231.65687115514
 21
56889.51916389067
  0
LINE
  8
KADRBM
 62
   211
 10
84231.65687115514
 20
56889.51916389067
 11
84231.65687115514
 21
56872.98971428494
  0
LINE
  8
KADRBM
 62
   211
 10
84231.65687115514
 20
56872.98971428494
 11
84243.98188227252
 21
56872.98971428494
  0
LINE
  8
KADRBM
 62
   211
 10
84243.98188227252
 20
56872.98971428494
 11
84243.98188227252
 21
56874.93576867219
  0
LINE
  8
KADRBM
 62
   211
 10
84243.98188227252
 20
56874.93576867219
 11
84233.84317917074
 21
56874.93576867219
  0
LINE
  8
KADRBM
 62
   211
 10
84233.84317917074
 20
56874.93576867219
 11
84233.84317917074
 21
56880.5577035669
  0
LINE
  8
KADRBM
 62
   211
 10
84233.84317917074
 20
56880.5577035669
 11
84242.97281703493
 21
56880.5577035669
  0
LINE
  8
KADRBM
 62
   211
 10
84242.97281703493
 20
56880.5577035669
 11
84242.97281703493
 21
56882.50375795334
  0
LINE
  8
KADRBM
 62
   211
 10
84242.97281703493
 20
56882.50375795334
 11
84233.84317917074
 21
56882.50375795334
  0
LINE
  8
KADRBM
 62
   211
 10
84233.84317917074
 20
56882.50375795334
 11
84233.84317917074
 21
56887.57310950423
  0
LINE
  8
KADRBM
 62
   211
 10
84233.84317917074
 20
56887.57310950423
 11
84243.59747646749
 21
56887.57310950423
  0
LINE
  8
KADRBM
 62
   211
 10
84243.59747646749
 20
56887.57310950423
 11
84243.59747646749
 21
56889.51916389067
  0
LINE
  8
KADRBM
 62
   211
 10
84256.03329626017
 20
56890.38695119221
 11
84250.96929197176
 21
56882.74364670859
  0
LINE
  8
KADRBM
 62
   211
 10
84257.84495186422
 20
56889.24966488387
 11
84253.5344466361
 21
56882.74364670859
  0
LINE
  8
KADRBM
 62
   211
 10
84273.55527406838
 20
56880.31781481164
 11
84312.53585006576
 21
56880.31781481164
  0
INSERT
  8
1
 62
    91
  2
*U10
 10
0.0
 20
0.0
 30
0.0
  0
LINE
  8
KADRBM
 62
   211
 10
84274.62116858107
 20
56875.0690022187
 11
84319.50345783657
 21
56875.0690022187
  0
LINE
  8
KADRBM
 62
   211
 10
84312.53585006576
 20
56882.74364670859
 11
84273.55527406838
 21
56882.74364670859
  0
LINE
  8
KADRBM
 62
   211
 10
84319.50345783657
 20
56887.99245930153
 11
84274.62116858107
 21
56887.99245930153
  0
LINE
  8
KADRBM
 62
   211
 10
84273.55527406838
 20
56882.74364670859
 11
84273.55527406838
 21
56880.31781481164
  0
LINE
  8
KADRBM
 62
   211
 10
84319.50345783657
 20
56881.53073076012
 11
84312.53585006576
 21
56882.74364670859
  0
LINE
  8
KADRBM
 62
   211
 10
84319.50345783657
 20
56881.53073076012
 11
84312.53585006576
 21
56880.31781481164
  0
LINE
  8
KADRBM
 62
   211
 10
84262.31308546767
 20
56891.66160830755
 11
84262.31308546767
 21
56882.74364670859
  0
LINE
  8
KADRBM
 62
   211
 10
84262.31308546767
 20
56880.31781481164
 11
84262.31308546767
 21
56871.39985321269
  0
LINE
  8
KADRBM
 62
   211
 10
84259.88725357235
 20
56891.66160830755
 11
84259.88725357235
 21
56882.74364670859
  0
LINE
  8
KADRBM
 62
   211
 10
84259.88725357235
 20
56880.31781481164
 11
84259.88725357235
 21
56871.39985321269
  0
LINE
  8
KADRBM
 62
   211
 10
84250.96929197176
 20
56880.31781481164
 11
84259.88725357235
 21
56880.31781481164
  0
LINE
  8
KADRBM
 62
   211
 10
84262.31308546767
 20
56880.31781481164
 11
84271.23104706744
 21
56880.31781481164
  0
LINE
  8
KADRBM
 62
   211
 10
84253.5344466361
 20
56882.74364670859
 11
84259.88725357235
 21
56882.74364670859
  0
LINE
  8
KADRBM
 62
   211
 10
84262.31308546767
 20
56882.74364670859
 11
84271.23104706744
 21
56882.74364670859
  0
LINE
  8
KADRBM
 62
   211
 10
84259.88725357235
 20
56891.66160830755
 11
84262.31308546767
 21
56891.66160830755
  0
LINE
  8
KADRBM
 62
   211
 10
84271.23104706744
 20
56880.31781481164
 11
84271.23104706744
 21
56882.74364670859
  0
LINE
  8
KADRBM
 62
   211
 10
84259.88725357235
 20
56871.39985321269
 11
84262.31308546767
 21
56871.39985321269
  0
LINE
  8
KADRBM
 62
   211
 10
84250.96929197176
 20
56880.31781481164
 11
84250.96929197176
 21
56882.74364670859
  0
LINE
  8
KADRBM
 62
   211
 10
84256.03329626017
 20
56890.38695119221
 11
84257.84495186422
 21
56889.24966488387
  0
LINE
  8
KADRBM
 62
   211
 10
84259.88725357235
 20
56893.98583530767
 11
84259.88725357235
 21
56911.07797011155
  0
INSERT
  8
1
 62
    91
  2
*U11
 10
0.0
 20
0.0
 30
0.0
  0
LINE
  8
KADRBM
 62
   211
 10
84254.63844097778
 20
56894.76797648442
 11
84254.63844097778
 21
56918.04557788074
  0
LINE
  8
KADRBM
 62
   211
 10
84262.31308546767
 20
56911.07797011155
 11
84262.31308546767
 21
56893.98583530767
  0
LINE
  8
KADRBM
 62
   211
 10
84262.31308546767
 20
56893.98583530767
 11
84259.88725357235
 21
56893.98583530767
  0
LINE
  8
KADRBM
 62
   211
 10
84261.1001695192
 20
56918.04557788074
 11
84262.31308546767
 21
56911.07797011155
  0
LINE
  8
KADRBM
 62
   211
 10
84261.1001695192
 20
56918.04557788074
 11
84259.88725357235
 21
56911.07797011155
  0
LINE
  8
KADRBM
 62
   211
 10
84267.42695426254
 20
56861.00733642832
 11
84267.41003772512
 21
56860.44909071612
  0
LINE
  8
KADRBM
 62
   211
 10
84267.41003772512
 20
56860.44909071612
 11
84267.30853850464
 21
56859.11268431337
  0
LINE
  8
KADRBM
 62
   211
 10
84267.30853850464
 20
56859.11268431337
 11
84267.0886235279
 21
56858.16535825508
  0
LINE
  8
KADRBM
 62
   211
 10
84267.0886235279
 20
56858.16535825508
 11
84266.91945816018
 21
56857.81011098383
  0
LINE
  8
KADRBM
 62
   211
 10
84266.91945816018
 20
56857.81011098383
 11
84266.24279669009
 21
56856.87970146297
  0
LINE
  8
KADRBM
 62
   211
 10
84266.24279669009
 20
56856.87970146297
 11
84265.22780448617
 21
56856.08462423661
  0
LINE
  8
KADRBM
 62
   211
 10
84265.22780448617
 20
56856.08462423661
 11
84264.87255721493
 21
56855.89854233146
  0
LINE
  8
KADRBM
 62
   211
 10
84264.87255721493
 20
56855.89854233146
 11
84263.8575650102
 21
56855.54329506021
  0
LINE
  8
KADRBM
 62
   211
 10
84263.8575650102
 20
56855.54329506021
 11
84262.63957436453
 21
56855.32338008266
  0
LINE
  8
KADRBM
 62
   211
 10
84262.63957436453
 20
56855.32338008266
 11
84261.21858527791
 21
56855.23879739879
  0
LINE
  8
KADRBM
 62
   211
 10
84261.21858527791
 20
56855.23879739879
 11
84260.33892536606
 21
56855.27263047283
  0
LINE
  8
KADRBM
 62
   211
 10
84260.33892536606
 20
56855.27263047283
 11
84259.12093472038
 21
56855.40796276652
  0
LINE
  8
KADRBM
 62
   211
 10
84259.12093472038
 20
56855.40796276652
 11
84258.03827636922
 21
56855.67862735472
  0
LINE
  8
KADRBM
 62
   211
 10
84258.03827636922
 20
56855.67862735472
 11
84258.02135983261
 21
56855.67862735472
  0
LINE
  8
KADRBM
 62
   211
 10
84258.02135983261
 20
56855.67862735472
 11
84256.83720226097
 21
56856.20303999288
  0
LINE
  8
KADRBM
 62
   211
 10
84256.83720226097
 20
56856.20303999288
 11
84255.94062581332
 21
56856.89661800039
  0
LINE
  8
KADRBM
 62
   211
 10
84255.94062581332
 20
56856.89661800039
 11
84255.63612815109
 21
56857.25186527164
  0
LINE
  8
KADRBM
 62
   211
 10
84255.63612815109
 20
56857.25186527164
 11
84255.0778824389
 21
56858.36835669602
  0
LINE
  8
KADRBM
 62
   211
 10
84255.0778824389
 20
56858.36835669602
 11
84255.04404936486
 21
56858.48677245392
  0
LINE
  8
KADRBM
 62
   211
 10
84255.04404936486
 20
56858.48677245392
 11
84254.84105092392
 21
56859.5694308059
  0
LINE
  8
KADRBM
 62
   211
 10
84254.84105092392
 20
56859.5694308059
 11
84254.77338477748
 21
56860.93967028188
  0
LINE
  8
KADRBM
 62
   211
 10
84254.77338477748
 20
56860.93967028188
 11
84254.77338477748
 21
56864.47522646181
  0
LINE
  8
KADRBM
 62
   211
 10
84254.48580365267
 20
56855.3910462291
 11
84255.45004624675
 21
56854.5621359287
  0
LINE
  8
KADRBM
 62
   211
 10
84255.45004624675
 20
56854.5621359287
 11
84255.60229507787
 21
56854.44372017162
  0
LINE
  8
KADRBM
 62
   211
 10
84255.60229507787
 20
56854.44372017162
 11
84256.6172872826
 21
56853.88547445943
  0
LINE
  8
KADRBM
 62
   211
 10
84256.6172872826
 20
56853.88547445943
 11
84257.8521944657
 21
56853.42872796689
  0
LINE
  8
KADRBM
 62
   211
 10
84257.8521944657
 20
56853.42872796689
 11
84258.69802130188
 21
56853.22572952595
  0
LINE
  8
KADRBM
 62
   211
 10
84258.69802130188
 20
56853.22572952595
 11
84259.88217887352
 21
56853.03964762243
  0
LINE
  8
KADRBM
 62
   211
 10
84259.88217887352
 20
56853.03964762243
 11
84261.18475220387
 21
56852.98889801178
  0
LINE
  8
KADRBM
 62
   211
 10
84261.18475220387
 20
56852.98889801178
 11
84261.57383254915
 21
56852.98889801178
  0
LINE
  8
KADRBM
 62
   211
 10
84261.57383254915
 20
56852.98889801178
 11
84262.85948934127
 21
56853.09039723226
  0
LINE
  8
KADRBM
 62
   211
 10
84262.85948934127
 20
56853.09039723226
 11
84264.04364691372
 21
56853.2933956732
  0
LINE
  8
KADRBM
 62
   211
 10
84264.04364691372
 20
56853.2933956732
 11
84265.1263052657
 21
56853.63172640784
  0
LINE
  8
KADRBM
 62
   211
 10
84265.1263052657
 20
56853.63172640784
 11
84266.1074643964
 21
56854.08847290037
  0
LINE
  8
KADRBM
 62
   211
 10
84266.1074643964
 20
56854.08847290037
 11
84267.1055400637
 21
56854.76513436965
  0
LINE
  8
KADRBM
 62
   211
 10
84267.1055400637
 20
56854.76513436965
 11
84267.95136690151
 21
56855.59404467004
  0
LINE
  8
KADRBM
 62
   211
 10
84269.37235598813
 20
56860.9735033551
 11
84269.37235598813
 21
56866.65745970157
  0
LINE
  8
KADRBM
 62
   211
 10
84269.37235598813
 20
56866.65745970157
 11
84252.82798305189
 21
56866.65745970157
  0
LINE
  8
KADRBM
 62
   211
 10
84252.82798305189
 20
56866.65745970157
 11
84252.82798305189
 21
56860.7028387669
  0
LINE
  8
KADRBM
 62
   211
 10
84252.82798305189
 20
56860.7028387669
 11
84252.82798305189
 21
56860.43217417951
  0
LINE
  8
KADRBM
 62
   211
 10
84252.82798305189
 20
56860.43217417951
 11
84252.91256573494
 21
56859.16343392401
  0
LINE
  8
KADRBM
 62
   211
 10
84252.91256573494
 20
56859.16343392401
 11
84253.09864764009
 21
56858.03002596139
  0
LINE
  8
KADRBM
 62
   211
 10
84253.09864764009
 20
56858.03002596139
 11
84253.40314530069
 21
56857.09961644134
  0
LINE
  8
KADRBM
 62
   211
 10
84253.40314530069
 20
56857.09961644134
 11
84253.94447447709
 21
56856.05079116258
  0
LINE
  8
KADRBM
 62
   211
 10
84253.94447447709
 20
56856.05079116258
 11
84254.48580365267
 21
56855.3910462291
  0
LINE
  8
KADRBM
 62
   211
 10
84254.77338477748
 20
56864.47522646181
 11
84267.42695426254
 21
56864.47522646181
  0
LINE
  8
KADRBM
 62
   211
 10
84267.42695426254
 20
56864.47522646181
 11
84267.42695426254
 21
56861.00733642832
  0
LINE
  8
KADRBM
 62
   211
 10
84267.95136690151
 20
56855.59404467004
 11
84268.13744880585
 21
56855.83087618502
  0
LINE
  8
KADRBM
 62
   211
 10
84268.13744880585
 20
56855.83087618502
 11
84268.74644412869
 21
56856.84586838975
  0
LINE
  8
KADRBM
 62
   211
 10
84268.74644412869
 20
56856.84586838975
 11
84269.13552447315
 21
56858.03002596139
  0
LINE
  8
KADRBM
 62
   211
 10
84269.13552447315
 20
56858.03002596139
 11
84269.22010715702
 21
56858.40218977006
  0
LINE
  8
KADRBM
 62
   211
 10
84269.22010715702
 20
56858.40218977006
 11
84269.3385229141
 21
56859.53559773187
  0
LINE
  8
KADRBM
 62
   211
 10
84269.3385229141
 20
56859.53559773187
 11
84269.37235598813
 21
56860.9735033551
  0
LINE
  8
KADRBM
 62
   211
 10
84269.37235598813
 20
56837.96701338263
 11
84269.37235598813
 21
56849.92700486099
  0
LINE
  8
KADRBM
 62
   211
 10
84269.37235598813
 20
56849.92700486099
 11
84252.82798305189
 21
56849.92700486099
  0
LINE
  8
KADRBM
 62
   211
 10
84252.82798305189
 20
56849.92700486099
 11
84252.82798305189
 21
56837.59484957396
  0
LINE
  8
KADRBM
 62
   211
 10
84252.82798305189
 20
56837.59484957396
 11
84254.77338477748
 21
56837.59484957396
  0
LINE
  8
KADRBM
 62
   211
 10
84254.77338477748
 20
56837.59484957396
 11
84254.77338477748
 21
56847.74477162123
  0
LINE
  8
KADRBM
 62
   211
 10
84254.77338477748
 20
56847.74477162123
 11
84260.40659151413
 21
56847.74477162123
  0
LINE
  8
KADRBM
 62
   211
 10
84260.40659151413
 20
56847.74477162123
 11
84260.40659151413
 21
56838.59292524208
  0
LINE
  8
KADRBM
 62
   211
 10
84260.40659151413
 20
56838.59292524208
 11
84262.3519932389
 21
56838.59292524208
  0
LINE
  8
KADRBM
 62
   211
 10
84262.3519932389
 20
56838.59292524208
 11
84262.3519932389
 21
56847.74477162123
  0
LINE
  8
KADRBM
 62
   211
 10
84262.3519932389
 20
56847.74477162123
 11
84267.42695426254
 21
56847.74477162123
  0
LINE
  8
KADRBM
 62
   211
 10
84267.42695426254
 20
56847.74477162123
 11
84267.42695426254
 21
56837.96701338263
  0
LINE
  8
KADRBM
 62
   211
 10
84267.42695426254
 20
56837.96701338263
 11
84269.37235598813
 21
56837.96701338263
  0
LINE
  8
KADRBM
 62
   211
 10
84258.32585749403
 20
56833.24729963105
 11
84258.13977558969
 21
56835.31111711373
  0
LINE
  8
KADRBM
 62
   211
 10
84258.13977558969
 20
56835.31111711373
 11
84257.39544797316
 21
56835.24345096647
  0
LINE
  8
KADRBM
 62
   211
 10
84257.39544797316
 20
56835.24345096647
 11
84256.22820693813
 21
56834.93895330506
  0
LINE
  8
KADRBM
 62
   211
 10
84256.22820693813
 20
56834.93895330506
 11
84255.17938165937
 21
56834.39762412947
  0
LINE
  8
KADRBM
 62
   211
 10
84255.17938165937
 20
56834.39762412947
 11
84254.60421941057
 21
56833.95779417436
  0
LINE
  8
KADRBM
 62
   211
 10
84254.60421941057
 20
56833.95779417436
 11
84253.79222564679
 21
56833.07813426333
  0
LINE
  8
KADRBM
 62
   211
 10
84253.79222564679
 20
56833.07813426333
 11
84253.20014685974
 21
56832.01239244796
  0
LINE
  8
KADRBM
 62
   211
 10
84253.20014685974
 20
56832.01239244796
 11
84253.1324807133
 21
56831.86014361765
  0
LINE
  8
KADRBM
 62
   211
 10
84253.1324807133
 20
56831.86014361765
 11
84252.81106651446
 21
56830.81131833971
  0
LINE
  8
KADRBM
 62
   211
 10
84252.81106651446
 20
56830.81131833971
 11
84252.60806807352
 21
56829.61024423064
  0
LINE
  8
KADRBM
 62
   211
 10
84252.60806807352
 20
56829.61024423064
 11
84252.54040192708
 21
56828.25692129128
  0
LINE
  8
KADRBM
 62
   211
 10
84252.54040192708
 20
56828.25692129128
 11
84252.59115153691
 21
56827.36034484363
  0
LINE
  8
KADRBM
 62
   211
 10
84252.59115153691
 20
56827.36034484363
 11
84252.79414997785
 21
56826.15927073457
  0
LINE
  8
KADRBM
 62
   211
 10
84252.79414997785
 20
56826.15927073457
 11
84253.20014685974
 21
56825.05969584679
  0
LINE
  8
KADRBM
 62
   211
 10
84253.20014685974
 20
56825.05969584679
 11
84253.40314530069
 21
56824.63678242748
  0
LINE
  8
KADRBM
 62
   211
 10
84253.40314530069
 20
56824.63678242748
 11
84254.11363984481
 21
56823.65562329679
  0
LINE
  8
KADRBM
 62
   211
 10
84254.5027201901
 20
56828.35842051175
 11
84254.5027201901
 21
56828.54450241609
  0
LINE
  8
KADRBM
 62
   211
 10
84254.5027201901
 20
56828.54450241609
 11
84254.6549690204
 21
56829.77940959756
  0
LINE
  8
KADRBM
 62
   211
 10
84254.6549690204
 20
56829.77940959756
 11
84255.01021629246
 21
56830.89590102276
  0
LINE
  8
KADRBM
 62
   211
 10
84255.01021629246
 20
56830.89590102276
 11
84255.48387932079
 21
56831.75864439718
  0
LINE
  8
KADRBM
 62
   211
 10
84255.48387932079
 20
56831.75864439718
 11
84256.29587308457
 21
56832.55372162435
  0
LINE
  8
KADRBM
 62
   211
 10
84256.29587308457
 20
56832.55372162435
 11
84257.07403377432
 21
56832.95971850624
  0
LINE
  8
KADRBM
 62
   211
 10
84257.07403377432
 20
56832.95971850624
 11
84258.32585749403
 21
56833.24729963105
  0
LINE
  8
KADRBM
 62
   211
 10
84268.32353070937
 20
56833.19655002041
 11
84267.44387079915
 21
56833.95779417436
  0
LINE
  8
KADRBM
 62
   211
 10
84267.44387079915
 20
56833.95779417436
 11
84267.3931211885
 21
56834.00854378419
  0
LINE
  8
KADRBM
 62
   211
 10
84267.3931211885
 20
56834.00854378419
 11
84266.27662976412
 21
56834.51603988656
  0
LINE
  8
KADRBM
 62
   211
 10
84266.27662976412
 20
56834.51603988656
 11
84265.09247219167
 21
56834.66828871767
  0
LINE
  8
KADRBM
 62
   211
 10
84265.09247219167
 20
56834.66828871767
 11
84264.12822959758
 21
56834.5667894972
  0
LINE
  8
KADRBM
 62
   211
 10
84264.12822959758
 20
56834.5667894972
 11
84263.04557124642
 21
56834.09312646805
  0
LINE
  8
KADRBM
 62
   211
 10
84263.04557124642
 20
56834.09312646805
 11
84262.21666094521
 21
56833.38263192475
  0
LINE
  8
KADRBM
 62
   211
 10
84262.21666094521
 20
56833.38263192475
 11
84261.48924986529
 21
56832.3338066468
  0
LINE
  8
KADRBM
 62
   211
 10
84261.48924986529
 20
56832.3338066468
 11
84261.21858527791
 21
56831.72481132396
  0
LINE
  8
KADRBM
 62
   211
 10
84261.21858527791
 20
56831.72481132396
 11
84260.86333800585
 21
56830.60831989876
  0
LINE
  8
KADRBM
 62
   211
 10
84260.86333800585
 20
56830.60831989876
 11
84260.47425766056
 21
56829.1365812015
  0
LINE
  8
KADRBM
 62
   211
 10
84260.47425766056
 20
56829.1365812015
 11
84260.25434268301
 21
56828.2907543645
  0
LINE
  8
KADRBM
 62
   211
 10
84260.25434268301
 20
56828.2907543645
 11
84259.91601194756
 21
56826.98818103496
  0
LINE
  8
KADRBM
 62
   211
 10
84259.91601194756
 20
56826.98818103496
 11
84259.66226389678
 21
56826.19310380779
  0
LINE
  8
KADRBM
 62
   211
 10
84259.66226389678
 20
56826.19310380779
 11
84259.37468277197
 21
56825.56719194834
  0
LINE
  8
KADRBM
 62
   211
 10
84259.37468277197
 20
56825.56719194834
 11
84258.68110476527
 21
56824.70444857473
  0
LINE
  8
KADRBM
 62
   211
 10
84258.68110476527
 20
56824.70444857473
 11
84258.4611897869
 21
56824.55219974362
  0
LINE
  8
KADRBM
 62
   211
 10
84258.4611897869
 20
56824.55219974362
 11
84257.3108652893
 21
56824.24770208301
  0
LINE
  8
KADRBM
 62
   211
 10
84257.3108652893
 20
56824.24770208301
 11
84257.00636762788
 21
56824.26461861962
  0
LINE
  8
KADRBM
 62
   211
 10
84257.00636762788
 20
56824.26461861962
 11
84255.90679273929
 21
56824.72136511134
  0
LINE
  8
KADRBM
 62
   211
 10
84255.90679273929
 20
56824.72136511134
 11
84255.51771239482
 21
56825.0766123834
  0
LINE
  8
KADRBM
 62
   211
 10
84255.51771239482
 20
56825.0766123834
 11
84254.87488399795
 21
56826.14235419796
  0
LINE
  8
KADRBM
 62
   211
 10
84254.87488399795
 20
56826.14235419796
 11
84254.62113594636
 21
56827.08968025625
  0
LINE
  8
KADRBM
 62
   211
 10
84254.62113594636
 20
56827.08968025625
 11
84254.5027201901
 21
56828.35842051175
  0
LINE
  8
KADRBM
 62
   211
 10
84254.11363984481
 20
56823.65562329679
 11
84255.01021629246
 21
56822.89437914283
  0
LINE
  8
KADRBM
 62
   211
 10
84255.01021629246
 20
56822.89437914283
 11
84255.2132147334
 21
56822.77596338575
  0
LINE
  8
KADRBM
 62
   211
 10
84255.2132147334
 20
56822.77596338575
 11
84256.31278962118
 21
56822.3023003566
  0
LINE
  8
KADRBM
 62
   211
 10
84256.31278962118
 20
56822.3023003566
 11
84257.49694719363
 21
56822.13313498969
  0
LINE
  8
KADRBM
 62
   211
 10
84257.49694719363
 20
56822.13313498969
 11
84257.58152987668
 21
56822.13313498969
  0
LINE
  8
KADRBM
 62
   211
 10
84257.58152987668
 20
56822.13313498969
 11
84258.79952052236
 21
56822.31921689321
  0
LINE
  8
KADRBM
 62
   211
 10
84258.79952052236
 20
56822.31921689321
 11
84259.86526233773
 21
56822.82671299639
  0
LINE
  8
KADRBM
 62
   211
 10
84259.86526233773
 20
56822.82671299639
 11
84260.10209385189
 21
56823.01279489991
  0
LINE
  8
KADRBM
 62
   211
 10
84260.10209385189
 20
56823.01279489991
 11
84260.88025454246
 21
56823.84170520112
  0
LINE
  8
KADRBM
 62
   211
 10
84260.88025454246
 20
56823.84170520112
 11
84261.53999947512
 21
56824.95819662551
  0
LINE
  8
KADRBM
 62
   211
 10
84261.53999947512
 20
56824.95819662551
 11
84261.57383254915
 21
56825.04277930937
  0
LINE
  8
KADRBM
 62
   211
 10
84261.57383254915
 20
56825.04277930937
 11
84261.87833021057
 21
56825.88860614637
  0
LINE
  8
KADRBM
 62
   211
 10
84261.87833021057
 20
56825.88860614637
 11
84262.23357748264
 21
56827.07276371882
  0
LINE
  8
KADRBM
 62
   211
 10
84262.23357748264
 20
56827.07276371882
 11
84262.60574129049
 21
56828.61216856253
  0
LINE
  8
KADRBM
 62
   211
 10
84262.60574129049
 20
56828.61216856253
 11
84262.97790509835
 21
56830.08390725897
  0
LINE
  8
KADRBM
 62
   211
 10
84262.97790509835
 20
56830.08390725897
 11
84263.38390198024
 21
56831.25114829482
  0
LINE
  8
KADRBM
 62
   211
 10
84263.38390198024
 20
56831.25114829482
 11
84263.77298232552
 21
56831.92780976491
  0
LINE
  8
KADRBM
 62
   211
 10
84263.77298232552
 20
56831.92780976491
 11
84264.12822959758
 21
56832.23230742633
  0
LINE
  8
KADRBM
 62
   211
 10
84264.12822959758
 20
56832.23230742633
 11
84265.24472102278
 21
56832.57063816096
  0
LINE
  8
KADRBM
 62
   211
 10
84265.24472102278
 20
56832.57063816096
 11
84266.05671478657
 21
56832.40147279405
  0
LINE
  8
KADRBM
 62
   211
 10
84266.05671478657
 20
56832.40147279405
 11
84267.00404084323
 21
56831.65714517671
  0
LINE
  8
KADRBM
 62
   211
 10
84267.00404084323
 20
56831.65714517671
 11
84267.27470543224
 21
56831.23423175821
  0
LINE
  8
KADRBM
 62
   211
 10
84267.27470543224
 20
56831.23423175821
 11
84267.61303616606
 21
56830.16848994365
  0
LINE
  8
KADRBM
 62
   211
 10
84267.61303616606
 20
56830.16848994365
 11
84267.73145192396
 21
56828.76441739364
  0
LINE
  8
KADRBM
 62
   211
 10
84269.65993711294
 20
56828.84900007751
 11
84269.64302057552
 21
56829.55949462081
  0
LINE
  8
KADRBM
 62
   211
 10
84269.64302057552
 20
56829.55949462081
 11
84269.456938672
 21
56830.77748526649
  0
LINE
  8
KADRBM
 62
   211
 10
84269.456938672
 20
56830.77748526649
 11
84269.10169140075
 21
56831.89397669169
  0
LINE
  8
KADRBM
 62
   211
 10
84269.10169140075
 20
56831.89397669169
 11
84268.98327564285
 21
56832.16464127907
  0
LINE
  8
KADRBM
 62
   211
 10
84268.98327564285
 20
56832.16464127907
 11
84268.32353070937
 21
56833.19655002041
  0
LINE
  8
KADRBM
 62
   211
 10
84267.73145192396
 20
56828.76441739364
 11
84267.69761885074
 21
56827.98625670308
  0
LINE
  8
KADRBM
 62
   211
 10
84267.69761885074
 20
56827.98625670308
 11
84267.44387079915
 21
56826.78518259402
  0
LINE
  8
KADRBM
 62
   211
 10
84267.44387079915
 20
56826.78518259402
 11
84266.93637469679
 21
56825.87168961058
  0
LINE
  8
KADRBM
 62
   211
 10
84266.93637469679
 20
56825.87168961058
 11
84266.73337625584
 21
56825.66869116963
  0
LINE
  8
KADRBM
 62
   211
 10
84266.73337625584
 20
56825.66869116963
 11
84265.80296673498
 21
56825.04277930937
  0
LINE
  8
KADRBM
 62
   211
 10
84265.80296673498
 20
56825.04277930937
 11
84264.55114301527
 21
56824.73828164795
  0
LINE
  8
KADRBM
 62
   211
 10
84264.55114301527
 20
56824.73828164795
 11
84264.72030838381
 21
56822.64063109206
  0
LINE
  8
KADRBM
 62
   211
 10
84264.72030838381
 20
56822.64063109206
 11
84265.07555565587
 21
56822.65754762867
  0
LINE
  8
KADRBM
 62
   211
 10
84265.07555565587
 20
56822.65754762867
 11
84266.25971322751
 21
56822.92821221605
  0
LINE
  8
KADRBM
 62
   211
 10
84266.25971322751
 20
56822.92821221605
 11
84267.32545504207
 21
56823.45262485584
  0
LINE
  8
KADRBM
 62
   211
 10
84267.32545504207
 20
56823.45262485584
 11
84267.6468692401
 21
56823.67253983339
  0
LINE
  8
KADRBM
 62
   211
 10
84267.6468692401
 20
56823.67253983339
 11
84268.45886300388
 21
56824.5183666704
  0
LINE
  8
KADRBM
 62
   211
 10
84268.45886300388
 20
56824.5183666704
 11
84269.06785832671
 21
56825.60102502238
  0
LINE
  8
KADRBM
 62
   211
 10
84269.06785832671
 20
56825.60102502238
 11
84269.35543945152
 21
56826.39610224873
  0
LINE
  8
KADRBM
 62
   211
 10
84269.35543945152
 20
56826.39610224873
 11
84269.57535442908
 21
56827.56334328458
  0
LINE
  8
KADRBM
 62
   211
 10
84269.57535442908
 20
56827.56334328458
 11
84269.65993711294
 21
56828.84900007751
  0
LINE
  8
KADRBM
 62
   211
 10
84252.82798305189
 20
56818.78366071409
 11
84269.37235598813
 21
56818.78366071409
  0
LINE
  8
KADRBM
 62
   211
 10
84269.37235598813
 20
56818.78366071409
 11
84269.37235598813
 21
56816.58451093773
  0
LINE
  8
KADRBM
 62
   211
 10
84269.37235598813
 20
56816.58451093773
 11
84252.82798305189
 21
56816.58451093773
  0
LINE
  8
KADRBM
 62
   211
 10
84252.82798305189
 20
56816.58451093773
 11
84252.82798305189
 21
56818.78366071409
  0
LINE
  8
KADRBM
 62
   211
 10
84252.82798305189
 20
56818.78366071409
 11
84252.82798305189
 21
56818.78366071409
  0
LINE
  8
KADRBM
 62
   211
 10
84261.26933488774
 20
56797.97632051799
 11
84261.25241835031
 21
56804.99668326722
  0
LINE
  8
KADRBM
 62
   211
 10
84261.25241835031
 20
56804.99668326722
 11
84259.32393316133
 21
56804.99668326722
  0
LINE
  8
KADRBM
 62
   211
 10
84259.32393316133
 20
56804.99668326722
 11
84259.32393316133
 21
56800.12472068453
  0
LINE
  8
KADRBM
 62
   211
 10
84259.32393316133
 20
56800.12472068453
 11
84256.22820693813
 21
56800.12472068453
  0
LINE
  8
KADRBM
 62
   211
 10
84256.22820693813
 20
56800.12472068453
 11
84255.6530446877
 21
56800.95363098492
  0
LINE
  8
KADRBM
 62
   211
 10
84255.6530446877
 20
56800.95363098492
 11
84255.0778824389
 21
56802.17162163059
  0
LINE
  8
KADRBM
 62
   211
 10
84255.0778824389
 20
56802.17162163059
 11
84254.9256336086
 21
56802.57761851249
  0
LINE
  8
KADRBM
 62
   211
 10
84254.9256336086
 20
56802.57761851249
 11
84254.62113594636
 21
56803.74485954833
  0
LINE
  8
KADRBM
 62
   211
 10
84254.62113594636
 20
56803.74485954833
 11
84254.5196367267
 21
56804.962850194
  0
LINE
  8
KADRBM
 62
   211
 10
84254.3843044322
 20
56799.00822925933
 11
84255.12863204954
 21
56797.97632051799
  0
LINE
  8
KADRBM
 62
   211
 10
84255.12863204954
 20
56797.97632051799
 11
84261.26933488774
 21
56797.97632051799
  0
LINE
  8
KADRBM
 62
   211
 10
84268.28969763697
 20
56809.97014507039
 11
84267.52845348301
 21
56810.86672151803
  0
LINE
  8
KADRBM
 62
   211
 10
84267.52845348301
 20
56810.86672151803
 11
84266.61496049876
 21
56811.64488220778
  0
LINE
  8
KADRBM
 62
   211
 10
84266.61496049876
 20
56811.64488220778
 11
84265.53230214678
 21
56812.27079406723
  0
LINE
  8
KADRBM
 62
   211
 10
84265.53230214678
 20
56812.27079406723
 11
84264.60189262591
 21
56812.65987441251
  0
LINE
  8
KADRBM
 62
   211
 10
84264.60189262591
 20
56812.65987441251
 11
84263.45156812831
 21
56813.01512168375
  0
LINE
  8
KADRBM
 62
   211
 10
84263.45156812831
 20
56813.01512168375
 11
84262.25049401843
 21
56813.2181201247
  0
LINE
  8
KADRBM
 62
   211
 10
84262.25049401843
 20
56813.2181201247
 11
84261.01558683696
 21
56813.28578627195
  0
LINE
  8
KADRBM
 62
   211
 10
84261.01558683696
 20
56813.28578627195
 11
84260.05134424206
 21
56813.23503666212
  0
LINE
  8
KADRBM
 62
   211
 10
84260.05134424206
 20
56813.23503666212
 11
84258.83335359639
 21
56813.0658712944
  0
LINE
  8
KADRBM
 62
   211
 10
84258.83335359639
 20
56813.0658712944
 11
84257.68302909716
 21
56812.72754055976
  0
LINE
  8
KADRBM
 62
   211
 10
84257.68302909716
 20
56812.72754055976
 11
84256.60037074599
 21
56812.27079406723
  0
LINE
  8
KADRBM
 62
   211
 10
84256.60037074599
 20
56812.27079406723
 11
84255.97445888654
 21
56811.89863025855
  0
LINE
  8
KADRBM
 62
   211
 10
84255.97445888654
 20
56811.89863025855
 11
84255.04404936486
 21
56811.17121917864
  0
LINE
  8
KADRBM
 62
   211
 10
84255.04404936486
 20
56811.17121917864
 11
84254.2489721385
 21
56810.29155926841
  0
LINE
  8
KADRBM
 62
   211
 10
84254.2489721385
 20
56810.29155926841
 11
84253.58922720584
 21
56809.25965052708
  0
LINE
  8
KADRBM
 62
   211
 10
84253.58922720584
 20
56809.25965052708
 11
84253.20014685974
 21
56808.41382368926
  0
LINE
  8
KADRBM
 62
   211
 10
84253.20014685974
 20
56808.41382368926
 11
84252.82798305189
 21
56807.28041572745
  0
LINE
  8
KADRBM
 62
   211
 10
84252.82798305189
 20
56807.28041572745
 11
84252.60806807352
 21
56806.0793416192
  0
LINE
  8
KADRBM
 62
   211
 10
84252.60806807352
 20
56806.0793416192
 11
84252.54040192708
 21
56804.8275178995
  0
LINE
  8
KADRBM
 62
   211
 10
84252.54040192708
 20
56804.8275178995
 11
84252.60806807352
 21
56803.67719340108
  0
LINE
  8
KADRBM
 62
   211
 10
84252.60806807352
 20
56803.67719340108
 11
84252.82798305189
 21
56802.47611929201
  0
LINE
  8
KADRBM
 62
   211
 10
84252.82798305189
 20
56802.47611929201
 11
84253.20014685974
 21
56801.30887825698
  0
LINE
  8
KADRBM
 62
   211
 10
84253.20014685974
 20
56801.30887825698
 11
84253.267813007
 21
56801.12279635265
  0
LINE
  8
KADRBM
 62
   211
 10
84253.267813007
 20
56801.12279635265
 11
84253.75839257275
 21
56800.05705453809
  0
LINE
  8
KADRBM
 62
   211
 10
84253.75839257275
 20
56800.05705453809
 11
84254.3843044322
 21
56799.00822925933
  0
LINE
  8
KADRBM
 62
   211
 10
84254.5196367267
 20
56804.962850194
 11
84254.55346979992
 21
56805.74101088375
  0
LINE
  8
KADRBM
 62
   211
 10
84254.55346979992
 20
56805.74101088375
 11
84254.79030131409
 21
56806.9251684562
  0
LINE
  8
KADRBM
 62
   211
 10
84254.79030131409
 20
56806.9251684562
 11
84255.24704780581
 21
56808.0416598814
  0
LINE
  8
KADRBM
 62
   211
 10
84255.24704780581
 20
56808.0416598814
 11
84255.63612815109
 21
56808.71832135068
  0
LINE
  8
KADRBM
 62
   211
 10
84255.63612815109
 20
56808.71832135068
 11
84256.43120537908
 21
56809.58106472511
  0
LINE
  8
KADRBM
 62
   211
 10
84256.43120537908
 20
56809.58106472511
 11
84257.4461975838
 21
56810.2577261952
  0
LINE
  8
KADRBM
 62
   211
 10
84257.4461975838
 20
56810.2577261952
 11
84257.59844641411
 21
56810.32539234163
  0
LINE
  8
KADRBM
 62
   211
 10
84257.59844641411
 20
56810.32539234163
 11
84258.63035515544
 21
56810.71447268692
  0
LINE
  8
KADRBM
 62
   211
 10
84258.63035515544
 20
56810.71447268692
 11
84259.81451272708
 21
56810.95130420108
  0
LINE
  8
KADRBM
 62
   211
 10
84259.81451272708
 20
56810.95130420108
 11
84261.15091912984
 21
56811.01897034833
  0
LINE
  8
KADRBM
 62
   211
 10
84261.15091912984
 20
56811.01897034833
 11
84262.16591133457
 21
56810.96822073769
  0
LINE
  8
KADRBM
 62
   211
 10
84262.16591133457
 20
56810.96822073769
 11
84263.36698544363
 21
56810.76522229674
  0
LINE
  8
KADRBM
 62
   211
 10
84263.36698544363
 20
56810.76522229674
 11
84264.48347686883
 21
56810.39305848889
  0
LINE
  8
KADRBM
 62
   211
 10
84264.48347686883
 20
56810.39305848889
 11
84265.14322180231
 21
56810.07164429086
  0
LINE
  8
KADRBM
 62
   211
 10
84265.14322180231
 20
56810.07164429086
 11
84266.124380933
 21
56809.34423321013
  0
LINE
  8
KADRBM
 62
   211
 10
84266.124380933
 20
56809.34423321013
 11
84266.71645971923
 21
56808.68448827746
  0
LINE
  8
KADRBM
 62
   211
 10
84266.71645971923
 20
56808.68448827746
 11
84267.34237157868
 21
56807.58491338887
  0
LINE
  8
KADRBM
 62
   211
 10
84267.34237157868
 20
56807.58491338887
 11
84267.41003772512
 21
56807.39883148453
  0
LINE
  8
KADRBM
 62
   211
 10
84267.41003772512
 20
56807.39883148453
 11
84267.69761885074
 21
56806.28234006015
  0
LINE
  8
KADRBM
 62
   211
 10
84267.69761885074
 20
56806.28234006015
 11
84267.7822015346
 21
56804.99668326722
  0
LINE
  8
KADRBM
 62
   211
 10
84269.65993711294
 20
56804.99668326722
 11
84269.6261040389
 21
56805.9440093247
  0
LINE
  8
KADRBM
 62
   211
 10
84269.6261040389
 20
56805.9440093247
 11
84269.44002213457
 21
56807.17891650698
  0
LINE
  8
KADRBM
 62
   211
 10
84269.44002213457
 20
56807.17891650698
 11
84269.11860793736
 21
56808.31232446879
  0
LINE
  8
KADRBM
 62
   211
 10
84269.11860793736
 20
56808.31232446879
 11
84268.64494490821
 21
56809.36114974755
  0
LINE
  8
KADRBM
 62
   211
 10
84268.64494490821
 20
56809.36114974755
 11
84268.28969763697
 21
56809.97014507039
  0
LINE
  8
KADRBM
 62
   211
 10
84267.7822015346
 20
56804.99668326722
 11
84267.68070231413
 21
56803.8463587688
  0
LINE
  8
KADRBM
 62
   211
 10
84267.68070231413
 20
56803.8463587688
 11
84267.35928811529
 21
56802.71295080618
  0
LINE
  8
KADRBM
 62
   211
 10
84267.35928811529
 20
56802.71295080618
 11
84266.97020777082
 21
56801.98553972707
  0
LINE
  8
KADRBM
 62
   211
 10
84266.97020777082
 20
56801.98553972707
 11
84266.19204707944
 21
56801.12279635265
  0
LINE
  8
KADRBM
 62
   211
 10
84266.19204707944
 20
56801.12279635265
 11
84265.44771946373
 21
56800.66604986093
  0
LINE
  8
KADRBM
 62
   211
 10
84265.44771946373
 20
56800.66604986093
 11
84264.21281228145
 21
56800.20930336839
  0
LINE
  8
KADRBM
 62
   211
 10
84264.21281228145
 20
56800.20930336839
 11
84264.75414145621
 21
56798.23006856958
  0
LINE
  8
KADRBM
 62
   211
 10
84264.75414145621
 20
56798.23006856958
 11
84265.36313677905
 21
56798.4161504731
  0
LINE
  8
KADRBM
 62
   211
 10
84265.36313677905
 20
56798.4161504731
 11
84266.51346127829
 21
56798.87289696564
  0
LINE
  8
KADRBM
 62
   211
 10
84266.51346127829
 20
56798.87289696564
 11
84267.46078733576
 21
56799.48189228847
  0
LINE
  8
KADRBM
 62
   211
 10
84267.46078733576
 20
56799.48189228847
 11
84267.74836846057
 21
56799.73564033925
  0
LINE
  8
KADRBM
 62
   211
 10
84267.74836846057
 20
56799.73564033925
 11
84268.49269607791
 21
56800.63221678689
  0
LINE
  8
KADRBM
 62
   211
 10
84268.49269607791
 20
56800.63221678689
 11
84269.08477486332
 21
56801.74870821209
  0
LINE
  8
KADRBM
 62
   211
 10
84269.08477486332
 20
56801.74870821209
 11
84269.35543945152
 21
56802.54378543927
  0
LINE
  8
KADRBM
 62
   211
 10
84269.35543945152
 20
56802.54378543927
 11
84269.59227096569
 21
56803.7279430109
  0
LINE
  8
KADRBM
 62
   211
 10
84269.59227096569
 20
56803.7279430109
 11
84269.65993711294
 21
56804.99668326722
  0
LINE
  8
KADRBM
 62
   211
 10
84269.37235598813
 20
56781.75336177977
 11
84269.37235598813
 21
56783.85101233648
  0
LINE
  8
KADRBM
 62
   211
 10
84269.37235598813
 20
56783.85101233648
 11
84256.38045576843
 21
56783.85101233648
  0
LINE
  8
KADRBM
 62
   211
 10
84252.82798305189
 20
56783.98634463018
 11
84252.82798305189
 21
56781.75336177977
  0
LINE
  8
KADRBM
 62
   211
 10
84252.82798305189
 20
56781.75336177977
 11
84269.37235598813
 21
56781.75336177977
  0
LINE
  8
KADRBM
 62
   211
 10
84269.37235598813
 20
56792.5291956865
 11
84269.37235598813
 21
56794.77909507351
  0
LINE
  8
KADRBM
 62
   211
 10
84269.37235598813
 20
56794.77909507351
 11
84252.82798305189
 21
56794.77909507351
  0
LINE
  8
KADRBM
 62
   211
 10
84252.82798305189
 20
56794.77909507351
 11
84252.82798305189
 21
56792.6814445168
  0
LINE
  8
KADRBM
 62
   211
 10
84252.82798305189
 20
56792.6814445168
 11
84265.8367998082
 21
56792.6814445168
  0
LINE
  8
KADRBM
 62
   211
 10
84265.8367998082
 20
56792.6814445168
 11
84252.82798305189
 21
56783.98634463018
  0
LINE
  8
KADRBM
 62
   211
 10
84256.38045576843
 20
56783.85101233648
 11
84269.37235598813
 21
56792.5291956865
  0
LINE
  8
KADRBM
 62
   211
 10
84071.91223390703
 20
56887.76531240674
 11
84069.19736791053
 21
56879.76486659392
  0
LINE
  8
KADRBM
 62
   211
 10
84074.79527744232
 20
56879.76486659392
 11
84071.91223390703
 21
56887.76531240674
  0
LINE
  8
KADRBM
 62
   211
 10
84288.24307786231
 20
56786.20388166331
 11
84287.97409039643
 21
56785.07902498943
  0
LINE
  8
KADRBM
 62
   211
 10
84287.97409039643
 20
56785.07902498943
 11
84287.28939502954
 21
56784.05198193951
  0
LINE
  8
KADRBM
 62
   211
 10
84287.28939502954
 20
56784.05198193951
 11
84286.70251328743
 21
56783.6607274445
  0
LINE
  8
KADRBM
 62
   211
 10
84286.70251328743
 20
56783.6607274445
 11
84285.38202936563
 21
56783.34283316745
  0
LINE
  8
KADRBM
 62
   211
 10
84281.64065825497
 20
56783.29392635466
 11
84281.73847187811
 21
56783.19611273152
  0
LINE
  8
KADRBM
 62
   211
 10
84281.73847187811
 20
56783.19611273152
 11
84282.76551492885
 21
56782.41360374067
  0
LINE
  8
KADRBM
 62
   211
 10
84282.76551492885
 20
56782.41360374067
 11
84283.98818522587
 21
56781.9245356217
  0
LINE
  8
KADRBM
 62
   211
 10
84283.98818522587
 20
56781.9245356217
 11
84285.40648277162
 21
56781.75336177977
  0
LINE
  8
KADRBM
 62
   211
 10
84285.40648277162
 20
56781.75336177977
 11
84286.14008495049
 21
56781.80226859175
  0
LINE
  8
KADRBM
 62
   211
 10
84286.14008495049
 20
56781.80226859175
 11
84287.43611546466
 21
56782.16906968159
  0
LINE
  8
KADRBM
 62
   211
 10
84287.43611546466
 20
56782.16906968159
 11
84288.56097213936
 21
56782.87821845365
  0
LINE
  8
KADRBM
 62
   211
 10
84288.56097213936
 20
56782.87821845365
 11
84289.0989470703
 21
56783.44064679059
  0
LINE
  8
KADRBM
 62
   211
 10
84289.0989470703
 20
56783.44064679059
 11
84289.7591890312
 21
56784.56550346447
  0
LINE
  8
KADRBM
 62
   211
 10
84289.7591890312
 20
56784.56550346447
 11
84290.15044352622
 21
56785.95934760424
  0
LINE
  8
KADRBM
 62
   211
 10
84290.15044352622
 20
56785.95934760424
 11
84288.24307786231
 21
56786.20388166331
  0
LINE
  8
KADRBM
 62
   211
 10
84285.47984298877
 20
56792.09715249778
 11
84285.94445770176
 21
56792.07269909179
  0
LINE
  8
KADRBM
 62
   211
 10
84285.94445770176
 20
56792.07269909179
 11
84287.1426745936
 21
56791.53472416084
  0
LINE
  8
KADRBM
 62
   211
 10
84287.1426745936
 20
56791.53472416084
 11
84287.53392908943
 21
56791.09456285385
  0
LINE
  8
KADRBM
 62
   211
 10
84287.53392908943
 20
56791.09456285385
 11
84288.09635742637
 21
56789.79853233804
  0
LINE
  8
KADRBM
 62
   211
 10
84288.09635742637
 20
56789.79853233804
 11
84289.97926968511
 21
56790.09197320991
  0
LINE
  8
KADRBM
 62
   211
 10
84289.97926968511
 20
56790.09197320991
 11
84289.85700265516
 21
56790.53213451691
  0
LINE
  8
KADRBM
 62
   211
 10
84289.85700265516
 20
56790.53213451691
 11
84289.31902772421
 21
56791.80371162672
  0
LINE
  8
KADRBM
 62
   211
 10
84289.31902772421
 20
56791.80371162672
 11
84288.4631585154
 21
56792.75739445868
  0
LINE
  8
KADRBM
 62
   211
 10
84285.40648277162
 20
56793.68662388464
 11
84285.33312255284
 21
56793.68662388464
  0
LINE
  8
KADRBM
 62
   211
 10
84285.33312255284
 20
56793.68662388464
 11
84283.96373181988
 21
56793.51545004353
  0
LINE
  8
KADRBM
 62
   211
 10
84283.96373181988
 20
56793.51545004353
 11
84282.69215471088
 21
56793.00192851776
  0
LINE
  8
KADRBM
 62
   211
 10
84282.69215471088
 20
56793.00192851776
 11
84282.59434108692
 21
56792.95302170578
  0
LINE
  8
KADRBM
 62
   211
 10
84282.59434108692
 20
56792.95302170578
 11
84281.567298037
 21
56792.09715249778
  0
LINE
  8
KADRBM
 62
   211
 10
84281.567298037
 20
56792.09715249778
 11
84280.83369585813
 21
56790.92338901192
  0
LINE
  8
KADRBM
 62
   211
 10
84280.83369585813
 20
56790.92338901192
 11
84280.63806861104
 21
56790.45877429894
  0
LINE
  8
KADRBM
 62
   211
 10
84280.63806861104
 20
56790.45877429894
 11
84280.32017433317
 21
56789.13829037796
  0
LINE
  8
KADRBM
 62
   211
 10
84280.32017433317
 20
56789.13829037796
 11
84280.22236070922
 21
56787.69553942622
  0
LINE
  8
KADRBM
 62
   211
 10
84280.22236070922
 20
56787.69553942622
 11
84280.2468141152
 21
56786.93748384218
  0
LINE
  8
KADRBM
 62
   211
 10
84280.2468141152
 20
56786.93748384218
 11
84280.46689476911
 21
56785.49473289044
  0
LINE
  8
KADRBM
 62
   211
 10
84280.46689476911
 20
56785.49473289044
 11
84280.93150948209
 21
56784.29651599859
  0
LINE
  8
KADRBM
 62
   211
 10
84280.93150948209
 20
56784.29651599859
 11
84281.64065825497
 21
56783.29392635466
  0
LINE
  8
KADRBM
 62
   211
 10
84285.38202936563
 20
56783.34283316745
 11
84284.1349056618
 21
56783.58736722653
  0
LINE
  8
KADRBM
 62
   211
 10
84284.1349056618
 20
56783.58736722653
 11
84283.0834092059
 21
56784.39432962336
  0
LINE
  8
KADRBM
 62
   211
 10
84283.0834092059
 20
56784.39432962336
 11
84282.71660811687
 21
56784.93230455431
  0
LINE
  8
KADRBM
 62
   211
 10
84282.71660811687
 20
56784.93230455431
 11
84282.32535362104
 21
56786.15497485134
  0
LINE
  8
KADRBM
 62
   211
 10
84282.32535362104
 20
56786.15497485134
 11
84282.2030865911
 21
56787.7444462382
  0
LINE
  8
KADRBM
 62
   211
 10
84282.2030865911
 20
56787.7444462382
 11
84282.25199340389
 21
56788.69812907015
  0
LINE
  8
KADRBM
 62
   211
 10
84282.25199340389
 20
56788.69812907015
 11
84282.54543427494
 21
56790.06751980392
  0
LINE
  8
KADRBM
 62
   211
 10
84282.54543427494
 20
56790.06751980392
 11
84283.10786261107
 21
56791.07010944786
  0
LINE
  8
KADRBM
 62
   211
 10
84283.10786261107
 20
56791.07010944786
 11
84284.15935906698
 21
56791.8281650319
  0
LINE
  8
KADRBM
 62
   211
 10
84284.15935906698
 20
56791.8281650319
 11
84285.47984298877
 21
56792.09715249778
  0
LINE
  8
KADRBM
 62
   211
 10
84288.4631585154
 20
56792.75739445868
 11
84288.07190402038
 21
56793.02638192374
  0
LINE
  8
KADRBM
 62
   211
 10
84288.07190402038
 20
56793.02638192374
 11
84286.84923372336
 21
56793.53990344871
  0
LINE
  8
KADRBM
 62
   211
 10
84286.84923372336
 20
56793.53990344871
 11
84285.40648277162
 21
56793.68662388464
  0
LINE
  8
KADRBM
 62
   211
 10
84296.43496885651
 20
56792.09715249778
 11
84296.45942226169
 21
56792.09715249778
  0
LINE
  8
KADRBM
 62
   211
 10
84296.45942226169
 20
56792.09715249778
 11
84297.75545277749
 21
56791.8281650319
  0
LINE
  8
KADRBM
 62
   211
 10
84297.75545277749
 20
56791.8281650319
 11
84298.8314026394
 21
56790.99674922989
  0
LINE
  8
KADRBM
 62
   211
 10
84298.8314026394
 20
56790.99674922989
 11
84299.17375032243
 21
56790.50768111092
  0
LINE
  8
KADRBM
 62
   211
 10
84299.17375032243
 20
56790.50768111092
 11
84299.63836503541
 21
56789.30946421988
  0
LINE
  8
KADRBM
 62
   211
 10
84299.63836503541
 20
56789.30946421988
 11
84299.78508547135
 21
56787.79335305018
  0
LINE
  8
KADRBM
 62
   211
 10
84299.78508547135
 20
56787.79335305018
 11
84299.73617865937
 21
56786.81521681223
  0
LINE
  8
KADRBM
 62
   211
 10
84299.73617865937
 20
56786.81521681223
 11
84299.41828438232
 21
56785.47027948445
  0
LINE
  8
KADRBM
 62
   211
 10
84299.41828438232
 20
56785.47027948445
 11
84298.8314026394
 21
56784.44323643453
  0
LINE
  8
KADRBM
 62
   211
 10
84298.8314026394
 20
56784.44323643453
 11
84298.8069492334
 21
56784.41878302854
  0
LINE
  8
KADRBM
 62
   211
 10
84298.8069492334
 20
56784.41878302854
 11
84297.73099937232
 21
56783.61182063252
  0
LINE
  8
KADRBM
 62
   211
 10
84297.73099937232
 20
56783.61182063252
 11
84296.43496885651
 21
56783.34283316745
  0
LINE
  8
KADRBM
 62
   211
 10
84300.32306040311
 20
56783.31837976065
 11
84301.10556939314
 21
56784.41878302854
  0
LINE
  8
KADRBM
 62
   211
 10
84301.10556939314
 20
56784.41878302854
 11
84301.37455685902
 21
56785.03011817746
  0
LINE
  8
KADRBM
 62
   211
 10
84301.37455685902
 20
56785.03011817746
 11
84301.66799773008
 21
56786.32614869326
  0
LINE
  8
KADRBM
 62
   211
 10
84301.66799773008
 20
56786.32614869326
 11
84301.76581135404
 21
56787.89116667413
  0
LINE
  8
KADRBM
 62
   211
 10
84301.76581135404
 20
56787.89116667413
 11
84301.74135794723
 21
56788.52695522904
  0
LINE
  8
KADRBM
 62
   211
 10
84301.74135794723
 20
56788.52695522904
 11
84301.52127729414
 21
56789.94525277398
  0
LINE
  8
KADRBM
 62
   211
 10
84301.52127729414
 20
56789.94525277398
 11
84301.03220917517
 21
56791.14346966583
  0
LINE
  8
KADRBM
 62
   211
 10
84301.03220917517
 20
56791.14346966583
 11
84300.27415359113
 21
56792.14605930976
  0
LINE
  8
KADRBM
 62
   211
 10
84296.43496885651
 20
56793.68662388464
 11
84295.21229855868
 21
56793.5888102615
  0
LINE
  8
KADRBM
 62
   211
 10
84295.21229855868
 20
56793.5888102615
 11
84293.96517485485
 21
56793.14864895369
  0
LINE
  8
KADRBM
 62
   211
 10
84293.96517485485
 20
56793.14864895369
 11
84292.84031818178
 21
56792.41504677564
  0
LINE
  8
KADRBM
 62
   211
 10
84292.84031818178
 20
56792.41504677564
 11
84292.15562281408
 21
56791.68144459678
  0
LINE
  8
KADRBM
 62
   211
 10
84292.15562281408
 20
56791.68144459678
 11
84291.56874107115
 21
56790.58104132889
  0
LINE
  8
KADRBM
 62
   211
 10
84291.56874107115
 20
56790.58104132889
 11
84291.20193998213
 21
56789.26055740791
  0
LINE
  8
KADRBM
 62
   211
 10
84291.20193998213
 20
56789.26055740791
 11
84291.07967295218
 21
56787.71999283221
  0
LINE
  8
KADRBM
 62
   211
 10
84291.07967295218
 20
56787.71999283221
 11
84291.12857976416
 21
56786.8885770302
  0
LINE
  8
KADRBM
 62
   211
 10
84291.12857976416
 20
56786.8885770302
 11
84291.37311382405
 21
56785.47027948445
  0
LINE
  8
KADRBM
 62
   211
 10
84291.37311382405
 20
56785.47027948445
 11
84291.83772853704
 21
56784.27206259342
  0
LINE
  8
KADRBM
 62
   211
 10
84291.83772853704
 20
56784.27206259342
 11
84292.5713307159
 21
56783.29392635466
  0
LINE
  8
KADRBM
 62
   211
 10
84292.5713307159
 20
56783.29392635466
 11
84292.71805115184
 21
56783.14720591954
  0
LINE
  8
KADRBM
 62
   211
 10
84292.71805115184
 20
56783.14720591954
 11
84293.76954760775
 21
56782.36469692869
  0
LINE
  8
KADRBM
 62
   211
 10
84293.76954760775
 20
56782.36469692869
 11
84295.01667131076
 21
56781.9245356217
  0
LINE
  8
KADRBM
 62
   211
 10
84295.01667131076
 20
56781.9245356217
 11
84296.43496885651
 21
56781.75336177977
  0
LINE
  8
KADRBM
 62
   211
 10
84296.43496885651
 20
56781.75336177977
 11
84296.55723588646
 21
56781.75336177977
  0
LINE
  8
KADRBM
 62
   211
 10
84296.55723588646
 20
56781.75336177977
 11
84297.92662661942
 21
56781.94898902769
  0
LINE
  8
KADRBM
 62
   211
 10
84297.92662661942
 20
56781.94898902769
 11
84299.19820372842
 21
56782.46251055265
  0
LINE
  8
KADRBM
 62
   211
 10
84299.19820372842
 20
56782.46251055265
 11
84299.24711054121
 21
56782.48696395864
  0
LINE
  8
KADRBM
 62
   211
 10
84299.24711054121
 20
56782.48696395864
 11
84300.32306040311
 21
56783.31837976065
  0
LINE
  8
KADRBM
 62
   211
 10
84296.43496885651
 20
56783.34283316745
 11
84296.41051545052
 21
56783.34283316745
  0
LINE
  8
KADRBM
 62
   211
 10
84296.41051545052
 20
56783.34283316745
 11
84295.09003152873
 21
56783.63627403851
  0
LINE
  8
KADRBM
 62
   211
 10
84295.09003152873
 20
56783.63627403851
 11
84294.03853507282
 21
56784.44323643453
  0
LINE
  8
KADRBM
 62
   211
 10
84294.03853507282
 20
56784.44323643453
 11
84293.6472805778
 21
56784.98121136548
  0
LINE
  8
KADRBM
 62
   211
 10
84293.6472805778
 20
56784.98121136548
 11
84293.20711927
 21
56786.17942825732
  0
LINE
  8
KADRBM
 62
   211
 10
84293.20711927
 20
56786.17942825732
 11
84293.06039883406
 21
56787.71999283221
  0
LINE
  8
KADRBM
 62
   211
 10
84293.06039883406
 20
56787.71999283221
 11
84293.10930564685
 21
56788.62476885218
  0
LINE
  8
KADRBM
 62
   211
 10
84293.10930564685
 20
56788.62476885218
 11
84293.4271999239
 21
56789.99415958596
  0
LINE
  8
KADRBM
 62
   211
 10
84293.4271999239
 20
56789.99415958596
 11
84294.03853507282
 21
56790.99674922989
  0
LINE
  8
KADRBM
 62
   211
 10
84294.03853507282
 20
56790.99674922989
 11
84294.03853507282
 21
56791.02120263588
  0
LINE
  8
KADRBM
 62
   211
 10
84294.03853507282
 20
56791.02120263588
 11
84295.11448493472
 21
56791.8281650319
  0
LINE
  8
KADRBM
 62
   211
 10
84295.11448493472
 20
56791.8281650319
 11
84296.43496885651
 21
56792.09715249778
  0
LINE
  8
KADRBM
 62
   211
 10
84300.27415359113
 20
56792.14605930976
 11
84300.1274331552
 21
56792.29277974569
  0
LINE
  8
KADRBM
 62
   211
 10
84300.1274331552
 20
56792.29277974569
 11
84299.07593669929
 21
56793.07528873572
  0
LINE
  8
KADRBM
 62
   211
 10
84299.07593669929
 20
56793.07528873572
 11
84297.85326640145
 21
56793.53990344871
  0
LINE
  8
KADRBM
 62
   211
 10
84297.85326640145
 20
56793.53990344871
 11
84296.43496885651
 21
56793.68662388464
  0
LINE
  8
KADRBM
 62
   211
 10
84308.80839226837
 20
56791.75480481474
 11
84309.24855357537
 21
56791.70589800277
  0
LINE
  8
KADRBM
 62
   211
 10
84309.24855357537
 20
56791.70589800277
 11
84310.34895684326
 21
56791.09456285385
  0
LINE
  8
KADRBM
 62
   211
 10
84312.45194975508
 20
56791.43691053688
 11
84312.23186910199
 21
56791.92597865667
  0
LINE
  8
KADRBM
 62
   211
 10
84313.38117918186
 20
56792.48840699279
 11
84312.45194975508
 21
56791.43691053688
  0
LINE
  8
KADRBM
 62
   211
 10
84310.34895684326
 20
56791.09456285385
 11
84310.59349090315
 21
56790.62994814086
  0
LINE
  8
KADRBM
 62
   211
 10
84310.59349090315
 20
56790.62994814086
 11
84310.81357155624
 21
56789.16274378395
  0
LINE
  8
KADRBM
 62
   211
 10
84310.81357155624
 20
56789.16274378395
 11
84310.81357155624
 21
56781.75336177977
  0
LINE
  8
KADRBM
 62
   211
 10
84310.81357155624
 20
56781.75336177977
 11
84312.74539062614
 21
56781.75336177977
  0
LINE
  8
KADRBM
 62
   211
 10
84312.74539062614
 20
56781.75336177977
 11
84312.74539062614
 21
56788.38023479311
  0
LINE
  8
KADRBM
 62
   211
 10
84312.74539062614
 20
56788.38023479311
 11
84312.74539062614
 21
56788.42914160508
  0
LINE
  8
KADRBM
 62
   211
 10
84312.74539062614
 20
56788.42914160508
 11
84312.96547128004
 21
56789.92079936799
  0
LINE
  8
KADRBM
 62
   211
 10
84312.96547128004
 20
56789.92079936799
 11
84313.55235302378
 21
56790.94784241873
  0
LINE
  8
KADRBM
 62
   211
 10
84313.55235302378
 20
56790.94784241873
 11
84314.21259498387
 21
56791.46136394287
  0
LINE
  8
KADRBM
 62
   211
 10
84314.21259498387
 20
56791.46136394287
 11
84315.53307890566
 21
56791.75480481474
  0
LINE
  8
KADRBM
 62
   211
 10
84305.77616993058
 20
56793.17310235968
 11
84304.03997810779
 21
56793.17310235968
  0
LINE
  8
KADRBM
 62
   211
 10
84304.03997810779
 20
56793.17310235968
 11
84304.03997810779
 21
56781.75336177977
  0
LINE
  8
KADRBM
 62
   211
 10
84304.03997810779
 20
56781.75336177977
 11
84305.97179717768
 21
56781.75336177977
  0
LINE
  8
KADRBM
 62
   211
 10
84305.97179717768
 20
56781.75336177977
 11
84305.97179717768
 21
56787.67108602104
  0
LINE
  8
KADRBM
 62
   211
 10
84305.97179717768
 20
56787.67108602104
 11
84306.02070398966
 21
56788.86930291208
  0
LINE
  8
KADRBM
 62
   211
 10
84306.02070398966
 20
56788.86930291208
 11
84306.28969145473
 21
56790.06751980392
  0
LINE
  8
KADRBM
 62
   211
 10
84306.28969145473
 20
56790.06751980392
 11
84306.41195848468
 21
56790.33650726899
  0
LINE
  8
KADRBM
 62
   211
 10
84306.41195848468
 20
56790.33650726899
 11
84307.29228109948
 21
56791.31464350694
  0
LINE
  8
KADRBM
 62
   211
 10
84307.29228109948
 20
56791.31464350694
 11
84307.48790834658
 21
56791.43691053688
  0
LINE
  8
KADRBM
 62
   211
 10
84305.77616993058
 20
56791.55917756683
 11
84305.77616993058
 21
56793.17310235968
  0
LINE
  8
KADRBM
 62
   211
 10
84315.97324021265
 20
56793.41763641957
 11
84315.75315955793
 21
56793.41763641957
  0
LINE
  8
KADRBM
 62
   211
 10
84315.75315955793
 20
56793.41763641957
 11
84314.48158244975
 21
56793.14864895369
  0
LINE
  8
KADRBM
 62
   211
 10
84314.48158244975
 20
56793.14864895369
 11
84313.38117918186
 21
56792.48840699279
  0
LINE
  8
KADRBM
 62
   211
 10
84315.53307890566
 20
56791.75480481474
 11
84316.70684239152
 21
56791.43691053688
  0
LINE
  8
KADRBM
 62
   211
 10
84316.70684239152
 20
56791.43691053688
 11
84317.39153775759
 21
56790.62994814086
  0
LINE
  8
KADRBM
 62
   211
 10
84317.39153775759
 20
56790.62994814086
 11
84317.44044456957
 21
56790.40986748696
  0
LINE
  8
KADRBM
 62
   211
 10
84317.44044456957
 20
56790.40986748696
 11
84317.56271159952
 21
56788.94266313004
  0
LINE
  8
KADRBM
 62
   211
 10
84317.56271159952
 20
56788.94266313004
 11
84317.56271159952
 21
56781.75336177977
  0
LINE
  8
KADRBM
 62
   211
 10
84317.56271159952
 20
56781.75336177977
 11
84319.49453067023
 21
56781.75336177977
  0
LINE
  8
KADRBM
 62
   211
 10
84319.49453067023
 20
56781.75336177977
 11
84319.49453067023
 21
56789.57845168495
  0
LINE
  8
KADRBM
 62
   211
 10
84319.49453067023
 20
56789.57845168495
 11
84319.47007726342
 21
56790.06751980392
  0
LINE
  8
KADRBM
 62
   211
 10
84319.47007726342
 20
56790.06751980392
 11
84319.20108979836
 21
56791.48581734968
  0
LINE
  8
KADRBM
 62
   211
 10
84319.20108979836
 20
56791.48581734968
 11
84318.58975464944
 21
56792.48840699279
  0
LINE
  8
KADRBM
 62
   211
 10
84318.58975464944
 20
56792.48840699279
 11
84318.49194102548
 21
56792.58622061757
  0
LINE
  8
KADRBM
 62
   211
 10
84318.49194102548
 20
56792.58622061757
 11
84317.41599116358
 21
56793.22200917166
  0
LINE
  8
KADRBM
 62
   211
 10
84317.41599116358
 20
56793.22200917166
 11
84315.97324021265
 21
56793.41763641957
  0
LINE
  8
KADRBM
 62
   211
 10
84309.22410017019
 20
56793.41763641957
 11
84308.46604458534
 21
56793.3687296076
  0
LINE
  8
KADRBM
 62
   211
 10
84308.46604458534
 20
56793.3687296076
 11
84307.19446747552
 21
56792.9285683006
  0
LINE
  8
KADRBM
 62
   211
 10
84307.19446747552
 20
56792.9285683006
 11
84306.68094595056
 21
56792.58622061757
  0
LINE
  8
KADRBM
 62
   211
 10
84306.68094595056
 20
56792.58622061757
 11
84305.77616993058
 21
56791.55917756683
  0
LINE
  8
KADRBM
 62
   211
 10
84307.48790834658
 20
56791.43691053688
 11
84308.80839226837
 21
56791.75480481474
  0
LINE
  8
KADRBM
 62
   211
 10
84312.23186910199
 20
56791.92597865667
 11
84311.30263967603
 21
56792.90411489461
  0
LINE
  8
KADRBM
 62
   211
 10
84311.30263967603
 20
56792.90411489461
 11
84310.64239771431
 21
56793.22200917166
  0
LINE
  8
KADRBM
 62
   211
 10
84310.64239771431
 20
56793.22200917166
 11
84309.22410017019
 21
56793.41763641957
  0
CIRCLE
  8
KADRBM
 62
   211
 10
84274.42951342661
 20
56784.54838222235
 40
2.658578594162933
  0
LINE
  8
KADRBM
 62
   211
 10
84254.63844097778
 20
56918.04557788074
 11
84064.44034607592
 21
56918.04557788074
  0
LINE
  8
KADRBM
 62
   211
 10
84319.50345783657
 20
56918.04557788074
 11
84319.50345783657
 21
56887.99245930153
  0
LINE
  8
KADRBM
 62
   211
 10
84319.50345783657
 20
56875.0690022187
 11
84319.50345783657
 21
56798.42191495343
  0
LINE
  8
KADRBM
 62
   211
 10
84274.62116858107
 20
56875.0690022187
 11
84274.62116858107
 21
56798.42191495343
  0
LINE
  8
KADRBM
 62
   211
 10
84254.63844097778
 20
56894.76797648442
 11
84064.44034607592
 21
56894.76797648442
  0
LINE
  8
KADRBM
 62
   211
 10
84274.62116858107
 20
56918.04557788074
 11
84319.50345783657
 21
56918.04557788074
  0
LINE
  8
KADRBM
 62
   211
 10
84064.44034607592
 20
56894.76797648442
 11
84064.44034607592
 21
56918.04557788074
  0
LINE
  8
KADRBM
 62
   211
 10
84274.62116858107
 20
56798.42191495343
 11
84319.50345783657
 21
56798.42191495343
  0
LINE
  8
KADRBM
 62
   211
 10
84274.62116858107
 20
56887.99245930153
 11
84274.62116858107
 21
56918.04557788074
  0
ENDBLK
  8
0
  0
BLOCK
  8
0
  2
_OBLIQUE
 70
     0
 10
0.0
 20
0.0
  0
LINE
  8
0
  6
BYBLOCK
 62
     0
 10
-0.5
 20
-0.5
 11
0.5
 21
0.5
  0
ENDBLK
  8
0
  0
BLOCK
  8
0
  2
_ARCHTICK
 70
     0
 10
0.0
 20
0.0
  0
POLYLINE
  8
0
  6
BYBLOCK
 62
     0
 66
     1
 40
0.15
 41
0.15
  0
VERTEX
  8
0
  6
BYBLOCK
 62
     0
 10
-0.5
 20
-0.5
  0
VERTEX
  8
0
  6
BYBLOCK
 62
     0
 10
0.5
 20
0.5
  0
SEQEND
  8
0
  6
BYBLOCK
 62
     0
  0
ENDBLK
  8
0
  0
BLOCK
  8
0
  2
STOVE_1
 70
     0
 10
0.0
 20
0.0
  0
LINE
  8
0
 10
-12.99999999999272
 20
-1.64542823148804
 11
-20.0
 21
-1.64542823148804
  0
LINE
  8
0
 10
-19.72411165234371
 20
-1.744539883839025
 11
-19.90088834762719
 21
-1.92131657912978
  0
LINE
  8
0
 10
-19.90088834762719
 20
-1.92131657912978
 11
-17.77355837524374
 21
-4.048646551513229
  0
LINE
  8
0
 10
-23.5
 20
-2.75
 11
-23.5
 21
-3.052259841490013
  0
LINE
  8
0
 10
-9.499999999992724
 20
-15.49999708989344
 11
-2.499999999992724
 21
-15.49999708989344
  0
ARC
  8
0
 10
-5.999999999992724
 20
-5.14542823148804
 40
2.0
 50
48.58332169835344
 51
131.4166783016466
  0
LINE
  8
0
 10
-22.75
 20
-20.25
 11
-22.75
 21
-17.75
  0
LINE
  8
0
 10
-23.25
 20
-18.05225984147546
 11
-23.25
 21
-17.75
  0
LINE
  8
0
 10
-13.55177669529076
 20
-8.270428231473488
 11
-19.44822330468742
 21
-8.270428231473488
  0
LINE
  8
0
 10
-19.8125
 20
-13.88521411574766
 11
-17.73743686707166
 21
-12.81015098281932
  0
LINE
  8
0
 10
-2.499999999992724
 20
-15.49999708989344
 11
-2.499999999992724
 21
-22.49999708989344
  0
LINE
  8
0
 10
-20.0
 20
-15.49999708989344
 11
-20.0
 21
-22.49999708989344
  0
LINE
  8
0
 10
-23.25
 20
-18.55225984149001
 11
-23.5
 21
-19.94774015853181
  0
CIRCLE
  8
0
 10
-5.999999999978172
 20
-18.99999708988616
 40
1.999999999997271
  0
LINE
  8
0
 10
-23.5
 20
-20.25
 11
-23.5
 21
-19.94774015853181
  0
LINE
  8
0
 10
-13.375
 20
-22.12499708988616
 11
-19.62499999999272
 21
-22.12499708988616
  0
LINE
  8
0
 10
-9.224111652343709
 20
-8.54631657912978
 11
-9.400888347627188
 21
-8.369539883839025
  0
LINE
  8
0
 10
-23.25
 20
-4.947740158524539
 11
-23.5
 21
-4.947740158524539
  0
LINE
  8
0
 10
-7.273558375243738
 20
-4.048646551513229
 11
-7.096781679960259
 21
-3.87186985622975
  0
LINE
  8
0
 10
-23.25
 20
-18.05225984147546
 11
-23.5
 21
-18.05225984147546
  0
CIRCLE
  8
0
 10
-5.999999999992724
 20
-5.14542823148804
 40
0.9999999999999998
  0
LINE
  8
0
 10
-22.5
 20
0.0
 11
-24.0
 21
0.0
  0
LINE
  8
0
 10
-7.273558375243738
 20
-6.242209911448299
 11
-7.096781679960259
 21
-6.41898660674633
  0
LINE
  8
0
 10
-9.400888347627188
 20
-1.92131657912978
 11
-7.273558375243738
 21
-4.048646551513229
  0
LINE
  8
0
 10
-2.599111652343709
 20
-8.369539883839025
 11
-4.726441624727158
 21
-6.242209911448299
  0
LINE
  8
0
 10
-9.499999999992724
 20
-8.645428231473488
 11
-9.499999999992724
 21
-1.64542823148804
  0
LINE
  8
0
 10
-2.775888347627188
 20
-8.54631657912978
 11
-4.903218320032465
 21
-6.41898660674633
  0
LINE
  8
0
 10
-22.5
 20
0.0
 11
0.0
 21
0.0
  0
LINE
  8
0
 10
-19.72411165234371
 20
-1.744539883839025
 11
-17.59678167994571
 21
-3.87186985622975
  0
LINE
  8
0
 10
-2.599111652343709
 20
-1.92131657912978
 11
-4.726441624727158
 21
-4.048646551513229
  0
ARC
  8
0
 10
-16.49999999999272
 20
-5.14542823148804
 40
2.0
 50
228.5833216983534
 51
311.4166783016465
  0
LINE
  8
0
 10
-19.8125
 20
-15.68749708989344
 11
-17.73743686707166
 21
-17.76256022282178
  0
LINE
  8
0
 10
-23.25
 20
-20.25
 11
-23.25
 21
-18.55225984149001
  0
LINE
  8
0
 10
-2.775888347627188
 20
-8.54631657912978
 11
-2.599111652343709
 21
-8.369539883839025
  0
LINE
  8
0
 10
-22.75
 20
-17.75
 11
-23.5
 21
-17.75
  0
LINE
  8
0
 10
-15.26256313292106
 20
-20.23743395696511
 11
-13.18749999999272
 21
-22.31249708989344
  0
LINE
  8
0
 10
-2.6875
 20
-22.31249708989344
 11
-4.762563132913783
 21
-20.23743395696511
  0
ARC
  8
0
 10
-16.49999999999272
 20
-5.14542823148804
 40
2.0
 50
318.5833216986476
 51
41.41667830135237
  0
LINE
  8
0
 10
-13.09911165234371
 20
-8.369539883839025
 11
-15.22644162472716
 21
-6.242209911448299
  0
LINE
  8
0
 10
-2.875
 20
-15.87499708989344
 11
-2.875
 21
-22.12499708988616
  0
LINE
  8
0
 10
-23.25
 20
-18.55225984149001
 11
-23.5
 21
-18.55225984149001
  0
LINE
  8
0
 10
-13.27588834764174
 20
-8.54631657912978
 11
-15.40321832003247
 21
-6.41898660674633
  0
LINE
  8
0
 10
-9.125
 20
-15.87499708989344
 11
-2.875
 21
-15.87499708989344
  0
LINE
  8
0
 10
-9.125
 20
-15.87499708989344
 11
-9.125
 21
-22.12499708988616
  0
LINE
  8
0
 10
-12.99999999999272
 20
-15.49999708989344
 11
-20.0
 21
-15.49999708989344
  0
LINE
  8
0
 10
-19.8125
 20
-10.26021411574766
 11
-17.73743686707166
 21
-11.33527724866872
  0
LINE
  8
0
 10
-20.0
 20
-10.07271411574766
 11
-20.0
 21
-14.07271411574766
  0
LINE
  8
0
 10
-0.5
 20
-23.5
 11
-21.99999999999272
 21
-23.5
  0
LINE
  8
0
 10
-2.875
 20
-10.44771411574766
 11
-2.875
 21
-13.69771411574766
  0
LINE
  8
0
 10
-7.237436867064389
 20
-17.76256022282178
 11
-9.312499999978172
 21
-15.68749708988616
  0
LINE
  8
0
 10
-2.499999999992724
 20
-8.645428231473488
 11
-2.499999999992724
 21
-1.64542823148804
  0
LINE
  8
0
 10
-9.400888347627188
 20
-8.369539883839025
 11
-7.273558375243738
 21
-6.242209911448299
  0
LINE
  8
0
 10
-23.5
 20
-18.55225984149001
 11
-23.75
 21
-19.94774015853181
  0
LINE
  8
0
 10
-23.25
 20
-4.947740158524539
 11
-23.25
 21
-5.25
  0
CIRCLE
  8
0
 10
-16.49999999999272
 20
-18.99999708989344
 40
1.5
  0
LINE
  8
0
 10
-2.499999999992724
 20
-10.07271411574766
 11
-2.499999999992724
 21
-14.07271411574766
  0
LINE
  8
0
 10
-23.5
 20
-19.94774015853181
 11
-23.75
 21
-19.94774015853181
  0
LINE
  8
0
 10
-15.26256313292106
 20
-12.81015098281932
 11
-13.18749999999272
 21
-13.88521411574766
  0
LINE
  8
0
 10
-19.62499999999272
 20
-15.87499708989344
 11
-19.62499999999272
 21
-22.12499708988616
  0
LINE
  8
0
 10
-23.75
 20
-19.94774015853181
 11
-23.75
 21
-19.44774015853181
  0
LINE
  8
0
 10
-19.62499999999272
 20
-10.44771411574766
 11
-19.62499999999272
 21
-13.69771411574766
  0
LINE
  8
0
 10
-2.6875
 20
-13.88521411574766
 11
-4.762563132913783
 21
-12.81015098281932
  0
LINE
  8
0
 10
-19.8125
 20
-22.31249708989344
 11
-17.73743686707166
 21
-20.23743395696511
  0
LINE
  8
0
 10
-7.237436867064389
 20
-12.81015098281932
 11
-9.3125
 21
-13.88521411574766
  0
LINE
  8
0
 10
-23.75
 20
-19.44774015853181
 11
-23.5
 21
-18.05225984147546
  0
LINE
  8
0
 10
-9.499999999992724
 20
-10.07271411574766
 11
-9.499999999992724
 21
-14.07271411574766
  0
LINE
  8
0
 10
-2.6875
 20
-15.68749708989344
 11
-4.762563132913783
 21
-17.76256022282178
  0
LINE
  8
0
 10
-22.5
 20
-24.0
 11
-24.0
 21
-24.0
  0
LINE
  8
0
 10
-13.09911165234371
 20
-1.92131657912978
 11
-15.22644162472716
 21
-4.048646551513229
  0
LINE
  8
0
 10
-13.375
 20
-10.44771411574766
 11
-13.375
 21
-13.69771411574766
  0
CIRCLE
  8
0
 10
-5.999999999992724
 20
-18.99999708989344
 40
1.5
  0
LINE
  8
0
 10
-24.0
 20
-24.0
 11
-24.0
 21
0.0
  0
LINE
  8
0
 10
-15.26256313292106
 20
-17.76256022282178
 11
-13.18749999999272
 21
-15.68749708988616
  0
CIRCLE
  8
0
 10
-16.49999999999272
 20
-18.99999708988616
 40
1.999999999997271
  0
LINE
  8
0
 10
-13.375
 20
-15.87499708989344
 11
-19.62499999999272
 21
-15.87499708989344
  0
LINE
  8
0
 10
-9.499999999992724
 20
-14.07271411574766
 11
-2.499999999992724
 21
-14.07271411574766
  0
LINE
  8
0
 10
-9.125
 20
-13.69771411574766
 11
-2.875
 21
-13.69771411574766
  0
LINE
  8
0
 10
-13.375
 20
-10.44771411574766
 11
-19.62499999999272
 21
-10.44771411574766
  0
LINE
  8
0
 10
-12.99999999999272
 20
-14.07271411574766
 11
-20.0
 21
-14.07271411574766
  0
LINE
  8
0
 10
-7.237436867064389
 20
-11.33527724866872
 11
-9.312499999978172
 21
-10.26021411574038
  0
LINE
  8
0
 10
-9.125
 20
-10.44771411574766
 11
-9.125
 21
-13.69771411574766
  0
LINE
  8
0
 10
-12.99999999999272
 20
-10.07271411574766
 11
-12.99999999999272
 21
-14.07271411574766
  0
LINE
  8
0
 10
-22.75
 20
-20.25
 11
-23.5
 21
-20.25
  0
CIRCLE
  8
0
 10
-16.49999999999272
 20
-5.14542823148804
 40
0.9999999999999998
  0
LINE
  8
0
 10
-22.75
 20
-5.25
 11
-23.5
 21
-5.25
  0
LINE
  8
0
 10
-13.375
 20
-15.87499708989344
 11
-13.375
 21
-22.12499708988616
  0
LINE
  8
0
 10
-13.375
 20
-13.69771411574766
 11
-19.62499999999272
 21
-13.69771411574766
  0
LINE
  8
0
 10
-2.775888347627188
 20
-1.744539883839025
 11
-2.599111652343709
 21
-1.92131657912978
  0
LINE
  8
0
 10
-21.99999999999272
 20
-23.5
 11
-21.99999999999272
 21
-0.5
  0
LINE
  8
0
 10
-19.90088834762719
 20
-8.369539883839025
 11
-17.77355837524374
 21
-6.242209911448299
  0
LINE
  8
0
 10
-22.75
 20
-2.75
 11
-23.5
 21
-2.75
  0
LINE
  8
0
 10
-12.99999999999272
 20
-10.07271411574766
 11
-20.0
 21
-10.07271411574766
  0
LINE
  8
0
 10
-22.5
 20
-24.0
 11
-22.5
 21
0.0
  0
LINE
  8
0
 10
-23.5
 20
-4.447740158531815
 11
-23.75
 21
-3.052259841490013
  0
LINE
  8
0
 10
-12.99999999999272
 20
-8.645428231473488
 11
-20.0
 21
-8.645428231473488
  0
LINE
  8
0
 10
-12.99999999999272
 20
-15.49999708989344
 11
-12.99999999999272
 21
-22.49999708989344
  0
LINE
  8
0
 10
-23.25
 20
-2.75
 11
-23.25
 21
-4.447740158531815
  0
LINE
  8
0
 10
-7.237436867064389
 20
-20.23743395696511
 11
-9.3125
 21
-22.31249708989344
  0
LINE
  8
0
 10
-15.22644162472716
 20
-6.242209911448299
 11
-15.40321832003247
 21
-6.41898660674633
  0
LINE
  8
0
 10
-23.25
 20
-4.447740158531815
 11
-23.5
 21
-4.447740158531815
  0
LINE
  8
0
 10
-15.22644162472716
 20
-4.048646551513229
 11
-15.40321832003247
 21
-3.87186985622975
  0
LINE
  8
0
 10
-9.125
 20
-8.093651536182733
 11
-9.125
 21
-2.197204926771519
  0
LINE
  8
0
 10
-13.55177669529076
 20
-2.020428231473488
 11
-19.44822330468742
 21
-2.020428231473488
  0
LINE
  8
0
 10
-12.99999999999272
 20
-22.49999708989344
 11
-20.0
 21
-22.49999708989344
  0
ARC
  8
0
 10
-16.49999999999272
 20
-5.14542823148804
 40
2.0
 50
138.5833216986476
 51
221.4166783013524
  0
LINE
  8
0
 10
-4.726441624727158
 20
-4.048646551513229
 11
-4.903218320032465
 21
-3.87186985622975
  0
LINE
  8
0
 10
-23.5
 20
-18.55225984149001
 11
-23.5
 21
-17.75
  0
CIRCLE
  8
0
 10
-16.49999999999272
 20
-5.14542823148804
 40
0.7499999999999998
  0
LINE
  8
0
 10
-13.375
 20
-8.093651536182733
 11
-13.375
 21
-2.197204926771519
  0
LINE
  8
0
 10
-20.0
 20
-8.645428231473488
 11
-20.0
 21
-1.64542823148804
  0
LINE
  8
0
 10
-2.6875
 20
-10.26021411574766
 11
-4.762563132913783
 21
-11.33527724866872
  0
LINE
  8
0
 10
-9.499999999992724
 20
-10.07271411574766
 11
-2.499999999992724
 21
-10.07271411574766
  0
LINE
  8
0
 10
-9.125
 20
-22.12499708988616
 11
-2.875
 21
-22.12499708988616
  0
LINE
  8
0
 10
-19.62499999999272
 20
-8.093651536182733
 11
-19.62499999999272
 21
-2.197204926771519
  0
LINE
  8
0
 10
-15.26256313292106
 20
-11.33527724866872
 11
-13.18749999999272
 21
-10.26021411574038
  0
LINE
  8
0
 10
0.0
 20
-24.0
 11
-22.5
 21
-24.0
  0
LINE
  8
0
 10
-9.499999999992724
 20
-22.49999708989344
 11
-2.499999999992724
 21
-22.49999708989344
  0
LINE
  8
0
 10
-13.27588834764174
 20
-1.744539883839025
 11
-13.09911165234371
 21
-1.92131657912978
  0
LINE
  8
0
 10
-23.5
 20
-3.052259841490013
 11
-23.75
 21
-3.052259841490013
  0
LINE
  8
0
 10
-9.499999999992724
 20
-15.49999708989344
 11
-9.499999999992724
 21
-22.49999708989344
  0
LINE
  8
0
 10
-13.27588834764174
 20
-8.54631657912978
 11
-13.09911165234371
 21
-8.369539883839025
  0
LINE
  8
0
 10
-17.77355837524374
 20
-6.242209911448299
 11
-17.59678167994571
 21
-6.41898660674633
  0
LINE
  8
0
 10
-12.99999999999272
 20
-8.645428231473488
 11
-12.99999999999272
 21
-1.64542823148804
  0
LINE
  8
0
 10
-9.224111652343709
 20
-1.744539883839025
 11
-9.400888347627188
 21
-1.92131657912978
  0
LINE
  8
0
 10
-17.77355837524374
 20
-4.048646551513229
 11
-17.59678167994571
 21
-3.87186985622975
  0
LINE
  8
0
 10
-13.27588834764174
 20
-1.744539883839025
 11
-15.40321832003247
 21
-3.87186985622975
  0
CIRCLE
  8
0
 10
-16.49999999999272
 20
-5.14542823148804
 40
1.5
  0
LINE
  8
0
 10
-9.125
 20
-10.44771411574766
 11
-2.875
 21
-10.44771411574766
  0
LINE
  8
0
 10
-23.75
 20
-3.552259841490013
 11
-23.5
 21
-4.947740158524539
  0
LINE
  8
0
 10
-2.875
 20
-8.093651536182733
 11
-2.875
 21
-2.197204926771519
  0
LINE
  8
0
 10
-19.72411165234371
 20
-8.54631657912978
 11
-17.59678167994571
 21
-6.41898660674633
  0
LINE
  8
0
 10
-23.75
 20
-3.052259841490013
 11
-23.75
 21
-3.552259841490013
  0
ARC
  8
0
 10
-16.49999999999272
 20
-5.14542823148804
 40
2.0
 50
48.58332169835344
 51
131.4166783016466
  0
LINE
  8
0
 10
-23.5
 20
-4.447740158531815
 11
-23.5
 21
-5.25
  0
LINE
  8
0
 10
-19.72411165234371
 20
-8.54631657912978
 11
-19.90088834762719
 21
-8.369539883839025
  0
LINE
  8
0
 10
-22.75
 20
-2.75
 11
-22.75
 21
-5.25
  0
CIRCLE
  8
0
 10
-5.999999999992724
 20
-5.14542823148804
 40
0.7499999999999998
  0
LINE
  8
0
 10
-8.948223304701969
 20
-8.270428231473488
 11
-3.051776695290755
 21
-8.270428231473488
  0
ARC
  8
0
 10
-5.999999999992724
 20
-5.14542823148804
 40
2.0
 50
228.5833216983534
 51
311.4166783016465
  0
LINE
  8
0
 10
-9.499999999992724
 20
-8.645428231473488
 11
-2.499999999992724
 21
-8.645428231473488
  0
LINE
  8
0
 10
-2.775888347627188
 20
-1.744539883839025
 11
-4.903218320032465
 21
-3.87186985622975
  0
LINE
  8
0
 10
-8.948223304701969
 20
-2.020428231473488
 11
-3.051776695290755
 21
-2.020428231473488
  0
ARC
  8
0
 10
-5.999999999992724
 20
-5.14542823148804
 40
2.0
 50
138.5833216986476
 51
221.4166783013524
  0
LINE
  8
0
 10
-23.25
 20
-4.447740158531815
 11
-23.5
 21
-3.052259841490013
  0
LINE
  8
0
 10
-9.224111652343709
 20
-8.54631657912978
 11
-7.096781679960259
 21
-6.41898660674633
  0
CIRCLE
  8
0
 10
-5.999999999992724
 20
-5.14542823148804
 40
1.5
  0
LINE
  8
0
 10
-21.99999999999272
 20
-0.5
 11
-0.5
 21
-0.5
  0
LINE
  8
0
 10
-9.224111652343709
 20
-1.744539883839025
 11
-7.096781679960259
 21
-3.87186985622975
  0
LINE
  8
0
 10
-4.726441624727158
 20
-6.242209911448299
 11
-4.903218320032465
 21
-6.41898660674633
  0
ARC
  8
0
 10
-5.999999999992724
 20
-5.14542823148804
 40
2.0
 50
318.5833216986476
 51
41.41667830135237
  0
LINE
  8
0
 10
-9.499999999992724
 20
-1.64542823148804
 11
-2.499999999992724
 21
-1.64542823148804
  0
LINE
  8
0
 10
-0.5
 20
-0.5
 11
-0.5
 21
-23.5
  0
LINE
  8
0
 10
0.0
 20
0.0
 11
0.0
 21
-24.0
  0
ENDBLK
  8
0
  0
BLOCK
  8
0
  2
2_SEATER_SOFA
 70
     0
 10
0.0
 20
0.0
  0
LINE
  8
0
 10
40.7000644570453
 20
-0.0000000000002274
 11
1.569313811831307
 21
-0.0000000000002274
  0
LINE
  8
0
 10
6.0
 20
-29.00000000000273
 11
6.0
 21
-5.999999999999091
  0
LINE
  8
0
 10
50.0
 20
-29.00000000000273
 11
50.0
 21
-5.999999999999091
  0
LINE
  8
0
 10
50.0
 20
-6.000000000001819
 11
6.0
 21
-5.999999999999091
  0
LINE
  8
0
 10
28.0
 20
-29.00000000000273
 11
28.0
 21
-5.999999999999091
  0
LINE
  8
0
 10
55.99999999999272
 20
-0.000000000001819
 11
0.0
 21
0.0
  0
LINE
  8
0
 10
0.0
 20
0.0
 11
0.0
 21
-24.00000000001455
  0
LINE
  8
0
 10
3.0
 20
-32.99999999999909
 11
52.99999999999272
 21
-33.00000000001342
  0
LINE
  8
0
 10
0.0
 20
-29.00000000000273
 11
0.0
 21
-0.000000000003638
  0
LINE
  8
0
 10
6.0
 20
-29.00000000000273
 11
0.0
 21
-29.00000000000273
  0
LINE
  8
0
 10
3.0
 20
-29.00000000000273
 11
3.0
 21
-33.00000000000273
  0
LINE
  8
0
 10
56.0
 20
-28.99999999998408
 11
55.99999999999272
 21
-0.000000000001819
  0
LINE
  8
0
 10
50.0
 20
-28.99999999998681
 11
56.0
 21
-28.99999999998408
  0
LINE
  8
0
 10
55.99999999998545
 20
0.0000000000186446
 11
56.0
 21
-23.99999999999591
  0
LINE
  8
0
 10
53.0
 20
-28.99999999998545
 11
52.99999999999272
 21
-33.00000000001342
  0
ENDBLK
  8
0
  0
BLOCK
  8
0
  2
SINGLE_SEATER_SOFA
 70
     0
 10
0.0
 20
0.0
  0
LINE
  8
0
 10
-27.0
 20
-6.0
 11
-27.0
 21
-27.0
  0
LINE
  8
0
 10
-31.0
 20
-31.0
 11
-31.0
 21
1.0
  0
LINE
  8
0
 10
-5.687201691165683
 20
0.999999999992724
 11
-5.687201691165683
 21
-3.0
  0
LINE
  8
0
 10
-27.0
 20
-27.0
 11
-5.687201691165683
 21
-27.00000000000728
  0
LINE
  8
0
 10
-27.0
 20
-27.0
 11
-27.0
 21
-3.000000000007276
  0
LINE
  8
0
 10
-31.0
 20
-31.0
 11
-5.687201691165683
 21
-31.0
  0
LINE
  8
0
 10
-5.687201691165683
 20
-31.0
 11
-5.687201691165683
 21
-27.00000000000728
  0
LINE
  8
0
 10
-27.0
 20
-3.000000000007276
 11
-5.687201691165683
 21
-3.0
  0
CIRCLE
  8
0
 10
-16.34360084557557
 20
-15.00000000000728
 40
5.312599267118455
  0
LINE
  8
0
 10
-31.0
 20
-1.999999999992724
 11
-31.0
 21
-31.0
  0
LINE
  8
0
 10
-5.687201691165683
 20
0.0
 11
0.0
 21
0.0
  0
LINE
  8
0
 10
-27.0
 20
-27.0
 11
-6.999999999992724
 21
-27.0
  0
LINE
  8
0
 10
0.0
 20
0.0
 11
0.0
 21
-30.00000000001455
  0
LINE
  8
0
 10
-5.687201691165683
 20
-30.00000000000728
 11
0.0
 21
-30.00000000001455
  0
LINE
  8
0
 10
-31.0
 20
1.0
 11
-5.687201691165683
 21
0.999999999992724
  0
ENDBLK
  8
0
  0
BLOCK
  8
0
  2
TV
 70
     0
 10
0.0
 20
0.0
  0
LINE
  8
0
 10
19.73791302228346
 20
-5.879609817638993
 11
21.76248973910697
 21
-3.0
  0
POLYLINE
  8
0
 66
     1
 70
     1
  0
VERTEX
  8
0
 10
-27.0
 20
-3.0
  0
VERTEX
  8
0
 10
-27.0
 20
0.0
  0
VERTEX
  8
0
 10
27.0
 20
0.0
  0
VERTEX
  8
0
 10
27.0
 20
-3.0
  0
SEQEND
  8
0
  0
LINE
  8
0
 10
-19.73791302228346
 20
-5.879609817638993
 11
-21.76248973910697
 21
-3.0
  0
ENDBLK
  8
0
  0
BLOCK
  8
0
  2
A-CAR
 70
     0
 10
0.0
 20
0.0
  0
LINE
  8
FUR
 10
27.13746600131344
 20
-107.707051097148
 11
30.40052866542828
 21
-75.91999854615824
  0
ARC
  8
FUR
 10
17.70376037213646
 20
-89.6521340867148
 40
3.0
 50
270.348652537853
 51
358.5274324563333
  0
LINE
  8
FUR
 10
25.94501297833631
 20
-99.73454134136955
 11
27.71357294732661
 21
-68.83844050949392
  0
LINE
  8
FUR
 10
-25.15390568926705
 20
-99.99412781508545
 11
-27.23627545809177
 21
-69.11759000522488
  0
ARC
  8
FUR
 10
-17.01551461874442
 20
-89.82851069897333
 40
3.0
 50
182.0546965518431
 51
270.2334764702937
  0
LINE
  8
FUR
 10
-26.26529731959272
 20
-107.9783412805791
 11
-29.85114462187084
 21
-76.22608172390937
  0
LINE
  8
FUR
 10
32.4685672937776
 20
-115.4004746425971
 11
34.11611415500374
 21
-79.08539842638493
  0
LINE
  8
FUR
 10
-31.51795909700195
 20
-115.7255311641366
 11
-33.53437821441366
 21
-79.42906817949188
  0
ARC
  8
FUR
 10
-23.20320354288378
 20
-71.56914993916416
 40
8.116781026810965
 50
144.8837583074779
 51
215.0115260908638
  0
ARC
  8
FUR
 10
23.70561677808837
 20
-71.33084949029944
 40
8.116781026810965
 50
325.5706029172829
 51
35.69837070069153
  0
ARC
  8
FUR
 10
-0.0156235755312082
 20
-18.92517382565438
 40
12.0
 50
80.95921337420197
 51
99.62291563388881
  0
ARC
  8
FUR
 10
0.068266160935309
 20
-35.4386491215173
 40
24.0
 50
78.57818116278311
 51
102.0039478453662
  0
ARC
  8
FUR
 10
0.0870139324124466
 20
-39.12909892569223
 40
24.0
 50
77.22490674921065
 51
103.3572222589833
  0
LINE
  8
FUR
 10
-17.00328985317719
 20
-92.82848579133042
 11
17.72201566368676
 21
-92.65207854355958
  0
LINE
  8
FUR
 10
20.70276960289993
 20
-89.72922905475298
 11
21.1054764593755
 21
-74.06385413588578
  0
LINE
  8
FUR
 10
18.08431427872347
 20
-70.98684096102534
 11
-17.58568626597662
 21
-71.16804733298977
  0
ARC
  8
FUR
 10
18.10646722872843
 20
-73.98675916772936
 40
3.0
 50
358.5274324563333
 51
90.42309402545565
  0
LINE
  8
FUR
 10
30.29725562807653
 20
-66.59456069972202
 11
26.03488356485104
 21
-32.43884460362642
  0
LINE
  8
FUR
 10
28.58001556186173
 20
-53.53145251367823
 11
30.10828885230512
 21
-42.68476528399879
  0
LINE
  8
FUR
 10
30.68963083205563
 20
-28.4348440941194
 11
30.12743164727544
 21
-18.8239069472811
  0
ARC
  8
FUR
 10
18.94743154667049
 20
-19.44215014420843
 40
11.1970811776851
 50
3.165177488499713
 51
33.01760647521888
  0
ARC
  8
FUR
 10
-41.18750120535879
 20
-32.63935239797047
 40
72.0
 50
351.9799501129434
 51
3.347745924787827
  0
LINE
  8
FUR
 10
27.74538230806502
 20
-61.2085315459326
 11
26.35973535907578
 21
-32.8609626611551
  0
LINE
  8
FUR
 10
26.35973535907578
 20
-32.8609626611551
 11
24.93926896621088
 21
-27.59373530230641
  0
LINE
  8
FUR
 10
21.35985114205687
 20
-19.98191318144927
 11
18.83389918314606
 21
-16.41141227652042
  0
LINE
  8
FUR
 10
15.12389677662213
 20
-13.99546056625513
 11
4.821001128391799
 21
-11.91394911641601
  0
ARC
  8
FUR
 10
-44.16875615804383
 20
-64.72373974444326
 40
72.0
 50
356.7238402126237
 51
2.798426286649707
  0
ARC
  8
FUR
 10
1.767106548746597
 20
-33.84280634548759
 40
24.0
 50
15.09249013676676
 51
35.27750925120568
  0
ARC
  8
FUR
 10
13.93571303487442
 20
-19.87663556752977
 40
6.0
 50
35.27750925120568
 51
78.57818116278311
  0
ARC
  8
FUR
 10
23.95794123571795
 20
-0.8141109104008137
 40
14.33027373338384
 50
253.9940383545323
 51
284.2514711061069
  0
LINE
  8
FUR
 10
16.99103063712937
 20
-14.7012598038973
 11
16.61311123056112
 21
-12.77587676733765
  0
LINE
  8
FUR
 10
16.61311123056112
 20
-12.77587676733765
 11
14.3235305652961
 21
-9.05578287490789
  0
LINE
  8
FUR
 10
14.3235305652961
 20
-9.05578287490789
 11
1.870026689266524
 21
-7.074253056377529
  0
LINE
  8
FUR
 10
20.43843886705508
 20
-12.25488185528593
 11
14.95237630832526
 21
-10.07752683146919
  0
ARC
  8
FUR
 10
2.292191185524644
 20
-35.20596142580325
 40
33.3634190465817
 50
45.82809954198544
 51
94.10246332678526
  0
LINE
  8
FUR
 10
6.063864715737509
 20
-7.692974945489368
 11
4.949516633299936
 21
-5.116649418341694
  0
LINE
  8
FUR
 10
4.949516633299936
 20
-5.116649418341694
 11
2.497276833997603
 21
-4.167686962368862
  0
LINE
  8
FUR
 10
2.497276833997603
 20
-4.167686962368862
 11
-0.0818935256866098
 21
-4.029118176045813
  0
LINE
  8
FUR
 10
18.60472871260208
 20
-28.29155892243216
 11
8.500489922584165
 21
-27.80312655472699
  0
LINE
  8
FUR
 10
8.500489922584165
 20
-27.80312655472699
 11
0.0951785810939327
 21
-27.86519572776342
  0
LINE
  8
FUR
 10
20.00654918864711
 20
-14.58884307354401
 11
20.44859289834676
 21
-11.87762502777696
  0
LINE
  8
FUR
 10
20.93904386858958
 20
-11.45809306727369
 11
26.78619347273707
 21
-11.42262424422643
  0
LINE
  8
FUR
 10
27.28799799755143
 20
-11.8875877490791
 11
27.48574192182969
 21
-14.70336458337988
  0
LINE
  8
FUR
 10
19.64561824728298
 20
-27.17134887931115
 11
18.9537732580884
 21
-21.51349298939567
  0
LINE
  8
FUR
 10
15.86784531721969
 20
-18.09801609239003
 11
5.394003723182323
 21
-15.72320523710005
  0
ARC
  8
FUR
 10
14.98334701873682
 20
-21.99899837380235
 40
4.0
 50
6.971542074592326
 51
77.22490674921065
  0
ARC
  8
FUR
 10
18.65301168756196
 20
-27.29272522547035
 40
1.0
 50
267.2325133245878
 51
6.971542074592326
  0
LINE
  8
FUR
 10
27.75130943318618
 20
-13.51793613980772
 11
27.20967089254191
 21
-12.25091265053743
  0
ARC
  8
FUR
 10
1.359924665452127
 20
-39.80486705635303
 40
39.83521500128265
 50
59.8898711351618
 51
92.27810592730714
  0
ARC
  8
FUR
 10
12.74160935322107
 20
-20.1784281046148
 40
17.14733602914069
 50
43.96392195618488
 51
59.8898711351618
  0
ARC
  8
FUR
 10
20.76520622569842
 20
-12.43988859296769
 40
6.0
 50
23.14617253159102
 51
43.96392195618488
  0
LINE
  8
FUR
 10
26.78454860036072
 20
-11.25644883437235
 11
26.28223639865791
 21
-10.08141915915348
  0
ARC
  8
FUR
 10
20.94207681394801
 20
-11.95808386843146
 40
0.5
 50
90.34755206845041
 51
170.739834273082
  0
ARC
  8
FUR
 10
26.7892264180955
 20
-11.92261504538419
 40
0.5
 50
4.017122840207504
 51
90.34755206845041
  0
ARC
  8
FUR
 10
-26.89023533762702
 20
-12.19531087844189
 40
0.5
 50
90.23457693971721
 51
176.5650061678845
  0
ARC
  8
FUR
 10
-21.04302716322672
 20
-12.17137145601373
 40
0.5
 50
9.842294735038653
 51
90.23457693971721
  0
LINE
  8
FUR
 10
-26.89232593880297
 20
-11.52913152407473
 11
-26.40197783885014
 21
-10.34905905748747
  0
ARC
  8
FUR
 10
-20.8612706193544
 20
-12.65135432681382
 40
6.0
 50
136.6182070520406
 51
157.4359564765747
  0
ARC
  8
FUR
 10
-12.75946513520648
 20
-20.30797554280798
 40
17.14733602914069
 50
120.6922578730692
 51
136.6182070520406
  0
ARC
  8
FUR
 10
-1.178965369874277
 20
-39.81776481490488
 40
39.83521500128265
 50
88.3040230808446
 51
120.6922578730692
  0
LINE
  8
FUR
 10
-27.83606040499035
 20
-13.80032429389485
 11
-27.30732264308972
 21
-12.5278632099471
  0
ARC
  8
FUR
 10
-18.59828186606319
 20
-27.48196468859351
 40
1.0
 50
173.6105869335909
 51
273.3496156835939
  0
ARC
  8
FUR
 10
-14.98259029861219
 20
-22.15122766168133
 40
4.0
 50
103.3572222589833
 51
173.6105869335909
  0
LINE
  8
FUR
 10
-15.90667650829346
 20
-18.25943312998061
 11
-5.457503325451398
 21
-15.77833173525232
  0
LINE
  8
FUR
 10
-19.5920703651409
 20
-27.37067938353994
 11
-18.95774429492121
 21
-21.70608644169533
  0
LINE
  8
FUR
 10
-27.38933704759256
 20
-12.16535285590271
 11
-27.5584627741664
 21
-14.98299341643997
  0
LINE
  8
FUR
 10
-21.04507422752067
 20
-11.67137564658424
 11
-26.89228240192278
 21
-11.69531506889598
  0
LINE
  8
FUR
 10
-20.08081959120682
 20
-14.79249001901098
 11
-20.55038617104401
 21
-12.08590302434641
  0
LINE
  8
FUR
 10
-8.44109848073822
 20
-27.88919113906559
 11
-0.0355903468207543
 21
-27.86586004411674
  0
LINE
  8
FUR
 10
-18.53985333970195
 20
-28.48025628294636
 11
-8.44109848073822
 21
-27.88919113906559
  0
LINE
  8
FUR
 10
-2.678328775185946
 20
-4.193979440691692
 11
-0.1006993783212238
 21
-4.02921371116463
  0
LINE
  8
FUR
 10
-5.120800649794546
 20
-5.167807411872673
 11
-2.678328775185946
 21
-4.193979440691692
  0
LINE
  8
FUR
 10
-6.208916025399958
 20
-7.755321624457792
 11
-5.120800649794546
 21
-5.167807411872673
  0
ARC
  8
FUR
 10
-2.157908162265812
 20
-35.22856827597116
 40
33.3634190465817
 50
86.47966568137514
 51
134.7540294661165
  0
LINE
  8
FUR
 10
-20.53639977485909
 20
-12.46303721658569
 11
-15.07274206272632
 21
-10.23005676379034
  0
LINE
  8
FUR
 10
-14.45430958569887
 20
-9.20197653698051
 11
-2.021580603934126
 21
-7.09402272353509
  0
LINE
  8
FUR
 10
-16.70597632264617
 20
-12.94514031880317
 11
-14.45430958569887
 21
-9.20197653698051
  0
LINE
  8
FUR
 10
-17.06431453781988
 20
-14.87426360113477
 11
-16.70597632264617
 21
-12.94514031880317
  0
ARC
  8
FUR
 10
-24.17195750064639
 20
-1.058614532495085
 40
14.33027373338384
 50
256.3306579020043
 51
286.5880906536517
  0
ARC
  8
FUR
 10
-13.95657336546174
 20
-20.01833054779854
 40
6.0
 50
102.0039478453662
 51
145.3046197569188
  0
ARC
  8
FUR
 10
-1.646700136527215
 20
-33.8601487483993
 40
24.0
 50
145.3046197569188
 51
165.4896388714145
  0
ARC
  8
FUR
 10
44.60053866162707
 20
-64.27278483532882
 40
72.0
 50
177.783702721467
 51
183.8582887954798
  0
LINE
  8
FUR
 10
-15.20444789054272
 20
-14.1495309115744
 11
-4.923231939850666
 21
-11.9634505769709
  0
LINE
  8
FUR
 10
-21.37925868092498
 20
-20.19903117732702
 11
-18.88971300147387
 21
-16.60305115500159
  0
LINE
  8
FUR
 10
-26.24803507329671
 20
-33.12821421904027
 11
-24.8811564616426
 21
-27.8468269311652
  0
LINE
  8
FUR
 10
-27.34560223612425
 20
-61.48839802432121
 11
-26.24803507329671
 21
-33.12821421904027
  0
ARC
  8
FUR
 10
41.29346363602053
 20
-32.22034269336655
 40
72.0
 50
177.2343830834382
 51
188.6021788952142
  0
ARC
  8
FUR
 10
-18.97244753265295
 20
-19.63478607379329
 40
11.1970811776851
 50
147.5645225329936
 51
177.4169515197076
  0
LINE
  8
FUR
 10
-30.62267595848061
 20
-28.74631537242658
 11
-30.15815188414126
 21
-19.13016239165154
  0
LINE
  8
FUR
 10
-28.2581907140866
 20
-53.82019501404648
 11
-29.89658630813938
 21
-42.98959470811496
  0
LINE
  8
FUR
 10
-29.84262236602081
 20
-66.90007594869257
 11
-25.92748871985896
 21
-32.70281748884372
  0
ARC
  8
FUR
 10
-17.57735922442407
 20
-74.1680357763662
 40
3.0
 50
90.15903498262124
 51
182.0546965518431
  0
LINE
  8
FUR
 10
-20.01358578481268
 20
-89.93607130108012
 11
-20.57543039049415
 21
-74.27559637847207
  0
LINE
  8
FUR
 10
33.79144787696896
 20
-63.28763864889152
 11
31.22068918319201
 21
-33.61932109286136
  0
ARC
  8
FUR
 10
-85.7605801617774
 20
-73.64681775846475
 40
120.0
 50
357.4023792228594
 51
4.952307706154403
  0
LINE
  8
FUR
 10
-33.37023224346558
 20
-63.62882519774212
 11
-31.10103316810455
 21
-33.93592028057265
  0
ARC
  8
FUR
 10
86.28087350302485
 20
-72.7728338178631
 40
120.0
 50
175.6298213020383
 51
183.1797497853376
  0
POLYLINE
  8
FUR
 66
     1
  0
VERTEX
  8
FUR
 10
0.957339806629534
 20
-162.6772699363382
  0
VERTEX
  8
FUR
 10
11.66556771157229
 20
-161.5108225133454
  0
VERTEX
  8
FUR
 10
16.00813870468664
 20
-159.3883263467114
  0
VERTEX
  8
FUR
 10
18.89886416806439
 20
-154.8260002982715
  0
VERTEX
  8
FUR
 10
21.13692240400633
 20
-147.8614934284296
  0
VERTEX
  8
FUR
 10
23.52242391047184
 20
-130.3386169622536
  0
VERTEX
  8
FUR
 10
25.31764898641268
 20
-119.5388687706472
  0
VERTEX
  8
FUR
 10
16.01059993024501
 20
-121.0818482325785
  0
VERTEX
  8
FUR
 10
6.242507887582178
 20
-121.8964220350736
  0
VERTEX
  8
FUR
 10
0.5093582846802747
 20
-122.2664804360829
  0
SEQEND
  8
FUR
  0
POLYLINE
  8
FUR
 66
     1
  0
VERTEX
  8
FUR
 10
15.19702477514511
 20
-159.250920185149
  0
VERTEX
  8
FUR
 10
21.66012114000114
 20
-125.2726600555588
  0
VERTEX
  8
FUR
 10
20.9453728505232
 20
-123.4035762953936
  0
VERTEX
  8
FUR
 10
19.55575579739161
 20
-123.0824233311587
  0
VERTEX
  8
FUR
 10
4.486786574072539
 20
-126.8486176176511
  0
VERTEX
  8
FUR
 10
2.279501018621886
 20
-129.5633677356755
  0
VERTEX
  8
FUR
 10
1.31514077326392
 20
-161.6867747450951
  0
SEQEND
  8
FUR
  0
POLYLINE
  8
FUR
 66
     1
  0
VERTEX
  8
FUR
 10
1.134758543807038
 20
-165.9575843873799
  0
VERTEX
  8
FUR
 10
7.90133902497837
 20
-165.7044939898678
  0
VERTEX
  8
FUR
 10
20.5295651302531
 20
-163.3339573001604
  0
VERTEX
  8
FUR
 10
24.8587887312533
 20
-162.1703676769257
  0
VERTEX
  8
FUR
 10
28.83093920035753
 20
-160.1029365766735
  0
VERTEX
  8
FUR
 10
33.45082052381622
 20
-148.8943944861858
  0
VERTEX
  8
FUR
 10
34.27769805618118
 20
-142.7208170564136
  0
VERTEX
  8
FUR
 10
34.18782958041629
 20
-127.9057096654506
  0
VERTEX
  8
FUR
 10
32.20873417043549
 20
-115.5998684401638
  0
VERTEX
  8
FUR
 10
28.68709489318826
 20
-107.4093330971318
  0
SEQEND
  8
FUR
  0
LINE
  8
FUR
 10
27.29543399275644
 20
-107.4177749153787
 11
25.31764898641268
 21
-119.5388687706472
  0
LINE
  8
FUR
 10
30.5290101810042
 20
-155.0614030282641
 11
29.32566529786345
 21
-155.3487677530802
  0
LINE
  8
FUR
 10
19.85292039128763
 20
-156.8234731688071
 11
17.89797779070614
 21
-156.9693146216832
  0
ARC
  8
FUR
 10
15.38924023338404
 20
-96.98974054714017
 40
60.0
 50
274.2664422429683
 51
283.4309740294056
  0
LINE
  8
FUR
 10
22.77823070730301
 20
-156.5330258089971
 11
23.28529179632824
 21
-158.7679268841111
  0
LINE
  8
FUR
 10
23.28529179632824
 20
-158.7679268841111
 11
28.99561973452364
 21
-158.2706459025021
  0
LINE
  8
FUR
 10
27.7271297373627
 20
-149.6038008314972
 11
26.2151068769308
 21
-142.6310953843013
  0
LINE
  8
FUR
 10
25.63162468786322
 20
-142.6189884691648
 11
23.74398798582843
 21
-149.8592836382013
  0
LINE
  8
FUR
 10
23.74398798582843
 20
-149.8592836382013
 11
25.25605517520489
 21
-150.185951570179
  0
LINE
  8
FUR
 10
26.3745167290981
 20
-150.1059954236116
 11
27.7271297373627
 21
-149.6038008314972
  0
ARC
  8
FUR
 10
25.67839281120905
 20
-148.2310523601454
 40
2.0
 50
257.8091432458546
 51
290.368821599033
  0
ARC
  8
FUR
 10
25.92192099080967
 20
-142.6946723940418
 40
0.3
 50
12.2350902542195
 51
165.3875428641241
  0
LINE
  8
FUR
 10
3.375417149416535
 20
-164.0081520169533
 11
9.617417000437854
 21
-163.6314714756127
  0
LINE
  8
FUR
 10
9.617417000437854
 20
-163.6314714756127
 11
16.36233270717094
 21
-162.2219071988566
  0
LINE
  8
FUR
 10
16.36233270717094
 20
-162.2219071988566
 11
24.49610302954716
 21
-160.3412760075626
  0
LINE
  8
FUR
 10
24.49610302954716
 20
-160.3412760075626
 11
27.95553632471456
 21
-158.2769550508756
  0
LINE
  8
FUR
 10
6.167333258146755
 20
-117.3022832298102
 11
15.51767580241176
 21
-116.3646777660342
  0
LINE
  8
FUR
 10
19.1648445967694
 20
-114.6340798712063
 11
24.89575951396546
 21
-108.8945755619379
  0
LINE
  8
FUR
 10
25.184856684029
 20
-108.1072345212433
 11
24.74729107063467
 21
-102.7071006428023
  0
LINE
  8
FUR
 10
23.68738517890233
 20
-101.7898619889875
 11
7.382903054456619
 21
-102.8219205242976
  0
ARC
  8
FUR
 10
24.18812342849924
 20
-108.1879984815387
 40
1.0
 50
315.0429047810927
 51
4.632479539394891
  0
ARC
  8
FUR
 10
23.7505578149885
 20
-102.787864603215
 40
1.0
 50
4.632479539394891
 51
93.6219372202958
  0
ARC
  8
FUR
 10
14.91902808408304
 20
-110.3946173886889
 40
6.0
 50
275.7261922304582
 51
315.0429047810927
  0
LINE
  8
FUR
 10
27.62955613630038
 20
-106.9531060104619
 11
25.94501297833631
 21
-99.73454134136955
  0
LINE
  8
FUR
 10
-26.7650220577234
 20
-107.2294346905555
 11
-25.15390568926705
 21
-99.99412781508545
  0
ARC
  8
FUR
 10
-14.02018464702633
 20
-110.541630835979
 40
6.0
 50
225.539224227126
 51
264.8559367778041
  0
ARC
  8
FUR
 10
-22.9285423506517
 20
-103.0249980557683
 40
1.0
 50
86.96019178785093
 51
175.9496494687351
  0
ARC
  8
FUR
 10
-23.31122059717745
 20
-108.4292988366797
 40
1.0
 50
175.9496494687351
 51
225.539224227126
  0
LINE
  8
FUR
 10
-22.87551257489031
 20
-102.026405124333
 11
-6.561386369983666
 21
-102.8927585971787
  0
LINE
  8
FUR
 10
-24.30872296150847
 20
-108.3586657481137
 11
-23.92604471498271
 21
-102.9543649672032
  0
LINE
  8
FUR
 10
-18.22270953464431
 20
-114.8240115487015
 11
-24.01164141182016
 21
-109.1430289554082
  0
LINE
  8
FUR
 10
-5.198760376326391
 20
-117.3600238679201
 11
-14.55814629216911
 21
-116.5174652771348
  0
LINE
  8
FUR
 10
-23.0772039884996
 20
-160.5829521003516
 11
-26.55743201197583
 21
-158.5538851619749
  0
LINE
  8
FUR
 10
-14.92474646301162
 20
-162.3808479898216
 11
-23.0772039884996
 21
-160.5829521003516
  0
LINE
  8
FUR
 10
-8.165857859581592
 20
-163.7218118924347
 11
-14.92474646301162
 21
-162.3808479898216
  0
LINE
  8
FUR
 10
-1.920353143153989
 20
-164.0350549411278
 11
-8.165857859581592
 21
-163.7218118924347
  0
ARC
  8
FUR
 10
-24.6822359646485
 20
-142.9517454398538
 40
0.3
 50
15.19458614402475
 51
168.3470387539385
  0
ARC
  8
FUR
 10
-24.38247132573451
 20
-148.4853654362914
 40
2.0
 50
250.2133074092031
 51
282.772985762417
  0
LINE
  8
FUR
 10
-25.05951009359524
 20
-150.3672842726919
 11
-26.41715553285212
 21
-149.8788580039991
  0
LINE
  8
FUR
 10
-22.43162368525191
 20
-150.0938593302326
 11
-23.940293920974
 21
-150.4358728428188
  0
LINE
  8
FUR
 10
-24.39272358534981
 20
-142.8731160418647
 11
-22.43162368525191
 21
-150.0938593302326
  0
LINE
  8
FUR
 10
-26.41715553285212
 20
-149.8788580039991
 11
-24.9760526541595
 21
-142.8911504487814
  0
LINE
  8
FUR
 10
-21.88244030777787
 20
-158.9973824697217
 11
-27.59752584021589
 21
-158.5581434753794
  0
LINE
  8
FUR
 10
-21.39811174562419
 20
-156.7574450581233
 11
-21.88244030777787
 21
-158.9973824697217
  0
ARC
  8
FUR
 10
-14.61445605115478
 20
-97.14216165349171
 40
60.0
 50
257.1511549786869
 51
266.3156867651903
  0
LINE
  8
FUR
 10
-18.47000149972519
 20
-157.0181565870807
 11
-16.5136780661378
 21
-157.1441285049414
  0
LINE
  8
FUR
 10
-29.16344270805348
 20
-155.3646453230504
 11
-27.95724033836086
 21
-155.6397693606405
  0
LINE
  8
FUR
 10
-26.4261961727716
 20
-107.6906849671032
 11
-24.32536422847443
 21
-119.7910591316377
  0
POLYLINE
  8
FUR
 66
     1
  0
VERTEX
  8
FUR
 10
0.3399958396184957
 20
-165.9616218435231
  0
VERTEX
  8
FUR
 10
-6.428806769015864
 20
-165.7772922430022
  0
VERTEX
  8
FUR
 10
-19.08046549242135
 20
-163.5351793307191
  0
VERTEX
  8
FUR
 10
-23.4212875951016
 20
-162.4156342127071
  0
VERTEX
  8
FUR
 10
-27.41423792832393
 20
-160.3886664428919
  0
VERTEX
  8
FUR
 10
-32.14775839461799
 20
-149.2276403596807
  0
VERTEX
  8
FUR
 10
-33.03731613594391
 20
-143.0627825542215
  0
VERTEX
  8
FUR
 10
-33.11008079676685
 20
-128.2475882745466
  0
VERTEX
  8
FUR
 10
-31.25611356484114
 20
-115.9222747936155
  0
VERTEX
  8
FUR
 10
-27.81787101334339
 20
-107.696382710521
  0
SEQEND
  8
FUR
  0
POLYLINE
  8
FUR
 66
     1
  0
VERTEX
  8
FUR
 10
-13.78968358639941
 20
-159.3981749139812
  0
VERTEX
  8
FUR
 10
-20.60977045199616
 20
-125.4873943863395
  0
VERTEX
  8
FUR
 10
-19.91404874399268
 20
-123.6111453290987
  0
VERTEX
  8
FUR
 10
-18.52776629304753
 20
-123.2758905799246
  0
VERTEX
  8
FUR
 10
-3.421310693889609
 20
-126.8887913657454
  0
VERTEX
  8
FUR
 10
-1.186557492170323
 20
-129.580975582041
  0
VERTEX
  8
FUR
 10
0.1162319510422094
 20
-161.6928652950155
  0
SEQEND
  8
FUR
  0
POLYLINE
  8
FUR
 66
     1
  0
VERTEX
  8
FUR
 10
0.4840777757381147
 20
-162.6796741441867
  0
VERTEX
  8
FUR
 10
-10.23544842607589
 20
-161.6220813756299
  0
VERTEX
  8
FUR
 10
-14.59935961996234
 20
-159.5438148143758
  0
VERTEX
  8
FUR
 10
-17.53628862898404
 20
-155.0110937029685
  0
VERTEX
  8
FUR
 10
-19.84498999694915
 20
-148.0696847249474
  0
VERTEX
  8
FUR
 10
-22.42050752287105
 20
-130.5720106205772
  0
VERTEX
  8
FUR
 10
-24.32536422847443
 20
-119.7910591316377
  0
VERTEX
  8
FUR
 10
-15.00311903122929
 20
-121.2394003325999
  0
VERTEX
  8
FUR
 10
-5.227255166897521
 20
-121.954689321783
  0
VERTEX
  8
FUR
 10
0.5093582846802747
 20
-122.2664804360829
  0
SEQEND
  8
FUR
  0
ARC
  8
FUR
 10
-0.1978132801468746
 20
16.93839318539358
 40
120.0
 50
266.9601917878509
 51
273.6219372202958
  0
ARC
  8
FUR
 10
0.1808560755525832
 20
-57.60167945613011
 40
60.0
 50
264.8559367778041
 51
275.7261922304582
  0
ARC
  8
FUR
 10
0.4840627307676186
 20
-116.0953137622437
 40
48.0
 50
267.1287383428265
 51
273.4533906652624
  0
ENDBLK
  8
0
  0
BLOCK
  8
0
  2
*U10
 70
     1
 10
0.0
 20
0.0
  0
SOLID
  8
1
  6
CONTINUOUS
 62
    91
 10
84274.62116858107
 20
56798.42191495343
 11
84274.62116858107
 21
56875.0690022187
 12
84319.50345783657
 22
56798.42191495343
 13
84319.50345783657
 23
56798.42191495343
  0
SOLID
  8
1
  6
CONTINUOUS
 62
    91
 10
84319.50345783657
 20
56798.42191495343
 11
84274.62116858107
 21
56875.0690022187
 12
84319.50345783657
 22
56875.0690022187
 13
84319.50345783657
 23
56875.0690022187
  0
SOLID
  8
1
  6
CONTINUOUS
 62
    91
 10
84274.62116858107
 20
56887.99245930153
 11
84274.62116858107
 21
56918.04557788074
 12
84319.50345783657
 22
56887.99245930153
 13
84319.50345783657
 23
56887.99245930153
  0
SOLID
  8
1
  6
CONTINUOUS
 62
    91
 10
84319.50345783657
 20
56887.99245930153
 11
84274.62116858107
 21
56918.04557788074
 12
84319.50345783657
 22
56918.04557788074
 13
84319.50345783657
 23
56918.04557788074
  0
ENDBLK
  8
0
  0
BLOCK
  8
0
  2
*U11
 70
     1
 10
0.0
 20
0.0
  0
SOLID
  8
1
  6
CONTINUOUS
 62
    91
 10
84064.44034607592
 20
56894.76797648442
 11
84064.44034607592
 21
56918.04557788074
 12
84254.63844097778
 22
56894.76797648442
 13
84254.63844097778
 23
56894.76797648442
  0
SOLID
  8
1
  6
CONTINUOUS
 62
    91
 10
84254.63844097778
 20
56894.76797648442
 11
84064.44034607592
 21
56918.04557788074
 12
84254.63844097778
 22
56918.04557788074
 13
84254.63844097778
 23
56918.04557788074
  0
ENDBLK
  8
0
  0
ENDSEC
  0
SECTION
  2
ENTITIES
  0
LINE
  8
KADRBM
 10
4517.141170865567
 20
1603.490607384068
 11
4600.022962534084
 21
2410.881742179208
  0
ARC
  8
KADRBM
 10
4277.525047884472
 20
2062.085499449071
 40
76.19999999999999
 50
270.3486525378533
 51
358.5274324563343
  0
LINE
  8
KADRBM
 10
4486.852864081948
 20
1805.992355180841
 11
4531.774287294302
 21
2590.753316310482
  0
LINE
  8
KADRBM
 10
3188.940329924823
 20
1799.398858748457
 11
3136.048137796675
 21
2583.662919118915
  0
ARC
  8
KADRBM
 10
3395.655463116098
 20
2057.605533497705
 40
76.19999999999999
 50
182.0546965518433
 51
270.233476470294
  0
LINE
  8
KADRBM
 10
3160.710982514551
 20
1596.599836724918
 11
3069.630461036686
 21
2403.107229464329
  0
LINE
  8
KADRBM
 10
4652.551143694157
 20
1408.07764932966
 11
4694.398833969301
 21
2330.48058522145
  0
LINE
  8
KADRBM
 10
3027.293373368357
 20
1399.821213682559
 11
2976.076327786099
 21
2321.751373492534
  0
ARC
  8
KADRBM
 10
3238.488164442958
 20
2521.393296796858
 40
206.1662380809985
 50
144.8837583074788
 51
215.0115260908631
  0
ARC
  8
KADRBM
 10
4429.97220059565
 20
2527.446128198022
 40
206.1662380809985
 50
325.5706029172828
 51
35.69837070069201
  0
ARC
  8
KADRBM
 10
3827.452695613713
 20
3858.550290080006
 40
304.8
 50
80.95921337420154
 51
99.62291563388891
  0
ARC
  8
KADRBM
 10
3829.583494919963
 20
3439.108017565088
 40
609.5999999999999
 50
78.57818116278315
 51
102.0039478453667
  0
ARC
  8
KADRBM
 10
3830.059688315482
 20
3345.370592539045
 40
609.5999999999999
 50
77.22490674921062
 51
103.3572222589835
  0
LINE
  8
KADRBM
 10
3395.965972161505
 20
1981.406166151835
 11
4277.988732289849
 21
1985.886910245214
  0
LINE
  8
KADRBM
 10
4353.699882345864
 20
2060.127287260902
 11
4363.928636500344
 21
2458.027810200128
  0
LINE
  8
KADRBM
 10
4287.191117111782
 20
2536.183944841584
 11
3381.1731032764
 21
2531.581302993687
  0
ARC
  8
KADRBM
 10
4287.753802041908
 20
2459.986022391302
 40
76.19999999999999
 50
358.5274324563343
 51
90.42309402545598
  0
LINE
  8
KADRBM
 10
4597.399827385349
 20
2647.747863478688
 11
4489.135576979423
 21
3515.303052319516
  0
LINE
  8
KADRBM
 10
4553.781929703494
 20
2979.5508114042
 11
4592.600071280756
 21
3255.056667038059
  0
LINE
  8
KADRBM
 10
4607.366157566419
 20
3617.004665260994
 11
4593.086298273002
 21
3861.122468790687
  0
ARC
  8
KADRBM
 10
4309.114295717636
 20
3845.419091588733
 40
284.4058619132016
 50
3.165177488498684
 51
33.01760647521977
  0
ARC
  8
KADRBM
 10
2781.687003816093
 20
3510.210154343177
 40
1828.8
 50
351.9799501129428
 51
3.34774592478693
  0
LINE
  8
KADRBM
 10
4532.582245057058
 20
2784.553003984939
 11
4497.386812552731
 21
3504.581253658288
  0
LINE
  8
KADRBM
 10
4497.386812552731
 20
3504.581253658288
 11
4461.306966173962
 21
3638.368828573045
  0
LINE
  8
KADRBM
 10
4370.38975344045
 20
3831.709110442816
 11
4306.230573684115
 21
3922.399833428009
  0
LINE
  8
KADRBM
 10
4211.996512558408
 20
3983.765006868747
 11
3950.302963093357
 21
4036.635397694661
  0
ARC
  8
KADRBM
 10
2705.963128017893
 20
2695.266715742769
 40
1828.8
 50
356.7238402126239
 51
2.798426286650348
  0
ARC
  8
KADRBM
 10
3872.73404077037
 20
3479.642424076243
 40
609.5999999999999
 50
15.09249013676597
 51
35.27750925120517
  0
ARC
  8
KADRBM
 10
4181.816645518016
 20
3834.383161836371
 40
152.4
 50
35.27750925120517
 51
78.57818116278315
  0
ARC
  8
KADRBM
 10
4436.381241819442
 20
4318.571288127447
 40
363.9889528279494
 50
253.9940383545325
 51
284.2514711061067
  0
LINE
  8
KADRBM
 10
4259.421712615292
 20
3965.837706232636
 11
4249.822559688459
 21
4014.742435361251
  0
LINE
  8
KADRBM
 10
4249.822559688459
 20
4014.742435361251
 11
4191.667210790727
 21
4109.232820228967
  0
LINE
  8
KADRBM
 10
4191.667210790727
 20
4109.232820228967
 11
3875.348212339576
 21
4159.563677619638
  0
LINE
  8
KADRBM
 10
4346.985881655405
 20
4027.975706127365
 11
4207.639892663668
 21
4083.28052373231
  0
ARC
  8
KADRBM
 10
3886.071190544532
 20
3445.018285036225
 40
847.4308437831752
 50
45.82809954198608
 51
94.10246332678535
  0
LINE
  8
KADRBM
 10
3981.871698211939
 20
4143.848141636197
 11
3953.567256918024
 21
4209.286810025748
  0
LINE
  8
KADRBM
 10
3953.567256918024
 20
4209.286810025748
 11
3891.280366015745
 21
4233.390456407458
  0
LINE
  8
KADRBM
 10
3891.280366015745
 20
4233.390456407458
 11
3825.769438879766
 21
4236.910103580064
  0
LINE
  8
KADRBM
 10
4300.409643732299
 20
3620.644108621851
 11
4043.761978465844
 21
3633.050290761562
  0
LINE
  8
KADRBM
 10
4043.761978465844
 20
3633.050290761562
 11
3830.267070391992
 21
3631.473733766436
  0
LINE
  8
KADRBM
 10
4336.015883823842
 20
3968.693091183609
 11
4347.243794050213
 21
4037.558029546093
  0
LINE
  8
KADRBM
 10
4359.701248694381
 20
4048.214141342875
 11
4508.218848639727
 21
4049.115049448276
  0
LINE
  8
KADRBM
 10
4520.964683570012
 20
4037.304976425018
 11
4525.98737924668
 21
3965.784244833778
  0
LINE
  8
KADRBM
 10
4326.848237913194
 20
3649.097443717124
 11
4309.275375187652
 21
3792.806983320977
  0
LINE
  8
KADRBM
 10
4230.892805489586
 20
3879.560096504921
 11
3964.857229001037
 21
3939.880292229286
  0
ARC
  8
KADRBM
 10
4208.426548708121
 20
3780.475146557048
 40
101.6
 50
6.971542074591413
 51
77.22490674921062
  0
ARC
  8
KADRBM
 10
4301.63603129628
 20
3646.01448452468
 40
25.4
 50
267.2325133245876
 51
6.971542074591413
  0
LINE
  8
KADRBM
 10
4532.732794035135
 20
3995.894127300511
 11
4518.975175102771
 21
4028.076523927977
  0
ARC
  8
KADRBM
 10
3862.39162093469
 20
3328.206082020261
 40
1011.814461032579
 50
59.88987113516161
 51
92.27810592730732
  0
ARC
  8
KADRBM
 10
4151.486412004021
 20
3826.717631394411
 40
435.5423351401734
 50
43.96392195618485
 51
59.88987113516161
  0
ARC
  8
KADRBM
 10
4355.285772564946
 20
4023.276534990248
 40
152.4
 50
23.14617253159059
 51
43.96392195618485
  0
LINE
  8
KADRBM
 10
4508.177068881369
 20
4053.33590485857
 11
4495.418338958117
 21
4083.181658609129
  0
ARC
  8
KADRBM
 10
4359.778285506485
 20
4035.514374993468
 40
12.7
 50
90.3475520684506
 51
170.7398342730827
  0
ARC
  8
KADRBM
 10
4508.295885451831
 20
4036.415283098869
 40
12.7
 50
4.01712284020742
 51
90.3475520684506
  0
ARC
  8
KADRBM
 10
3144.83755685648
 20
4029.488808939203
 40
12.7
 50
90.23457693971767
 51
176.5650061678855
  0
ARC
  8
KADRBM
 10
3293.356644486247
 20
4030.096870268879
 40
12.7
 50
9.842294735039347
 51
90.23457693971767
  0
LINE
  8
KADRBM
 10
3144.78445558661
 20
4046.409764540129
 11
3157.239297325412
 21
4076.383605191446
  0
ARC
  8
KADRBM
 10
3297.973260700604
 20
4017.905305350556
 40
152.4
 50
136.618207052041
 51
157.4359564765753
  0
ARC
  8
KADRBM
 10
3503.759119997962
 20
3823.427126464305
 40
435.5423351401734
 50
120.6922578730699
 51
136.618207052041
  0
ARC
  8
KADRBM
 10
3797.903814037399
 20
3327.878478953044
 40
1011.814461032579
 50
88.30402308084433
 51
120.6922578730699
  0
LINE
  8
KADRBM
 10
3120.813600145451
 20
3988.721468186698
 11
3134.243539297727
 21
4021.041979718971
  0
ARC
  8
KADRBM
 10
3355.453175034201
 20
3641.207802161352
 40
25.4
 50
173.6105869335908
 51
273.3496156835941
  0
ARC
  8
KADRBM
 10
3447.291740847456
 20
3776.608522644921
 40
101.6
 50
103.3572222589835
 51
173.6105869335908
  0
LINE
  8
KADRBM
 10
3423.819951121552
 20
3875.46010375012
 11
3689.22894996574
 21
3938.480079176218
  0
LINE
  8
KADRBM
 10
3330.210947157627
 20
3644.034448909713
 11
3346.322829341207
 21
3787.915109632566
  0
LINE
  8
KADRBM
 10
3132.160373423355
 20
4030.249742711699
 11
3127.86457996838
 21
3958.681672474052
  0
LINE
  8
KADRBM
 10
3293.304649053181
 20
4042.796763828388
 11
3144.785561423367
 21
4042.188702501669
  0
LINE
  8
KADRBM
 10
3317.796716815553
 20
3963.520458768749
 11
3305.869725687688
 21
4032.267768433228
  0
LINE
  8
KADRBM
 10
3613.445633021455
 20
3630.864250319361
 11
3826.945539622959
 21
3631.456860131062
  0
LINE
  8
KADRBM
 10
3356.937259603777
 20
3615.85119566479
 11
3613.445633021455
 21
3630.864250319361
  0
LINE
  8
KADRBM
 10
3759.819983542483
 20
4232.722627458058
 11
3825.291770222847
 21
4236.907676988046
  0
LINE
  8
KADRBM
 10
3697.781197927424
 20
4207.987396990062
 11
3759.819983542483
 21
4232.722627458058
  0
LINE
  8
KADRBM
 10
3670.143067387047
 20
4142.264535990399
 11
3697.781197927424
 21
4207.987396990062
  0
ARC
  8
KADRBM
 10
3773.038667110654
 20
3444.44407104196
 40
847.4308437831752
 50
86.4796656813753
 51
134.7540294661162
  0
LINE
  8
KADRBM
 10
3306.224980150785
 20
4022.688559950351
 11
3445.001886038957
 21
4079.406263451353
  0
LINE
  8
KADRBM
 10
3460.710070955455
 20
4105.519501212322
 11
3776.501387092279
 21
4159.061528073836
  0
LINE
  8
KADRBM
 10
3403.517735836993
 20
4010.443141154027
 11
3460.710070955455
 21
4105.519501212322
  0
LINE
  8
KADRBM
 10
3394.415945171581
 20
3961.443409782804
 11
3403.517735836993
 21
4010.443141154027
  0
ARC
  8
KADRBM
 10
3213.881813915788
 20
4312.360896126253
 40
363.9889528279494
 50
256.3306579020045
 51
286.5880906536522
  0
ARC
  8
KADRBM
 10
3473.352570949478
 20
3830.784109337545
 40
152.4
 50
102.0039478453667
 51
145.3046197569186
  0
ARC
  8
KADRBM
 10
3786.023350964414
 20
3479.201927042285
 40
609.5999999999999
 50
145.3046197569186
 51
165.4896388714141
  0
ARC
  8
KADRBM
 10
4960.703216437533
 20
2706.720970434275
 40
1828.8
 50
177.7837027214669
 51
183.8582887954789
  0
LINE
  8
KADRBM
 10
3441.656558012421
 20
3979.851620097637
 11
3702.799443159999
 21
4035.378060596567
  0
LINE
  8
KADRBM
 10
3284.816363936712
 20
3826.194313347521
 11
3348.05082419477
 21
3917.532205914587
  0
LINE
  8
KADRBM
 10
3161.14944357047
 20
3497.793064088004
 11
3195.868160306484
 21
3631.940301200031
  0
LINE
  8
KADRBM
 10
3133.27123763465
 20
2777.444395433869
 11
3161.14944357047
 21
3497.793064088004
  0
ARC
  8
KADRBM
 10
4876.703510787127
 20
3520.853000840117
 40
1828.8
 50
177.2343830834383
 51
188.6021788952132
  0
ARC
  8
KADRBM
 10
3345.949367102821
 20
3840.526138977278
 40
284.4058619132016
 50
147.5645225329932
 51
177.4169515197067
  0
LINE
  8
KADRBM
 10
3050.033565086798
 20
3609.093294791992
 11
3061.832476575018
 21
3853.343580503678
  0
LINE
  8
KADRBM
 10
3110.091490294406
 20
2972.216751894847
 11
3068.476242205466
 21
3247.313999665507
  0
LINE
  8
KADRBM
 10
3069.846926335278
 20
2639.987776154836
 11
3169.291320947788
 21
3508.598141034997
  0
ARC
  8
KADRBM
 10
3381.384610131835
 20
2455.381596531926
 40
76.19999999999999
 50
90.15903498262108
 51
182.0546965518433
  0
LINE
  8
KADRBM
 10
3319.504455497964
 20
2054.873494204192
 11
3305.233602513655
 21
2452.649557238437
  0
LINE
  8
KADRBM
 10
4686.152310507217
 20
2731.743683569783
 11
4620.855039685282
 21
3485.318949492949
  0
ARC
  8
KADRBM
 10
1649.53079832306
 20
2468.620534186623
 40
3048.0
 50
357.4023792228601
 51
4.952307706153608
  0
LINE
  8
KADRBM
 10
2980.24563544818
 20
2723.077545228978
 11
3037.883291962351
 21
3477.277330125082
  0
ARC
  8
KADRBM
 10
6019.383721409037
 20
2490.819726277905
 40
3048.0
 50
175.6298213020392
 51
183.1797497853372
  0
POLYLINE
  8
KADRBM
 66
     1
  0
VERTEX
  8
KADRBM
 10
3852.165965520596
 20
207.2470488686367
  0
VERTEX
  8
KADRBM
 10
4124.154954306142
 20
236.8748134126554
  0
VERTEX
  8
KADRBM
 10
4234.456257531247
 20
290.7862160451568
  0
VERTEX
  8
KADRBM
 10
4307.880684301042
 20
406.6692976755303
  0
VERTEX
  8
KADRBM
 10
4364.727363493967
 20
583.5677721695147
  0
VERTEX
  8
KADRBM
 10
4425.31910175819
 20
1028.648834410386
  0
VERTEX
  8
KADRBM
 10
4470.917818687088
 20
1302.962438477188
  0
VERTEX
  8
KADRBM
 10
4234.518772660429
 20
1263.770760144133
  0
VERTEX
  8
KADRBM
 10
3986.409234776793
 20
1243.080585560759
  0
VERTEX
  8
KADRBM
 10
3840.787234863085
 20
1233.681102175121
  0
SEQEND
  8
KADRBM
  0
POLYLINE
  8
KADRBM
 66
     1
  0
VERTEX
  8
KADRBM
 10
4213.853963720891
 20
294.2763325488436
  0
VERTEX
  8
KADRBM
 10
4378.016611388235
 20
1157.324139840433
  0
VERTEX
  8
KADRBM
 10
4359.862004835495
 20
1204.798867348631
  0
VERTEX
  8
KADRBM
 10
4324.565731685952
 20
1212.956152640197
  0
VERTEX
  8
KADRBM
 10
3941.813913413649
 20
1117.294817763288
  0
VERTEX
  8
KADRBM
 10
3885.748860305202
 20
1048.340164765471
  0
VERTEX
  8
KADRBM
 10
3861.25411007311
 20
232.4056267262113
  0
SEQEND
  8
KADRBM
  0
POLYLINE
  8
KADRBM
 66
     1
  0
VERTEX
  8
KADRBM
 10
3856.672401444905
 20
123.9270618121773
  0
VERTEX
  8
KADRBM
 10
4028.543545666656
 20
130.3555579089843
  0
VERTEX
  8
KADRBM
 10
4349.300488740635
 20
190.5671898275541
  0
VERTEX
  8
KADRBM
 10
4459.262768206039
 20
220.1223662577149
  0
VERTEX
  8
KADRBM
 10
4560.155390121287
 20
272.6351162041201
  0
VERTEX
  8
KADRBM
 10
4677.500375737138
 20
557.3320853025089
  0
VERTEX
  8
KADRBM
 10
4698.503065059208
 20
714.1409520187226
  0
VERTEX
  8
KADRBM
 10
4696.220405774779
 20
1090.444679749183
  0
VERTEX
  8
KADRBM
 10
4645.951382361267
 20
1403.013046871466
  0
VERTEX
  8
KADRBM
 10
4556.501744719188
 20
1611.052644584479
  0
SEQEND
  8
KADRBM
  0
LINE
  8
KADRBM
 10
4521.15355784822
 20
1610.838222401009
 11
4470.917818687088
 21
1302.962438477188
  0
LINE
  8
KADRBM
 10
4603.286393029713
 20
400.6900683337203
 11
4572.721432997938
 21
393.39100432339
  0
LINE
  8
KADRBM
 10
4332.113712370911
 20
355.9334867639263
 11
4282.458170316142
 21
352.2291138608734
  0
ARC
  8
KADRBM
 10
4218.736236360161
 20
1875.710295354267
 40
1524.0
 50
274.2664422429685
 51
283.4309740294055
  0
LINE
  8
KADRBM
 10
4406.416594397702
 20
363.3108497031017
 11
4419.295946058943
 21
306.5443623952042
  0
LINE
  8
KADRBM
 10
4419.295946058943
 20
306.5443623952042
 11
4564.338275689106
 21
319.1752993280738
  0
LINE
  8
KADRBM
 10
4532.118629761218
 20
539.3131641315986
 11
4493.713249106248
 21
716.4198824903756
  0
LINE
  8
KADRBM
 10
4478.892801503932
 20
716.7273981348408
 11
4430.946829272248
 21
532.8239008413143
  0
LINE
  8
KADRBM
 10
4430.946829272248
 20
532.8239008413143
 11
4469.35333588241
 21
524.5265353690811
  0
LINE
  8
KADRBM
 10
4497.762259351298
 20
526.5574214918929
 11
4532.118629761218
 21
539.3131641315986
  0
ARC
  8
KADRBM
 10
4480.080711836916
 20
574.1809753039333
 40
50.8
 50
257.8091432458546
 51
290.3688215990326
  0
ARC
  8
KADRBM
 10
4486.266327598772
 20
714.8050264429648
 40
7.619999999999999
 50
12.2350902542203
 51
165.387542864124
  0
LINE
  8
KADRBM
 10
3913.585130027386
 20
173.4426440210136
 11
4072.131926243328
 21
183.0103297710657
  0
LINE
  8
KADRBM
 10
4072.131926243328
 20
183.0103297710657
 11
4243.452785194348
 21
218.8132624006703
  0
LINE
  8
KADRBM
 10
4243.452785194348
 20
218.8132624006703
 11
4450.050551382704
 21
266.5812946595388
  0
LINE
  8
KADRBM
 10
4450.050551382704
 20
266.5812946595388
 11
4537.920157079956
 21
319.0150469593877
  0
LINE
  8
KADRBM
 10
3984.499799189134
 20
1359.771711214448
 11
4221.998499813464
 21
1383.586889994358
  0
LINE
  8
KADRBM
 10
4314.636587190149
 20
1427.544076522988
 11
4460.201826086928
 21
1573.327485978404
  0
LINE
  8
KADRBM
 10
4467.544894206542
 20
1593.325948412048
 11
4456.430727626326
 21
1730.48934892445
  0
LINE
  8
KADRBM
 10
4429.509117976325
 20
1753.787210731346
 11
4015.375272015404
 21
1727.572923934467
  0
ARC
  8
KADRBM
 10
4442.227869516087
 20
1591.274543820545
 40
25.4
 50
315.0429047810925
 51
4.63247953939582
  0
ARC
  8
KADRBM
 10
4431.113702932914
 20
1728.437944329967
 40
25.4
 50
4.63247953939582
 51
93.62193722029602
  0
ARC
  8
KADRBM
 10
4206.792847767915
 20
1535.226423578931
 40
152.4
 50
275.7261922304586
 51
315.0429047810925
  0
LINE
  8
KADRBM
 10
4529.640260294235
 20
1622.640812585897
 11
4486.852864081948
 21
1805.992355180841
  0
LINE
  8
KADRBM
 10
3148.017974166032
 20
1615.622064111517
 11
3188.940329924823
 21
1799.398858748457
  0
ARC
  8
KADRBM
 10
3471.736844397738
 20
1531.49228201776
 40
152.4
 50
225.5392242271252
 51
264.8559367778039
  0
ARC
  8
KADRBM
 10
3245.464558725653
 20
1722.414754635114
 40
25.4
 50
86.96019178785131
 51
175.9496494687345
  0
ARC
  8
KADRBM
 10
3235.744531263899
 20
1585.145514799964
 40
25.4
 50
175.9496494687345
 51
225.5392242271252
  0
LINE
  8
KADRBM
 10
3246.811515029992
 20
1747.779015093569
 11
3661.190320634621
 21
1725.773636883288
  0
LINE
  8
KADRBM
 10
3210.407971209891
 20
1586.939595249539
 11
3220.127998671645
 21
1724.208835084666
  0
LINE
  8
KADRBM
 10
3364.99271225224
 20
1422.71981191461
 11
3217.953842571974
 21
1567.016769784258
  0
LINE
  8
KADRBM
 10
3695.801020873515
 20
1358.305099006458
 11
3458.072618611111
 21
1379.706087212405
  0
LINE
  8
KADRBM
 10
3241.688553124316
 20
260.4427219026975
 11
3153.29076132802
 21
311.9810221374651
  0
LINE
  8
KADRBM
 10
3448.760974271711
 20
214.7761663101583
 11
3241.688553124316
 21
260.4427219026975
  0
LINE
  8
KADRBM
 10
3620.436744798833
 20
180.7156831837847
 11
3448.760974271711
 21
214.7761663101583
  0
LINE
  8
KADRBM
 10
3779.072564596095
 20
172.7593097469817
 11
3620.436744798833
 21
180.7156831837847
  0
ARC
  8
KADRBM
 10
3200.920740930134
 20
708.2753710793418
 40
7.619999999999999
 50
15.19458614402381
 51
168.3470387539375
  0
ARC
  8
KADRBM
 10
3208.534762758549
 20
567.7214231698254
 40
50.8
 50
250.2133074092035
 51
282.7729857624172
  0
LINE
  8
KADRBM
 10
3191.337978054887
 20
519.9206847252531
 11
3156.853783897762
 21
532.3267119500506
  0
LINE
  8
KADRBM
 10
3258.086292826807
 20
526.8656782637199
 11
3219.766068839466
 21
518.1785350440314
  0
LINE
  8
KADRBM
 10
3208.274355364321
 20
710.2725577882638
 11
3258.086292826807
 21
526.8656782637199
  0
LINE
  8
KADRBM
 10
3156.853783897762
 20
532.3267119500506
 11
3193.457797016555
 21
709.8144838525786
  0
LINE
  8
KADRBM
 10
3272.035550614648
 20
300.7161905206954
 11
3126.872378090722
 21
311.8728609769896
  0
LINE
  8
KADRBM
 10
3284.337496093352
 20
357.6106007752965
 11
3272.035550614648
 21
300.7161905206954
  0
ARC
  8
KADRBM
 10
3456.642350732875
 20
1871.838799252938
 40
1524.0
 50
257.1511549786867
 51
266.3156867651901
  0
LINE
  8
KADRBM
 10
3358.711496339186
 20
350.9885279397768
 11
3408.402111552306
 21
347.7888412261168
  0
LINE
  8
KADRBM
 10
3087.098089647648
 20
392.9877140461485
 11
3117.73562983784
 21
385.9995634913598
  0
LINE
  8
KADRBM
 10
3156.624151643808
 20
1603.906307087208
 11
3209.985283028956
 21
1296.556803308031
  0
POLYLINE
  8
KADRBM
 66
     1
  0
VERTEX
  8
KADRBM
 10
3836.485428758516
 20
123.8245104261414
  0
VERTEX
  8
KADRBM
 10
3664.557842499203
 20
128.506482279372
  0
VERTEX
  8
KADRBM
 10
3343.205710924703
 20
185.4561502513634
  0
VERTEX
  8
KADRBM
 10
3232.948829516625
 20
213.8925962488665
  0
VERTEX
  8
KADRBM
 10
3131.527891052778
 20
265.377577602173
  0
VERTEX
  8
KADRBM
 10
3011.296471208909
 20
548.8676401157386
  0
VERTEX
  8
KADRBM
 10
2988.701704579231
 20
705.455028374402
  0
VERTEX
  8
KADRBM
 10
2986.853482194328
 20
1081.760963078144
  0
VERTEX
  8
KADRBM
 10
3033.944249885241
 20
1394.823925493793
  0
VERTEX
  8
KADRBM
 10
3121.275610693284
 20
1603.761584404394
  0
SEQEND
  8
KADRBM
  0
POLYLINE
  8
KADRBM
 66
     1
  0
VERTEX
  8
KADRBM
 10
3477.591571337661
 20
290.5360624365057
  0
VERTEX
  8
KADRBM
 10
3304.361364951504
 20
1151.869887838605
  0
VERTEX
  8
KADRBM
 10
3322.032696334792
 20
1199.526613892521
  0
VERTEX
  8
KADRBM
 10
3357.244270588799
 20
1208.042084521542
  0
VERTEX
  8
KADRBM
 10
3740.94824280741
 20
1116.274404561694
  0
VERTEX
  8
KADRBM
 10
3797.71097413108
 20
1047.892925467786
  0
VERTEX
  8
KADRBM
 10
3830.801825988678
 20
232.2509267582336
  0
SEQEND
  8
KADRBM
  0
POLYLINE
  8
KADRBM
 66
     1
  0
VERTEX
  8
KADRBM
 10
3840.145109935954
 20
207.1859819892852
  0
VERTEX
  8
KADRBM
 10
3567.869144409878
 20
234.0488383106276
  0
VERTEX
  8
KADRBM
 10
3457.025800085163
 20
286.8368089664832
  0
VERTEX
  8
KADRBM
 10
3382.427803256011
 20
401.9679251962266
  0
VERTEX
  8
KADRBM
 10
3323.786788509698
 20
578.2797132379646
  0
VERTEX
  8
KADRBM
 10
3258.368643351281
 20
1022.720635488967
  0
VERTEX
  8
KADRBM
 10
3209.985283028956
 20
1296.556803308031
  0
VERTEX
  8
KADRBM
 10
3446.770311038982
 20
1259.768936803591
  0
VERTEX
  8
KADRBM
 10
3695.077253193009
 20
1241.600596478339
  0
VERTEX
  8
KADRBM
 10
3840.787234863085
 20
1233.681102175121
  0
SEQEND
  8
KADRBM
  0
ARC
  8
KADRBM
 10
3822.825077116475
 20
4769.484892160624
 40
3048.0
 50
266.9601917878513
 51
273.621937220296
  0
ARC
  8
KADRBM
 10
3832.443278751241
 20
2876.167047065923
 40
1524.0
 50
264.8559367778039
 51
275.7261922304586
  0
ARC
  8
KADRBM
 10
3840.144727793704
 20
1390.428735690638
 40
1219.2
 50
267.1287383428266
 51
273.4533906652628
  0
LINE
  8
KADRBM
 10
1833.156923302844
 20
1603.490607384068
 11
1916.038714971361
 21
2410.881742179208
  0
ARC
  8
KADRBM
 10
1593.540800321749
 20
2062.085499449071
 40
76.19999999999999
 50
270.3486525378528
 51
358.5274324563343
  0
LINE
  8
KADRBM
 10
1802.868616519225
 20
1805.992355180841
 11
1847.790039731578
 21
2590.753316310482
  0
LINE
  8
KADRBM
 10
504.9560823620996
 20
1799.398858748457
 11
452.0638902339517
 21
2583.662919118915
  0
ARC
  8
KADRBM
 10
711.6712155533744
 20
2057.605533497705
 40
76.19999999999999
 50
182.0546965518433
 51
270.2334764702935
  0
LINE
  8
KADRBM
 10
476.7267349518276
 20
1596.599836724918
 11
385.6462134739631
 21
2403.107229464329
  0
LINE
  8
KADRBM
 10
1968.566896131434
 20
1408.07764932966
 11
2010.414586406578
 21
2330.48058522145
  0
LINE
  8
KADRBM
 10
343.3091258056331
 20
1399.821213682559
 11
292.0920802233755
 21
2321.751373492534
  0
ARC
  8
KADRBM
 10
554.5039168802344
 20
2521.393296796858
 40
206.1662380809985
 50
144.8837583074788
 51
215.0115260908631
  0
ARC
  8
KADRBM
 10
1745.987953032927
 20
2527.446128198022
 40
206.1662380809985
 50
325.570602917283
 51
35.69837070069201
  0
ARC
  8
KADRBM
 10
1143.46844805099
 20
3858.550290080006
 40
304.8
 50
80.95921337420205
 51
99.62291563388891
  0
ARC
  8
KADRBM
 10
1145.599247357239
 20
3439.108017565088
 40
609.5999999999999
 50
78.57818116278315
 51
102.0039478453662
  0
ARC
  8
KADRBM
 10
1146.075440752759
 20
3345.370592539045
 40
609.5999999999999
 50
77.22490674921062
 51
103.357222258983
  0
LINE
  8
KADRBM
 10
711.981724598782
 20
1981.406166151835
 11
1594.004484727126
 21
1985.886910245214
  0
LINE
  8
KADRBM
 10
1669.715634783141
 20
2060.127287260902
 11
1679.94438893762
 21
2458.027810200128
  0
LINE
  8
KADRBM
 10
1603.206869549059
 20
2536.183944841584
 11
697.1888557136765
 21
2531.581302993687
  0
ARC
  8
KADRBM
 10
1603.769554479185
 20
2459.986022391302
 40
76.19999999999999
 50
358.5274324563343
 51
90.42309402545546
  0
LINE
  8
KADRBM
 10
1913.415579822626
 20
2647.747863478688
 11
1805.151329416699
 21
3515.303052319516
  0
LINE
  8
KADRBM
 10
1869.797682140771
 20
2979.5508114042
 11
1908.615823718033
 21
3255.056667038059
  0
LINE
  8
KADRBM
 10
1923.381910003695
 20
3617.004665260994
 11
1909.102050710279
 21
3861.122468790687
  0
ARC
  8
KADRBM
 10
1625.130048154913
 20
3845.419091588733
 40
284.4058619132016
 50
3.165177488498712
 51
33.01760647521949
  0
ARC
  8
KADRBM
 10
97.70275625336944
 20
3510.210154343177
 40
1828.8
 50
351.9799501129427
 51
3.34774592478693
  0
LINE
  8
KADRBM
 10
1848.597997494334
 20
2784.553003984939
 11
1813.402564990007
 21
3504.581253658288
  0
LINE
  8
KADRBM
 10
1813.402564990007
 20
3504.581253658288
 11
1777.322718611239
 21
3638.368828573045
  0
LINE
  8
KADRBM
 10
1686.405505877727
 20
3831.709110442816
 11
1622.246326121392
 21
3922.399833428009
  0
LINE
  8
KADRBM
 10
1528.012264995685
 20
3983.765006868747
 11
1266.318715530634
 21
4036.635397694661
  0
ARC
  8
KADRBM
 10
21.97888045516925
 20
2695.266715742769
 40
1828.8
 50
356.7238402126239
 51
2.798426286650348
  0
ARC
  8
KADRBM
 10
1188.749793207646
 20
3479.642424076243
 40
609.5999999999999
 50
15.0924901367661
 51
35.27750925120517
  0
ARC
  8
KADRBM
 10
1497.832397955293
 20
3834.383161836371
 40
152.4
 50
35.27750925120517
 51
78.57818116278315
  0
ARC
  8
KADRBM
 10
1752.396994256719
 20
4318.571288127447
 40
363.9889528279494
 50
253.9940383545325
 51
284.2514711061073
  0
LINE
  8
KADRBM
 10
1575.437465052569
 20
3965.837706232636
 11
1565.838312125735
 21
4014.742435361251
  0
LINE
  8
KADRBM
 10
1565.838312125735
 20
4014.742435361251
 11
1507.682963228003
 21
4109.232820228967
  0
LINE
  8
KADRBM
 10
1507.682963228003
 20
4109.232820228967
 11
1191.363964776852
 21
4159.563677619638
  0
LINE
  8
KADRBM
 10
1663.001634092682
 20
4027.975706127365
 11
1523.655645100944
 21
4083.28052373231
  0
ARC
  8
KADRBM
 10
1202.086942981809
 20
3445.018285036225
 40
847.4308437831752
 50
45.82809954198571
 51
94.10246332678535
  0
LINE
  8
KADRBM
 10
1297.887450649215
 20
4143.848141636197
 11
1269.583009355301
 21
4209.286810025748
  0
LINE
  8
KADRBM
 10
1269.583009355301
 20
4209.286810025748
 11
1207.296118453022
 21
4233.390456407458
  0
LINE
  8
KADRBM
 10
1207.296118453022
 20
4233.390456407458
 11
1141.785191317043
 21
4236.910103580064
  0
LINE
  8
KADRBM
 10
1616.425396169575
 20
3620.644108621851
 11
1359.77773090312
 21
3633.050290761562
  0
LINE
  8
KADRBM
 10
1359.77773090312
 20
3633.050290761562
 11
1146.282822829269
 21
3631.473733766436
  0
LINE
  8
KADRBM
 10
1652.031636261119
 20
3968.693091183609
 11
1663.25954648749
 21
4037.558029546093
  0
LINE
  8
KADRBM
 10
1675.717001131658
 20
4048.214141342875
 11
1824.234601077004
 21
4049.115049448276
  0
LINE
  8
KADRBM
 10
1836.980436007289
 20
4037.304976425018
 11
1842.003131683957
 21
3965.784244833778
  0
LINE
  8
KADRBM
 10
1642.86399035047
 20
3649.097443717124
 11
1625.291127624928
 21
3792.806983320977
  0
LINE
  8
KADRBM
 10
1546.908557926863
 20
3879.560096504921
 11
1280.872981438314
 21
3939.880292229286
  0
ARC
  8
KADRBM
 10
1524.442301145398
 20
3780.475146557048
 40
101.6
 50
6.97154207459135
 51
77.22490674921062
  0
ARC
  8
KADRBM
 10
1617.651783733556
 20
3646.01448452468
 40
25.4
 50
267.2325133245876
 51
6.97154207459135
  0
LINE
  8
KADRBM
 10
1848.748546472411
 20
3995.894127300511
 11
1834.990927540047
 21
4028.076523927977
  0
ARC
  8
KADRBM
 10
1178.407373371967
 20
3328.206082020261
 40
1011.814461032579
 50
59.88987113516161
 51
92.27810592730732
  0
ARC
  8
KADRBM
 10
1467.502164441298
 20
3826.717631394411
 40
435.5423351401734
 50
43.9639219561845
 51
59.88987113516161
  0
ARC
  8
KADRBM
 10
1671.301525002222
 20
4023.276534990248
 40
152.4
 50
23.1461725315908
 51
43.9639219561845
  0
LINE
  8
KADRBM
 10
1824.192821318645
 20
4053.33590485857
 11
1811.434091395394
 21
4083.181658609129
  0
ARC
  8
KADRBM
 10
1675.794037943762
 20
4035.514374993468
 40
12.7
 50
90.3475520684506
 51
170.7398342730827
  0
ARC
  8
KADRBM
 10
1824.311637889108
 20
4036.415283098869
 40
12.7
 50
4.01712284020742
 51
90.3475520684506
  0
ARC
  8
KADRBM
 10
460.8533092937564
 20
4029.488808939203
 40
12.7
 50
90.23457693971716
 51
176.5650061678855
  0
ARC
  8
KADRBM
 10
609.3723969235238
 20
4030.096870268879
 40
12.7
 50
9.842294735039259
 51
90.23457693971716
  0
LINE
  8
KADRBM
 10
460.8002080238872
 20
4046.409764540129
 11
473.2550497626889
 21
4076.383605191446
  0
ARC
  8
KADRBM
 10
613.9890131378809
 20
4017.905305350556
 40
152.4
 50
136.6182070520413
 51
157.4359564765751
  0
ARC
  8
KADRBM
 10
819.774872435238
 20
3823.427126464305
 40
435.5423351401734
 50
120.6922578730694
 51
136.6182070520413
  0
ARC
  8
KADRBM
 10
1113.919566474676
 20
3327.878478953044
 40
1011.814461032579
 50
88.30402308084484
 51
120.6922578730694
  0
LINE
  8
KADRBM
 10
436.8293525827278
 20
3988.721468186698
 11
450.2592917350038
 21
4021.041979718971
  0
ARC
  8
KADRBM
 10
671.4689274714776
 20
3641.207802161352
 40
25.4
 50
173.6105869335908
 51
273.3496156835941
  0
ARC
  8
KADRBM
 10
763.3074932847328
 20
3776.608522644921
 40
101.6
 50
103.357222258983
 51
173.6105869335908
  0
LINE
  8
KADRBM
 10
739.8357035588288
 20
3875.46010375012
 11
1005.244702403017
 21
3938.480079176218
  0
LINE
  8
KADRBM
 10
646.2266995949037
 20
3644.034448909713
 11
662.3385817784838
 21
3787.915109632566
  0
LINE
  8
KADRBM
 10
448.1761258606316
 20
4030.249742711699
 11
443.8803324056561
 21
3958.681672474052
  0
LINE
  8
KADRBM
 10
609.3204014904576
 20
4042.796763828388
 11
460.8013138606439
 21
4042.188702501669
  0
LINE
  8
KADRBM
 10
633.8124692528295
 20
3963.520458768749
 11
621.8854781249647
 21
4032.267768433228
  0
LINE
  8
KADRBM
 10
929.4613854587318
 20
3630.864250319361
 11
1142.961292060235
 21
3631.456860131062
  0
LINE
  8
KADRBM
 10
672.9530120410532
 20
3615.85119566479
 11
929.4613854587318
 21
3630.864250319361
  0
LINE
  8
KADRBM
 10
1075.83573597976
 20
4232.722627458058
 11
1141.307522660124
 21
4236.907676988046
  0
LINE
  8
KADRBM
 10
1013.796950364701
 20
4207.987396990062
 11
1075.83573597976
 21
4232.722627458058
  0
LINE
  8
KADRBM
 10
986.1588198243237
 20
4142.264535990399
 11
1013.796950364701
 21
4207.987396990062
  0
ARC
  8
KADRBM
 10
1089.054419547931
 20
3444.44407104196
 40
847.4308437831752
 50
86.4796656813753
 51
134.7540294661162
  0
LINE
  8
KADRBM
 10
622.2407325880616
 20
4022.688559950351
 11
761.0176384762341
 21
4079.406263451353
  0
LINE
  8
KADRBM
 10
776.7258233927314
 20
4105.519501212322
 11
1092.517139529556
 21
4159.061528073836
  0
LINE
  8
KADRBM
 10
719.53348827427
 20
4010.443141154027
 11
776.7258233927314
 21
4105.519501212322
  0
LINE
  8
KADRBM
 10
710.4316976088576
 20
3961.443409782804
 11
719.53348827427
 21
4010.443141154027
  0
ARC
  8
KADRBM
 10
529.8975663530645
 20
4312.360896126253
 40
363.9889528279494
 50
256.330657902004
 51
286.5880906536522
  0
ARC
  8
KADRBM
 10
789.3683233867546
 20
3830.784109337545
 40
152.4
 50
102.0039478453662
 51
145.3046197569188
  0
ARC
  8
KADRBM
 10
1102.039103401691
 20
3479.201927042285
 40
609.5999999999999
 50
145.3046197569188
 51
165.4896388714139
  0
ARC
  8
KADRBM
 10
2276.71896887481
 20
2706.720970434275
 40
1828.8
 50
177.7837027214669
 51
183.8582887954789
  0
LINE
  8
KADRBM
 10
757.6723104496974
 20
3979.851620097637
 11
1018.815195597276
 21
4035.378060596567
  0
LINE
  8
KADRBM
 10
600.8321163739882
 20
3826.194313347521
 11
664.0665766320465
 21
3917.532205914587
  0
LINE
  8
KADRBM
 10
477.1651960077463
 20
3497.793064088004
 11
511.8839127437604
 21
3631.940301200031
  0
LINE
  8
KADRBM
 10
449.2869900719267
 20
2777.444395433869
 11
477.1651960077463
 21
3497.793064088004
  0
ARC
  8
KADRBM
 10
2192.719263224404
 20
3520.853000840117
 40
1828.8
 50
177.2343830834384
 51
188.6021788952132
  0
ARC
  8
KADRBM
 10
661.9651195400977
 20
3840.526138977278
 40
284.4058619132016
 50
147.5645225329935
 51
177.4169515197067
  0
LINE
  8
KADRBM
 10
366.049317524075
 20
3609.093294791992
 11
377.8482290122946
 21
3853.343580503678
  0
LINE
  8
KADRBM
 10
426.1072427316831
 20
2972.216751894847
 11
384.4919946427425
 21
3247.313999665507
  0
LINE
  8
KADRBM
 10
385.8626787725542
 20
2639.987776154836
 11
485.3070733850651
 21
3508.598141034997
  0
ARC
  8
KADRBM
 10
697.4003625691112
 20
2455.381596531926
 40
76.19999999999999
 50
90.15903498262108
 51
182.0546965518433
  0
LINE
  8
KADRBM
 10
635.5202079352407
 20
2054.873494204192
 11
621.2493549509312
 21
2452.649557238437
  0
LINE
  8
KADRBM
 10
2002.168062944494
 20
2731.743683569783
 11
1936.87079212256
 21
3485.318949492949
  0
ARC
  8
KADRBM
 10
-1034.453449239663
 20
2468.620534186623
 40
3048.0
 50
357.4023792228601
 51
4.952307706153563
  0
LINE
  8
KADRBM
 10
296.2613878854569
 20
2723.077545228978
 11
353.8990443996271
 21
3477.277330125082
  0
ARC
  8
KADRBM
 10
3335.399473846314
 20
2490.819726277905
 40
3048.0
 50
175.6298213020392
 51
183.1797497853372
  0
POLYLINE
  8
KADRBM
 66
     1
  0
VERTEX
  8
KADRBM
 10
1168.181717957873
 20
207.2470488686367
  0
VERTEX
  8
KADRBM
 10
1440.170706743419
 20
236.8748134126554
  0
VERTEX
  8
KADRBM
 10
1550.472009968523
 20
290.7862160451568
  0
VERTEX
  8
KADRBM
 10
1623.896436738318
 20
406.6692976755303
  0
VERTEX
  8
KADRBM
 10
1680.743115931243
 20
583.5677721695147
  0
VERTEX
  8
KADRBM
 10
1741.334854195467
 20
1028.648834410386
  0
VERTEX
  8
KADRBM
 10
1786.933571124365
 20
1302.962438477188
  0
VERTEX
  8
KADRBM
 10
1550.534525097706
 20
1263.770760144133
  0
VERTEX
  8
KADRBM
 10
1302.42498721407
 20
1243.080585560759
  0
VERTEX
  8
KADRBM
 10
1156.802987300362
 20
1233.681102175121
  0
SEQEND
  8
KADRBM
  0
POLYLINE
  8
KADRBM
 66
     1
  0
VERTEX
  8
KADRBM
 10
1529.869716158168
 20
294.2763325488436
  0
VERTEX
  8
KADRBM
 10
1694.032363825511
 20
1157.324139840433
  0
VERTEX
  8
KADRBM
 10
1675.877757272772
 20
1204.798867348631
  0
VERTEX
  8
KADRBM
 10
1640.58148412323
 20
1212.956152640197
  0
VERTEX
  8
KADRBM
 10
1257.829665850925
 20
1117.294817763288
  0
VERTEX
  8
KADRBM
 10
1201.764612742478
 20
1048.340164765471
  0
VERTEX
  8
KADRBM
 10
1177.269862510386
 20
232.4056267262113
  0
SEQEND
  8
KADRBM
  0
POLYLINE
  8
KADRBM
 66
     1
  0
VERTEX
  8
KADRBM
 10
1172.688153882181
 20
123.9270618121773
  0
VERTEX
  8
KADRBM
 10
1344.559298103933
 20
130.3555579089843
  0
VERTEX
  8
KADRBM
 10
1665.316241177911
 20
190.5671898275541
  0
VERTEX
  8
KADRBM
 10
1775.278520643316
 20
220.1223662577149
  0
VERTEX
  8
KADRBM
 10
1876.171142558564
 20
272.6351162041201
  0
VERTEX
  8
KADRBM
 10
1993.516128174414
 20
557.3320853025089
  0
VERTEX
  8
KADRBM
 10
2014.518817496485
 20
714.1409520187226
  0
VERTEX
  8
KADRBM
 10
2012.236158212056
 20
1090.444679749183
  0
VERTEX
  8
KADRBM
 10
1961.967134798544
 20
1403.013046871466
  0
VERTEX
  8
KADRBM
 10
1872.517497156464
 20
1611.052644584479
  0
SEQEND
  8
KADRBM
  0
LINE
  8
KADRBM
 10
1837.169310285496
 20
1610.838222401009
 11
1786.933571124365
 21
1302.962438477188
  0
LINE
  8
KADRBM
 10
1919.302145466989
 20
400.6900683337203
 11
1888.737185435214
 21
393.39100432339
  0
LINE
  8
KADRBM
 10
1648.129464808188
 20
355.9334867639263
 11
1598.473922753418
 21
352.2291138608734
  0
ARC
  8
KADRBM
 10
1534.751988797437
 20
1875.710295354267
 40
1524.0
 50
274.2664422429685
 51
283.4309740294059
  0
LINE
  8
KADRBM
 10
1722.432346834979
 20
363.3108497031017
 11
1735.31169849622
 21
306.5443623952042
  0
LINE
  8
KADRBM
 10
1735.31169849622
 20
306.5443623952042
 11
1880.354028126383
 21
319.1752993280738
  0
LINE
  8
KADRBM
 10
1848.134382198495
 20
539.3131641315986
 11
1809.729001543525
 21
716.4198824903756
  0
LINE
  8
KADRBM
 10
1794.908553941209
 20
716.7273981348408
 11
1746.962581709525
 21
532.8239008413143
  0
LINE
  8
KADRBM
 10
1746.962581709525
 20
532.8239008413143
 11
1785.369088319687
 21
524.5265353690811
  0
LINE
  8
KADRBM
 10
1813.778011788575
 20
526.5574214918929
 11
1848.134382198495
 21
539.3131641315986
  0
ARC
  8
KADRBM
 10
1796.096464274192
 20
574.1809753039333
 40
50.8
 50
257.8091432458546
 51
290.3688215990331
  0
ARC
  8
KADRBM
 10
1802.282080036048
 20
714.8050264429648
 40
7.619999999999999
 50
12.23509025422019
 51
165.387542864124
  0
LINE
  8
KADRBM
 10
1229.600882464663
 20
173.4426440210136
 11
1388.147678680604
 21
183.0103297710657
  0
LINE
  8
KADRBM
 10
1388.147678680604
 20
183.0103297710657
 11
1559.468537631624
 21
218.8132624006703
  0
LINE
  8
KADRBM
 10
1559.468537631624
 20
218.8132624006703
 11
1766.06630381998
 21
266.5812946595388
  0
LINE
  8
KADRBM
 10
1766.06630381998
 20
266.5812946595388
 11
1853.935909517232
 21
319.0150469593877
  0
LINE
  8
KADRBM
 10
1300.51555162641
 20
1359.771711214448
 11
1538.014252250741
 21
1383.586889994358
  0
LINE
  8
KADRBM
 10
1630.652339627425
 20
1427.544076522988
 11
1776.217578524205
 21
1573.327485978404
  0
LINE
  8
KADRBM
 10
1783.560646643819
 20
1593.325948412048
 11
1772.446480063603
 21
1730.48934892445
  0
LINE
  8
KADRBM
 10
1745.524870413602
 20
1753.787210731346
 11
1331.391024452681
 21
1727.572923934467
  0
ARC
  8
KADRBM
 10
1758.243621953363
 20
1591.274543820545
 40
25.4
 50
315.0429047810925
 51
4.63247953939582
  0
ARC
  8
KADRBM
 10
1747.12945537019
 20
1728.437944329967
 40
25.4
 50
4.63247953939582
 51
93.62193722029602
  0
ARC
  8
KADRBM
 10
1522.808600205192
 20
1535.226423578931
 40
152.4
 50
275.7261922304581
 51
315.0429047810925
  0
LINE
  8
KADRBM
 10
1845.656012731512
 20
1622.640812585897
 11
1802.868616519225
 21
1805.992355180841
  0
LINE
  8
KADRBM
 10
464.0337266033083
 20
1615.622064111517
 11
504.9560823620996
 21
1799.398858748457
  0
ARC
  8
KADRBM
 10
787.752596835014
 20
1531.49228201776
 40
152.4
 50
225.5392242271256
 51
264.8559367778039
  0
ARC
  8
KADRBM
 10
561.4803111629295
 20
1722.414754635114
 40
25.4
 50
86.9601917878508
 51
175.9496494687345
  0
ARC
  8
KADRBM
 10
551.7602837011754
 20
1585.145514799964
 40
25.4
 50
175.9496494687345
 51
225.5392242271256
  0
LINE
  8
KADRBM
 10
562.8272674672688
 20
1747.779015093569
 11
977.2060730718974
 21
1725.773636883288
  0
LINE
  8
KADRBM
 10
526.4237236471677
 20
1586.939595249539
 11
536.1437511089218
 21
1724.208835084666
  0
LINE
  8
KADRBM
 10
681.0084646895172
 20
1422.71981191461
 11
533.9695950092505
 21
1567.016769784258
  0
LINE
  8
KADRBM
 10
1011.816773310792
 20
1358.305099006458
 11
774.0883710483872
 21
1379.706087212405
  0
LINE
  8
KADRBM
 10
557.7043055615926
 20
260.4427219026975
 11
469.3065137652965
 21
311.9810221374651
  0
LINE
  8
KADRBM
 10
764.7767267089876
 20
214.7761663101583
 11
557.7043055615926
 21
260.4427219026975
  0
LINE
  8
KADRBM
 10
936.4524972361102
 20
180.7156831837847
 11
764.7767267089876
 21
214.7761663101583
  0
LINE
  8
KADRBM
 10
1095.088317033371
 20
172.7593097469817
 11
936.4524972361102
 21
180.7156831837847
  0
ARC
  8
KADRBM
 10
516.9364933674108
 20
708.2753710793418
 40
7.619999999999999
 50
15.19458614402381
 51
168.3470387539376
  0
ARC
  8
KADRBM
 10
524.5505151958259
 20
567.7214231698254
 40
50.8
 50
250.213307409203
 51
282.7729857624167
  0
LINE
  8
KADRBM
 10
507.3537304921637
 20
519.9206847252531
 11
472.8695363350388
 21
532.3267119500506
  0
LINE
  8
KADRBM
 10
574.1020452640842
 20
526.8656782637199
 11
535.781821276743
 21
518.1785350440314
  0
LINE
  8
KADRBM
 10
524.2901078015974
 20
710.2725577882638
 11
574.1020452640842
 21
526.8656782637199
  0
LINE
  8
KADRBM
 10
472.8695363350388
 20
532.3267119500506
 11
509.4735494538313
 21
709.8144838525786
  0
LINE
  8
KADRBM
 10
588.0513030519247
 20
300.7161905206954
 11
442.8881305279989
 21
311.8728609769896
  0
LINE
  8
KADRBM
 10
600.3532485306281
 20
357.6106007752965
 11
588.0513030519247
 21
300.7161905206954
  0
ARC
  8
KADRBM
 10
772.6581031701513
 20
1871.838799252938
 40
1524.0
 50
257.1511549786867
 51
266.3156867651901
  0
LINE
  8
KADRBM
 10
674.7272487764628
 20
350.9885279397768
 11
724.4178639895824
 21
347.7888412261168
  0
LINE
  8
KADRBM
 10
403.1138420849243
 20
392.9877140461485
 11
433.7513822751167
 21
385.9995634913598
  0
LINE
  8
KADRBM
 10
472.6399040810841
 20
1603.906307087208
 11
526.0010354662322
 21
1296.556803308031
  0
POLYLINE
  8
KADRBM
 66
     1
  0
VERTEX
  8
KADRBM
 10
1152.501181195792
 20
123.8245104261414
  0
VERTEX
  8
KADRBM
 10
980.5735949364796
 20
128.506482279372
  0
VERTEX
  8
KADRBM
 10
659.2214633619802
 20
185.4561502513634
  0
VERTEX
  8
KADRBM
 10
548.9645819539019
 20
213.8925962488665
  0
VERTEX
  8
KADRBM
 10
447.5436434900548
 20
265.377577602173
  0
VERTEX
  8
KADRBM
 10
327.3122236461855
 20
548.8676401157386
  0
VERTEX
  8
KADRBM
 10
304.7174570165073
 20
705.455028374402
  0
VERTEX
  8
KADRBM
 10
302.8692346316046
 20
1081.760963078144
  0
VERTEX
  8
KADRBM
 10
349.9600023225175
 20
1394.823925493793
  0
VERTEX
  8
KADRBM
 10
437.2913631305605
 20
1603.761584404394
  0
SEQEND
  8
KADRBM
  0
POLYLINE
  8
KADRBM
 66
     1
  0
VERTEX
  8
KADRBM
 10
793.6073237749376
 20
290.5360624365057
  0
VERTEX
  8
KADRBM
 10
620.3771173887802
 20
1151.869887838605
  0
VERTEX
  8
KADRBM
 10
638.0484487720685
 20
1199.526613892521
  0
VERTEX
  8
KADRBM
 10
673.2600230260753
 20
1208.042084521542
  0
VERTEX
  8
KADRBM
 10
1056.963995244686
 20
1116.274404561694
  0
VERTEX
  8
KADRBM
 10
1113.726726568356
 20
1047.892925467786
  0
VERTEX
  8
KADRBM
 10
1146.817578425955
 20
232.2509267582336
  0
SEQEND
  8
KADRBM
  0
POLYLINE
  8
KADRBM
 66
     1
  0
VERTEX
  8
KADRBM
 10
1156.160862373231
 20
207.1859819892852
  0
VERTEX
  8
KADRBM
 10
883.884896847155
 20
234.0488383106276
  0
VERTEX
  8
KADRBM
 10
773.0415525224391
 20
286.8368089664832
  0
VERTEX
  8
KADRBM
 10
698.4435556932881
 20
401.9679251962266
  0
VERTEX
  8
KADRBM
 10
639.8025409469742
 20
578.2797132379646
  0
VERTEX
  8
KADRBM
 10
574.384395788558
 20
1022.720635488967
  0
VERTEX
  8
KADRBM
 10
526.0010354662322
 20
1296.556803308031
  0
VERTEX
  8
KADRBM
 10
762.7860634762587
 20
1259.768936803591
  0
VERTEX
  8
KADRBM
 10
1011.093005630286
 20
1241.600596478339
  0
VERTEX
  8
KADRBM
 10
1156.802987300362
 20
1233.681102175121
  0
SEQEND
  8
KADRBM
  0
ARC
  8
KADRBM
 10
1138.840829553752
 20
4769.484892160624
 40
3048.0
 50
266.9601917878508
 51
273.6219372202955
  0
ARC
  8
KADRBM
 10
1148.459031188518
 20
2876.167047065923
 40
1524.0
 50
264.8559367778039
 51
275.7261922304581
  0
ARC
  8
KADRBM
 10
1156.16048023098
 20
1390.428735690638
 40
1219.2
 50
267.1287383428266
 51
273.4533906652623
  0
ENDSEC
  0
EOF
