  0
SECTION
  2
HEADER
  9
$ACADVER
  1
AC1003
  9
$INSBASE
 10
0.0
 20
0.0
  9
$EXTMIN
 10
18218.97851294387
 20
40605.19279105829
  9
$EXTMAX
 10
19618.97851313938
 20
41944.22677739029
  9
$LIMMIN
 10
0.0
 20
0.0
  9
$LIMMAX
 10
12.0
 20
9.0
  9
$ORTHOMODE
 70
     0
  9
$REGENMODE
 70
     1
  9
$FILLMODE
 70
     1
  9
$QTEXTMODE
 70
     0
  9
$DRAGMODE
 70
     2
  9
$LTSCALE
 40
1.0
  9
$OSMODE
 70
    37
  9
$ATTMODE
 70
     1
  9
$TEXTSIZE
 40
0.2
  9
$TRACEWID
 40
0.05
  9
$TEXTSTYLE
  7
STANDARD
  9
$CLAYER
  8
FREECADS_COM
  9
$CELTYPE
  6
BYLAYER
  9
$CECOLOR
 62
   256
  9
$DIMSCALE
 40
1.0
  9
$DIMASZ
 40
0.18
  9
$DIMEXO
 40
0.0625
  9
$DIMDLI
 40
0.38
  9
$DIMRND
 40
0.0
  9
$DIMDLE
 40
0.0
  9
$DIMEXE
 40
0.18
  9
$DIMTP
 40
0.0
  9
$DIMTM
 40
0.0
  9
$DIMTXT
 40
0.18
  9
$DIMCEN
 40
0.09
  9
$DIMTSZ
 40
0.0
  9
$DIMTOL
 70
     0
  9
$DIMLIM
 70
     0
  9
$DIMTIH
 70
     1
  9
$DIMTOH
 70
     1
  9
$DIMSE1
 70
     0
  9
$DIMSE2
 70
     0
  9
$DIMTAD
 70
     0
  9
$DIMZIN
 70
     0
  9
$DIMBLK
  1

  9
$DIMASO
 70
     1
  9
$DIMSHO
 70
     1
  9
$DIMPOST
  1

  9
$DIMAPOST
  1

  9
$DIMALT
 70
     0
  9
$DIMALTD
 70
     2
  9
$DIMALTF
 40
25.4
  9
$DIMLFAC
 40
1.0
  9
$DIMTOFL
 70
     0
  9
$DIMTVP
 40
0.0
  9
$DIMTIX
 70
     0
  9
$DIMSOXD
 70
     0
  9
$DIMSAH
 70
     0
  9
$DIMBLK1
  1

  9
$DIMBLK2
  1

  9
$LUNITS
 70
     2
  9
$LUPREC
 70
     4
  9
$SKETCHINC
 40
0.1
  9
$FILLETRAD
 40
0.0
  9
$AUNITS
 70
     0
  9
$AUPREC
 70
     0
  9
$MENU
  1
.
  9
$ELEVATION
 40
0.0
  9
$THICKNESS
 40
0.0
  9
$LIMCHECK
 70
     0
  9
$CHAMFERA
 40
0.0
  9
$CHAMFERB
 40
0.0
  9
$SKPOLY
 70
     0
  9
$TDCREATE
 40
2458157.287916667
  9
$TDUPDATE
 40
2461129.857116864
  9
$TDINDWG
 40
0.0884606481
  9
$TDUSRTIMER
 40
0.0884606481
  9
$USRTIMER
 70
     1
  9
$ANGBASE
 50
0.0
  9
$ANGDIR
 70
     0
  9
$PDMODE
 70
     0
  9
$PDSIZE
 40
0.0
  9
$PLINEWID
 40
0.0
  9
$COORDS
 70
     1
  9
$SURFTAB1
 70
     6
  9
$SURFTAB2
 70
     6
  9
$SURFTYPE
 70
     6
  9
$SURFU
 70
     6
  9
$SURFV
 70
     6
  9
$UCSNAME
  2

  9
$UCSORG
 10
0.0
 20
0.0
 30
0.0
  9
$UCSXDIR
 10
1.0
 20
0.0
 30
0.0
  9
$UCSYDIR
 10
0.0
 20
1.0
 30
0.0
  9
$USERI1
 70
     0
  9
$USERI2
 70
     0
  9
$USERI3
 70
     0
  9
$USERI4
 70
     0
  9
$USERI5
 70
     0
  9
$USERR1
 40
0.0
  9
$USERR2
 40
0.0
  9
$USERR3
 40
0.0
  9
$USERR4
 40
0.0
  9
$USERR5
 40
0.0
  9
$WORLDVIEW
 70
     1
  0
ENDSEC
  0
SECTION
  2
TABLES
  0
TABLE
  2
LTYPE
 70
     1
  0
LTYPE
  2
CONTINUOUS
 70
     0
  3
Solid line
 72
    65
 73
     0
 40
0.0
  0
ENDTAB
  0
TABLE
  2
LAYER
 70
     2
  0
LAYER
  2
0
 70
     0
 62
     5
  6
CONTINUOUS
  0
LAYER
  2
FREECADS_COM
 70
     0
 62
     7
  6
CONTINUOUS
  0
ENDTAB
  0
TABLE
  2
STYLE
 70
     1
  0
STYLE
  2
STANDARD
 70
     0
 40
0.0
 41
1.0
 50
0.0
 71
     0
 42
0.2
  3

  4

  0
ENDTAB
  0
TABLE
  2
VIEW
 70
     0
  0
ENDTAB
  0
ENDSEC
  0
SECTION
  2
BLOCKS
  0
ENDSEC
  0
SECTION
  2
ENTITIES
  0
LINE
  8
FREECADS_COM
 10
18643.61129278317
 20
40889.85848234576
 11
19244.5130095723
 21
40889.85848234576
  0
LINE
  8
FREECADS_COM
 10
19259.5130095723
 20
40904.85848234576
 11
19259.5130095723
 21
40934.84515668846
  0
ARC
  8
FREECADS_COM
 10
19244.5130095723
 20
40904.85848234576
 40
15.0
 50
270.0
 51
0.0
  0
LINE
  8
FREECADS_COM
 10
19259.5130095723
 20
40934.84515668846
 11
18628.61129278317
 21
40934.84515668846
  0
LINE
  8
FREECADS_COM
 10
18628.61129278317
 20
40934.84515668846
 11
18628.61129278317
 21
40904.85848234576
  0
ARC
  8
FREECADS_COM
 10
18643.61129278317
 20
40904.85848234576
 40
15.0
 50
180.0
 51
270.0
  0
POLYLINE
  8
FREECADS_COM
 66
     1
  0
VERTEX
  8
FREECADS_COM
 10
18873.20639471188
 20
40881.25413124532
  0
VERTEX
  8
FREECADS_COM
 10
18874.59767186709
 20
40875.31810834842
  0
VERTEX
  8
FREECADS_COM
 10
18878.76129339185
 20
40869.62634273255
  0
VERTEX
  8
FREECADS_COM
 10
18885.53081467593
 20
40864.40636797731
  0
VERTEX
  8
FREECADS_COM
 10
18894.635617863
 20
40859.86685738749
  0
VERTEX
  8
FREECADS_COM
 10
18905.71173004898
 20
40856.18928208538
  0
VERTEX
  8
FREECADS_COM
 10
18918.31637343461
 20
40853.52065653521
  0
VERTEX
  8
FREECADS_COM
 10
18931.94566577625
 20
40851.96766150442
  0
VERTEX
  8
FREECADS_COM
 10
18946.0547635433
 20
40851.59237940158
  0
VERTEX
  8
FREECADS_COM
 10
18960.0796425408
 20
40852.40981247484
  0
VERTEX
  8
FREECADS_COM
 10
18973.45964529675
 20
40854.38728308323
  0
VERTEX
  8
FREECADS_COM
 10
18985.65989386165
 20
40857.44574001554
  0
VERTEX
  8
FREECADS_COM
 10
18996.19267204776
 20
40861.46291863529
  0
VERTEX
  8
FREECADS_COM
 10
19004.63692233354
 20
40866.27822852244
  0
VERTEX
  8
FREECADS_COM
 10
19010.65507802631
 20
40871.69917322345
  0
VERTEX
  8
FREECADS_COM
 10
19014.00655780219
 20
40877.5090454746
  0
VERTEX
  8
FREECADS_COM
 10
19014.55738316632
 20
40883.47559027464
  0
SEQEND
  8
FREECADS_COM
  0
LINE
  8
FREECADS_COM
 10
18873.20639471187
 20
40881.15780104727
 11
18873.20639471187
 21
40889.85848234576
  0
LINE
  8
FREECADS_COM
 10
19014.68965761925
 20
40881.69863559504
 11
19014.68965761925
 21
40889.85848234576
  0
LINE
  8
FREECADS_COM
 10
18735.51861012423
 20
41005.1360034127
 11
19155.51861012423
 21
41005.1360034127
  0
ARC
  8
FREECADS_COM
 10
19155.51861012423
 20
41020.1360034127
 40
15.0
 50
270.0
 51
0.0
  0
LINE
  8
FREECADS_COM
 10
19170.51861012423
 20
41020.1360034127
 11
19170.51861012423
 21
41150.1360034127
  0
LINE
  8
FREECADS_COM
 10
19155.51861012423
 20
41165.1360034127
 11
18735.51861012423
 21
41165.1360034127
  0
ARC
  8
FREECADS_COM
 10
19155.51861012423
 20
41150.1360034127
 40
15.0
 50
0.0
 51
90.0
  0
LINE
  8
FREECADS_COM
 10
18720.51861012423
 20
41150.1360034127
 11
18720.51861012423
 21
41020.1360034127
  0
ARC
  8
FREECADS_COM
 10
18735.51861012423
 20
41150.1360034127
 40
15.0
 50
90.0
 51
180.0
  0
ARC
  8
FREECADS_COM
 10
18735.51861012423
 20
41020.1360034127
 40
15.0
 50
180.0
 51
270.0
  0
LINE
  8
FREECADS_COM
 10
19129.51487933556
 20
41070.62556127702
 11
19147.147290926
 21
41070.62556127702
  0
LINE
  8
FREECADS_COM
 10
19147.147290926
 20
41070.62556127702
 11
19147.147290926
 21
41054.80768041778
  0
LINE
  8
FREECADS_COM
 10
19147.147290926
 20
41054.80768041778
 11
19129.51487933556
 21
41054.80768041778
  0
LINE
  8
FREECADS_COM
 10
19129.51487933556
 20
41070.62556127702
 11
19129.51487933556
 21
41054.80768041778
  0
LINE
  8
FREECADS_COM
 10
19126.93852593357
 20
41070.62556127702
 11
19126.93852593357
 21
41054.80768041778
  0
LINE
  8
FREECADS_COM
 10
19109.30611434313
 20
41070.62556127702
 11
19126.93852593357
 21
41070.62556127702
  0
LINE
  8
FREECADS_COM
 10
19126.93852593357
 20
41070.62556127702
 11
19126.93852593357
 21
41054.80768041778
  0
LINE
  8
FREECADS_COM
 10
19126.93852593357
 20
41054.80768041778
 11
19109.30611434313
 21
41054.80768041778
  0
LINE
  8
FREECADS_COM
 10
19109.30611434313
 20
41070.62556127702
 11
19109.30611434313
 21
41054.80768041778
  0
LINE
  8
FREECADS_COM
 10
19106.72976094115
 20
41070.62556127702
 11
19106.72976094115
 21
41054.80768041778
  0
LINE
  8
FREECADS_COM
 10
19089.0973493507
 20
41070.62556127702
 11
19106.72976094115
 21
41070.62556127702
  0
LINE
  8
FREECADS_COM
 10
19106.72976094115
 20
41070.62556127702
 11
19106.72976094115
 21
41054.80768041778
  0
LINE
  8
FREECADS_COM
 10
19106.72976094115
 20
41054.80768041778
 11
19089.0973493507
 21
41054.80768041778
  0
LINE
  8
FREECADS_COM
 10
19089.0973493507
 20
41070.62556127702
 11
19089.0973493507
 21
41054.80768041778
  0
LINE
  8
FREECADS_COM
 10
19086.52099594873
 20
41070.62556127702
 11
19086.52099594873
 21
41054.80768041778
  0
LINE
  8
FREECADS_COM
 10
19068.88858435828
 20
41070.62556127702
 11
19086.52099594873
 21
41070.62556127702
  0
LINE
  8
FREECADS_COM
 10
19086.52099594873
 20
41070.62556127702
 11
19086.52099594873
 21
41054.80768041778
  0
LINE
  8
FREECADS_COM
 10
19086.52099594873
 20
41054.80768041778
 11
19068.88858435828
 21
41054.80768041778
  0
LINE
  8
FREECADS_COM
 10
19068.88858435828
 20
41070.62556127702
 11
19068.88858435828
 21
41054.80768041778
  0
LINE
  8
FREECADS_COM
 10
19066.3122309563
 20
41070.62556127702
 11
19066.3122309563
 21
41054.80768041778
  0
LINE
  8
FREECADS_COM
 10
19048.67981936586
 20
41070.62556127702
 11
19066.3122309563
 21
41070.62556127702
  0
LINE
  8
FREECADS_COM
 10
19066.3122309563
 20
41070.62556127702
 11
19066.3122309563
 21
41054.80768041778
  0
LINE
  8
FREECADS_COM
 10
19066.3122309563
 20
41054.80768041778
 11
19048.67981936586
 21
41054.80768041778
  0
LINE
  8
FREECADS_COM
 10
19048.67981936586
 20
41070.62556127702
 11
19048.67981936586
 21
41054.80768041778
  0
LINE
  8
FREECADS_COM
 10
19046.10346596387
 20
41070.62556127702
 11
19046.10346596387
 21
41054.80768041778
  0
LINE
  8
FREECADS_COM
 10
19028.47105437343
 20
41070.62556127702
 11
19046.10346596387
 21
41070.62556127702
  0
LINE
  8
FREECADS_COM
 10
19046.10346596387
 20
41070.62556127702
 11
19046.10346596387
 21
41054.80768041778
  0
LINE
  8
FREECADS_COM
 10
19046.10346596387
 20
41054.80768041778
 11
19028.47105437343
 21
41054.80768041778
  0
LINE
  8
FREECADS_COM
 10
19028.47105437343
 20
41070.62556127702
 11
19028.47105437343
 21
41054.80768041778
  0
LINE
  8
FREECADS_COM
 10
19025.89470097145
 20
41070.62556127702
 11
19025.89470097145
 21
41054.80768041778
  0
LINE
  8
FREECADS_COM
 10
19008.262289381
 20
41070.62556127702
 11
19025.89470097145
 21
41070.62556127702
  0
LINE
  8
FREECADS_COM
 10
19025.89470097145
 20
41070.62556127702
 11
19025.89470097145
 21
41054.80768041778
  0
LINE
  8
FREECADS_COM
 10
19025.89470097145
 20
41054.80768041778
 11
19008.262289381
 21
41054.80768041778
  0
LINE
  8
FREECADS_COM
 10
19008.262289381
 20
41070.62556127702
 11
19008.262289381
 21
41054.80768041778
  0
LINE
  8
FREECADS_COM
 10
19005.68593597903
 20
41070.62556127702
 11
19005.68593597903
 21
41054.80768041778
  0
LINE
  8
FREECADS_COM
 10
18988.05352438858
 20
41070.62556127702
 11
19005.68593597903
 21
41070.62556127702
  0
LINE
  8
FREECADS_COM
 10
19005.68593597903
 20
41070.62556127702
 11
19005.68593597903
 21
41054.80768041778
  0
LINE
  8
FREECADS_COM
 10
19005.68593597903
 20
41054.80768041778
 11
18988.05352438858
 21
41054.80768041778
  0
LINE
  8
FREECADS_COM
 10
18988.05352438858
 20
41070.62556127702
 11
18988.05352438858
 21
41054.80768041778
  0
LINE
  8
FREECADS_COM
 10
18985.4771709866
 20
41070.62556127702
 11
18985.4771709866
 21
41054.80768041778
  0
LINE
  8
FREECADS_COM
 10
18967.84475939616
 20
41070.62556127702
 11
18985.4771709866
 21
41070.62556127702
  0
LINE
  8
FREECADS_COM
 10
18985.4771709866
 20
41070.62556127702
 11
18985.4771709866
 21
41054.80768041778
  0
LINE
  8
FREECADS_COM
 10
18985.4771709866
 20
41054.80768041778
 11
18967.84475939616
 21
41054.80768041778
  0
LINE
  8
FREECADS_COM
 10
18967.84475939616
 20
41070.62556127702
 11
18967.84475939616
 21
41054.80768041778
  0
LINE
  8
FREECADS_COM
 10
18965.26840599417
 20
41070.62556127702
 11
18965.26840599417
 21
41054.80768041778
  0
LINE
  8
FREECADS_COM
 10
18947.63599440373
 20
41070.62556127702
 11
18965.26840599417
 21
41070.62556127702
  0
LINE
  8
FREECADS_COM
 10
18965.26840599417
 20
41070.62556127702
 11
18965.26840599417
 21
41054.80768041778
  0
LINE
  8
FREECADS_COM
 10
18965.26840599417
 20
41054.80768041778
 11
18947.63599440373
 21
41054.80768041778
  0
LINE
  8
FREECADS_COM
 10
18947.63599440373
 20
41070.62556127702
 11
18947.63599440373
 21
41054.80768041778
  0
LINE
  8
FREECADS_COM
 10
18945.05964100175
 20
41070.62556127702
 11
18945.05964100175
 21
41054.80768041778
  0
LINE
  8
FREECADS_COM
 10
18927.4272294113
 20
41070.62556127702
 11
18945.05964100175
 21
41070.62556127702
  0
LINE
  8
FREECADS_COM
 10
18945.05964100175
 20
41070.62556127702
 11
18945.05964100175
 21
41054.80768041778
  0
LINE
  8
FREECADS_COM
 10
18945.05964100175
 20
41054.80768041778
 11
18927.4272294113
 21
41054.80768041778
  0
LINE
  8
FREECADS_COM
 10
18927.4272294113
 20
41070.62556127702
 11
18927.4272294113
 21
41054.80768041778
  0
LINE
  8
FREECADS_COM
 10
18924.85087600932
 20
41070.62556127702
 11
18924.85087600932
 21
41054.80768041778
  0
LINE
  8
FREECADS_COM
 10
18907.21846441888
 20
41070.62556127702
 11
18924.85087600932
 21
41070.62556127702
  0
LINE
  8
FREECADS_COM
 10
18924.85087600932
 20
41070.62556127702
 11
18924.85087600932
 21
41054.80768041778
  0
LINE
  8
FREECADS_COM
 10
18924.85087600932
 20
41054.80768041778
 11
18907.21846441888
 21
41054.80768041778
  0
LINE
  8
FREECADS_COM
 10
18907.21846441888
 20
41070.62556127702
 11
18907.21846441888
 21
41054.80768041778
  0
LINE
  8
FREECADS_COM
 10
18904.6421110169
 20
41070.62556127702
 11
18904.6421110169
 21
41054.80768041778
  0
LINE
  8
FREECADS_COM
 10
18887.00969942646
 20
41070.62556127702
 11
18904.6421110169
 21
41070.62556127702
  0
LINE
  8
FREECADS_COM
 10
18904.6421110169
 20
41070.62556127702
 11
18904.6421110169
 21
41054.80768041778
  0
LINE
  8
FREECADS_COM
 10
18904.6421110169
 20
41054.80768041778
 11
18887.00969942646
 21
41054.80768041778
  0
LINE
  8
FREECADS_COM
 10
18887.00969942646
 20
41070.62556127702
 11
18887.00969942646
 21
41054.80768041778
  0
LINE
  8
FREECADS_COM
 10
18845.26433089658
 20
41070.62556127702
 11
18845.26433089658
 21
41054.80768041778
  0
LINE
  8
FREECADS_COM
 10
18827.63191930614
 20
41070.62556127702
 11
18845.26433089658
 21
41070.62556127702
  0
LINE
  8
FREECADS_COM
 10
18845.26433089658
 20
41070.62556127702
 11
18845.26433089658
 21
41054.80768041778
  0
LINE
  8
FREECADS_COM
 10
18845.26433089658
 20
41054.80768041778
 11
18827.63191930614
 21
41054.80768041778
  0
LINE
  8
FREECADS_COM
 10
18827.63191930614
 20
41070.62556127702
 11
18827.63191930614
 21
41054.80768041778
  0
LINE
  8
FREECADS_COM
 10
18825.05556590416
 20
41070.62556127702
 11
18825.05556590416
 21
41054.80768041778
  0
LINE
  8
FREECADS_COM
 10
18807.42315431371
 20
41070.62556127702
 11
18825.05556590416
 21
41070.62556127702
  0
LINE
  8
FREECADS_COM
 10
18825.05556590416
 20
41070.62556127702
 11
18825.05556590416
 21
41054.80768041778
  0
LINE
  8
FREECADS_COM
 10
18825.05556590416
 20
41054.80768041778
 11
18807.42315431371
 21
41054.80768041778
  0
LINE
  8
FREECADS_COM
 10
18807.42315431371
 20
41070.62556127702
 11
18807.42315431371
 21
41054.80768041778
  0
LINE
  8
FREECADS_COM
 10
18804.84680091173
 20
41070.62556127702
 11
18804.84680091173
 21
41054.80768041778
  0
LINE
  8
FREECADS_COM
 10
18787.21438932129
 20
41070.62556127702
 11
18804.84680091173
 21
41070.62556127702
  0
LINE
  8
FREECADS_COM
 10
18804.84680091173
 20
41070.62556127702
 11
18804.84680091173
 21
41054.80768041778
  0
LINE
  8
FREECADS_COM
 10
18804.84680091173
 20
41054.80768041778
 11
18787.21438932129
 21
41054.80768041778
  0
LINE
  8
FREECADS_COM
 10
18787.21438932129
 20
41070.62556127702
 11
18787.21438932129
 21
41054.80768041778
  0
LINE
  8
FREECADS_COM
 10
19129.51487933556
 20
41092.3586011712
 11
19147.147290926
 21
41092.3586011712
  0
LINE
  8
FREECADS_COM
 10
19147.147290926
 20
41092.3586011712
 11
19147.147290926
 21
41076.54072031197
  0
LINE
  8
FREECADS_COM
 10
19147.147290926
 20
41076.54072031197
 11
19129.51487933556
 21
41076.54072031197
  0
LINE
  8
FREECADS_COM
 10
19129.51487933556
 20
41092.3586011712
 11
19129.51487933556
 21
41076.54072031197
  0
LINE
  8
FREECADS_COM
 10
19126.93852593357
 20
41092.3586011712
 11
19126.93852593357
 21
41076.54072031197
  0
LINE
  8
FREECADS_COM
 10
19109.30611434313
 20
41092.3586011712
 11
19126.93852593357
 21
41092.3586011712
  0
LINE
  8
FREECADS_COM
 10
19126.93852593357
 20
41092.3586011712
 11
19126.93852593357
 21
41076.54072031197
  0
LINE
  8
FREECADS_COM
 10
19126.93852593357
 20
41076.54072031197
 11
19109.30611434313
 21
41076.54072031197
  0
LINE
  8
FREECADS_COM
 10
19109.30611434313
 20
41092.3586011712
 11
19109.30611434313
 21
41076.54072031197
  0
LINE
  8
FREECADS_COM
 10
19106.72976094115
 20
41092.3586011712
 11
19106.72976094115
 21
41076.54072031197
  0
LINE
  8
FREECADS_COM
 10
19089.0973493507
 20
41092.3586011712
 11
19106.72976094115
 21
41092.3586011712
  0
LINE
  8
FREECADS_COM
 10
19106.72976094115
 20
41092.3586011712
 11
19106.72976094115
 21
41076.54072031197
  0
LINE
  8
FREECADS_COM
 10
19106.72976094115
 20
41076.54072031197
 11
19089.0973493507
 21
41076.54072031197
  0
LINE
  8
FREECADS_COM
 10
19089.0973493507
 20
41092.3586011712
 11
19089.0973493507
 21
41076.54072031197
  0
LINE
  8
FREECADS_COM
 10
19086.52099594873
 20
41092.3586011712
 11
19086.52099594873
 21
41076.54072031197
  0
LINE
  8
FREECADS_COM
 10
19068.88858435828
 20
41092.3586011712
 11
19086.52099594873
 21
41092.3586011712
  0
LINE
  8
FREECADS_COM
 10
19086.52099594873
 20
41092.3586011712
 11
19086.52099594873
 21
41076.54072031197
  0
LINE
  8
FREECADS_COM
 10
19086.52099594873
 20
41076.54072031197
 11
19068.88858435828
 21
41076.54072031197
  0
LINE
  8
FREECADS_COM
 10
19068.88858435828
 20
41092.3586011712
 11
19068.88858435828
 21
41076.54072031197
  0
LINE
  8
FREECADS_COM
 10
19066.3122309563
 20
41092.3586011712
 11
19066.3122309563
 21
41076.54072031197
  0
LINE
  8
FREECADS_COM
 10
19048.67981936586
 20
41092.3586011712
 11
19066.3122309563
 21
41092.3586011712
  0
LINE
  8
FREECADS_COM
 10
19066.3122309563
 20
41092.3586011712
 11
19066.3122309563
 21
41076.54072031197
  0
LINE
  8
FREECADS_COM
 10
19066.3122309563
 20
41076.54072031197
 11
19048.67981936586
 21
41076.54072031197
  0
LINE
  8
FREECADS_COM
 10
19048.67981936586
 20
41092.3586011712
 11
19048.67981936586
 21
41076.54072031197
  0
LINE
  8
FREECADS_COM
 10
19046.10346596387
 20
41092.3586011712
 11
19046.10346596387
 21
41076.54072031197
  0
LINE
  8
FREECADS_COM
 10
19028.47105437343
 20
41092.3586011712
 11
19046.10346596387
 21
41092.3586011712
  0
LINE
  8
FREECADS_COM
 10
19046.10346596387
 20
41092.3586011712
 11
19046.10346596387
 21
41076.54072031197
  0
LINE
  8
FREECADS_COM
 10
19046.10346596387
 20
41076.54072031197
 11
19028.47105437343
 21
41076.54072031197
  0
LINE
  8
FREECADS_COM
 10
19028.47105437343
 20
41092.3586011712
 11
19028.47105437343
 21
41076.54072031197
  0
LINE
  8
FREECADS_COM
 10
19025.89470097145
 20
41092.3586011712
 11
19025.89470097145
 21
41076.54072031197
  0
LINE
  8
FREECADS_COM
 10
19008.262289381
 20
41092.3586011712
 11
19025.89470097145
 21
41092.3586011712
  0
LINE
  8
FREECADS_COM
 10
19025.89470097145
 20
41092.3586011712
 11
19025.89470097145
 21
41076.54072031197
  0
LINE
  8
FREECADS_COM
 10
19025.89470097145
 20
41076.54072031197
 11
19008.262289381
 21
41076.54072031197
  0
LINE
  8
FREECADS_COM
 10
19008.262289381
 20
41092.3586011712
 11
19008.262289381
 21
41076.54072031197
  0
LINE
  8
FREECADS_COM
 10
19005.68593597903
 20
41092.3586011712
 11
19005.68593597903
 21
41076.54072031197
  0
LINE
  8
FREECADS_COM
 10
18988.05352438858
 20
41092.3586011712
 11
19005.68593597903
 21
41092.3586011712
  0
LINE
  8
FREECADS_COM
 10
19005.68593597903
 20
41092.3586011712
 11
19005.68593597903
 21
41076.54072031197
  0
LINE
  8
FREECADS_COM
 10
19005.68593597903
 20
41076.54072031197
 11
18988.05352438858
 21
41076.54072031197
  0
LINE
  8
FREECADS_COM
 10
18988.05352438858
 20
41092.3586011712
 11
18988.05352438858
 21
41076.54072031197
  0
LINE
  8
FREECADS_COM
 10
18985.4771709866
 20
41092.3586011712
 11
18985.4771709866
 21
41076.54072031197
  0
LINE
  8
FREECADS_COM
 10
18967.84475939616
 20
41092.3586011712
 11
18985.4771709866
 21
41092.3586011712
  0
LINE
  8
FREECADS_COM
 10
18985.4771709866
 20
41092.3586011712
 11
18985.4771709866
 21
41076.54072031197
  0
LINE
  8
FREECADS_COM
 10
18985.4771709866
 20
41076.54072031197
 11
18967.84475939616
 21
41076.54072031197
  0
LINE
  8
FREECADS_COM
 10
18967.84475939616
 20
41092.3586011712
 11
18967.84475939616
 21
41076.54072031197
  0
LINE
  8
FREECADS_COM
 10
18965.26840599417
 20
41092.3586011712
 11
18965.26840599417
 21
41076.54072031197
  0
LINE
  8
FREECADS_COM
 10
18947.63599440373
 20
41092.3586011712
 11
18965.26840599417
 21
41092.3586011712
  0
LINE
  8
FREECADS_COM
 10
18965.26840599417
 20
41092.3586011712
 11
18965.26840599417
 21
41076.54072031197
  0
LINE
  8
FREECADS_COM
 10
18965.26840599417
 20
41076.54072031197
 11
18947.63599440373
 21
41076.54072031197
  0
LINE
  8
FREECADS_COM
 10
18947.63599440373
 20
41092.3586011712
 11
18947.63599440373
 21
41076.54072031197
  0
LINE
  8
FREECADS_COM
 10
18945.05964100175
 20
41092.3586011712
 11
18945.05964100175
 21
41076.54072031197
  0
LINE
  8
FREECADS_COM
 10
18927.4272294113
 20
41092.3586011712
 11
18945.05964100175
 21
41092.3586011712
  0
LINE
  8
FREECADS_COM
 10
18945.05964100175
 20
41092.3586011712
 11
18945.05964100175
 21
41076.54072031197
  0
LINE
  8
FREECADS_COM
 10
18945.05964100175
 20
41076.54072031197
 11
18927.4272294113
 21
41076.54072031197
  0
LINE
  8
FREECADS_COM
 10
18927.4272294113
 20
41092.3586011712
 11
18927.4272294113
 21
41076.54072031197
  0
LINE
  8
FREECADS_COM
 10
18924.85087600932
 20
41092.3586011712
 11
18924.85087600932
 21
41076.54072031197
  0
LINE
  8
FREECADS_COM
 10
18907.21846441888
 20
41092.3586011712
 11
18924.85087600932
 21
41092.3586011712
  0
LINE
  8
FREECADS_COM
 10
18924.85087600932
 20
41092.3586011712
 11
18924.85087600932
 21
41076.54072031197
  0
LINE
  8
FREECADS_COM
 10
18924.85087600932
 20
41076.54072031197
 11
18907.21846441888
 21
41076.54072031197
  0
LINE
  8
FREECADS_COM
 10
18907.21846441888
 20
41092.3586011712
 11
18907.21846441888
 21
41076.54072031197
  0
LINE
  8
FREECADS_COM
 10
18904.6421110169
 20
41092.3586011712
 11
18904.6421110169
 21
41076.54072031197
  0
LINE
  8
FREECADS_COM
 10
18887.00969942646
 20
41092.3586011712
 11
18904.6421110169
 21
41092.3586011712
  0
LINE
  8
FREECADS_COM
 10
18904.6421110169
 20
41092.3586011712
 11
18904.6421110169
 21
41076.54072031197
  0
LINE
  8
FREECADS_COM
 10
18904.6421110169
 20
41076.54072031197
 11
18887.00969942646
 21
41076.54072031197
  0
LINE
  8
FREECADS_COM
 10
18887.00969942646
 20
41092.3586011712
 11
18887.00969942646
 21
41076.54072031197
  0
LINE
  8
FREECADS_COM
 10
18880.65202802582
 20
41076.68806546211
 11
18854.75684334707
 21
41076.68806546211
  0
LINE
  8
FREECADS_COM
 10
18854.75684334707
 20
41076.68806546211
 11
18854.75684334707
 21
41092.51796317799
  0
LINE
  8
FREECADS_COM
 10
18854.75684334707
 20
41092.51796317799
 11
18880.65202802582
 21
41092.51796317799
  0
LINE
  8
FREECADS_COM
 10
18880.65202802582
 20
41092.51796317799
 11
18880.65202802582
 21
41076.68806546211
  0
LINE
  8
FREECADS_COM
 10
18845.26433089658
 20
41092.3586011712
 11
18845.26433089658
 21
41076.54072031197
  0
LINE
  8
FREECADS_COM
 10
18827.63191930614
 20
41092.3586011712
 11
18845.26433089658
 21
41092.3586011712
  0
LINE
  8
FREECADS_COM
 10
18845.26433089658
 20
41092.3586011712
 11
18845.26433089658
 21
41076.54072031197
  0
LINE
  8
FREECADS_COM
 10
18845.26433089658
 20
41076.54072031197
 11
18827.63191930614
 21
41076.54072031197
  0
LINE
  8
FREECADS_COM
 10
18827.63191930614
 20
41092.3586011712
 11
18827.63191930614
 21
41076.54072031197
  0
LINE
  8
FREECADS_COM
 10
18825.05556590416
 20
41092.3586011712
 11
18825.05556590416
 21
41076.54072031197
  0
LINE
  8
FREECADS_COM
 10
18807.42315431371
 20
41092.3586011712
 11
18825.05556590416
 21
41092.3586011712
  0
LINE
  8
FREECADS_COM
 10
18825.05556590416
 20
41092.3586011712
 11
18825.05556590416
 21
41076.54072031197
  0
LINE
  8
FREECADS_COM
 10
18825.05556590416
 20
41076.54072031197
 11
18807.42315431371
 21
41076.54072031197
  0
LINE
  8
FREECADS_COM
 10
18807.42315431371
 20
41092.3586011712
 11
18807.42315431371
 21
41076.54072031197
  0
LINE
  8
FREECADS_COM
 10
18804.84680091173
 20
41092.3586011712
 11
18804.84680091173
 21
41076.54072031197
  0
LINE
  8
FREECADS_COM
 10
18787.21438932129
 20
41092.3586011712
 11
18804.84680091173
 21
41092.3586011712
  0
LINE
  8
FREECADS_COM
 10
18804.84680091173
 20
41092.3586011712
 11
18804.84680091173
 21
41076.54072031197
  0
LINE
  8
FREECADS_COM
 10
18804.84680091173
 20
41076.54072031197
 11
18787.21438932129
 21
41076.54072031197
  0
LINE
  8
FREECADS_COM
 10
18787.21438932129
 20
41092.3586011712
 11
18787.21438932129
 21
41076.54072031197
  0
LINE
  8
FREECADS_COM
 10
18762.48650715197
 20
41092.3586011712
 11
18780.1189187424
 21
41092.3586011712
  0
LINE
  8
FREECADS_COM
 10
18780.1189187424
 20
41092.3586011712
 11
18780.1189187424
 21
41076.54072031197
  0
LINE
  8
FREECADS_COM
 10
18780.1189187424
 20
41076.54072031197
 11
18762.48650715197
 21
41076.54072031197
  0
LINE
  8
FREECADS_COM
 10
18762.48650715197
 20
41092.3586011712
 11
18762.48650715197
 21
41076.54072031197
  0
LINE
  8
FREECADS_COM
 10
18742.27774215954
 20
41092.3586011712
 11
18759.91015374998
 21
41092.3586011712
  0
LINE
  8
FREECADS_COM
 10
18759.91015374998
 20
41092.3586011712
 11
18759.91015374998
 21
41076.54072031197
  0
LINE
  8
FREECADS_COM
 10
18759.91015374998
 20
41076.54072031197
 11
18742.27774215954
 21
41076.54072031197
  0
LINE
  8
FREECADS_COM
 10
18742.27774215954
 20
41092.3586011712
 11
18742.27774215954
 21
41076.54072031197
  0
LINE
  8
FREECADS_COM
 10
18722.1168602338
 20
41092.3586011712
 11
18739.74927182424
 21
41092.3586011712
  0
LINE
  8
FREECADS_COM
 10
18739.74927182424
 20
41092.3586011712
 11
18739.74927182424
 21
41076.54072031197
  0
LINE
  8
FREECADS_COM
 10
18739.74927182424
 20
41076.54072031197
 11
18722.1168602338
 21
41076.54072031197
  0
LINE
  8
FREECADS_COM
 10
18722.1168602338
 20
41092.3586011712
 11
18722.1168602338
 21
41076.54072031197
  0
LINE
  8
FREECADS_COM
 10
19129.51487933556
 20
41113.24121736329
 11
19147.147290926
 21
41113.24121736329
  0
LINE
  8
FREECADS_COM
 10
19147.147290926
 20
41113.24121736329
 11
19147.147290926
 21
41097.42333650406
  0
LINE
  8
FREECADS_COM
 10
19147.147290926
 20
41097.42333650406
 11
19129.51487933556
 21
41097.42333650406
  0
LINE
  8
FREECADS_COM
 10
19129.51487933556
 20
41113.24121736329
 11
19129.51487933556
 21
41097.42333650406
  0
LINE
  8
FREECADS_COM
 10
19126.93852593357
 20
41113.24121736329
 11
19126.93852593357
 21
41097.42333650406
  0
LINE
  8
FREECADS_COM
 10
19109.30611434313
 20
41113.24121736329
 11
19126.93852593357
 21
41113.24121736329
  0
LINE
  8
FREECADS_COM
 10
19126.93852593357
 20
41113.24121736329
 11
19126.93852593357
 21
41097.42333650406
  0
LINE
  8
FREECADS_COM
 10
19126.93852593357
 20
41097.42333650406
 11
19109.30611434313
 21
41097.42333650406
  0
LINE
  8
FREECADS_COM
 10
19109.30611434313
 20
41113.24121736329
 11
19109.30611434313
 21
41097.42333650406
  0
LINE
  8
FREECADS_COM
 10
19106.72976094115
 20
41113.24121736329
 11
19106.72976094115
 21
41097.42333650406
  0
LINE
  8
FREECADS_COM
 10
19089.0973493507
 20
41113.24121736329
 11
19106.72976094115
 21
41113.24121736329
  0
LINE
  8
FREECADS_COM
 10
19106.72976094115
 20
41113.24121736329
 11
19106.72976094115
 21
41097.42333650406
  0
LINE
  8
FREECADS_COM
 10
19106.72976094115
 20
41097.42333650406
 11
19089.0973493507
 21
41097.42333650406
  0
LINE
  8
FREECADS_COM
 10
19089.0973493507
 20
41113.24121736329
 11
19089.0973493507
 21
41097.42333650406
  0
LINE
  8
FREECADS_COM
 10
19086.52099594873
 20
41113.24121736329
 11
19086.52099594873
 21
41097.42333650406
  0
LINE
  8
FREECADS_COM
 10
19068.88858435828
 20
41113.24121736329
 11
19086.52099594873
 21
41113.24121736329
  0
LINE
  8
FREECADS_COM
 10
19086.52099594873
 20
41113.24121736329
 11
19086.52099594873
 21
41097.42333650406
  0
LINE
  8
FREECADS_COM
 10
19086.52099594873
 20
41097.42333650406
 11
19068.88858435828
 21
41097.42333650406
  0
LINE
  8
FREECADS_COM
 10
19068.88858435828
 20
41113.24121736329
 11
19068.88858435828
 21
41097.42333650406
  0
LINE
  8
FREECADS_COM
 10
19066.3122309563
 20
41113.24121736329
 11
19066.3122309563
 21
41097.42333650406
  0
LINE
  8
FREECADS_COM
 10
19048.67981936586
 20
41113.24121736329
 11
19066.3122309563
 21
41113.24121736329
  0
LINE
  8
FREECADS_COM
 10
19066.3122309563
 20
41113.24121736329
 11
19066.3122309563
 21
41097.42333650406
  0
LINE
  8
FREECADS_COM
 10
19066.3122309563
 20
41097.42333650406
 11
19048.67981936586
 21
41097.42333650406
  0
LINE
  8
FREECADS_COM
 10
19048.67981936586
 20
41113.24121736329
 11
19048.67981936586
 21
41097.42333650406
  0
LINE
  8
FREECADS_COM
 10
19046.10346596387
 20
41113.24121736329
 11
19046.10346596387
 21
41097.42333650406
  0
LINE
  8
FREECADS_COM
 10
19028.47105437343
 20
41113.24121736329
 11
19046.10346596387
 21
41113.24121736329
  0
LINE
  8
FREECADS_COM
 10
19046.10346596387
 20
41113.24121736329
 11
19046.10346596387
 21
41097.42333650406
  0
LINE
  8
FREECADS_COM
 10
19046.10346596387
 20
41097.42333650406
 11
19028.47105437343
 21
41097.42333650406
  0
LINE
  8
FREECADS_COM
 10
19028.47105437343
 20
41113.24121736329
 11
19028.47105437343
 21
41097.42333650406
  0
LINE
  8
FREECADS_COM
 10
19025.89470097145
 20
41113.24121736329
 11
19025.89470097145
 21
41097.42333650406
  0
LINE
  8
FREECADS_COM
 10
19008.262289381
 20
41113.24121736329
 11
19025.89470097145
 21
41113.24121736329
  0
LINE
  8
FREECADS_COM
 10
19025.89470097145
 20
41113.24121736329
 11
19025.89470097145
 21
41097.42333650406
  0
LINE
  8
FREECADS_COM
 10
19025.89470097145
 20
41097.42333650406
 11
19008.262289381
 21
41097.42333650406
  0
LINE
  8
FREECADS_COM
 10
19008.262289381
 20
41113.24121736329
 11
19008.262289381
 21
41097.42333650406
  0
LINE
  8
FREECADS_COM
 10
19005.68593597903
 20
41113.24121736329
 11
19005.68593597903
 21
41097.42333650406
  0
LINE
  8
FREECADS_COM
 10
18988.05352438858
 20
41113.24121736329
 11
19005.68593597903
 21
41113.24121736329
  0
LINE
  8
FREECADS_COM
 10
19005.68593597903
 20
41113.24121736329
 11
19005.68593597903
 21
41097.42333650406
  0
LINE
  8
FREECADS_COM
 10
19005.68593597903
 20
41097.42333650406
 11
18988.05352438858
 21
41097.42333650406
  0
LINE
  8
FREECADS_COM
 10
18988.05352438858
 20
41113.24121736329
 11
18988.05352438858
 21
41097.42333650406
  0
LINE
  8
FREECADS_COM
 10
18985.4771709866
 20
41113.24121736329
 11
18985.4771709866
 21
41097.42333650406
  0
LINE
  8
FREECADS_COM
 10
18967.84475939616
 20
41113.24121736329
 11
18985.4771709866
 21
41113.24121736329
  0
LINE
  8
FREECADS_COM
 10
18985.4771709866
 20
41113.24121736329
 11
18985.4771709866
 21
41097.42333650406
  0
LINE
  8
FREECADS_COM
 10
18985.4771709866
 20
41097.42333650406
 11
18967.84475939616
 21
41097.42333650406
  0
LINE
  8
FREECADS_COM
 10
18967.84475939616
 20
41113.24121736329
 11
18967.84475939616
 21
41097.42333650406
  0
LINE
  8
FREECADS_COM
 10
18965.26840599417
 20
41113.24121736329
 11
18965.26840599417
 21
41097.42333650406
  0
LINE
  8
FREECADS_COM
 10
18947.63599440373
 20
41113.24121736329
 11
18965.26840599417
 21
41113.24121736329
  0
LINE
  8
FREECADS_COM
 10
18965.26840599417
 20
41113.24121736329
 11
18965.26840599417
 21
41097.42333650406
  0
LINE
  8
FREECADS_COM
 10
18965.26840599417
 20
41097.42333650406
 11
18947.63599440373
 21
41097.42333650406
  0
LINE
  8
FREECADS_COM
 10
18947.63599440373
 20
41113.24121736329
 11
18947.63599440373
 21
41097.42333650406
  0
LINE
  8
FREECADS_COM
 10
18945.05964100175
 20
41113.24121736329
 11
18945.05964100175
 21
41097.42333650406
  0
LINE
  8
FREECADS_COM
 10
18927.4272294113
 20
41113.24121736329
 11
18945.05964100175
 21
41113.24121736329
  0
LINE
  8
FREECADS_COM
 10
18945.05964100175
 20
41113.24121736329
 11
18945.05964100175
 21
41097.42333650406
  0
LINE
  8
FREECADS_COM
 10
18945.05964100175
 20
41097.42333650406
 11
18927.4272294113
 21
41097.42333650406
  0
LINE
  8
FREECADS_COM
 10
18927.4272294113
 20
41113.24121736329
 11
18927.4272294113
 21
41097.42333650406
  0
LINE
  8
FREECADS_COM
 10
18924.85087600932
 20
41113.24121736329
 11
18924.85087600932
 21
41097.42333650406
  0
LINE
  8
FREECADS_COM
 10
18907.21846441888
 20
41113.24121736329
 11
18924.85087600932
 21
41113.24121736329
  0
LINE
  8
FREECADS_COM
 10
18924.85087600932
 20
41113.24121736329
 11
18924.85087600932
 21
41097.42333650406
  0
LINE
  8
FREECADS_COM
 10
18924.85087600932
 20
41097.42333650406
 11
18907.21846441888
 21
41097.42333650406
  0
LINE
  8
FREECADS_COM
 10
18907.21846441888
 20
41113.24121736329
 11
18907.21846441888
 21
41097.42333650406
  0
LINE
  8
FREECADS_COM
 10
18891.97953957676
 20
41097.57068165418
 11
18854.75684334707
 21
41097.57068165418
  0
LINE
  8
FREECADS_COM
 10
18854.75684334707
 20
41097.57068165418
 11
18854.75684334707
 21
41113.40057937008
  0
LINE
  8
FREECADS_COM
 10
18854.75684334707
 20
41113.40057937008
 11
18891.97953957676
 21
41113.40057937008
  0
LINE
  8
FREECADS_COM
 10
18891.97953957676
 20
41113.40057937008
 11
18891.97953957676
 21
41097.57068165418
  0
LINE
  8
FREECADS_COM
 10
18845.26433089658
 20
41113.24121736329
 11
18845.26433089658
 21
41097.42333650406
  0
LINE
  8
FREECADS_COM
 10
18827.63191930614
 20
41113.24121736329
 11
18845.26433089658
 21
41113.24121736329
  0
LINE
  8
FREECADS_COM
 10
18845.26433089658
 20
41113.24121736329
 11
18845.26433089658
 21
41097.42333650406
  0
LINE
  8
FREECADS_COM
 10
18845.26433089658
 20
41097.42333650406
 11
18827.63191930614
 21
41097.42333650406
  0
LINE
  8
FREECADS_COM
 10
18827.63191930614
 20
41113.24121736329
 11
18827.63191930614
 21
41097.42333650406
  0
LINE
  8
FREECADS_COM
 10
18825.05556590416
 20
41113.24121736329
 11
18825.05556590416
 21
41097.42333650406
  0
LINE
  8
FREECADS_COM
 10
18807.42315431371
 20
41113.24121736329
 11
18825.05556590416
 21
41113.24121736329
  0
LINE
  8
FREECADS_COM
 10
18825.05556590416
 20
41113.24121736329
 11
18825.05556590416
 21
41097.42333650406
  0
LINE
  8
FREECADS_COM
 10
18825.05556590416
 20
41097.42333650406
 11
18807.42315431371
 21
41097.42333650406
  0
LINE
  8
FREECADS_COM
 10
18807.42315431371
 20
41113.24121736329
 11
18807.42315431371
 21
41097.42333650406
  0
LINE
  8
FREECADS_COM
 10
18804.84680091173
 20
41113.24121736329
 11
18804.84680091173
 21
41097.42333650406
  0
LINE
  8
FREECADS_COM
 10
18787.21438932129
 20
41113.24121736329
 11
18804.84680091173
 21
41113.24121736329
  0
LINE
  8
FREECADS_COM
 10
18804.84680091173
 20
41113.24121736329
 11
18804.84680091173
 21
41097.42333650406
  0
LINE
  8
FREECADS_COM
 10
18804.84680091173
 20
41097.42333650406
 11
18787.21438932129
 21
41097.42333650406
  0
LINE
  8
FREECADS_COM
 10
18787.21438932129
 20
41113.24121736329
 11
18787.21438932129
 21
41097.42333650406
  0
LINE
  8
FREECADS_COM
 10
18762.48650715197
 20
41113.24121736329
 11
18780.1189187424
 21
41113.24121736329
  0
LINE
  8
FREECADS_COM
 10
18780.1189187424
 20
41113.24121736329
 11
18780.1189187424
 21
41097.42333650406
  0
LINE
  8
FREECADS_COM
 10
18780.1189187424
 20
41097.42333650406
 11
18762.48650715197
 21
41097.42333650406
  0
LINE
  8
FREECADS_COM
 10
18762.48650715197
 20
41113.24121736329
 11
18762.48650715197
 21
41097.42333650406
  0
LINE
  8
FREECADS_COM
 10
18742.27774215954
 20
41113.24121736329
 11
18759.91015374998
 21
41113.24121736329
  0
LINE
  8
FREECADS_COM
 10
18759.91015374998
 20
41113.24121736329
 11
18759.91015374998
 21
41097.42333650406
  0
LINE
  8
FREECADS_COM
 10
18759.91015374998
 20
41097.42333650406
 11
18742.27774215954
 21
41097.42333650406
  0
LINE
  8
FREECADS_COM
 10
18742.27774215954
 20
41113.24121736329
 11
18742.27774215954
 21
41097.42333650406
  0
LINE
  8
FREECADS_COM
 10
18722.1168602338
 20
41113.24121736329
 11
18739.74927182424
 21
41113.24121736329
  0
LINE
  8
FREECADS_COM
 10
18739.74927182424
 20
41113.24121736329
 11
18739.74927182424
 21
41097.42333650406
  0
LINE
  8
FREECADS_COM
 10
18739.74927182424
 20
41097.42333650406
 11
18722.1168602338
 21
41097.42333650406
  0
LINE
  8
FREECADS_COM
 10
18722.1168602338
 20
41113.24121736329
 11
18722.1168602338
 21
41097.42333650406
  0
LINE
  8
FREECADS_COM
 10
19109.30611434313
 20
41134.56346563442
 11
19147.147290926
 21
41134.56346563442
  0
LINE
  8
FREECADS_COM
 10
19147.147290926
 20
41134.56346563442
 11
19147.147290926
 21
41118.74558477518
  0
LINE
  8
FREECADS_COM
 10
19147.147290926
 20
41118.74558477518
 11
19109.30611434313
 21
41118.74558477518
  0
LINE
  8
FREECADS_COM
 10
19109.30611434313
 20
41134.56346563442
 11
19126.93852593357
 21
41134.56346563442
  0
LINE
  8
FREECADS_COM
 10
19126.93852593357
 20
41118.74558477518
 11
19109.30611434313
 21
41118.74558477518
  0
LINE
  8
FREECADS_COM
 10
19109.30611434313
 20
41134.56346563442
 11
19109.30611434313
 21
41118.74558477518
  0
LINE
  8
FREECADS_COM
 10
19106.72976094115
 20
41134.56346563442
 11
19106.72976094115
 21
41118.74558477518
  0
LINE
  8
FREECADS_COM
 10
19089.0973493507
 20
41134.56346563442
 11
19106.72976094115
 21
41134.56346563442
  0
LINE
  8
FREECADS_COM
 10
19106.72976094115
 20
41134.56346563442
 11
19106.72976094115
 21
41118.74558477518
  0
LINE
  8
FREECADS_COM
 10
19106.72976094115
 20
41118.74558477518
 11
19089.0973493507
 21
41118.74558477518
  0
LINE
  8
FREECADS_COM
 10
19089.0973493507
 20
41134.56346563442
 11
19089.0973493507
 21
41118.74558477518
  0
LINE
  8
FREECADS_COM
 10
19086.52099594873
 20
41134.56346563442
 11
19086.52099594873
 21
41118.74558477518
  0
LINE
  8
FREECADS_COM
 10
19068.88858435828
 20
41134.56346563442
 11
19086.52099594873
 21
41134.56346563442
  0
LINE
  8
FREECADS_COM
 10
19086.52099594873
 20
41134.56346563442
 11
19086.52099594873
 21
41118.74558477518
  0
LINE
  8
FREECADS_COM
 10
19086.52099594873
 20
41118.74558477518
 11
19068.88858435828
 21
41118.74558477518
  0
LINE
  8
FREECADS_COM
 10
19068.88858435828
 20
41134.56346563442
 11
19068.88858435828
 21
41118.74558477518
  0
LINE
  8
FREECADS_COM
 10
19066.3122309563
 20
41134.56346563442
 11
19066.3122309563
 21
41118.74558477518
  0
LINE
  8
FREECADS_COM
 10
19048.67981936586
 20
41134.56346563442
 11
19066.3122309563
 21
41134.56346563442
  0
LINE
  8
FREECADS_COM
 10
19066.3122309563
 20
41134.56346563442
 11
19066.3122309563
 21
41118.74558477518
  0
LINE
  8
FREECADS_COM
 10
19066.3122309563
 20
41118.74558477518
 11
19048.67981936586
 21
41118.74558477518
  0
LINE
  8
FREECADS_COM
 10
19048.67981936586
 20
41134.56346563442
 11
19048.67981936586
 21
41118.74558477518
  0
LINE
  8
FREECADS_COM
 10
19046.10346596387
 20
41134.56346563442
 11
19046.10346596387
 21
41118.74558477518
  0
LINE
  8
FREECADS_COM
 10
19028.47105437343
 20
41134.56346563442
 11
19046.10346596387
 21
41134.56346563442
  0
LINE
  8
FREECADS_COM
 10
19046.10346596387
 20
41134.56346563442
 11
19046.10346596387
 21
41118.74558477518
  0
LINE
  8
FREECADS_COM
 10
19046.10346596387
 20
41118.74558477518
 11
19028.47105437343
 21
41118.74558477518
  0
LINE
  8
FREECADS_COM
 10
19028.47105437343
 20
41134.56346563442
 11
19028.47105437343
 21
41118.74558477518
  0
LINE
  8
FREECADS_COM
 10
19025.89470097145
 20
41134.56346563442
 11
19025.89470097145
 21
41118.74558477518
  0
LINE
  8
FREECADS_COM
 10
19008.262289381
 20
41134.56346563442
 11
19025.89470097145
 21
41134.56346563442
  0
LINE
  8
FREECADS_COM
 10
19025.89470097145
 20
41134.56346563442
 11
19025.89470097145
 21
41118.74558477518
  0
LINE
  8
FREECADS_COM
 10
19025.89470097145
 20
41118.74558477518
 11
19008.262289381
 21
41118.74558477518
  0
LINE
  8
FREECADS_COM
 10
19008.262289381
 20
41134.56346563442
 11
19008.262289381
 21
41118.74558477518
  0
LINE
  8
FREECADS_COM
 10
19005.68593597903
 20
41134.56346563442
 11
19005.68593597903
 21
41118.74558477518
  0
LINE
  8
FREECADS_COM
 10
18988.05352438858
 20
41134.56346563442
 11
19005.68593597903
 21
41134.56346563442
  0
LINE
  8
FREECADS_COM
 10
19005.68593597903
 20
41134.56346563442
 11
19005.68593597903
 21
41118.74558477518
  0
LINE
  8
FREECADS_COM
 10
19005.68593597903
 20
41118.74558477518
 11
18988.05352438858
 21
41118.74558477518
  0
LINE
  8
FREECADS_COM
 10
18988.05352438858
 20
41134.56346563442
 11
18988.05352438858
 21
41118.74558477518
  0
LINE
  8
FREECADS_COM
 10
18985.4771709866
 20
41134.56346563442
 11
18985.4771709866
 21
41118.74558477518
  0
LINE
  8
FREECADS_COM
 10
18967.84475939616
 20
41134.56346563442
 11
18985.4771709866
 21
41134.56346563442
  0
LINE
  8
FREECADS_COM
 10
18985.4771709866
 20
41134.56346563442
 11
18985.4771709866
 21
41118.74558477518
  0
LINE
  8
FREECADS_COM
 10
18985.4771709866
 20
41118.74558477518
 11
18967.84475939616
 21
41118.74558477518
  0
LINE
  8
FREECADS_COM
 10
18967.84475939616
 20
41134.56346563442
 11
18967.84475939616
 21
41118.74558477518
  0
LINE
  8
FREECADS_COM
 10
18965.26840599417
 20
41134.56346563442
 11
18965.26840599417
 21
41118.74558477518
  0
LINE
  8
FREECADS_COM
 10
18947.63599440373
 20
41134.56346563442
 11
18965.26840599417
 21
41134.56346563442
  0
LINE
  8
FREECADS_COM
 10
18965.26840599417
 20
41134.56346563442
 11
18965.26840599417
 21
41118.74558477518
  0
LINE
  8
FREECADS_COM
 10
18965.26840599417
 20
41118.74558477518
 11
18947.63599440373
 21
41118.74558477518
  0
LINE
  8
FREECADS_COM
 10
18947.63599440373
 20
41134.56346563442
 11
18947.63599440373
 21
41118.74558477518
  0
LINE
  8
FREECADS_COM
 10
18945.05964100175
 20
41134.56346563442
 11
18945.05964100175
 21
41118.74558477518
  0
LINE
  8
FREECADS_COM
 10
18927.4272294113
 20
41134.56346563442
 11
18945.05964100175
 21
41134.56346563442
  0
LINE
  8
FREECADS_COM
 10
18945.05964100175
 20
41134.56346563442
 11
18945.05964100175
 21
41118.74558477518
  0
LINE
  8
FREECADS_COM
 10
18945.05964100175
 20
41118.74558477518
 11
18927.4272294113
 21
41118.74558477518
  0
LINE
  8
FREECADS_COM
 10
18927.4272294113
 20
41134.56346563442
 11
18927.4272294113
 21
41118.74558477518
  0
LINE
  8
FREECADS_COM
 10
18924.85087600932
 20
41134.56346563442
 11
18924.85087600932
 21
41118.74558477518
  0
LINE
  8
FREECADS_COM
 10
18907.21846441888
 20
41134.56346563442
 11
18924.85087600932
 21
41134.56346563442
  0
LINE
  8
FREECADS_COM
 10
18924.85087600932
 20
41134.56346563442
 11
18924.85087600932
 21
41118.74558477518
  0
LINE
  8
FREECADS_COM
 10
18924.85087600932
 20
41118.74558477518
 11
18907.21846441888
 21
41118.74558477518
  0
LINE
  8
FREECADS_COM
 10
18907.21846441888
 20
41134.56346563442
 11
18907.21846441888
 21
41118.74558477518
  0
LINE
  8
FREECADS_COM
 10
18854.75684334707
 20
41134.56346563442
 11
18904.6421110169
 21
41134.56346563442
  0
LINE
  8
FREECADS_COM
 10
18904.6421110169
 20
41134.56346563442
 11
18904.6421110169
 21
41118.89292992532
  0
LINE
  8
FREECADS_COM
 10
18904.6421110169
 20
41118.89292992532
 11
18854.75684334707
 21
41118.89292992531
  0
LINE
  8
FREECADS_COM
 10
18854.75684334707
 20
41118.89292992531
 11
18854.75684334707
 21
41134.56346563442
  0
LINE
  8
FREECADS_COM
 10
18762.48650715197
 20
41134.56346563442
 11
18780.1189187424
 21
41134.56346563442
  0
LINE
  8
FREECADS_COM
 10
18780.1189187424
 20
41134.56346563442
 11
18780.1189187424
 21
41118.74558477518
  0
LINE
  8
FREECADS_COM
 10
18780.1189187424
 20
41118.74558477518
 11
18762.48650715197
 21
41118.74558477518
  0
LINE
  8
FREECADS_COM
 10
18762.48650715197
 20
41134.56346563442
 11
18762.48650715197
 21
41118.74558477518
  0
LINE
  8
FREECADS_COM
 10
18742.27774215954
 20
41134.56346563442
 11
18759.91015374998
 21
41134.56346563442
  0
LINE
  8
FREECADS_COM
 10
18759.91015374998
 20
41134.56346563442
 11
18759.91015374998
 21
41118.74558477518
  0
LINE
  8
FREECADS_COM
 10
18759.91015374998
 20
41118.74558477518
 11
18742.27774215954
 21
41118.74558477518
  0
LINE
  8
FREECADS_COM
 10
18742.27774215954
 20
41134.56346563442
 11
18742.27774215954
 21
41118.74558477518
  0
LINE
  8
FREECADS_COM
 10
18722.1168602338
 20
41134.56346563442
 11
18739.74927182424
 21
41134.56346563442
  0
LINE
  8
FREECADS_COM
 10
18739.74927182424
 20
41134.56346563442
 11
18739.74927182424
 21
41118.74558477518
  0
LINE
  8
FREECADS_COM
 10
18739.74927182424
 20
41118.74558477518
 11
18722.1168602338
 21
41118.74558477518
  0
LINE
  8
FREECADS_COM
 10
18722.1168602338
 20
41134.56346563442
 11
18722.1168602338
 21
41118.74558477518
  0
LINE
  8
FREECADS_COM
 10
18762.48650715197
 20
41153.4114431192
 11
18780.1189187424
 21
41153.4114431192
  0
LINE
  8
FREECADS_COM
 10
18780.1189187424
 20
41153.4114431192
 11
18780.1189187424
 21
41137.59356225998
  0
LINE
  8
FREECADS_COM
 10
18780.1189187424
 20
41137.59356225998
 11
18762.48650715197
 21
41137.59356225998
  0
LINE
  8
FREECADS_COM
 10
18742.27774215954
 20
41153.4114431192
 11
18780.1189187424
 21
41153.4114431192
  0
LINE
  8
FREECADS_COM
 10
18780.1189187424
 20
41137.59356225998
 11
18742.27774215954
 21
41137.59356225998
  0
LINE
  8
FREECADS_COM
 10
18742.27774215954
 20
41153.4114431192
 11
18742.27774215954
 21
41137.59356225998
  0
LINE
  8
FREECADS_COM
 10
18722.1168602338
 20
41153.4114431192
 11
18739.74927182424
 21
41153.4114431192
  0
LINE
  8
FREECADS_COM
 10
18739.74927182424
 20
41153.4114431192
 11
18739.74927182424
 21
41137.59356225998
  0
LINE
  8
FREECADS_COM
 10
18739.74927182424
 20
41137.59356225998
 11
18722.1168602338
 21
41137.59356225998
  0
LINE
  8
FREECADS_COM
 10
18722.1168602338
 20
41153.4114431192
 11
18722.1168602338
 21
41137.59356225998
  0
LINE
  8
FREECADS_COM
 10
18825.05556590416
 20
41132.52882692713
 11
18825.05556590416
 21
41116.71094606789
  0
LINE
  8
FREECADS_COM
 10
18807.42315431371
 20
41132.52882692713
 11
18825.05556590416
 21
41132.52882692713
  0
LINE
  8
FREECADS_COM
 10
18825.05556590416
 20
41132.52882692713
 11
18825.05556590416
 21
41116.71094606789
  0
LINE
  8
FREECADS_COM
 10
18825.05556590416
 20
41116.71094606789
 11
18807.42315431371
 21
41116.71094606789
  0
LINE
  8
FREECADS_COM
 10
18807.42315431371
 20
41132.52882692713
 11
18807.42315431371
 21
41116.71094606789
  0
LINE
  8
FREECADS_COM
 10
18845.26433089658
 20
41153.4114431192
 11
18845.26433089658
 21
41137.59356225998
  0
LINE
  8
FREECADS_COM
 10
18827.63191930614
 20
41153.4114431192
 11
18845.26433089658
 21
41153.4114431192
  0
LINE
  8
FREECADS_COM
 10
18845.26433089658
 20
41153.4114431192
 11
18845.26433089658
 21
41137.59356225998
  0
LINE
  8
FREECADS_COM
 10
18845.26433089658
 20
41137.59356225998
 11
18827.63191930614
 21
41137.59356225998
  0
LINE
  8
FREECADS_COM
 10
18827.63191930614
 20
41153.4114431192
 11
18827.63191930614
 21
41137.59356225998
  0
LINE
  8
FREECADS_COM
 10
18804.84680091173
 20
41153.4114431192
 11
18804.84680091173
 21
41137.59356225998
  0
LINE
  8
FREECADS_COM
 10
18787.21438932129
 20
41153.4114431192
 11
18804.84680091173
 21
41153.4114431192
  0
LINE
  8
FREECADS_COM
 10
18804.84680091173
 20
41153.4114431192
 11
18804.84680091173
 21
41137.59356225998
  0
LINE
  8
FREECADS_COM
 10
18804.84680091173
 20
41137.59356225998
 11
18787.21438932129
 21
41137.59356225998
  0
LINE
  8
FREECADS_COM
 10
18787.21438932129
 20
41153.4114431192
 11
18787.21438932129
 21
41137.59356225998
  0
LINE
  8
FREECADS_COM
 10
18825.05556590416
 20
41153.4755946463
 11
18825.05556590416
 21
41137.65771378706
  0
LINE
  8
FREECADS_COM
 10
18807.42315431371
 20
41153.4755946463
 11
18825.05556590416
 21
41153.4755946463
  0
LINE
  8
FREECADS_COM
 10
18825.05556590416
 20
41153.4755946463
 11
18825.05556590416
 21
41137.65771378706
  0
LINE
  8
FREECADS_COM
 10
18825.05556590416
 20
41137.65771378706
 11
18807.42315431371
 21
41137.65771378706
  0
LINE
  8
FREECADS_COM
 10
18807.42315431371
 20
41153.4755946463
 11
18807.42315431371
 21
41137.65771378706
  0
LINE
  8
FREECADS_COM
 10
19109.30611434313
 20
41153.51876289291
 11
19147.147290926
 21
41153.51876289291
  0
LINE
  8
FREECADS_COM
 10
19147.147290926
 20
41153.51876289291
 11
19147.147290926
 21
41137.70088203369
  0
LINE
  8
FREECADS_COM
 10
19147.147290926
 20
41137.70088203369
 11
19109.30611434313
 21
41137.70088203369
  0
LINE
  8
FREECADS_COM
 10
19109.30611434313
 20
41153.51876289291
 11
19126.93852593357
 21
41153.51876289291
  0
LINE
  8
FREECADS_COM
 10
19126.93852593357
 20
41137.70088203369
 11
19109.30611434313
 21
41137.70088203369
  0
LINE
  8
FREECADS_COM
 10
19109.30611434313
 20
41153.51876289291
 11
19109.30611434313
 21
41137.70088203369
  0
LINE
  8
FREECADS_COM
 10
19106.72976094115
 20
41153.51876289291
 11
19106.72976094115
 21
41137.70088203369
  0
LINE
  8
FREECADS_COM
 10
19089.0973493507
 20
41153.51876289291
 11
19106.72976094115
 21
41153.51876289291
  0
LINE
  8
FREECADS_COM
 10
19106.72976094115
 20
41153.51876289291
 11
19106.72976094115
 21
41137.70088203369
  0
LINE
  8
FREECADS_COM
 10
19106.72976094115
 20
41137.70088203369
 11
19089.0973493507
 21
41137.70088203369
  0
LINE
  8
FREECADS_COM
 10
19089.0973493507
 20
41153.51876289291
 11
19089.0973493507
 21
41137.70088203369
  0
LINE
  8
FREECADS_COM
 10
19086.52099594873
 20
41153.51876289291
 11
19086.52099594873
 21
41137.70088203369
  0
LINE
  8
FREECADS_COM
 10
19068.88858435828
 20
41153.51876289291
 11
19086.52099594873
 21
41153.51876289291
  0
LINE
  8
FREECADS_COM
 10
19086.52099594873
 20
41153.51876289291
 11
19086.52099594873
 21
41137.70088203369
  0
LINE
  8
FREECADS_COM
 10
19086.52099594873
 20
41137.70088203369
 11
19068.88858435828
 21
41137.70088203369
  0
LINE
  8
FREECADS_COM
 10
19068.88858435828
 20
41153.51876289291
 11
19068.88858435828
 21
41137.70088203369
  0
LINE
  8
FREECADS_COM
 10
19066.3122309563
 20
41153.51876289291
 11
19066.3122309563
 21
41137.70088203369
  0
LINE
  8
FREECADS_COM
 10
19048.67981936586
 20
41153.51876289291
 11
19066.3122309563
 21
41153.51876289291
  0
LINE
  8
FREECADS_COM
 10
19066.3122309563
 20
41153.51876289291
 11
19066.3122309563
 21
41137.70088203369
  0
LINE
  8
FREECADS_COM
 10
19066.3122309563
 20
41137.70088203369
 11
19048.67981936586
 21
41137.70088203369
  0
LINE
  8
FREECADS_COM
 10
19048.67981936586
 20
41153.51876289291
 11
19048.67981936586
 21
41137.70088203369
  0
LINE
  8
FREECADS_COM
 10
19046.10346596387
 20
41153.51876289291
 11
19046.10346596387
 21
41137.70088203369
  0
LINE
  8
FREECADS_COM
 10
19028.47105437343
 20
41153.51876289291
 11
19046.10346596387
 21
41153.51876289291
  0
LINE
  8
FREECADS_COM
 10
19046.10346596387
 20
41153.51876289291
 11
19046.10346596387
 21
41137.70088203369
  0
LINE
  8
FREECADS_COM
 10
19046.10346596387
 20
41137.70088203369
 11
19028.47105437343
 21
41137.70088203369
  0
LINE
  8
FREECADS_COM
 10
19008.262289381
 20
41153.51876289291
 11
19025.89470097145
 21
41153.51876289291
  0
LINE
  8
FREECADS_COM
 10
19025.89470097145
 20
41137.70088203369
 11
19008.262289381
 21
41137.70088203369
  0
LINE
  8
FREECADS_COM
 10
18988.05352438858
 20
41153.51876289291
 11
19005.68593597903
 21
41153.51876289291
  0
LINE
  8
FREECADS_COM
 10
19005.68593597903
 20
41137.70088203369
 11
18988.05352438858
 21
41137.70088203369
  0
LINE
  8
FREECADS_COM
 10
18967.84475939616
 20
41153.51876289291
 11
18985.4771709866
 21
41153.51876289291
  0
LINE
  8
FREECADS_COM
 10
18985.4771709866
 20
41137.70088203369
 11
18967.84475939616
 21
41137.70088203369
  0
LINE
  8
FREECADS_COM
 10
18947.63599440373
 20
41153.51876289291
 11
19046.10346596387
 21
41153.51876289291
  0
LINE
  8
FREECADS_COM
 10
19046.10346596387
 20
41137.70088203369
 11
18947.63599440373
 21
41137.70088203369
  0
LINE
  8
FREECADS_COM
 10
18947.63599440373
 20
41153.51876289291
 11
18947.63599440373
 21
41137.70088203369
  0
LINE
  8
FREECADS_COM
 10
18945.05964100175
 20
41153.51876289291
 11
18945.05964100175
 21
41137.70088203369
  0
LINE
  8
FREECADS_COM
 10
18927.4272294113
 20
41153.51876289291
 11
18945.05964100175
 21
41153.51876289291
  0
LINE
  8
FREECADS_COM
 10
18945.05964100175
 20
41153.51876289291
 11
18945.05964100175
 21
41137.70088203369
  0
LINE
  8
FREECADS_COM
 10
18945.05964100175
 20
41137.70088203369
 11
18927.4272294113
 21
41137.70088203369
  0
LINE
  8
FREECADS_COM
 10
18927.4272294113
 20
41153.51876289291
 11
18927.4272294113
 21
41137.70088203369
  0
LINE
  8
FREECADS_COM
 10
18924.85087600932
 20
41153.51876289291
 11
18924.85087600932
 21
41137.70088203369
  0
LINE
  8
FREECADS_COM
 10
18907.21846441888
 20
41153.51876289291
 11
18924.85087600932
 21
41153.51876289291
  0
LINE
  8
FREECADS_COM
 10
18924.85087600932
 20
41153.51876289291
 11
18924.85087600932
 21
41137.70088203369
  0
LINE
  8
FREECADS_COM
 10
18924.85087600932
 20
41137.70088203369
 11
18907.21846441888
 21
41137.70088203369
  0
LINE
  8
FREECADS_COM
 10
18907.21846441888
 20
41153.51876289291
 11
18907.21846441888
 21
41137.70088203369
  0
LINE
  8
FREECADS_COM
 10
18854.75684334707
 20
41153.51876289291
 11
18884.38168563931
 21
41153.51876289291
  0
LINE
  8
FREECADS_COM
 10
18887.00969942646
 20
41153.51876289291
 11
18904.6421110169
 21
41153.51876289291
  0
LINE
  8
FREECADS_COM
 10
18904.6421110169
 20
41153.51876289291
 11
18904.6421110169
 21
41137.84822718381
  0
LINE
  8
FREECADS_COM
 10
18884.38168563931
 20
41137.70088203369
 11
18854.75684334707
 21
41137.70088203369
  0
LINE
  8
FREECADS_COM
 10
18854.75684334707
 20
41137.84822718381
 11
18854.75684334707
 21
41153.51876289291
  0
LINE
  8
FREECADS_COM
 10
18904.6421110169
 20
41153.51876289291
 11
18904.6421110169
 21
41137.70088203369
  0
LINE
  8
FREECADS_COM
 10
18887.00969942646
 20
41153.51876289291
 11
18904.6421110169
 21
41153.51876289291
  0
LINE
  8
FREECADS_COM
 10
18904.6421110169
 20
41153.51876289291
 11
18904.6421110169
 21
41137.70088203369
  0
LINE
  8
FREECADS_COM
 10
18904.6421110169
 20
41137.70088203369
 11
18887.00969942646
 21
41137.70088203369
  0
LINE
  8
FREECADS_COM
 10
18887.00969942646
 20
41153.51876289291
 11
18887.00969942646
 21
41137.70088203369
  0
LINE
  8
FREECADS_COM
 10
18884.38168563931
 20
41153.51876289291
 11
18884.38168563931
 21
41137.70088203369
  0
LINE
  8
FREECADS_COM
 10
19129.51487933556
 20
41033.99975361172
 11
19147.147290926
 21
41033.99975361172
  0
LINE
  8
FREECADS_COM
 10
19147.147290926
 20
41033.99975361172
 11
19147.147290926
 21
41018.18187275248
  0
LINE
  8
FREECADS_COM
 10
19147.147290926
 20
41018.18187275248
 11
19129.51487933556
 21
41018.18187275248
  0
LINE
  8
FREECADS_COM
 10
19129.51487933556
 20
41033.99975361172
 11
19129.51487933556
 21
41018.18187275248
  0
LINE
  8
FREECADS_COM
 10
19118.29235501897
 20
41033.99975361172
 11
19118.29235501897
 21
41018.18187275248
  0
LINE
  8
FREECADS_COM
 10
19100.65994342854
 20
41033.99975361172
 11
19118.29235501897
 21
41033.99975361172
  0
LINE
  8
FREECADS_COM
 10
19118.29235501897
 20
41033.99975361172
 11
19118.29235501897
 21
41018.18187275248
  0
LINE
  8
FREECADS_COM
 10
19118.29235501897
 20
41018.18187275248
 11
19100.65994342854
 21
41018.18187275248
  0
LINE
  8
FREECADS_COM
 10
19100.65994342854
 20
41033.99975361172
 11
19100.65994342854
 21
41018.18187275248
  0
LINE
  8
FREECADS_COM
 10
19098.08359002655
 20
41033.99975361172
 11
19098.08359002655
 21
41018.18187275248
  0
LINE
  8
FREECADS_COM
 10
19080.45117843611
 20
41033.99975361172
 11
19098.08359002655
 21
41033.99975361172
  0
LINE
  8
FREECADS_COM
 10
19098.08359002655
 20
41033.99975361172
 11
19098.08359002655
 21
41018.18187275248
  0
LINE
  8
FREECADS_COM
 10
19098.08359002655
 20
41018.18187275248
 11
19080.45117843611
 21
41018.18187275248
  0
LINE
  8
FREECADS_COM
 10
19080.45117843611
 20
41033.99975361172
 11
19080.45117843611
 21
41018.18187275248
  0
LINE
  8
FREECADS_COM
 10
19077.87482503413
 20
41033.99975361172
 11
19077.87482503413
 21
41018.18187275248
  0
LINE
  8
FREECADS_COM
 10
19060.24241344369
 20
41033.99975361172
 11
19077.87482503413
 21
41033.99975361172
  0
LINE
  8
FREECADS_COM
 10
19077.87482503413
 20
41033.99975361172
 11
19077.87482503413
 21
41018.18187275248
  0
LINE
  8
FREECADS_COM
 10
19077.87482503413
 20
41018.18187275248
 11
19060.24241344369
 21
41018.18187275248
  0
LINE
  8
FREECADS_COM
 10
19060.24241344369
 20
41033.99975361172
 11
19060.24241344369
 21
41018.18187275248
  0
LINE
  8
FREECADS_COM
 10
19057.6660600417
 20
41033.99975361172
 11
19057.6660600417
 21
41018.18187275248
  0
LINE
  8
FREECADS_COM
 10
19040.03364845127
 20
41033.99975361172
 11
19057.6660600417
 21
41033.99975361172
  0
LINE
  8
FREECADS_COM
 10
19057.6660600417
 20
41033.99975361172
 11
19057.6660600417
 21
41018.18187275248
  0
LINE
  8
FREECADS_COM
 10
19057.6660600417
 20
41018.18187275248
 11
19040.03364845127
 21
41018.18187275248
  0
LINE
  8
FREECADS_COM
 10
19040.03364845127
 20
41033.99975361172
 11
19040.03364845127
 21
41018.18187275248
  0
LINE
  8
FREECADS_COM
 10
19027.6922601799
 20
41033.99975361172
 11
19027.6922601799
 21
41018.18187275248
  0
LINE
  8
FREECADS_COM
 10
19010.05984858946
 20
41033.99975361172
 11
19027.6922601799
 21
41033.99975361172
  0
LINE
  8
FREECADS_COM
 10
19027.6922601799
 20
41033.99975361172
 11
19027.6922601799
 21
41018.18187275248
  0
LINE
  8
FREECADS_COM
 10
19027.6922601799
 20
41018.18187275248
 11
19010.05984858946
 21
41018.18187275248
  0
LINE
  8
FREECADS_COM
 10
19010.05984858946
 20
41033.99975361172
 11
19010.05984858946
 21
41018.18187275248
  0
LINE
  8
FREECADS_COM
 10
19007.48349518747
 20
41033.99975361172
 11
19007.48349518747
 21
41018.18187275248
  0
LINE
  8
FREECADS_COM
 10
18989.85108359704
 20
41033.99975361172
 11
19007.48349518747
 21
41033.99975361172
  0
LINE
  8
FREECADS_COM
 10
19007.48349518747
 20
41033.99975361172
 11
19007.48349518747
 21
41018.18187275248
  0
LINE
  8
FREECADS_COM
 10
19007.48349518747
 20
41018.18187275248
 11
18989.85108359704
 21
41018.18187275248
  0
LINE
  8
FREECADS_COM
 10
18989.85108359704
 20
41033.99975361172
 11
18989.85108359704
 21
41018.18187275248
  0
LINE
  8
FREECADS_COM
 10
18987.27473019504
 20
41033.99975361172
 11
18987.27473019504
 21
41018.18187275248
  0
LINE
  8
FREECADS_COM
 10
18969.64231860461
 20
41033.99975361172
 11
18987.27473019504
 21
41033.99975361172
  0
LINE
  8
FREECADS_COM
 10
18987.27473019504
 20
41033.99975361172
 11
18987.27473019504
 21
41018.18187275248
  0
LINE
  8
FREECADS_COM
 10
18987.27473019504
 20
41018.18187275248
 11
18969.64231860461
 21
41018.18187275248
  0
LINE
  8
FREECADS_COM
 10
18969.64231860461
 20
41033.99975361172
 11
18969.64231860461
 21
41018.18187275248
  0
LINE
  8
FREECADS_COM
 10
18967.06596520262
 20
41033.99975361172
 11
18967.06596520262
 21
41018.18187275248
  0
LINE
  8
FREECADS_COM
 10
18949.43355361218
 20
41033.99975361172
 11
18967.06596520262
 21
41033.99975361172
  0
LINE
  8
FREECADS_COM
 10
18967.06596520262
 20
41033.99975361172
 11
18967.06596520262
 21
41018.18187275248
  0
LINE
  8
FREECADS_COM
 10
18967.06596520262
 20
41018.18187275248
 11
18949.43355361218
 21
41018.18187275248
  0
LINE
  8
FREECADS_COM
 10
18949.43355361218
 20
41033.99975361172
 11
18949.43355361218
 21
41018.18187275248
  0
LINE
  8
FREECADS_COM
 10
18936.71898849402
 20
41034.04477060551
 11
18936.71898849402
 21
41018.22688974628
  0
LINE
  8
FREECADS_COM
 10
18919.08657690359
 20
41034.04477060551
 11
18936.71898849402
 21
41034.04477060551
  0
LINE
  8
FREECADS_COM
 10
18936.71898849402
 20
41034.04477060551
 11
18936.71898849402
 21
41018.22688974628
  0
LINE
  8
FREECADS_COM
 10
18936.71898849402
 20
41018.22688974628
 11
18919.08657690359
 21
41018.22688974628
  0
LINE
  8
FREECADS_COM
 10
18919.08657690359
 20
41034.04477060551
 11
18919.08657690359
 21
41018.22688974628
  0
LINE
  8
FREECADS_COM
 10
18916.51022350159
 20
41034.04477060551
 11
18916.51022350159
 21
41018.22688974628
  0
LINE
  8
FREECADS_COM
 10
18898.87781191116
 20
41034.04477060551
 11
18916.51022350159
 21
41034.04477060551
  0
LINE
  8
FREECADS_COM
 10
18916.51022350159
 20
41034.04477060551
 11
18916.51022350159
 21
41018.22688974628
  0
LINE
  8
FREECADS_COM
 10
18916.51022350159
 20
41018.22688974628
 11
18898.87781191116
 21
41018.22688974628
  0
LINE
  8
FREECADS_COM
 10
18898.87781191116
 20
41034.04477060551
 11
18898.87781191116
 21
41018.22688974628
  0
LINE
  8
FREECADS_COM
 10
18896.30145850917
 20
41033.99975361172
 11
18896.30145850917
 21
41018.18187275248
  0
LINE
  8
FREECADS_COM
 10
18878.66904691873
 20
41033.99975361172
 11
18896.30145850917
 21
41033.99975361172
  0
LINE
  8
FREECADS_COM
 10
18896.30145850917
 20
41033.99975361172
 11
18896.30145850917
 21
41018.18187275248
  0
LINE
  8
FREECADS_COM
 10
18896.30145850917
 20
41018.18187275248
 11
18878.66904691873
 21
41018.18187275248
  0
LINE
  8
FREECADS_COM
 10
18878.66904691873
 20
41033.99975361172
 11
18878.66904691873
 21
41018.18187275248
  0
LINE
  8
FREECADS_COM
 10
18876.09269351675
 20
41033.99975361172
 11
18876.09269351675
 21
41018.18187275248
  0
LINE
  8
FREECADS_COM
 10
18858.46028192631
 20
41033.99975361172
 11
18876.09269351675
 21
41033.99975361172
  0
LINE
  8
FREECADS_COM
 10
18876.09269351675
 20
41033.99975361172
 11
18876.09269351675
 21
41018.18187275248
  0
LINE
  8
FREECADS_COM
 10
18876.09269351675
 20
41018.18187275248
 11
18858.46028192631
 21
41018.18187275248
  0
LINE
  8
FREECADS_COM
 10
18858.46028192631
 20
41033.99975361172
 11
18858.46028192631
 21
41018.18187275248
  0
LINE
  8
FREECADS_COM
 10
18845.26433089658
 20
41033.87339174206
 11
18845.26433089658
 21
41018.05551088283
  0
LINE
  8
FREECADS_COM
 10
18827.63191930614
 20
41033.87339174206
 11
18845.26433089658
 21
41033.87339174206
  0
LINE
  8
FREECADS_COM
 10
18845.26433089658
 20
41033.87339174206
 11
18845.26433089658
 21
41018.05551088283
  0
LINE
  8
FREECADS_COM
 10
18845.26433089658
 20
41018.05551088283
 11
18827.63191930614
 21
41018.05551088283
  0
LINE
  8
FREECADS_COM
 10
18827.63191930614
 20
41033.87339174206
 11
18827.63191930614
 21
41018.05551088283
  0
LINE
  8
FREECADS_COM
 10
18825.05556590416
 20
41033.87339174206
 11
18825.05556590416
 21
41018.05551088283
  0
LINE
  8
FREECADS_COM
 10
18807.42315431371
 20
41033.87339174206
 11
18825.05556590416
 21
41033.87339174206
  0
LINE
  8
FREECADS_COM
 10
18825.05556590416
 20
41033.87339174206
 11
18825.05556590416
 21
41018.05551088283
  0
LINE
  8
FREECADS_COM
 10
18825.05556590416
 20
41018.05551088283
 11
18807.42315431371
 21
41018.05551088283
  0
LINE
  8
FREECADS_COM
 10
18807.42315431371
 20
41033.87339174206
 11
18807.42315431371
 21
41018.05551088283
  0
LINE
  8
FREECADS_COM
 10
18804.84680091173
 20
41033.87339174206
 11
18804.84680091173
 21
41018.05551088283
  0
LINE
  8
FREECADS_COM
 10
18787.21438932129
 20
41033.87339174206
 11
18804.84680091173
 21
41033.87339174206
  0
LINE
  8
FREECADS_COM
 10
18804.84680091173
 20
41033.87339174206
 11
18804.84680091173
 21
41018.05551088283
  0
LINE
  8
FREECADS_COM
 10
18804.84680091173
 20
41018.05551088283
 11
18787.21438932129
 21
41018.05551088283
  0
LINE
  8
FREECADS_COM
 10
18787.21438932129
 20
41033.87339174206
 11
18787.21438932129
 21
41018.05551088283
  0
CIRCLE
  8
FREECADS_COM
 10
18770.7699443944
 20
41026.59136148068
 40
2.594901539738203
  0
CIRCLE
  8
FREECADS_COM
 10
18750.97368480006
 20
41026.59136148068
 40
2.594901539738203
  0
CIRCLE
  8
FREECADS_COM
 10
18731.12198750208
 20
41026.59136148068
 40
2.594901539738203
  0
LINE
  8
FREECADS_COM
 10
18654.70718407389
 20
41450.99658926663
 11
18612.58792439341
 21
41450.62473744577
  0
LINE
  8
FREECADS_COM
 10
19224.90664775299
 20
41450.53898128618
 11
19182.78749388162
 21
41450.92263082375
  0
ARC
  8
FREECADS_COM
 10
18740.15104773116
 20
41688.80795990218
 40
59.81700655430935
 50
126.2639734365023
 51
177.3892097965648
  0
ARC
  8
FREECADS_COM
 10
18725.24713470844
 20
41404.18877875752
 40
57.02828384781509
 50
177.572914562979
 51
267.8185101812356
  0
LINE
  8
FREECADS_COM
 10
18668.27000303235
 20
41406.60380635875
 11
18670.35860477587
 21
41455.67981868008
  0
ARC
  8
FREECADS_COM
 10
19097.90166389921
 20
41688.75785638947
 40
59.81700655430935
 50
2.59474467223188
 51
54.06118313202204
  0
LINE
  8
FREECADS_COM
 10
18723.07636165916
 20
41347.20182663206
 11
19114.88066439615
 21
41347.14695384926
  0
LINE
  8
FREECADS_COM
 10
18643.82551906379
 20
41681.28512500255
 11
18653.20739013363
 21
41683.58088501691
  0
ARC
  8
FREECADS_COM
 10
18708.71687669079
 20
41456.73487117093
 40
233.5388943265522
 50
97.11894153623317
 51
103.7501536338372
  0
ARC
  8
FREECADS_COM
 10
18651.40857931932
 20
41650.2960680015
 40
31.90336395057268
 50
103.7501536338372
 51
164.5790260785183
  0
ARC
  8
FREECADS_COM
 10
18669.0453418404
 20
41656.17478577815
 40
12.1111611871477
 50
357.6387662390475
 51
99.61074480896919
  0
ARC
  8
FREECADS_COM
 10
18612.5183461811
 20
41637.18578770081
 40
19.5629849837349
 50
101.3842717279211
 51
176.067458907698
  0
ARC
  8
FREECADS_COM
 10
19429.85151861075
 20
41540.9250185358
 40
842.5226045674606
 50
173.3475956175352
 51
184.9047401492778
  0
ARC
  8
FREECADS_COM
 10
18610.48061184787
 20
41470.65857255126
 40
20.14436301464806
 50
185.036535479519
 51
276.0047367334378
  0
ARC
  8
FREECADS_COM
 10
18656.62360588523
 20
41473.08712385558
 40
22.17350121063802
 50
265.04181971894
 51
0.9316414197416031
  0
ARC
  8
FREECADS_COM
 10
24193.94839535809
 20
41493.39184920428
 40
5515.190104441233
 50
178.3138261636973
 51
180.2071819236217
  0
LINE
  8
FREECADS_COM
 10
18679.17394829397
 20
41662.81493745719
 11
18680.39613719476
 21
41691.53269632087
  0
ARC
  8
FREECADS_COM
 10
18918.68996578243
 20
41041.32219045172
 40
800.8233571974639
 50
71.98827136094877
 51
107.9956762766005
  0
ARC
  8
FREECADS_COM
 10
18675.27414896833
 20
41792.61445410676
 40
11.09852238557422
 50
111.0958991401875
 51
214.6187404800251
  0
ARC
  8
FREECADS_COM
 10
18917.81913427426
 20
41943.8474164616
 40
296.9180926064732
 50
212.0445241423954
 51
226.7543747104004
  0
ARC
  8
FREECADS_COM
 10
18724.80434740523
 20
41738.71523945058
 40
15.25541724323925
 50
226.9602912546426
 51
245.5958067038882
  0
ARC
  8
FREECADS_COM
 10
18918.69309650834
 20
41061.21845638737
 40
693.1432534887705
 50
73.19676404989522
 51
106.7871699264308
  0
LINE
  8
FREECADS_COM
 10
18898.50671565229
 20
41876.94136541137
 11
18904.1386089931
 21
41876.94057665622
  0
LINE
  8
FREECADS_COM
 10
18894.70546284115
 20
41880.50132202789
 11
18898.50671565229
 21
41876.94136541137
  0
LINE
  8
FREECADS_COM
 10
18894.71286819601
 20
41933.37726070017
 11
18894.70546284115
 21
41880.50132202789
  0
LINE
  8
FREECADS_COM
 10
18898.51511801258
 20
41936.9361524347
 11
18894.71286819601
 21
41933.37726070017
  0
LINE
  8
FREECADS_COM
 10
18904.40677552914
 20
41906.20806010678
 11
18904.05389043832
 21
41867.69449582275
  0
LINE
  8
FREECADS_COM
 10
18932.72400119475
 20
41906.20409423668
 11
18933.06609850656
 21
41867.6904326193
  0
LINE
  8
FREECADS_COM
 10
18938.61586315095
 20
41876.93574806484
 11
18932.98396981015
 21
41876.93653681999
  0
LINE
  8
FREECADS_COM
 10
18942.41811296752
 20
41880.49463979936
 11
18938.61586315095
 21
41876.93574806484
  0
LINE
  8
FREECADS_COM
 10
18942.42551832238
 20
41933.37057847165
 11
18942.41811296752
 21
41880.49463979936
  0
LINE
  8
FREECADS_COM
 10
18938.62426551125
 20
41936.93053508817
 11
18942.42551832238
 21
41933.37057847165
  0
ARC
  8
FREECADS_COM
 10
18952.7677042975
 20
41906.12796307237
 40
20.04384831659595
 50
153.2765383220135
 51
179.7824261189463
  0
LINE
  8
FREECADS_COM
 10
18938.62426551125
 20
41936.93053508817
 11
18934.0547861147
 21
41936.93117505064
  0
LINE
  8
FREECADS_COM
 10
18898.51511801258
 20
41936.9361524347
 11
18903.08459740914
 21
41936.93551247221
  0
ARC
  8
FREECADS_COM
 10
18884.36305037415
 20
41906.13754324719
 40
20.04384831659595
 50
0.2015351772153264
 51
26.70740931705868
  0
ARC
  8
FREECADS_COM
 10
18918.5680368844
 20
41925.11848848973
 40
19.10828890055955
 50
328.5244701770736
 51
211.4594774593613
  0
LINE
  8
FREECADS_COM
 10
18590.04741447559
 20
41645.02582327599
 11
18594.59476283465
 21
41645.025186413
  0
LINE
  8
FREECADS_COM
 10
18606.67013077247
 20
41655.85417509873
 11
18606.67264678768
 21
41673.81910307693
  0
LINE
  8
FREECADS_COM
 10
18590.04741447559
 20
41645.02582327599
 11
18590.05161007081
 21
41674.98333913492
  0
LINE
  8
FREECADS_COM
 10
18607.68617020682
 20
41656.14259319424
 11
18607.68863633429
 21
41673.75131108713
  0
LINE
  8
FREECADS_COM
 10
18622.21774230019
 20
41669.44411870234
 11
18622.21686322615
 21
41663.16732771438
  0
LINE
  8
FREECADS_COM
 10
18618.42085180071
 20
41704.000644748
 11
18622.22208341474
 21
41700.44067602279
  0
LINE
  8
FREECADS_COM
 10
18611.97342676922
 20
41672.87678177252
 11
18625.1758773955
 21
41668.45290368662
  0
LINE
  8
FREECADS_COM
 10
18620.72770599518
 20
41699.80683970535
 11
18664.42776140148
 21
41686.03574676482
  0
LINE
  8
FREECADS_COM
 10
18589.03141545456
 20
41645.02596556818
 11
18589.03568511512
 21
41675.51232511101
  0
LINE
  8
FREECADS_COM
 10
18588.01527414047
 20
41644.01010278321
 11
18589.03141545456
 21
41645.02596556818
  0
LINE
  8
FREECADS_COM
 10
18578.30329437025
 20
41644.0114629606
 11
18588.01527414047
 21
41644.01010278321
  0
LINE
  8
FREECADS_COM
 10
18574.5020385329
 20
41647.5714316892
 11
18578.30329437025
 21
41644.0114629606
  0
LINE
  8
FREECADS_COM
 10
18574.50944388606
 20
41700.44735824982
 11
18574.5020385329
 21
41647.5714316892
  0
LINE
  8
FREECADS_COM
 10
18578.31169673225
 20
41704.00626209559
 11
18574.50944388606
 21
41700.44735824982
  0
ARC
  8
FREECADS_COM
 10
18626.99394368892
 20
41718.84601862451
 40
20.04384831659595
 50
225.27654033972
 51
251.7824281278974
  0
LINE
  8
FREECADS_COM
 10
18578.31169673225
 20
41704.00626209559
 11
18582.88118521256
 21
41704.00562213184
  0
LINE
  8
FREECADS_COM
 10
18618.42085180071
 20
41704.000644748
 11
18613.85136332041
 21
41704.00128471175
  0
ARC
  8
FREECADS_COM
 10
18605.84663642731
 20
41653.79228570041
 40
20.04384831659595
 50
72.20153718683356
 51
98.70741131020482
  0
ARC
  8
FREECADS_COM
 10
18598.36460746483
 20
41692.18858604012
 40
19.10828890055955
 50
40.5244721974117
 51
283.45948309434
  0
LINE
  8
FREECADS_COM
 10
18712.62859951598
 20
41268.51497195858
 11
18729.24979895984
 21
41268.51264413456
  0
LINE
  8
FREECADS_COM
 10
18729.24979895984
 20
41268.51264413456
 11
18729.25399455592
 21
41298.47016604932
  0
LINE
  8
FREECADS_COM
 10
18712.62859951598
 20
41268.51497195858
 11
18712.63279511205
 21
41298.47249387333
  0
LINE
  8
FREECADS_COM
 10
18730.26579798089
 20
41268.51250184236
 11
18730.27006764232
 21
41298.99886744102
  0
LINE
  8
FREECADS_COM
 10
18731.28165470974
 20
41267.49636052883
 11
18730.26579798089
 21
41268.51250184236
  0
LINE
  8
FREECADS_COM
 10
18740.99363447994
 20
41267.49500035143
 11
18731.28165470974
 21
41267.49636052883
  0
LINE
  8
FREECADS_COM
 10
18744.79588732443
 20
41271.05389208554
 11
18740.99363447994
 21
41267.49500035143
  0
LINE
  8
FREECADS_COM
 10
18744.80335693011
 20
41324.38859635554
 11
18744.79588732443
 21
41271.05389208554
  0
LINE
  8
FREECADS_COM
 10
18743.51777560724
 20
41322.65281161063
 11
18761.69564886437
 21
41347.19641794271
  0
LINE
  8
FREECADS_COM
 10
18720.61099169499
 20
41339.30047390973
 11
18726.24480921779
 21
41347.2013828862
  0
LINE
  8
FREECADS_COM
 10
18711.61260049494
 20
41268.51511425077
 11
18711.61687015637
 21
41299.00147984943
  0
LINE
  8
FREECADS_COM
 10
18710.5964591817
 20
41267.49925752162
 11
18711.61260049494
 21
41268.51511425077
  0
LINE
  8
FREECADS_COM
 10
18700.88447941149
 20
41267.50061769902
 11
18710.5964591817
 21
41267.49925752162
  0
LINE
  8
FREECADS_COM
 10
18697.08322357244
 20
41271.06057431596
 11
18700.88447941149
 21
41267.50061769902
  0
LINE
  8
FREECADS_COM
 10
18697.0906289273
 20
41323.93651298826
 11
18697.08322357244
 21
41271.06057431596
  0
LINE
  8
FREECADS_COM
 10
18700.89288177179
 20
41327.49540472235
 11
18697.0906289273
 21
41323.93651298826
  0
ARC
  8
FREECADS_COM
 10
18704.44004235928
 20
41351.14344046986
 40
20.04384831659595
 50
297.2765425550712
 51
323.7824132708939
  0
LINE
  8
FREECADS_COM
 10
18700.89288177179
 20
41327.49540472235
 11
18705.92961401426
 21
41327.49469932041
  0
ARC
  8
FREECADS_COM
 10
18759.77492815497
 20
41310.92845461424
 40
20.04384831659595
 50
144.2015391780416
 51
170.7073996526572
  0
ARC
  8
FREECADS_COM
 10
18720.94580461774
 20
41315.67774077683
 40
19.10828890055955
 50
112.5244741853647
 51
355.4594850989348
  0
LINE
  8
FREECADS_COM
 10
18622.22208341474
 20
41700.44067602279
 11
18622.22192869745
 21
41699.33595906483
  0
LINE
  8
FREECADS_COM
 10
19215.34246330527
 20
41700.35760862013
 11
19215.34230858798
 21
41699.25289166217
  0
ARC
  8
FREECADS_COM
 10
19116.51097271984
 20
41315.62234127918
 40
19.10828890055955
 50
184.5244625358154
 51
67.45948710999913
  0
ARC
  8
FREECADS_COM
 10
19077.68052041649
 20
41310.88393145716
 40
20.04384831659595
 50
9.276541153700856
 51
35.78240846059782
  0
LINE
  8
FREECADS_COM
 10
19136.56720494235
 20
41327.43438787711
 11
19131.53047269987
 21
41327.43509327905
  0
ARC
  8
FREECADS_COM
 10
19133.02666837992
 20
41351.08341626728
 40
20.04384831659595
 50
216.2015411974777
 51
242.7074016672012
  0
LINE
  8
FREECADS_COM
 10
19136.56720494235
 20
41327.43438787711
 11
19140.3684607814
 21
41323.87443126016
  0
LINE
  8
FREECADS_COM
 10
19140.3684607814
 20
41323.87443126016
 11
19140.36105542654
 21
41270.99849258787
  0
LINE
  8
FREECADS_COM
 10
19140.36105542654
 20
41270.99849258787
 11
19136.55880258205
 21
41267.43960085378
  0
LINE
  8
FREECADS_COM
 10
19136.55880258205
 20
41267.43960085378
 11
19126.84682281184
 21
41267.44096103118
  0
LINE
  8
FREECADS_COM
 10
19126.84682281184
 20
41267.44096103118
 11
19125.83096608299
 21
41268.45710234471
  0
LINE
  8
FREECADS_COM
 10
19125.83096608299
 20
41268.45710234471
 11
19125.83523574442
 21
41298.94346794337
  0
LINE
  8
FREECADS_COM
 10
19116.85240242804
 20
41339.24497970327
 11
19111.22079819462
 21
41347.14746641902
  0
LINE
  8
FREECADS_COM
 10
19093.94095635412
 20
41322.6037343163
 11
19075.76995854804
 21
41347.15243136252
  0
LINE
  8
FREECADS_COM
 10
19092.65586128021
 20
41324.33987908831
 11
19092.64839167454
 21
41271.00517481831
  0
LINE
  8
FREECADS_COM
 10
19092.64839167454
 20
41271.00517481831
 11
19096.44964751359
 21
41267.44521820137
  0
LINE
  8
FREECADS_COM
 10
19096.44964751359
 20
41267.44521820137
 11
19106.16162728381
 21
41267.44385802397
  0
LINE
  8
FREECADS_COM
 10
19106.16162728381
 20
41267.44385802397
 11
19107.17776859704
 21
41268.45971475311
  0
LINE
  8
FREECADS_COM
 10
19107.17776859704
 20
41268.45971475311
 11
19107.18203825846
 21
41298.94608035176
  0
LINE
  8
FREECADS_COM
 10
19124.81496706195
 20
41268.45724463691
 11
19124.81916265802
 21
41298.41476655166
  0
LINE
  8
FREECADS_COM
 10
19108.19376761808
 20
41268.45957246092
 11
19108.19796321415
 21
41298.41709437568
  0
LINE
  8
FREECADS_COM
 10
19124.81496706195
 20
41268.45724463691
 11
19108.19376761808
 21
41268.45957246092
  0
ARC
  8
FREECADS_COM
 10
19239.19762688403
 20
41692.09883641041
 40
19.10828890055955
 50
256.5244645424054
 51
139.4594754406812
  0
ARC
  8
FREECADS_COM
 10
19231.70484329588
 20
41653.70463331576
 40
20.04384831659595
 50
81.27653632745113
 51
107.7824104503455
  0
LINE
  8
FREECADS_COM
 10
19219.14469192812
 20
41703.91651246929
 11
19223.71418040843
 21
41703.91587250554
  0
LINE
  8
FREECADS_COM
 10
19259.25384699657
 20
41703.9108951217
 11
19254.68435851626
 21
41703.91153508545
  0
ARC
  8
FREECADS_COM
 10
19210.57575861009
 20
41718.76428711224
 40
20.04384831659595
 50
288.2015365842645
 51
314.7074107120095
  0
LINE
  8
FREECADS_COM
 10
19259.25384699657
 20
41703.9108951217
 11
19263.05510283393
 21
41700.3509263931
  0
LINE
  8
FREECADS_COM
 10
19263.05510283393
 20
41700.3509263931
 11
19263.04769748076
 21
41647.47499983246
  0
LINE
  8
FREECADS_COM
 10
19263.04769748076
 20
41647.47499983246
 11
19259.24544463459
 21
41643.91609598671
  0
LINE
  8
FREECADS_COM
 10
19259.24544463459
 20
41643.91609598671
 11
19249.53346486437
 21
41643.9174561641
  0
LINE
  8
FREECADS_COM
 10
19249.53346486437
 20
41643.9174561641
 11
19248.51760813637
 21
41644.93360353346
  0
LINE
  8
FREECADS_COM
 10
19248.51760813637
 20
41644.93360353346
 11
19248.52187779695
 21
41675.4199630763
  0
LINE
  8
FREECADS_COM
 10
19216.83666312673
 20
41699.72335374794
 11
19173.1327521102
 21
41685.96450186458
  0
LINE
  8
FREECADS_COM
 10
19225.58339881906
 20
41672.79084477161
 11
19212.37970956913
 21
41668.37066490537
  0
LINE
  8
FREECADS_COM
 10
19219.14469192812
 20
41703.91651246929
 11
19215.34246330527
 21
41700.35760862013
  0
LINE
  8
FREECADS_COM
 10
19215.33812219073
 20
41669.36105129967
 11
19215.33724311669
 21
41663.08426031171
  0
LINE
  8
FREECADS_COM
 10
19229.86596791674
 20
41656.05545597635
 11
19229.86843404421
 21
41673.66417386922
  0
LINE
  8
FREECADS_COM
 10
19247.50160911533
 20
41644.93374582567
 11
19247.50580471055
 21
41674.89126168458
  0
LINE
  8
FREECADS_COM
 10
19230.88192652446
 20
41655.76675329645
 11
19230.88444253969
 21
41673.73168127464
  0
LINE
  8
FREECADS_COM
 10
19247.50160911533
 20
41644.93374582567
 11
19242.95426075625
 21
41644.93438268865
  0
LINE
  8
FREECADS_COM
 10
19158.38006157766
 20
41662.74782391915
 11
19157.16591665544
 21
41691.46592399506
  0
ARC
  8
FREECADS_COM
 10
13643.55837493524
 20
41494.86944721943
 40
5515.190104441233
 50
359.7767588826265
 51
1.670114643276754
  0
ARC
  8
FREECADS_COM
 10
19180.87725977062
 20
41473.01370134163
 40
22.17350121063802
 50
179.0523062172886
 51
274.9421309070992
  0
ARC
  8
FREECADS_COM
 10
19227.01957175333
 20
41470.57222534119
 40
20.14436301464806
 50
263.9792062077578
 51
354.9474053284789
  0
ARC
  8
FREECADS_COM
 10
18407.66837897625
 20
41541.06817682429
 40
842.5226045674606
 50
355.0792211489822
 51
6.636345188549647
  0
ARC
  8
FREECADS_COM
 10
19225.02848227378
 20
41637.10000473358
 40
19.5629849837349
 50
3.916481898850298
 51
78.59967590944237
  0
ARC
  8
FREECADS_COM
 10
19168.50680770745
 20
41656.10483544748
 40
12.1111611871477
 50
80.37320282833021
 51
182.3451950590561
  0
ARC
  8
FREECADS_COM
 10
19186.14192289013
 20
41650.22117779122
 40
31.90336395057268
 50
15.40492838870001
 51
76.23380766439199
  0
ARC
  8
FREECADS_COM
 10
19128.77941069348
 20
41456.67604078027
 40
233.5388943265522
 50
76.23380766439199
 51
82.86500610126177
  0
LINE
  8
FREECADS_COM
 10
19193.73366297624
 20
41681.20810953863
 11
19184.35243532372
 21
41683.50649735322
  0
LINE
  8
FREECADS_COM
 10
19169.21224090322
 20
41406.53364864372
 11
19167.13738558027
 21
41455.61024406351
  0
ARC
  8
FREECADS_COM
 10
19112.23443500578
 20
41404.13458060317
 40
57.02828384781509
 50
272.165428918132
 51
2.411026244345152
  0
ARC
  8
FREECADS_COM
 10
19112.77092415926
 20
41738.66090414707
 40
15.25541724323925
 50
294.3881580086187
 51
313.0236597978702
  0
ARC
  8
FREECADS_COM
 10
18919.81362325085
 20
41943.84713713041
 40
296.9180683831456
 50
313.2295695111968
 51
327.9394371554984
  0
ARC
  8
FREECADS_COM
 10
19162.31621798526
 20
41792.54624313131
 40
11.09852238557422
 50
325.3651593462014
 51
68.88804849624209
  0
ARC
  8
FREECADS_COM
 10
18918.68996578243
 20
41041.32219045172
 40
794.4733571959766
 50
71.98827136094877
 51
107.9956762766005
  0
ARC
  8
FREECADS_COM
 10
18677.23594984164
 20
41786.57509781482
 40
11.09852238557422
 50
111.0958991401875
 51
181.3726034423921
  0
ARC
  8
FREECADS_COM
 10
19160.35272554706
 20
41786.50743658264
 40
11.09852238557422
 50
358.6112963842086
 51
68.88804849624209
  0
LINE
  8
FREECADS_COM
 10
18628.61129278317
 20
40904.85848234576
 11
18628.61129278317
 21
40934.84515668846
  0
LINE
  8
FREECADS_COM
 10
19259.5130095723
 20
40934.84515668846
 11
19259.5130095723
 21
40904.85848234576
  0
LINE
  8
FREECADS_COM
 10
19244.5130095723
 20
40889.85848234576
 11
18643.61129278317
 21
40889.85848234576
  0
LINE
  8
FREECADS_COM
 10
18900.48439434097
 20
40889.85848234576
 11
18987.63990801451
 21
40889.85848234576
  0
LINE
  8
FREECADS_COM
 10
18987.63990801451
 20
40889.85848234576
 11
18987.63990801451
 21
40862.68559631619
  0
LINE
  8
FREECADS_COM
 10
18987.63990801451
 20
40862.68559631619
 11
18900.48439434097
 21
40862.68559631619
  0
LINE
  8
FREECADS_COM
 10
18900.48439434097
 20
40862.68559631619
 11
18900.48439434097
 21
40889.85848234576
  0
LINE
  8
FREECADS_COM
 10
18628.61129278317
 20
40934.84515668846
 11
19259.51112091306
 21
40934.84515668846
  0
LINE
  8
FREECADS_COM
 10
19259.51112091306
 20
40934.84515668846
 11
19259.51112091306
 21
40945.47582271426
  0
LINE
  8
FREECADS_COM
 10
19259.51112091306
 20
40945.47582271426
 11
18628.61129278317
 21
40945.47582271426
  0
LINE
  8
FREECADS_COM
 10
18628.61129278317
 20
40945.47582271426
 11
18628.61129278317
 21
40934.84515668846
  0
LINE
  8
FREECADS_COM
 10
18884.09516492251
 20
41054.95502556791
 11
18854.75684334707
 21
41054.95502556791
  0
LINE
  8
FREECADS_COM
 10
18854.75684334707
 20
41054.95502556791
 11
18854.75684334707
 21
41070.78492328381
  0
LINE
  8
FREECADS_COM
 10
18854.75684334707
 20
41070.78492328381
 11
18884.09516492251
 21
41070.78492328381
  0
LINE
  8
FREECADS_COM
 10
18884.09516492251
 20
41070.78492328381
 11
18884.09516492251
 21
41054.95502556791
  0
LINE
  8
FREECADS_COM
 10
18667.0233489633
 20
41668.11596449556
 11
18608.65682994576
 21
41656.36387663621
  0
LINE
  8
FREECADS_COM
 10
18944.63735366503
 20
41841.72508650611
 11
18940.84181385248
 21
41867.68934361866
  0
LINE
  8
FREECADS_COM
 10
18940.84181385248
 20
41867.68934361866
 11
18896.76959222135
 21
41867.69551599968
  0
LINE
  8
FREECADS_COM
 10
18896.76959222135
 20
41867.69551599968
 11
18892.95907077994
 21
41841.73205767087
  0
LINE
  8
FREECADS_COM
 10
19170.53214526528
 20
41668.04544733016
 11
19228.89537019803
 21
41656.27701129433
  0
LINE
  8
FREECADS_COM
 10
19618.97851313938
 20
40605.19279105829
 11
18218.97851311145
 21
40605.19279105829
  0
LINE
  8
FREECADS_COM
 10
18218.97851311145
 20
40605.19279105829
 11
18218.97851294387
 21
41205.19279118921
  0
LINE
  8
FREECADS_COM
 10
18218.97851294387
 20
41205.19279118921
 11
19618.97851313938
 21
41205.19279106702
  0
LINE
  8
FREECADS_COM
 10
19618.97851313938
 20
41205.19279106702
 11
19618.97851313938
 21
40605.19279105829
  0
ENDSEC
  0
EOF
